<?xml version="1.0" encoding="UTF-8"?>
<svg id="Layer_1" xmlns="http://www.w3.org/2000/svg" version="1.1" viewBox="0 0 400 370">
  <!-- Generator: Adobe Illustrator 30.2.1, SVG Export Plug-In . SVG Version: 2.1.1 Build 1)  -->
  <defs>
    <style>
      .st0 {
        fill: #471b19;
      }

      .st1 {
        fill: #ffae9f;
      }

      .st2 {
        fill: #fff;
      }

      .st3 {
        fill: #003237;
      }

      .st4 {
        fill: #e2e100;
      }
    </style>
  </defs>
  <path class="st1" d="M387.31,104l-.04-.07c-1.38-2.23-5.56-8.98-14.33-13.76-4.69-2.81-9.47-5.07-14.21-6.73-5.16-1.9-10.27-3.25-12.49-3.83-.73-.22-2.07-.62-3.7-.99l-.24-.06c-1.66-.43-3.18-.81-4.83-1.12-1.87-.46-6.26-1.63-7.81-2.07-2.98-1.02-5.48-1.51-7-1.8,0,0-.31-.06-.45-.09-5.25-1.07-9.56-1.21-12.73-1.21-.5,0-1.01,0-1.42,0-2.85.03-5.57.26-8.29.69-.93.1-2.58.3-4.54.71-.71.09-1.56.18-1.97.23-1.76.1-4.67.4-7.37.88-.16.01-.32.03-.48.05-2.04.21-3.58.43-4.53.58-1.81-2.06-3.07-3.47-4.01-4.52l-.75-.84c-.92-1.02-1.86-2.05-2.8-3.08l-.19-.2c-.5-.54-.99-1.08-1.48-1.62-1.19-1.32-2.33-2.46-3.25-3.39l-.21-.21c-.26-.26-.51-.51-.78-.8-2.79-2.93-5.52-5.44-7.93-7.66l-.62-.57c-2.51-2.31-5.41-4.68-8.83-7.24-2.47-1.85-5.06-3.58-7.68-5.13-3.35-1.97-6.81-3.69-10.3-5.1-.34-.14-.59-.23-.81-.32,0,0-8.67-3.36-9.2-3.56-.59-.23-1.59-.62-3.35-1.23-.01,0-.21-.07-.21-.07-2.98-1-6.02-1.79-9.04-2.37-1.23-.88-2.52-1.67-3.85-2.38-1.31-.7-2.67-1.31-4.04-1.84-1.09-.42-2.12-.8-3.24-1.22-1.22-.46-2.24-.84-3.48-1.31l-1.99-.74c-.6-.23-1.36-.5-2.08-.76l-.18-.06c-4.47-1.53-8.88-2.55-13.47-3.09-2.63-.32-5.28-.47-7.87-.47-2.88,0-5.73.2-8.45.58-2.25.32-4.16.72-5.8,1.09-2.08.46-3.86.94-5.58,1.49-2.58.81-5.15,1.79-8.07,3.06-6.23,2.59-13.49,7.5-15.05,8.58-3.5,2.34-6.34,4.65-8.67,6.6-3.38,2.75-9.05,8.07-11.32,10.41-2.04,2.05-3.88,4.01-5.64,6-.59.67-1.2,1.34-1.8,2.02l-.1.11c-1.57,1.74-3.18,3.54-4.93,5.61-2.4,2.84-4.55,5.6-6.63,8.28l-.73.94c-.24.31-.49.62-.75.96-1.33,1.7-3.16,4.02-4.99,6.77-.14.2-.62.86-.86,1.18-.77,1.04-1.83,2.47-2.93,4.12-.53.8-1.23,1.78-1.98,2.84-.8,1.12-1.7,2.4-2.63,3.77,0,0-.84,1.26-1.18,1.77-8.96.01-17.34,2.89-24.93,8.58-5.14,3.87-9.18,8.43-12.34,13.93l-.21.37c-1.1,1.9-3.12,5.42-4.78,10.05l-.12.31c-1.54,3.79-5.63,13.85-9.03,24.86-4.03,12.39-6.77,25.17-7.34,27.87-.33,1.41-.82,3.52-1.21,5.94l-.13.71c-.68,3.73-1.13,6.39-1.41,8.76-.4,2.47-.84,6.13-1.62,15.33-.86,10.26-1.01,14.29-.95,17.04-.05,4.32.47,7.98.82,10.4l.07.5c1.76,12.26,6.79,20.61,10.41,25.83,3.21,4.61,6.91,8.47,11.28,11.8,1.34,1.14,4.01,3.41,7.68,5.48,1.38.93,3.65,2.48,4.55,3.09,1.26.86,2.32,1.59,2.83,1.93.13.09.26.17.39.26,1.34.88,5.84,3.71,11.05,5.75.64.33,1.25.64,1.88.94,4.01,1.89,7.11,2.97,8.47,3.43,5.51,2.17,10.78,2.67,13.61,2.76.25.61.53,1.25.82,1.93.15.34.3.68.44.98,4.89,10.56,8.88,15.98,11.26,19.21,0,0,.28.38.4.54.19.26.38.52.58.78,3.08,4.03,6.25,7.34,8.35,9.45,3.07,3.12,6.22,5.49,8.3,7.05l.66.5c5.41,4.13,12.05,7.74,19.72,10.71,7.34,2.88,14.91,4.22,19.93,4.83,3.43.43,7.01.65,10.65.65,1.38,0,2.79-.03,4.19-.09,5.64-.25,11.47-1,17.34-2.23.69-.15,1.17-.25,1.61-.35l1.2-.27c1.66-.38,3.29-.77,4.84-1.16.9-.23,1.77-.45,2.68-.68,1.35-.35,2.74-.72,4.13-1.1l.29-.08c1.17-.32,2.29-.64,3.38-.96,1.41-.41,3.41-1,4.88-1.46l.84-.26c1.06-.33,2.52-.78,5.38-1.77l.24-.08c6.28-2.22,12.88-5.08,19.08-8.27,3.62-1.86,6.57-3.58,9.76-5.46.25-.15.5-.3.76-.45,4.11-.28,8.1-1.27,11.89-2.94.55-.24,1.09-.49,1.59-.75,2.61-1.31,4.91-2.49,7.43-3.83,2.75-1.46,5-2.69,7.77-4.24,1.58-.89,3.17-1.8,4.72-2.7,1.08-.62,2.25-1.32,3.32-1.96,5.24-3.17,10.27-6.57,15.37-10.38,5.68-4.25,11.28-8.9,16.2-13.46,2.3-2.13,4.32-4.11,5.99-5.76,1.91-1.9,3.62-3.64,5.21-5.34,2.77-2.95,5.55-6.08,8.52-9.58,4.13-4.7,11.63-14.95,14.09-18.67,2.56-3.7,4.98-7.53,7.62-12.02,2.74-4.5,7.5-13.56,9.27-17.44,1.44-3.05,2.73-6,3.84-8.77l.17-.42c1.39-3.49,2.83-7.09,4.14-10.94,1.49-4.39,2.56-8.31,3.48-11.88l.16-.62c.57-2.2,1.44-5.51,1.93-9.14.02-.12.11-.61.11-.61.25-1.33.63-3.33.87-5.6.05-.43.11-.93.19-1.49l.02-.18c.18-1.36.43-3.23.6-5.29,0-.02.03-.46.03-.46.17-2.5.3-4.62.4-6.49,1.89-1.99,2.73-2.9,3.39-3.65,6.23-6.93,10.24-14.69,11.92-23.07,2.01-10.07.35-19.76-4.78-28Z"/>
  <path class="st0" d="M379.82,108.66l-.05-.08c-1.09-1.76-4.38-7.08-11.21-10.74-4.25-2.56-8.56-4.61-12.81-6.08-4.81-1.78-9.7-3.07-11.8-3.62l-.13-.03c-.67-.2-1.87-.57-3.36-.9l-.38-.1c-1.62-.42-3-.77-4.47-1.03-1.92-.47-7.11-1.84-8.62-2.29h-.02c-2.47-.87-4.62-1.29-6.05-1.56,0,0-.32-.06-.48-.09-4.47-.92-8.21-1.03-10.96-1.03-.46,0-.91,0-1.32,0-2.48.03-4.84.23-7.2.61-.86.09-2.41.26-4.24.67-.94.12-2.33.28-2.79.32-1.1.05-4.1.32-6.87.84-.24.02-.49.04-.74.07-2.19.23-3.78.47-4.57.6-1.02.12-2.5.35-4.2.8-3.64-4.19-5.81-6.63-7.27-8.26l-.73-.82c-.89-1-1.81-2-2.74-3.01l-.07-.08c-.55-.6-1.09-1.19-1.63-1.78-1.05-1.16-2.06-2.18-2.97-3.1l-.14-.14c-.33-.33-.65-.65-.98-1-2.58-2.71-5.2-5.12-7.51-7.24l-.61-.56c-2.29-2.11-4.97-4.29-8.16-6.68-2.21-1.66-4.52-3.2-6.87-4.58-2.98-1.76-6.03-3.27-9.1-4.51-.37-.15-.62-.24-.83-.33-7.78-3.01-8.95-3.47-9.12-3.53-.56-.22-1.41-.55-2.92-1.07,0,0-.2-.07-.22-.07-3.27-1.1-6.58-1.9-9.86-2.41-1.36-1.12-2.82-2.09-4.37-2.92-.97-.52-1.99-.98-3.03-1.38-1.08-.41-2.09-.79-3.22-1.22-1.2-.45-2.21-.83-3.45-1.29l-1.99-.74c-.56-.21-1.25-.46-1.89-.69l-.16-.05c-3.88-1.33-7.69-2.2-11.65-2.67-2.28-.27-4.58-.41-6.82-.41-2.47,0-4.9.17-7.22.5-1.94.27-3.64.64-5.1.96-1.81.41-3.36.82-4.86,1.29-2.3.73-4.61,1.61-7.27,2.77-5.58,2.3-12.58,7.09-13.54,7.76-3.18,2.12-5.83,4.27-8.01,6.11-3.05,2.47-8.55,7.62-10.64,9.79-1.93,1.94-3.68,3.79-5.32,5.66-.6.68-1.21,1.35-1.84,2.05l-.09.11c-1.53,1.7-3.11,3.46-4.78,5.43-2.29,2.71-4.38,5.4-6.4,8l-.74.95c-.25.32-.51.65-.78.99-1.24,1.58-2.94,3.74-4.59,6.22-.21.31-.68.95-1.1,1.52-.76,1.03-1.7,2.3-2.68,3.77-.61.91-1.33,1.94-2.1,3.02,0,0-.03.04-.03.04-.77,1.09-1.64,2.32-2.54,3.63l-.08.12c-1.45,2.16-2.74,4.08-3.92,5.81-1.46-.21-2.93-.32-4.42-.32-7.03,0-13.64,2.29-19.67,6.81-4.17,3.14-7.44,6.83-10,11.29l-.21.36c-1.04,1.81-2.78,4.82-4.17,8.78l-.2.49c-1.51,3.71-5.5,13.54-8.79,24.2-3.92,12.06-6.58,24.47-7.13,27.1l-.02.08c-.32,1.39-.76,3.29-1.11,5.44l-.15.8c-.66,3.65-1.1,6.24-1.35,8.42-.38,2.27-.8,5.81-1.56,14.84-.84,9.96-.98,13.79-.92,16.25-.06,3.7.4,6.87.73,9.19l.07.5c1.5,10.41,5.81,17.56,8.92,22.04,2.72,3.91,5.86,7.17,9.57,9.96l.14.12c1.24,1.06,3.49,2.99,6.62,4.7,1.36.91,3.91,2.65,4.92,3.34,1.23.84,2.27,1.55,2.78,1.89.09.06.18.12.27.18.97.64,5.2,3.33,9.9,5.1.52.28,1.2.63,1.99,1.01,3.62,1.71,6.31,2.64,7.74,3.12,5.18,2.08,10.27,2.25,11.72,2.25.42,0,.84,0,1.26-.03.8.06,1.88.12,3.12.12.16,0,.32,0,.48-.01.7,1.87,1.59,4.07,2.92,7.18.11.25.22.49.33.74,4.52,9.75,8.17,14.72,10.36,17.69l.04.05c.15.2.28.38.41.56.14.19.28.39.43.58,2.77,3.62,5.69,6.66,7.62,8.62,2.61,2.65,5.33,4.7,7.33,6.19.26.2.52.39.68.51,4.75,3.63,10.68,6.84,17.6,9.53,6.48,2.54,13.28,3.74,17.81,4.29,3.07.39,6.28.58,9.55.58,1.25,0,2.53-.03,3.8-.09,5.16-.23,10.5-.92,15.9-2.05.65-.14,1.1-.24,1.49-.33l1.17-.27c1.6-.37,3.18-.75,4.69-1.12.88-.22,1.72-.43,2.6-.66,1.33-.34,2.68-.71,4-1.07.1-.03.2-.05.3-.08,1.13-.31,2.21-.62,3.27-.92,1.34-.39,3.29-.97,4.66-1.39l.92-.29c1.06-.33,2.38-.73,5.12-1.69l.11-.04c5.92-2.09,12.15-4.8,18.02-7.82,3.39-1.74,6.23-3.4,9.33-5.22.94-.55,1.81-1.09,2.59-1.58.05,0,.1,0,.15,0,3.76,0,7.41-.77,10.85-2.29.39-.17.78-.36,1.17-.55,2.56-1.28,4.79-2.43,7.24-3.73,2.68-1.42,4.88-2.62,7.59-4.14,1.56-.88,3.11-1.77,4.61-2.64,1.04-.6,2.16-1.27,3.18-1.88,5-3.02,9.79-6.26,14.65-9.9,5.43-4.06,10.79-8.51,15.5-12.87,2.19-2.03,4.15-3.94,5.77-5.55,1.85-1.83,3.48-3.5,4.99-5.11,2.68-2.85,5.38-5.89,8.26-9.3,3.78-4.28,11.14-14.31,13.46-17.84,2.46-3.56,4.81-7.25,7.37-11.61,2.54-4.16,7.22-13.06,8.83-16.62,1.38-2.91,2.6-5.71,3.65-8.33l.16-.4c1.35-3.39,2.75-6.89,3.99-10.53,1.4-4.11,2.41-7.85,3.3-11.27l.16-.61c.56-2.16,1.33-5.1,1.75-8.27.04-.23.11-.61.17-.9.24-1.25.56-2.97.76-4.9.06-.55.15-1.21.24-1.91.18-1.34.4-3.02.55-4.8,0-.02.03-.36.03-.38.28-4.14.46-7.11.52-9.57.06-.06.66-.7.66-.7,3.01-3.17,4.09-4.32,4.83-5.16,5.17-5.74,8.48-12.1,9.85-18.91,1.56-7.83.3-15.31-3.62-21.61Z"/>
  <path class="st4" d="M372.32,113.3l-.05-.07c-.8-1.29-3.19-5.16-8.06-7.7-3.82-2.32-7.66-4.15-11.43-5.45-4.43-1.65-9.07-2.87-11.07-3.39l-.28-.07-.15-.04c-.62-.19-1.63-.5-2.86-.76-.09-.02-.55-.14-.55-.14-1.57-.41-2.81-.72-4.05-.93-1.78-.42-7.98-2.06-9.56-2.54-.06-.02-.13-.05-.19-.07-1.88-.65-3.56-.98-4.84-1.23-.18-.04-.36-.07-.56-.11-3.7-.76-6.85-.85-9.19-.85-.42,0-.84,0-1.22,0-2.11.02-4.11.2-6.11.54l-.23.02c-.82.09-2.13.23-3.64.59-1.06.15-3.23.39-3.81.44-.05,0-.1,0-.14,0-.82.04-3.7.3-6.08.78-.34.03-.68.05-1.03.09-1.98.2-3.38.42-4.14.54l-.16.02c-1.34.15-4.07.59-6.87,1.92-.35.12-.78.27-1.25.46-.81-.95-1.75-2.03-3.28-3.81l-.18-.21c-3.86-4.44-6.13-6.99-7.64-8.69l-.73-.82c-.86-.97-1.75-1.93-2.66-2.91-.59-.64-1.17-1.28-1.75-1.91-.91-1.01-1.85-1.95-2.68-2.79l-.07-.07c-.4-.4-.8-.8-1.19-1.21-2.37-2.49-4.87-4.79-7.08-6.82l-.61-.56c-2.07-1.9-4.53-3.91-7.5-6.13-1.95-1.46-3.99-2.82-6.05-4.04-2.61-1.54-5.26-2.85-7.91-3.93-.32-.13-.53-.21-.73-.29-4.06-1.57-9.14-3.54-9.14-3.54-.52-.21-1.24-.49-2.57-.95l-.17-.06c-3.55-1.19-7.15-1.98-10.67-2.35-.1-.01-.2-.02-.3-.03-1.33-1.42-2.89-2.61-4.61-3.53-.65-.34-1.33-.65-2.01-.91-1.07-.41-2.07-.79-3.2-1.21-1.19-.45-2.19-.82-3.41-1.28l-2.01-.75c-.5-.19-1.12-.42-1.74-.63,0,0-.05-.02-.06-.02-3.28-1.12-6.5-1.86-9.84-2.26-1.93-.23-3.87-.35-5.77-.35-2.06,0-4.08.14-6,.41-1.62.23-3.05.53-4.4.83-1.55.35-2.87.7-4.12,1.1-2.02.64-4.08,1.43-6.48,2.48-4.29,1.75-10.41,5.8-12.02,6.93-2.86,1.9-5.32,3.9-7.36,5.62-2.7,2.18-8.07,7.19-9.95,9.16-1.83,1.84-3.47,3.58-5.02,5.33-.63.71-1.27,1.42-1.91,2.14l-.06.07c-1.49,1.65-3.02,3.36-4.6,5.23-2.17,2.57-4.22,5.2-6.19,7.73l-.73.94c-.23.3-.47.6-.71.91l-.09.11c-1.21,1.54-2.73,3.46-4.17,5.64-.33.5-.83,1.18-1.36,1.89-.74,1-1.57,2.13-2.43,3.41-.68,1.03-1.45,2.11-2.27,3.27-.75,1.05-1.6,2.25-2.43,3.48l-.06.09c-1.79,2.68-3.35,4.97-4.73,6.99-1,1.47-1.9,2.8-2.72,4.02-2.62-1.06-5.38-1.6-8.23-1.6-5.07,0-9.9,1.69-14.36,5.03-3.2,2.41-5.71,5.24-7.67,8.65l-.21.36c-.97,1.68-2.42,4.2-3.56,7.49-.05.12-.29.71-.29.71-1.47,3.62-5.37,13.23-8.55,23.54-3.83,11.76-6.39,23.75-6.92,26.32l-.04.18c-.31,1.36-.7,3.04-1.01,4.93-.03.18-.16.89-.16.89-.65,3.59-1.08,6.11-1.29,8.08-.36,2.05-.77,5.48-1.51,14.35-.81,9.65-.95,13.3-.89,15.47-.06,3.08.33,5.8.64,8.01l.07.48c1.23,8.56,4.83,14.51,7.43,18.25,2.23,3.19,4.79,5.85,7.83,8.1.12.1.26.22.38.32,1.12.96,2.95,2.53,5.43,3.83,1.27.84,4.08,2.76,5.35,3.63,1.19.82,2.21,1.51,2.71,1.84.06.04.11.07.17.11,1.71,1.13,5.34,3.24,8.74,4.43.53.29,1.25.68,2.11,1.09,3.35,1.58,5.73,2.38,7.01,2.81h.04c3.87,1.63,7.86,1.71,8.65,1.71.46,0,.91-.02,1.35-.05.72.06,1.79.14,3.03.14.75,0,1.48-.03,2.23-.1,1.58-.14,3.03-.4,4.38-.73,1.36,4.55,2.01,6.58,4.9,13.35.07.17.14.33.22.5,4.15,8.94,7.47,13.46,9.46,16.17.17.24.34.46.5.68.09.13.19.26.29.39,2.46,3.22,5.12,5.99,6.9,7.78,2.14,2.18,4.47,3.92,6.33,5.32,0,0,.55.41.75.56,4.08,3.13,9.3,5.93,15.46,8.32,5.62,2.2,11.66,3.26,15.7,3.75,2.7.34,5.54.51,8.44.51,1.12,0,2.27-.03,3.41-.08,4.69-.21,9.54-.84,14.45-1.87.61-.13,1.03-.22,1.38-.3,0,0,1.12-.25,1.14-.26,1.55-.36,3.08-.72,4.53-1.09.85-.21,1.67-.42,2.52-.64,1.3-.34,2.59-.68,3.88-1.04.08-.02.16-.04.24-.07,1.11-.31,2.17-.61,3.21-.91,1.3-.38,3.19-.94,4.5-1.34l.13-.04c.27-.09.51-.16.79-.25.99-.31,2.23-.69,4.81-1.58,0,0,.06-.02.09-.03,5.55-1.96,11.41-4.5,16.92-7.34,3.19-1.64,5.92-3.23,8.89-4.98,1.76-1.04,3.28-2.02,4.7-2.98.83.12,1.67.18,2.51.18,2.52,0,4.97-.52,7.29-1.54.26-.12.52-.24.78-.37,2.5-1.25,4.68-2.38,7.06-3.64,2.62-1.39,4.76-2.55,7.39-4.03,1.52-.85,3.04-1.72,4.51-2.58.88-.51,1.98-1.16,3.04-1.79,4.75-2.87,9.3-5.95,13.93-9.42,5.19-3.88,10.3-8.13,14.79-12.28,2.09-1.93,3.98-3.79,5.55-5.34,1.76-1.75,3.32-3.35,4.77-4.89,2.59-2.76,5.21-5.71,8.02-9.03,3.47-3.91,10.75-13.84,12.81-17,2.37-3.42,4.63-6.99,7.11-11.22,2.31-3.76,6.96-12.59,8.39-15.79,1.31-2.77,2.48-5.42,3.46-7.9l.17-.41c1.31-3.28,2.66-6.67,3.82-10.09,1.3-3.83,2.27-7.38,3.11-10.64l.16-.61c.54-2.06,1.2-4.62,1.55-7.28.03-.23.15-.85.23-1.31.22-1.17.5-2.62.66-4.19.07-.61.16-1.34.27-2.13.17-1.31.37-2.8.5-4.37l.02-.25c.38-5.61.56-8.95.52-11.65,0-.27-.01-.54-.02-.8.36-.38.72-.77,1.08-1.18.36-.38,1.04-1.1,1.83-1.93l.19-.21c2.88-3.04,4-4.22,4.64-4.95,4.11-4.56,6.73-9.52,7.78-14.76,1.11-5.59.26-10.86-2.47-15.24Z"/>
  <path class="st3" d="M364.76,117.87c-.58-.93-1.99-3.22-4.87-4.64-3.41-2.09-6.8-3.73-10.09-4.85-4.05-1.51-8.45-2.67-10.34-3.16-.19-.05-.34-.09-.45-.12-.02,0-.31-.09-.31-.09-.57-.17-1.34-.41-2.26-.6-.19-.04-.47-.12-.79-.2-1.5-.39-2.59-.66-3.54-.81-1.67-.38-9.11-2.33-10.7-2.84-.08-.03-.16-.06-.25-.09-1.28-.45-2.5-.68-3.58-.89-.23-.04-.45-.09-.69-.14-2.92-.6-5.5-.67-7.42-.67-.38,0-.76,0-1.12,0-1.7.02-3.29.16-4.87.44-.19.03-.39.05-.59.07-.77.08-1.79.2-2.9.49-1.1.17-4.3.54-5.11.58-.05,0-.1,0-.15,0-.65.03-3.51.31-5.22.72-.13.01-.26.02-.39.03-.33.02-.66.05-.99.08-1.76.18-2.97.37-3.69.48-.16.03-.29.05-.41.06-1.08.1-2.95.46-4.59,1.33-.06.02-.11.04-.17.06-.62.21-1.47.5-2.43.99-1.63.83-2.83,1.81-3.88,2.76-.55-.66-1.14-1.36-1.77-2.12-2.57-3.04-3.08-3.64-6.41-7.49l-.12-.13c-3.83-4.42-6.08-6.94-7.57-8.6l-.72-.8c-.84-.94-1.7-1.88-2.56-2.81-.61-.67-1.22-1.32-1.81-1.98-.78-.86-1.6-1.69-2.4-2.49-.48-.48-.95-.96-1.39-1.43-2.17-2.28-4.56-4.48-6.67-6.41l-.6-.55c-1.85-1.7-4.09-3.53-6.83-5.57-1.69-1.27-3.45-2.44-5.23-3.49-2.24-1.32-4.48-2.43-6.71-3.34-.28-.11-.48-.19-.63-.25,0,0-8.77-3.4-8.8-3.41-.14-.05-.26-.1-.38-.15-.47-.19-1.06-.42-2.24-.82-.02,0-.05-.02-.07-.02-2.94-.99-5.91-1.64-8.8-1.94-1.49-.16-2.78-.17-3.98-.17h-.11c-.81-1.84-2.2-3.4-4.03-4.37-.33-.17-.66-.33-1.01-.46-1.06-.4-2.05-.78-3.18-1.2-1.18-.44-2.16-.82-3.37-1.26l-2.04-.76c-.44-.17-1-.37-1.51-.55-.02,0-.03-.01-.05-.02-2.68-.92-5.31-1.52-8.03-1.84-1.59-.19-3.17-.29-4.72-.29-1.64,0-3.25.11-4.77.32-1.31.18-2.49.44-3.7.7-1.29.29-2.38.58-3.39.9-1.74.55-3.56,1.25-5.71,2.2-3.14,1.25-8.65,4.79-10.46,6.08-2.55,1.68-4.83,3.54-6.74,5.15-2.32,1.86-7.65,6.83-9.24,8.51-1.73,1.73-3.27,3.37-4.72,5.01-.66.75-1.34,1.5-2.02,2.26-1.44,1.61-2.93,3.27-4.42,5.03-2.06,2.43-4.04,4.98-5.96,7.45l-.74.95c-.27.35-.55.7-.83,1.06-1.18,1.49-2.51,3.18-3.75,5.05-.46.69-1.02,1.45-1.62,2.26-.71.96-1.44,1.95-2.18,3.06-.76,1.14-1.57,2.28-2.42,3.48-.76,1.07-1.55,2.18-2.32,3.33,0,.01-.02.03-.03.04-1.81,2.71-3.38,5.02-4.77,7.05-3.41,5.02-5.58,8.2-6.87,10.89-1.2-.65-3.49-2.02-4.12-2.43-.09-.06-.18-.12-.28-.17-2.19-1.33-4.54-2-6.99-2-3.12,0-6.16,1.09-9.05,3.26-2.23,1.68-3.97,3.64-5.32,6l-.21.37c-.92,1.59-2.06,3.57-2.92,6.14-.08.2-.21.53-.39.96-1.44,3.54-5.24,12.91-8.32,22.89-3.75,11.51-6.32,23.62-6.71,25.55l-.07.29c-.3,1.3-.64,2.78-.9,4.39-.04.24-.11.6-.18,1.03-.65,3.59-1.07,6.04-1.23,7.72-.36,1.94-.77,5.64-1.46,13.86-.78,9.3-.93,12.91-.85,14.68-.08,2.45.25,4.75.55,6.8l.07.47c.95,6.63,3.67,11.21,5.93,14.46,1.69,2.43,3.63,4.43,5.93,6.12.16.12.5.41.77.64,1.03.88,2.38,2.03,4.14,2.9,1.09.71,4.28,2.89,5.89,3.98,1.16.79,2.15,1.47,2.64,1.8h0c1.48.99,9.23,4.69,9.87,4.99,2.89,1.36,4.87,2.03,6.05,2.43,0,0,.21.07.39.13,3.53,1.18,6.33,1.41,6.33,1.41,1.87.16,3.24-.02,4.99-.26,3.86-.51,6.54-1.58,7.11-1.8,1.45-.55,2.84-1.26,4.15-2.11.55,2.69,1.17,5.29,1.88,7.86.02.06.03.11.05.17l.22.74c1.48,4.95,1.93,6.45,4.76,13.09.04.08.07.17.11.25,3.77,8.14,6.65,12.05,8.55,14.64.2.27.38.52.56.76.05.07.1.13.15.2,2.15,2.81,4.56,5.32,6.18,6.95,1.68,1.71,3.63,3.17,5.34,4.46.29.22.57.43.81.61,3.42,2.62,7.91,5.01,13.31,7.11,4.76,1.87,10.03,2.78,13.58,3.21,2.34.29,4.8.44,7.34.44.99,0,2-.02,3.01-.07,4.21-.19,8.58-.75,13.01-1.68.56-.12.95-.21,1.27-.28,0,0,1.09-.25,1.1-.25,1.5-.35,2.97-.7,4.38-1.05.82-.21,1.62-.41,2.44-.62,1.26-.33,2.51-.66,3.78-1.01.05-.01.1-.03.16-.04,1.1-.3,2.14-.6,3.17-.9,1.25-.36,3.08-.91,4.34-1.3.02,0,.04-.01.07-.02.31-.1.58-.18.86-.27.98-.3,2.08-.64,4.51-1.49.01,0,.03-.01.04-.02,5.18-1.83,10.66-4.21,15.83-6.87,2.98-1.53,5.59-3.05,8.45-4.73,2.31-1.36,4.15-2.62,6.1-3.96,0,0,.48-.39.8-.55.89-.44,1.78-.3,2.36-.21,1.26.21,1.32.61,2.43.69.57.04,1.01-.04,1.58-.14.74-.13,1.46-.35,2.15-.65.13-.06.26-.12.39-.18,2.44-1.22,4.56-2.31,6.88-3.54,2.55-1.35,4.64-2.49,7.2-3.93,1.48-.83,2.97-1.68,4.41-2.52.84-.49,1.9-1.11,2.89-1.71,4.49-2.72,8.82-5.64,13.22-8.93,4.95-3.7,9.82-7.74,14.08-11.69,1.99-1.84,3.81-3.63,5.33-5.13,1.69-1.67,3.18-3.2,4.55-4.66,2.5-2.66,5.05-5.53,7.78-8.77,3.09-3.46,10.33-13.31,12.15-16.14,2.28-3.28,4.47-6.74,6.88-10.84,2.1-3.4,6.72-12.19,7.94-14.94,1.25-2.63,2.35-5.15,3.28-7.47l.16-.4c1.27-3.18,2.58-6.47,3.67-9.67,1.21-3.57,2.12-6.92,2.92-10.02l.16-.61c.5-1.92,1.07-4.1,1.35-6.22.06-.48.18-1.11.31-1.79.2-1.06.43-2.26.56-3.48.08-.73.18-1.53.29-2.36.17-1.27.34-2.58.45-3.92,0-.04,0-.08,0-.13.36-5.36.54-8.52.5-10.9-.03-1.7-.17-3.01-.45-4.2,1.18-1.11,2.51-2.4,3.79-3.85.36-.39,1.2-1.27,2.14-2.27,2.78-2.93,3.93-4.15,4.46-4.76,3.06-3.38,4.98-6.95,5.71-10.62.68-3.39.23-6.38-1.31-8.87l-.05-.08ZM75.83,225.83c-.11.11-.47.5-.58.62-.63.67-1.12,1.2-1.25,1.34-1.78,1.86-2.51,2.86-3.94,4.22-.44.42-1.11,1.04-1.99,1.74-.07.05-.32.21-.62.15-.37-.08-.66-.51-.62-1.03.02-.71.03-1.45.03-2.21,0-.51.1-3.54.11-4.17.02-1.7.31-3.39.39-5.09,0-.2.03-.7.32-.84.19-.09.4,0,.91.27.77.4,1.3.7,1.7.91.46.24.83.42,1.17.59.64.32,1.06.53,1.86.99.02,0,.03.02.05.03.63.36.99.57,1.38.8.04.02.37.23.8.52.41.28.53.39.56.56.05.27-.17.51-.27.6ZM81.59,174.77c-.19.08-.4-.08-.42-.1-.06-.04-.14-.08-.23-.14-.02-.01-.03-.02-.03-.02-.82-.49-2.19-1.3-2.19-1.3-.8-.49-1.4-.86-1.79-1.07-.12-.06-.4-.2-.47-.48-.03-.11-.02-.21,0-.28.03-.13.09-.32.15-.55.09-.32.14-.53.18-.68.1-.39.41-1.56.88-3.1.32-1.05.66-2.11,1.01-3.2l.05-.17s.03-.09.04-.14c.02-.07.03-.11.04-.14.02-.06.05-.15.09-.28.05-.2.11-.31.18-.31.11,0,.23.21.37.67.57,2.85,1.01,4.82,1.31,6.13.09.38.44,1.81.85,3.77.06.26.1.48.13.63.17.33.04.67-.15.75ZM186.18,151.08c.08-.51.14-.92.18-1.14.91-5.9.97-8.18,1.92-11.89.04-.17.08-.34.11-.51l.28-1.45c.58-3,1.12-5.84,1.84-8.51.22-.81.61-2.29.93-3.49.45-1.68,1.05-3.33,1.36-5.05.06-.3.19-1.09.5-1.13.16-.02.32.19.44.37.08.25.15.46.19.6.11.36.18.6.31.96.03.1.06.17.06.18.56,1.74,2.88,11.52,3.42,14.28.01.07.03.14.04.21.11.52.22,1.16.32,1.84.19,1.19.4,2.54.79,4.02.02.08.04.16.07.24,1.2,4.05,2.27,14.4,2.54,15.25.05.17.07.29.1.54.05.4.01.47-.03.51-.13.11-.65-.23-.78-.35,0,0-.4-.35-.82-.67-.49-.38-1.42-1.05-2.04-1.4-1.46-.83-5.38-1.72-5.9-1.8-.66-.16-1.39-.31-2.18-.42-1.07-.15-2.06-.21-2.92-.21-.07,0-.31-.01-.51-.2-.32-.3-.22-.75-.22-.77ZM171.15,243.63c.04.06.11.34.23.88.16.73.24,1.09.3,1.4,1.05,5.53,1.53,6.9,1.53,6.9.09.26.31.88.1,1.03-.2.15-.68-.19-.89-.33-6.07-4.3-6.95-5.12-6.95-5.12-1.73-1.43-3.3-2.85-4.72-4.23-.26-.14-.32-.43-.21-.58.08-.11.25-.15.42-.1.39,0,.96-.01,1.66-.03,1.06-.02,1.55-.04,2.51-.06,1.92-.05,1.64-.01,2.61-.05,2.2-.08,3.05-.24,3.41.28ZM159.47,196.33c.16-.19.41-.5.72-.87,1.04-1.26,1.59-1.86,2.69-3.16.51-.6.81-.95,1.86-2.2.58-.69,1.61-1.9,2.17-2.57.86-1.13,1.42-1.63,1.69-1.5.2.09.24.52.12,1.29-.3,1.99-.26,4.03-.53,6.03-.08.62-.21,1.59-.36,2.8,0,.23-.05.59-.3.83-.33.32-.83.27-1.33.23,0,0-.97-.1-4.16-.12-.56,0-1.06,0-1.11,0-.22,0-.41.01-.68,0-.59-.02-.89-.03-.98-.19-.02-.04-.09-.2.19-.57ZM212.54,274.88c-.26.4-.52.8-.79,1.21-.53.8-1.07,1.62-1.59,2.47-.57.94-1.52,2.18-2.44,3.39l-.12.16c-1.49,1.96-2.74,3.47-4.07,4.9-2.69,2.92-5.44,5.63-8.16,8.06-3.44,3.07-5.55,4.57-6.99,5.52-.33.22-.61.4-.79.51-.36.23-.89.56-1.53.95l-.1.06c-.47.35-1.11.78-1.93,1.17-.26.12-.92.42-1.86.68-1.06.29-2.23.47-3.87.48-2.44.01-4.35-.37-5.13-.51-4.14-.74-7.89-2.08-11.17-3.99-3.68-2.13-6.78-4.57-8.98-7.06-.4-.52-.79-1.01-1.16-1.49-2.79-3.57-4.2-5.41-5.6-7.7-.52-.85-1.27-2.15-2.08-3.81-.51-.77-.56-1.46-.29-1.68.21-.17.6-.03.71.02,1.23.64,3.04,1.47,5.32,2.17,1.24.38,2.11.61,3.59.88.39.07,6.68,1.18,8.86,1.3.7.04,2.87.2,3.4.2,1.89,0,5.26-.3,8.63-.63.26-.02.44-.04.53-.05h-.1s0,0,0,0c1.82-.15,6.42-.78,8.46-1.18v.02c.24-.05,1.06-.18,1.55-.26,2.71-.44,4.61-.87,6.15-1.19,6.69-1.38,6.17-1.14,7.95-1.63,2.68-.73,4.03-1.09,5.56-1.83,3.75-1.81,6.08-4.24,7.59-3.57.04.02.53.25.74.75.26.63-.06,1.32-.26,1.65ZM220.25,259.93c.05-.13.1-.25.14-.36-.03.13-.08.25-.14.36ZM228.38,222.82c-.03,1.08-.07,2.16-.12,3.23-.17,2.69-.34,5.23-.8,7.68-.15.77-.29,1.53-.43,2.29-.48,2.61-.94,5.08-1.57,7.5-.04.15-.07.3-.1.46-.34,1.65-2.06,8.03-2.6,9.5-.03.07-.07.15-.1.23-.61,1.45-1.11,2.81-1.6,4.12l-.21.57c-.19.52-.41,1.06-.64,1.61-.15.24-.35.41-.58.46-.54.12-1.26-.38-1.37-1.26-.18-.71-7.72-18.38-8.16-20.15-.05-.22-1.74-6.38-1.79-6.49-.67-2.23-2.71-14.61-2.81-15.29-.42-2.85-.54-5.17-.57-6.69-.03-.2.04-.36.13-.39.11-.03.3.09.36.34.57,1.1,1.76,3.02,3.95,4.65.75.56,2.59,1.9,5.26,2.38,1.15.21,2.18.21,3.38.21.35,0,1.59,0,3.46-.21,1.43-.16,3.33-.44,5.58-.98.48-.16.98-.05,1.24.27.16.19.2.4.21.53-.02,1.79-.06,3.61-.11,5.45ZM231.56,100.8c-.11.14-.36.12-.46.1-.96-.18-2.57-.49-4.66-.89,0,0-4.47-.8-6.54-1.07-.08,0-.15-.02-.23-.03-.2-.03-.5-.08-.73-.12-.13-.02-.26-.04-.39-.06-.15-.02-.46-.07-.87-.13-4.4-.67-9.6-1.31-10.12-1.35h0c-.11-.01-.23-.03-.34-.05-.59-.08-1.48-.21-2.5-.21-1.35,0-3.26.5-3.85.67-.11.03-.42.13-.55-.01-.12-.13-.01-.42.05-.59.27-.68.43-1,.82-1.84.24-.52.48-1.03.7-1.54.1-.24.35-.69.58-1.09.33-.6.71-1.27,1.07-2.04.23-.48.59-1.1.97-1.75.37-.63.79-1.34,1.18-2.1.23-.44.67-1.09,1.1-1.72l.19-.27c.73-1.08,1.3-1.82,1.86-2.44,1.27-1.41,2.48-2.6,3.6-3.53,0,0,0,0,0,0,.38-.31.94-.3,1.3.04.43.4.85.8,1.26,1.21,2.39,2.34,4.79,4.99,7.13,7.86,2.53,3.12,4.99,6.17,7.18,9.26.06.09.42.61.93,1.33.24.34.79.89,1.2,1.71.11.22.23.49.11.64ZM243.98,174.02c-.64,1.12-1.3,2.26-1.99,3.41-.66,1.1-1.31,2.17-1.97,3.21-.09.25-.27.36-.37.33-.08-.03-.11-.16-.11-.3-.08-1.21-.16-2.42-.24-3.64-.08-.52-.18-1.3-.16-2.05,0-.18.02-.44.2-.62.23-.23.6-.2.71-.19.5.03,1.47-.1,3.46-.63.18-.11.4-.06.49.09.07.11.06.27-.03.39Z"/>
  <g>
    <path class="st2" d="M88.93,215.32c.25-1.32.27-2.87.02-3.57-.25-.7-.72-.31-1.04,1.21-.3,1.42-.24,3.02.02,3.6.3.68.74.12,1-1.24Z"/>
    <path class="st2" d="M86.51,220.34c.32.59.74.15.95-.97.21-1.09.18-2.4-.1-3-.27-.6-.73-.31-.99.95-.24,1.17-.14,2.52.13,3.03Z"/>
    <path class="st2" d="M88.66,221.29c.27.53.63.11.82-.95.18-1.02.16-2.24-.08-2.8-.23-.55-.62-.26-.85.93-.21,1.1-.12,2.36.11,2.81Z"/>
    <path class="st2" d="M89.21,203.06c-.36,1.48-.37,3.07-.1,3.64.27.57.72.01,1.04-1.42.29-1.28.39-2.89.1-3.58-.21-.49-.68-.14-1.04,1.35Z"/>
    <path class="st2" d="M88.4,210.05c.29-1.33.33-2.88.1-3.57-.23-.71-.72-.3-1.06,1.21-.33,1.47-.3,3-.06,3.59.28.67.73.07,1.02-1.23Z"/>
    <path class="st2" d="M88.96,197.81c-.39,1.51-.44,3.06-.17,3.65.25.53.71-.03,1.06-1.42.32-1.3.45-2.9.18-3.57-.2-.5-.68-.15-1.07,1.34Z"/>
    <path class="st2" d="M91.03,215.66c.17-1.08.14-2.29-.07-2.73-.23-.5-.63-.04-.85,1.29-.21,1.27-.11,2.45.12,2.8.27.4.61-.2.8-1.36Z"/>
    <path class="st2" d="M90.45,210.56c.23-1.09.24-2.38.04-2.88-.22-.52-.61-.05-.86,1.14-.24,1.15-.22,2.37,0,2.84.23.48.59,0,.82-1.11Z"/>
    <path class="st2" d="M92.2,205.74c.25-1.19.24-2.42.02-2.79-.25-.42-.64.19-.89,1.44-.24,1.19-.19,2.32.03,2.68.25.41.62-.25.84-1.33Z"/>
    <path class="st2" d="M92.9,197.17c.22.41.63-.32.92-1.54.3-1.24.38-2.55.22-3.02-.19-.54-.63,0-.99,1.48-.35,1.45-.36,2.69-.15,3.07Z"/>
    <path class="st2" d="M91.06,199.07c-.29,1.28-.26,2.42-.04,2.77.23.37.62-.28.86-1.35.26-1.13.29-2.3.11-2.72-.21-.53-.63-.02-.93,1.3Z"/>
    <path class="st2" d="M91.42,218.77c-.17-.24-.45.05-.59,1.15-.12.99-.01,1.84.17,2.06.22.27.48-.2.59-1.22.08-.77.06-1.66-.17-1.99Z"/>
    <path class="st2" d="M92.54,210.84c.13-.86.11-1.8-.11-2.04-.18-.2-.48.29-.63,1.29-.14.91-.07,1.75.1,1.96.22.26.49-.24.64-1.21Z"/>
    <path class="st2" d="M93.93,198.93c-.16-.26-.47.1-.7,1.18-.21.99-.15,1.82,0,2.02.21.26.5-.27.69-1.21.16-.82.19-1.69,0-1.99Z"/>
    <path class="st2" d="M93.02,216c.1-.79.04-1.51-.13-1.69-.19-.21-.44.28-.54,1.22-.09.77.02,1.5.17,1.59.21.12.41-.39.5-1.11Z"/>
    <path class="st2" d="M94.17,206.08c.14-.87.1-1.54-.05-1.69-.18-.19-.43.21-.58,1.16-.13.83-.04,1.54.1,1.61.21.11.43-.42.54-1.08Z"/>
    <path class="st2" d="M95.62,196.59c.19-.63.32-1.61.28-2.04-.06-.59-.31-.61-.58.28-.24.8-.34,1.78-.26,2.18.09.42.34.26.55-.43Z"/>
    <path class="st2" d="M85.62,210.78c-.45,1.49-.61,3.36-.4,4.66.19,1.17.64,1.33,1.06.21.38-1.02.61-2.92.5-4.36-.1-1.35-.5-1.69-.99-.94.43-1.38.64-3.04.56-4.35-.08-1.37-.47-1.67-.96-.93.43-1.33.69-2.71.74-4.39.25.61.51.61.88.21-.51,1.5-.76,3.37-.59,4.66.14,1.1.59,1.28,1.04.19.43-1.04.74-2.94.69-4.35-.05-1.35-.43-1.7-.95-.94.46-1.33.75-2.94.74-4.2,0-1.39-.33-1.77-.89-1.14.04-.12.07-.23.11-.34.13-.31.25-.67.37-1.09.49-1.77.72-3.95.39-4.88-.25-.69-.91-.22-1.51,1.8-.33,1.12-.51,2.26-.55,3.2,0,.05-.01.11-.02.16-.19-.11-.39-.23-.58-.34.14-.49.27-1.08.39-1.65.41-1.66.6-3.55.3-4.4-.01-.04-.03-.06-.05-.09,0-.03.02-.07.02-.1-.17-.09-.35-.18-.52-.27-.08-.04-.15-.08-.23-.12-.08-.04-.15-.08-.23-.12-.08-.04-.16-.08-.24-.13-.3-.15-.59-.31-.89-.46-.06-.02-2.79-1.5-2.79-1.51-.95-.53-1.9-1.06-2.84-1.61-1.23-.71-1.83-1.09-1.85-1.1-2.56-1.55-6.02-3.46-6.27-3.98-.07-.13-.18-.4-.33-.22-.18.23-.3,1.05-.34,1.34-.23,1.59-.74,3.16-1.06,4.75-.47,2.38-.67,2.62-1.5,6.41-.89,4.22-.61,3.63-1.36,7.49-.03,0-1.17,6.56-1.27,7.54-.06.51-.09.68-.13,1.02,0,0,0,0,0,0-.06.42-.08.56-.08.59-.07.66.84,1,.84,1,.65.24,1.25,1.03,1.9,1.28,1.23.44,1.53,1.23,6.1,3.81,2.48,1.36,2.89,1.42,4.88,2.56,1.02.58,1.88,1.09,2.5,1.47,0,.02,0,.05,0,.07.17.09.35.18.52.27.05-.09.1-.18.16-.26.06-.74.13-1.48.2-2.23.18.02.36.05.54.07-.22,1.19-.09,2.5.21,3.03.38.67.9.24,1.16-.96.12-.56.17-1.18.16-1.75.21.41.43.43.72.14-.03.1-.06.2-.09.31-.29,1.25-.16,2.72.18,3.29.39.66.9.23,1.16-.97.25-1.16.2-2.59-.14-3.27-.2-.41-.48-.46-.74-.15.32-1.22.51-2.54.5-4.18.26.67.53.62.88.23ZM84.45,195.31c-.2.82-.39,1.86-.5,2.73-.15-.11-.3-.22-.45-.34.14-.83.28-1.65.42-2.48.18.03.36.06.54.08ZM83.6,193.37c-.16-.12-.31-.25-.47-.37.16-.83.32-1.67.49-2.5.17.04.33.09.5.13-.08.42-.14.81-.18,1.2-.12.53-.22,1.08-.29,1.58-.01-.01-.03-.02-.04-.04ZM81.35,202.95c.13-.84.26-1.68.39-2.52.19.06.39.11.58.17,0,0,.02,0,.03,0-.05.19-.08.4-.12.6-.15.73-.28,1.47-.35,2.15-.18-.14-.35-.28-.53-.41ZM79.97,212.94c.09-.83.18-1.65.28-2.48.21.05.41.1.62.15-.16.79-.28,1.74-.37,2.74-.18-.14-.35-.27-.53-.41ZM81.97,207.56c.1-.83.21-1.66.32-2.49.18.03.36.07.54.1-.18.9-.32,1.87-.4,2.73-.16-.11-.31-.23-.47-.34ZM83.56,203.5c.22-.82.44-2.13.52-3.12.19.08.37.16.56.24-.27,1.07-.43,2.24-.46,3.21-.19-.16-.39-.27-.62-.32ZM85.4,198.94c.27-1.07.46-2.25.55-3.37.21.57.49.46.87.03-.44,1.2-.68,2.59-.76,3.88-.23-.46-.41-.59-.67-.53ZM82.3,213.36c.18-.89.33-2.12.38-3.09.19.07.38.13.56.2-.2.95-.32,2.19-.35,3.17-.2-.09-.4-.18-.6-.27ZM83.91,208.83c.23-.97.38-2.13.43-3.32.25.45.52.4.87-.02-.38,1.21-.57,2.55-.59,3.93-.22-.5-.42-.67-.71-.59Z"/>
    <path class="st2" d="M89.02,195.94c.19-.38.35-.89.49-1.44.02-.06.04-.12.05-.18.44-1.61.64-3.59.33-4.42-.23-.63-.83-.19-1.36,1.65-.27.96-.43,1.93-.48,2.74-.04.42-.06.82-.04,1.18.07,1.3.52,1.49,1.01.47Z"/>
    <path class="st2" d="M92.15,191.21c-.21-.55-.76-.16-1.23,1.51-.47,1.68-.56,3.42-.26,4.07.02.05.05.08.07.11,0,.01.02.03.03.04.02.02.04.03.06.04.02.01.04.03.06.03.03,0,.06,0,.1-.02.01,0,.02,0,.03,0,.27-.14.59-.75.86-1.78.39-1.46.57-3.24.28-3.99Z"/>
    <path class="st2" d="M125.79,191.68c.45.47,1.13.09,1.54-1.08.34-.95.37-2.32-.13-2.88-.5-.56-1.2,0-1.58,1.11-.36,1.05-.31,2.34.17,2.85Z"/>
    <path class="st2" d="M119.58,193.5c.44.49,1.11.16,1.55-1.08.31-.88.36-2.26-.13-2.86-.49-.59-1.19-.06-1.57,1.02-.37,1.07-.34,2.38.15,2.92Z"/>
    <path class="st2" d="M123.31,194.42c.46.54,1.12.16,1.5-.81.42-1.07.44-2.5-.07-3.09-.5-.58-1.17-.04-1.54.97-.4,1.09-.33,2.41.11,2.93Z"/>
    <path class="st2" d="M118.26,189.69c.44.56,1.1.18,1.51-.81.43-1.02.49-2.46,0-3.07-.48-.59-1.16-.07-1.54.9-.44,1.11-.4,2.42.03,2.97Z"/>
    <path class="st2" d="M122.03,190.74c.44.49,1.12.15,1.55-1.07.33-.91.39-2.28-.11-2.86-.5-.58-1.19-.06-1.59,1.07-.36,1.03-.33,2.33.14,2.85Z"/>
    <path class="st2" d="M125.88,194.42c-.41-.39-.94.02-1.23.92-.27.84-.2,1.89.18,2.3.4.42.95.04,1.23-.81.3-.91.25-2.01-.18-2.41Z"/>
    <path class="st2" d="M123.46,197.19c-.47-.37-.98.2-1.22,1.07-.25.9-.1,1.91.3,2.25.41.35.92-.1,1.17-.88.29-.92.23-2.05-.25-2.44Z"/>
    <path class="st2" d="M122.04,193.45c-.45-.38-.98.2-1.23,1.07-.26.91-.12,1.91.26,2.25.41.36.92-.09,1.18-.85.32-.94.26-2.07-.21-2.46Z"/>
    <path class="st2" d="M124.86,201.17c-.35-.32-.75.1-.92.69-.21.73-.13,1.55.21,1.83.3.25.69.03.91-.68.18-.58.18-1.49-.2-1.84Z"/>
    <path class="st2" d="M125.8,206.39c.2.28.55.23.8-.34.18-.42.22-1.25-.06-1.61-.27-.35-.63-.19-.84.44-.14.42-.16,1.15.11,1.52Z"/>
    <path class="st2" d="M107.97,246.59c.67.54,1.24,0,1.34-1.05.1-.99-.26-2.21-.87-2.69-.57-.45-1.18-.09-1.33,1.01-.12.9.19,2.19.86,2.73Z"/>
    <path class="st2" d="M107.04,241.72c.13-1-.21-2.24-.79-2.74-.56-.47-1.17-.13-1.35.99-.14.89.13,2.21.79,2.77.65.56,1.23.02,1.36-1.02Z"/>
    <path class="st2" d="M115.22,243.33c.12-1.02-.23-2.23-.86-2.71-.56-.43-1.19-.09-1.35,1.09-.12.84.17,2.14.84,2.66.67.52,1.25-.02,1.37-1.04Z"/>
    <path class="st2" d="M111.1,242.66c.15-1.04-.2-2.28-.76-2.77-.58-.51-1.18-.14-1.36.78-.2,1.01.1,2.38.77,2.93.66.54,1.22.02,1.36-.94Z"/>
    <path class="st2" d="M116.72,244.4c-.6-.48-1.19-.08-1.36.86-.17.97.18,2.3.88,2.82.68.51,1.23-.04,1.34-.96.13-1.05-.27-2.25-.87-2.72Z"/>
    <path class="st2" d="M112.08,247.38c.69.52,1.25,0,1.35-1.07.09-.97-.28-2.17-.9-2.65-.58-.44-1.19-.1-1.34,1.05-.11.86.2,2.15.88,2.66Z"/>
    <path class="st2" d="M107.7,239.44c.5.38.95-.01,1.07-.88.11-.8-.15-1.81-.6-2.21-.47-.41-.97-.05-1.11.77-.15.87.12,1.93.63,2.32Z"/>
    <path class="st2" d="M105.55,235.5c.52.46.97,0,1.11-.83.14-.84-.09-1.84-.54-2.25-.44-.4-.91-.09-1.1.66-.2.82,0,1.96.52,2.42Z"/>
    <path class="st2" d="M110.69,235.42c.1-.87-.2-1.84-.65-2.16-.46-.33-.92.1-1.05.86-.16.89.09,1.98.65,2.34.54.36.96-.2,1.05-1.04Z"/>
    <path class="st2" d="M112.85,239.26c.08-.87-.26-1.82-.71-2.12-.48-.32-.92.11-1.04.84-.15.91.15,1.98.71,2.33.55.34.96-.23,1.03-1.05Z"/>
    <path class="st2" d="M108.51,231.52c.12-.7-.06-1.51-.42-1.78-.33-.25-.69-.04-.84.64-.12.56,0,1.45.42,1.79.39.32.74-.09.83-.66Z"/>
    <path class="st2" d="M106.22,226.16c-.22-.28-.56-.24-.76.3-.15.4-.12,1.22.2,1.58.3.35.64.21.8-.4.1-.41.06-1.12-.23-1.49Z"/>
    <path class="st2" d="M107.75,249.77c.12-1.12-.29-2.64-1.08-3.3-.61-.5-1.33-.21-1.54.99-.18,1.03.19,2.64,1,3.33.79.68,1.48.2,1.62-1.03Z"/>
    <path class="st2" d="M104.79,237.6c-.04-.16.18-8.67-.07-10.14-.13-.62-.12-.89-.48-.92-.88-.06-1.85-.37-2.61-.76-1.47-.75-2.93-.59-4.37-1.52-1.42-.92-2.95-1.17-4.41-1.79-.66-.28-1.22-.41-1.82.27-.45.5-.87,1.11-1.33,1.53-1.84,1.68-3.48,3.71-5.23,5.35-1.43,1.34-2.76,2.88-4.09,4.28-1.29,1.35-2.57,2.71-3.8,4.07-1.08,1.28-11.21,9.36-11.5,9.61-.4.49-3.78,1.24-4.2.31-1.22-2.63-1.8-5.39-2.25-8.09-.23-1.22-.41-6.36-.45-7.59-1-2.91,2.77-36.27,3.68-37.39.15-2.21,3.77-18.22,4.49-20.25.59-2.19,1.29-4.37,1.87-6.62.61-2.34,1.35-4.65,2.09-6.94.8-2.81,5.42-14.5,5.8-15.16.74-1.66,1.51-3.28,2.55-4.65.94-1.23,2.58-3.19,2.92-3.24.32-.05.46.27.54.48.58,1.53,1.11,3.14,1.67,4.74.66,1.87,1.09,4.03,1.74,5.97.5,1.48.73,3.24,1.13,4.85.36,1.43.59,3.12.88,4.7.53,2.85.96,5.85,1.72,8.62.81,2.98,1.29,6.36,2.18,9.39.59,2.01,1.1,4.16,1.63,6.25.99,3.87,2.23,7.59,3.38,11.5.79,2.7,1.69,5.41,2.75,7.96,1.28,3.07,2.38,6.44,3.76,9.55,1.49,3.37,2.93,6.86,4.65,10.11.63,1.21,1.48,3.02,2.37,4.89-.2-.08-.42.01-.53.27-.21.48-.21,1.29.12,1.71.3.38.65.21.79-.25.07-.23.09-.52.06-.79.43.91.86,1.81,1.27,2.64-.23.06-.43.35-.5.86-.09.62.09,1.45.54,1.69.41.23.72-.29.78-.85,0,0,0-.02,0-.02.39.78.71,1.42.93,1.86-.23.17-.41.52-.47.99-.12.94.2,1.93.73,2.23.5.29.92-.26,1.01-1.06,0-.08.01-.16.01-.24.35.52.77,1.14,1.2,1.79-.35-.04-.67.32-.78.95-.14.85.14,1.89.67,2.27.51.36.96-.06,1.08-.87.04-.3.03-.62-.02-.93.5.74.96,1.43,1.31,1.95-.47-.13-.9.24-1.05,1.04-.18.97.14,2.3.83,2.84.65.51,1.24-.05,1.36-.96.06-.4.04-.83-.04-1.23.11.17.23.33.34.49.03-.1,1.12,1.25,1.31,1.72-.03-.03-.06-.06-.09-.08-.61-.45-1.25-.04-1.37.98-.12,1.03.27,2.26.95,2.72.65.44,1.22-.03,1.33-1.01.07-.63-.05-1.34-.31-1.9.44.55.99,1.23.93,1.23.19.24.38.48.57.72.11-.11,5.89,6.6,6.95,7.83.7.92,1.53,1.68,2.29,2.53,1.41,1.57,3,2.86,4.48,4.33,1.08,1.06,2.27,1.86,3.37,2.92,1.03.99,2.24,1.8,3.44,2.44.76.41,1.44.99,2.25,1.32,2.31.96,4.65,2.11,7.05,2.95,1.35.47,2.71.54,4.08.92,2.85.79,5.55.69,8.36.95,1.27.16,8.57-.6,8.96-.62.33.05,6.99-.92,7.31-1.01.38-.08,1.41-.25,2.16-.37.3.02,10.58-2.07,10.97-2.37,1.01-.58,2.46-.44,3.56-.92.66-.29,1.67-.42,2.4-.66,2.01-.65,4.33-1.06,5.82-2.3.94-.79,1.97-1.5,2.5-2.59.6-1.25.53-2.46.26-3.83-.3-1.52-.87-3.05-1.87-4.45-1.08-1.09-5.08-10.84-5.77-13.68-.55-1.67-.73-3.49-1.36-5.19-.77-1.52-2.97-13.29-3.22-16.53-.57-1.54-1.71-20.97-1.28-23.46-.03-2.35.7-16.42.95-18.51.08-1.79.54-6.95.48-7.8-.35-3.64-1.33-6.26-3.53-7.51-.65-.37-1.48-.17-1.99-.46-.69-.39-1.46-.27-2.13-.57-.69-.26-9.09-.42-9.77-.55-1.41-.19-2.88-.05-4.29-.25-1.94-.29-4.02-.07-5.92-.41-2.45-.44-5.02-.1-7.52-.18-1.55-.05-3.24.6-4.88.97-3.74.84-7.49,3.01-11.19,5.74-1.97,1.45-3.92,3.31-5.84,5.21-2.77,2.73-5.41,5.93-8.27,8.37.44-1.23.55-2.9-.02-3.65-.33-.44-.77-.46-1.19-.14.16-.65.32-1.3.48-1.95.13.16.3.27.48.33.49.34,1.21.01,1.83-1.03.02-.05.05-.14.09-.24.79-2.17,1.19-4.07,1.37-4.86.45-1.91.54-1.62,2.2-6.61.8-2.4,1.31-3.98,1.68-5.09.57-1.61,1.63-5.14,6.67-16.37,2.93-6.36,2.34-5.23,5.03-10.52,1.22-2.45,5.12-9.84,5.75-11.1.65-1.38,1.53-2.52,2.19-3.85.88-1.77,1.9-3.47,2.89-5.13.96-1.61,1.97-3.18,2.94-4.73,1.18-1.89,2.3-3.76,3.51-5.53,1.74-2.55,3.4-5.05,5.19-7.34.67-.87,2.54-3.37,2.83-3.7.93-1.12,1.67-2.3,2.66-3.33.92-.95,1.72-1.97,2.7-2.86-.86,1.33-1.76,2.71-2.53,4.16-1.07,1.35-9.03,17.28-10.28,20.87-1.03,2.36-1.94,4.79-2.87,7.28-.74,1.99-1.58,4-2.29,6.07-.62,1.79-1.32,3.65-1.89,5.49-1.03,3.34-2.07,6.76-3.14,10.24-.33,1.06-.66,2.15-.93,3.21-.92,3.67-2.17,7.42-2.76,11.21-.09.55.03.83.35.77,1.7-.27,3.11.45,4.65.72.97.17,1.94.41,3.02.3,1.32-.14,2.54.34,3.83.44.94.07,1.7.7,2.76.41.68-.19,1.28.26,2,.21.92-.07,1.79.18,2.68.3.73.09,1.5.08,2.17.41.57.27.9-.3,1.13-1.3.37-2.18,2.48-16.16,2.81-17.25.7-3.62,1.33-7.15,2.27-10.6.99-3.65,1.85-7.18,2.89-10.58.55-1.99,2.91-9.91,3.41-10.96.54-1.3,1.01-2.62,1.47-3.89.76-2.09,1.64-4.1,2.4-6.01.5-1.26,1.12-2.48,1.64-3.67.5-1.14,1.23-2.26,1.74-3.33.69-1.47,1.62-2.85,2.31-4.18.52-1.01,1.2-1.98,1.83-2.89.83-1.22,1.66-2.34,2.58-3.37,1.88-2.1,3.42-3.5,4.55-4.44,1.94-1.6,3.11-2.18,3.89-2.49.18-.07.33-.13.44-.17.18-.07.45-.16.78-.26.75-.24,1.79-.58,3.04-.73.03,0,.06,0,.09,0,.11.09.22.16.33.25,1.93,1.53,3.9,3.28,5.81,5.15,2.69,2.64,5.31,5.54,7.8,8.6,2.5,3.08,5.16,6.38,7.55,9.75,4.96,7.13,6.8,9.38,12.96,18.7,2.5,3.83,4.44,6.96,5.58,8.82,0-.01,0-.03-.01-.04.39.74,1.14,1.51,1.88,1.75.31.1.57.06.73-.09.05-.03.09-.06.13-.1.26.56.56.95,1.03,1.5,0,0,0,0-.01,0-.12-.07-.24-.13-.36-.17-.75-.26-1.07.19-.78,1,.26.74,1.02,1.62,1.79,1.84.58.17.99-.19.74-.98-.14-.45-.53-1.01-1-1.41,0,0-.01-.02-.02-.02.67.36,1.18.4,1.4-.04.22.57.48.96,1.01,1.54-.76-.33-1.24-.21-1.22.43.02.58.54,1.44,1.26,1.92.65.44,1.25.43,1.37-.1.12-.5-.27-1.28-1.05-2,.67.34,1.21.31,1.3-.16.09-.52-.32-1.26-1.08-1.95.67.34,1.17.38,1.41-.06.24.61.58,1.04,1.09,1.55-.79-.39-1.31-.25-1.28.38.02.57.56,1.39,1.28,1.86.67.44,1.29.38,1.38-.16.08-.51-.37-1.27-1.1-1.91.75.38,1.25.29,1.31-.2.07-.52-.41-1.25-1.13-1.86.71.34,1.19.37,1.41-.06.27.59.61,1.02,1.12,1.5-.79-.36-1.31-.23-1.26.41.05.55.59,1.34,1.3,1.78.68.42,1.3.36,1.37-.17.07-.51-.39-1.24-1.12-1.84.72.33,1.22.26,1.29-.18.08-.49-.33-1.14-1.09-1.81.71.3,1.14.28,1.36-.1.26.56.56.93,1.12,1.42-.72-.3-1.25-.21-1.25.33,0,.55.57,1.34,1.28,1.78.71.44,1.32.37,1.41-.11.1-.51-.38-1.23-1.15-1.83.74.32,1.22.25,1.3-.18.08-.47-.34-1.11-1.1-1.74,0,0,.02,0,.03,0,.18.09.36.16.54.2.64.14,1.05-.22.71-.98-.29-.65-1.19-1.5-2.05-1.73-.46-.12-.76-.04-.87.18-.24-.32-.49-.63-.73-.95.17.04.35.06.5.05.59.06.9-.32.55-1.07-.13-.28-.37-.6-.67-.9-1.11-1.37-2.71-3.3-4.67-5.63-2.56-3.04-3.04-3.59-6.45-7.53-4.44-5.12-6.69-7.61-8.2-9.3-1.43-1.6-2.93-3.2-4.33-4.75-1.1-1.22-2.51-2.56-3.65-3.76-2.16-2.27-4.65-4.53-6.83-6.54-1.94-1.78-4.17-3.53-6.16-5.02-1.41-1.06-2.89-2.05-4.41-2.94-1.79-1.06-3.63-1.99-5.51-2.75-.37-.15-.56-.22-.73-.29-.09-.03-.2-.08-.31-.12-.64-.25-1.28-.49-1.92-.74-.4-.16-.79-.31-1.19-.46-.56-.22-1.11-.43-1.67-.65,0,0,0,0,0,0-.52-.2-1.01-.39-1.49-.58-.59-.23-1.42-.55-1.95-.76-.64-.24-.99-.41-2.39-.89-2.27-.76-4.62-1.29-6.93-1.53-1.3-.14-2.46-.12-3.87-.12-1.02,0-1.88.16-2.83.32-.86.14-1.79.29-2.62.54-1.88.55-3.92,1.23-5.85,2.18-1.59.78-3.21,1.7-4.84,2.74-.8.43-4.21,3.16-5.1,3.9-1.32.98-2.51,2.11-3.75,3.28-1.33,1.25-2.61,2.62-3.92,4.04-1.36,1.47-2.75,3-4.11,4.63-2.13,2.56-4.38,5.24-6.42,8.2-1.44,2.04-4.69,6.65-4.9,6.8.65-1.95,1.71-3.84,2.53-5.67.94-2.1,2.01-4.13,3.1-6.07.84-1.6,3.95-7.04,4.55-7.91.91-1.48,1.77-2.9,2.71-4.24.99-1.42,1.88-2.78,2.92-4.04.96-1.16,1.81-2.27,2.7-3.3.63-.73,1.22-1.46,1.96-2.11.75-.66,1.42-1.28,2.11-1.87.87-.74,1.74-1.42,2.65-2.02.43-.28.67-.58,1.12-.84.89-.52,1.86-.96,2.61-1.37,1.04-.58,2.35-.95,3.4-1.27.68-.21,1.72-.28,2.47-.35.63-.07,1.29-.08,1.97-.05.09.03.18-.1.21-.28.04-.23,0-.56-.13-.63-1.05-.4-2.03-.77-3.16-1.2-1.16-.44-2.14-.81-3.33-1.25-.74-.28-1.44-.54-2.06-.77-.39-.14-.87-.32-1.32-.48-2.1-.72-4.12-1.18-6.21-1.43-2.39-.29-4.88-.32-7.21.01-.99.14-1.97.35-3,.58-.89.2-1.78.42-2.66.7-1.66.52-3.29,1.19-5,1.94-1.77.62-7.56,4.21-8.82,5.19-2.11,1.38-4.12,2.99-6.16,4.71-2.03,1.6-7.72,6.95-8.51,7.83-1.5,1.5-2.99,3.06-4.44,4.7-2.05,2.32-4.22,4.66-6.31,7.14-2.19,2.59-4.31,5.35-6.47,8.12-1.39,1.78-2.88,3.6-4.19,5.57-1.17,1.77-2.58,3.49-3.8,5.32-1.54,2.32-3.22,4.55-4.79,6.87-7.73,11.57-11.3,16.13-11.69,18.88-.09.69.1,1.04.49,1.75.64,1.27,7.95,3.61,8.81,3.95,1.25.58,2.61.93,3.76,1.78,1.1.81,2.44,1.06,3.66,1.59.77.34,1.65.51,2.46.81.38.14.72-.33.83-.64.8-2.25,1.94-4.31,2.87-6.47.47-1.18,4.52-8.99,5.33-10.51.51-1.11,5.42-10.2,7.37-13.43.77-1.31,1.58-2.59,2.34-3.87,1.73-2.89,3.45-5.71,5.18-8.44,1.29-2.03,2.81-3.92,4.06-5.84,1.6-2.45,3.43-4.69,5.06-6.93,1.89-2.61,3.99-5.01,6.02-7.28.62-.68,1.16-1.45,1.87-2.17,0,.57-.66,1.16-1,1.71-.85,1.37-1.72,2.8-2.66,4.27-.64,1-1.12,2.06-1.73,3.12-.89,1.53-1.63,3.11-2.55,4.75-.97,1.71-1.68,3.5-2.55,5.31-.98,2.04-2.16,4.16-2.98,6.31-.83,2.15-1.85,4.36-2.72,6.6-.7,1.83-1.52,3.82-2.47,5.79-.55,1.13-.88,2.48-1.34,3.75-1.11,3.03-2.27,6.14-3.28,9.31-.86,2.58-3.12,10.08-3.46,11.18-1.2,3.62-1.69,6.01-2.55,9.29-1.05,4.01-1.86,7.4-2.4,9.75-.99,3.25-1.67,5.79-2.12,7.53-.27,1.03-.65,2.55-1.21,4.64-.39,1.46-.73,2.67-.95,3.46,0,0,0,0,0,0-.43,1.26-.5,2.77.03,3.51.22.31.54.4.9.25.09-.02.17-.05.26-.08-.36.95-.49,1.68-.58,2.73,0,0,0,0,0-.01-.05-.17-.11-.31-.19-.44-.52-.78-1.36-.31-1.94,1.01-.02.04-.03.09-.05.13-.35-1.34-.68-2.71-.95-4.15-.08-.43-.12-.9-.12-1.39-.19-.78-.41-1.55-.65-2.28-.47-1.39-.68-3.06-1.07-4.52-.61-2.32-1.21-4.62-1.85-6.83-.73-2.53-1.76-4.63-2.72-6.78-.45-1.02-1.04-1.84-1.59-2.71-1.06-1.67-2.2-3.19-3.5-4.41-1.21-1.14-2.39-2.29-3.75-3.14-.95-.59-2-1.09-2.84-1.99-.6-.64-1.51-.78-2.26-1.19-1.96-1.02-7.32-4.03-8-4.48-1.05-.64-2.13-1.33-3.31-1.71-.93-.27-5.6-3.12-6.18-3.5-1.84-1.11-3.82-1-6.16.76-1.15.87-2.16,1.91-2.98,3.34-.9,1.57-1.82,3.09-2.46,5.04-.21.67-4.99,11.8-8.62,23.59-3.81,11.67-6.41,24.26-6.51,24.79-.32,1.37-.65,2.76-.87,4.21-.23,1.36-1.3,6.91-1.37,8.62-.47.97-2.58,25.45-2.22,27.03-.13,1.96.2,4.08.51,6.21.65,4.5,2.35,7.67,4.44,10.68,1.33,1.9,2.67,3.13,3.92,4.05,1.25.92,2.56,2.34,3.85,2.85.75.39,7.69,5.19,9.27,6.24,1.19.9,4.66,2.54,5.02,2.61,1.19.26,2.5,1.16,3.71,1.74,3.71,1.75,5.54,2.1,6.32,2.5.27.14,1.64.38,1.96.32,1.54-.24,3.32.21,4.94.08,1.69-.15,3.23-.68,4.76-1.26,1.65-.62,3.19-1.6,4.56-2.89,1.63-1.53,3.04-3.52,4.58-5.39,1.32-1.61,2.8-3.04,3.9-5.15.18-.34.76-1.44.82-2.33-.13-.06-.33-6.78-.19-7.87ZM269.59,119.71s.01.03.02.04c.22.44.65.93,1.15,1.28,0,0,.02.02.03.03-.66-.3-1.07-.23-1.26.05-.27-.5-.51-.83-.87-1.23.43.11.75.04.93-.17ZM266.68,114.51c.11.13.23.27.34.41.16.19.33.39.49.58-.36-.09-.65-.08-.85.01-.06-.08-.12-.16-.18-.23-.18-.23-.35-.47-.53-.7.24-.02.48-.05.72-.07ZM266.85,116.4c.24.29.49.58.73.87-.34-.06-.62-.04-.82.06-.2-.28-.4-.55-.61-.82.23-.03.46-.07.7-.1ZM266.8,118.25c.24.31.48.62.72.93-.38-.09-.76-.03-.89.18-.26-.35-.51-.7-.77-1.05.38.11.75.08.94-.06ZM266.69,120.07c.24.52.63.95,1.16,1.42-.66-.31-1.06-.25-1.26.04-.26-.52-.5-.86-.84-1.26.44.11.76.03.95-.19ZM263.71,114.61c.24.29.47.59.71.88.04.05.08.09.11.14-.32-.08-.65-.08-.86,0-.02-.03-.04-.06-.06-.08-.21-.29-.42-.58-.63-.88.24-.02.48-.04.72-.06ZM263.97,116.66c.24.3.48.6.72.9-.31-.06-.62-.04-.83.05-.2-.28-.39-.56-.59-.85.23-.03.46-.07.7-.1ZM263.88,118.54c.24.33.48.66.72.99-.44-.12-.76-.05-.9.17-.23-.36-.49-.72-.79-1.12.38.15.79.13.96-.05ZM263.74,120.43c.27.53.63.97,1.14,1.45-.63-.3-1.05-.27-1.26.05-.21-.49-.45-.88-.84-1.34.43.15.76.09.96-.15ZM260.73,114.68c.26.34.52.68.78,1.02.01.02.02.03.03.04-.06-.02-.11-.03-.17-.04-.28-.06-.53-.05-.69.02-.22-.33-.45-.66-.67-.99.24-.02.48-.03.72-.05ZM261.08,116.89c.24.31.47.62.71.93-.34-.07-.63-.05-.83.03-.19-.29-.39-.58-.58-.88.23-.03.47-.06.7-.09ZM260.97,118.83c.24.33.47.67.71,1.01-.39-.11-.74-.05-.92.12-.24-.36-.49-.72-.73-1.08.37.12.75.1.94-.05ZM260.79,120.77c.23.52.57.97,1.11,1.48-.66-.33-1.18-.34-1.24.13-.22-.62-.48-1-.81-1.45.46.12.72.03.95-.16ZM257.73,114.73c.27.36.54.73.8,1.09-.31-.09-.61-.1-.88-.05-.21-.33-.43-.67-.64-1,.24-.01.48-.03.72-.04ZM258.17,117.11c.23.32.47.64.7.96-.29-.06-.59-.06-.85,0-.18-.29-.37-.59-.55-.88.23-.03.47-.05.7-.08ZM258.03,119.1c.24.35.47.7.7,1.05-.43-.17-.8-.08-.94.16-.02-.03-.03-.06-.05-.09,0,0,0,0,0,0-.11-.34-.35-.72-.65-1.08.37.12.74.1.93-.04ZM255.75,118.11c-.35-.13-.61-.12-.78,0-.14-.24-.28-.48-.43-.72.24-.03.47-.06.7-.08.19.28.38.56.58.84-.02-.01-.05-.02-.08-.03ZM254.72,114.74c.22.32.44.64.66.96-.03-.01-.05-.03-.08-.04-.37-.17-.65-.18-.81-.06-.17-.27-.33-.54-.5-.81.24-.01.48-.03.72-.04ZM130.33,170.03c.31.05.62.1.93.14-.15.68-.31,1.35-.46,2.03-.28-.29-.62-.4-.98-.3.17-.62.34-1.25.51-1.87ZM128.39,177.34c.33.4.76.46,1.22.21-.01.03-.02.05-.03.07-.35.84-.51,1.88-.42,2.72,0,.02,0,.04,0,.06-.32-.85-.84-.95-1.4-.6.35-.96.51-1.62.63-2.46ZM127.39,173.38c.28.37.72.5,1.12.36-.15.63-.29,1.25-.44,1.88-.3-.34-.79-.44-1.21-.16.18-.7.35-1.39.53-2.08ZM126.74,169.11c.31.05.61.1.92.15-.16.67-.31,1.35-.46,2.03-.26-.26-.63-.39-.98-.33.17-.62.35-1.24.53-1.85ZM124.75,176.42c.34.4.79.45,1.27.2-.4.96-.51,1.84-.53,2.87-.32-.85-.83-.97-1.39-.63.35-.95.52-1.62.65-2.44ZM123.79,172.37c.23.41.7.59,1.12.4-.16.64-.32,1.28-.47,1.93-.33-.42-.77-.47-1.2-.19.2-.68.37-1.37.55-2.14ZM123.18,168.11c.3.06.61.12.91.18-.16.68-.32,1.35-.48,2.03-.28-.3-.63-.42-.97-.36.18-.62.36-1.24.54-1.85ZM121.14,175.37c.29.45.72.54,1.22.28-.36.96-.5,1.83-.52,2.84-.32-.81-.8-.98-1.4-.61.35-.86.56-1.58.7-2.5ZM120.21,171.39c.26.37.7.53,1.1.4-.16.63-.31,1.26-.46,1.89-.29-.37-.75-.45-1.16-.29.17-.67.34-1.34.52-2ZM119.65,167.06c.3.07.59.13.89.2-.16.67-.33,1.35-.49,2.02-.24-.26-.57-.4-.94-.42.18-.6.36-1.2.54-1.8ZM117.56,174.36c.36.41.74.43,1.21.26-.36.9-.52,1.75-.54,2.81-.33-.84-.87-1.14-1.47-.49.48-1.04.64-1.73.81-2.58ZM115.7,180.92c.34.89.92,1.17,1.54.51.67-.72,1.07-2.05,1.06-3.52.33.88.8,1.22,1.56.69-.45,1.05-.59,1.9-.62,2.95-.39-1.04-1.1-1.11-1.77-.16-.61.85-.93,2.38-.69,3.51.22,1.05.92,1.35,1.6.58.64-.72,1.01-2.13.96-3.52.36,1,.98,1.16,1.61.44.66-.75,1.01-2.14.98-3.49.35.92.83,1.23,1.58.68-.43,1.07-.57,1.92-.59,2.96-.42-1.01-1.12-1.1-1.79-.09-.58.86-.9,2.39-.65,3.48.24,1.05.94,1.34,1.61.56.64-.75,1-2.16.93-3.51.36.93.96,1.12,1.56.47.66-.72,1.02-1.99,1.03-3.48.39.86.87,1.07,1.57.58-.42,1.04-.55,1.8-.57,2.91-.39-.89-1.06-1.05-1.71-.18-.65.87-.97,2.43-.74,3.55.23,1.11.93,1.39,1.58.68.68-.74,1.04-2.19.96-3.6.38.94.97,1.12,1.57.46.65-.71,1.01-2.02,1-3.46,0,0,0,.02.01.03.08.24.18.46.32.62.4.46,1.03.32,1.59-.46-.34,1.02-.65,2.09-.93,3.21-.06-.14-.12-.27-.2-.37-.56-.71-1.37-.19-1.88,1.13-.46,1.2-.5,2.82.11,3.5.27.31.66.31,1.03,0-.21,1.06-.4,2.11-.59,3.17-.06-.14-.12-.26-.21-.36-.51-.56-1.21.01-1.57,1.11-.35,1.06-.28,2.35.21,2.85.27.27.61.26.93-.03-.04.24-.08.49-.13.73.12.28.04.7-.08,1.19-.11.45-.18.92-.24,1.38-.06-.2-.15-.37-.27-.49-.45-.45-.97.02-1.24.89-.27.87-.18,1.91.22,2.31.29.3.65.19.93-.21-.12.77.09,1.33.61,1.47.54.15,1.04.54,1.58.57,3.34.19,6.61,1.13,9.96,1.54.94.11,1.66-.16,2.44-1.26.99-1.39,2.12-2.54,3.19-3.82,3.64-4.35,7.37-8.66,11.09-13.04,3.07-3.63,6.13-7.34,9.31-10.76,2.35-2.52,4.85-4.41,7.29-6.48,1.5-1.28,3.01-2.57,4.59-3.4.57-.3.92-.34,1.01.57.04.56.7,4.8.65,6.44-.02.61-2.38,23.51-2.26,25.37-.19,2.26.04,4.49-.3,6.76-.2,1.31-.07,2.74-.03,4.08.05,1.89.09,3.8.1,5.65.01,1.83.21,3.64.24,5.43.04,2.14.29,4.25.49,6.34.19,1.96.34,3.9.65,5.81.33,2.04.56,4.06.99,6.05.32,1.48.58,2.98.86,4.43.57,3.03,1.35,5.97,2.25,8.8.87,2.73,1.74,5.37,2.48,7.91.8,2.74,1.64,5.43.73,7.81-.15.4-2.47.18-2.57.02-.16-.25-.52-.23-1.52-.52-.6-.18-1.09-.37-1.79-.46-.16.07-8.19-3.05-8.33-3.26-3.88-2.65-7.81-5.07-11.33-8.16-2.7-2.37-5.4-4.74-7.9-7.31-2.6-2.67-5.08-5.48-7.44-8.37-2.67-3.26-5.22-6.61-7.56-10.14-1.91-2.86-3.73-5.78-5.46-8.74-1.73-2.95-3.39-5.94-4.85-9.09-1.08-2.33-2.28-4.45-3.22-6.89-.96-2.47-2.11-4.75-3.05-7.2-.05-.12-.09-.24-.14-.35-.05-.24-.13-.44-.24-.59-.01-.03-.02-.06-.04-.09-.1-.15-.2-.33-.29-.56-.27-.64-1.78-4.26-1.95-4.72.22-.91.18-1.94-.21-2.46-.24-.32-.56-.31-.85-.11-.1-.25-.2-.5-.31-.75.38-1.07.41-2.38-.05-2.94-.3-.37-.71-.28-1.06.12-.07-.19-.14-.38-.21-.56.56-.71.93-1.98.9-3.35ZM116.11,172.24s0,0,0,0c.27-.55.47-1.24.57-1.92.26.36.69.52,1.07.41-.16.64-.32,1.28-.48,1.91-.27-.47-.78-.52-1.21-.24.02-.05.03-.1.05-.15ZM114.22,179.44c.34-.74.54-1.76.49-2.6,0-.02,0-.03,0-.05.32.89.8,1.24,1.54.72-.41.96-.57,1.68-.65,2.83-.44-.91-1.08-1.01-1.75-.07-.1.15-.19.31-.28.49-.03-.09-.06-.19-.09-.28.25-.21.51-.55.74-1.04Z"/>
    <path class="st2" d="M144.49,213.66c.32.58.8.07,1.03-1.47.22-1.44.09-2.94-.2-3.42-.34-.56-.8.11-1.02,1.49-.21,1.33-.13,2.82.2,3.4Z"/>
    <path class="st2" d="M145.94,208.77c.32.49.79.06,1.03-1.22.23-1.2.1-2.46-.19-2.86-.34-.47-.8.09-1.02,1.23-.22,1.11-.15,2.36.17,2.85Z"/>
    <path class="st2" d="M143.73,208.26c.26.46.67.06.89-1.14.21-1.13.12-2.31-.12-2.69-.28-.44-.67.08-.88,1.16-.2,1.04-.15,2.21.11,2.68Z"/>
    <path class="st2" d="M145.24,221.84c.15-1.48-.04-2.95-.4-3.4-.36-.44-.79.22-.94,1.64-.14,1.28.01,2.8.44,3.33.31.38.75-.09.9-1.57Z"/>
    <path class="st2" d="M145.23,215.08c-.19,1.34-.05,2.8.28,3.36.35.58.81.05,1-1.47.19-1.48.02-2.9-.3-3.37-.36-.54-.8.17-.98,1.48Z"/>
    <path class="st2" d="M145.96,223.17c-.35-.41-.77.26-.89,1.64-.11,1.29.08,2.78.53,3.3.33.39.76-.09.87-1.56.11-1.5-.12-2.92-.51-3.37Z"/>
    <path class="st2" d="M142.26,213.12c.28.41.67-.14.83-1.47.15-1.27.02-2.38-.24-2.65-.3-.31-.65.36-.8,1.52-.14,1.08-.04,2.22.21,2.59Z"/>
    <path class="st2" d="M142.98,215.22c-.15,1.09-.03,2.31.25,2.72.3.42.66-.13.8-1.33.14-1.15.01-2.3-.26-2.68-.28-.39-.63.18-.79,1.29Z"/>
    <path class="st2" d="M142.37,218.77c-.31-.31-.64.41-.74,1.49-.11,1.18.08,2.33.37,2.6.33.31.66-.36.74-1.6.08-1.18-.1-2.22-.38-2.49Z"/>
    <path class="st2" d="M142.32,228.36c-.32-.31-.62.47-.66,1.66-.05,1.22.19,2.42.48,2.78.35.43.68-.18.71-1.62.03-1.41-.22-2.53-.53-2.82Z"/>
    <path class="st2" d="M143.48,223.52c-.31-.27-.62.45-.69,1.5-.08,1.12.13,2.19.4,2.52.34.41.68-.17.75-1.47.07-1.25-.16-2.29-.46-2.55Z"/>
    <path class="st2" d="M141.56,207.65c.18.19.48-.17.62-1.28.13-1,.03-1.79-.16-1.96-.23-.2-.52.33-.64,1.35-.09.77-.07,1.63.18,1.89Z"/>
    <path class="st2" d="M141.02,217.44c.22.13.48-.4.56-1.39.07-.9-.07-1.68-.27-1.83-.25-.19-.51.36-.59,1.32-.07.85.04,1.73.3,1.9Z"/>
    <path class="st2" d="M141.05,223.9c-.27-.19-.5.39-.54,1.31-.03.8.1,1.61.35,1.84.22.2.49-.22.54-1.28.04-.97-.15-1.73-.35-1.86Z"/>
    <path class="st2" d="M140.13,212.33c.21.15.45-.38.52-1.31.06-.76-.07-1.45-.23-1.49-.22-.06-.42.48-.5,1.2-.08.78.02,1.47.2,1.6Z"/>
    <path class="st2" d="M139.92,219.31c-.23-.05-.41.51-.44,1.15-.04.85.1,1.47.28,1.57.22.13.43-.31.47-1.24.04-.82-.14-1.46-.3-1.49Z"/>
    <path class="st2" d="M140.02,229.1c-.18-.36-.43-.15-.51.54-.07.63,0,1.56.14,1.93.2.52.48.47.57-.41.08-.79-.02-1.71-.2-2.06Z"/>
    <path class="st2" d="M148.02,213.94c-.34,1.44-.38,3.05-.12,4.23.27,1.24.74,1.37,1.17.52-.28,1.38-.34,2.73-.09,4.27-.38-.46-.66-.37-.99.12.28-1.55.25-3.34-.1-4.47-.3-.97-.81-.98-1.16.18-.33,1.11-.38,2.96-.07,4.22.3,1.21.78,1.4,1.2.53-.26,1.37-.24,2.92.06,4.04.32,1.24.78,1.46,1.23.7-.02.12-.02.23-.04.34-.06.32-.11.68-.13,1.1-.09,1.75.26,3.74.91,4.41.49.5,1.06-.15,1.13-2.13.04-1.1-.06-2.17-.25-3.01,0-.05-.01-.11-.02-.15.24.03.48.05.72.08-.03.49-.02,1.05,0,1.6-.02,1.61.34,3.31.94,3.92.03.03.06.04.09.06,0,.03,0,.06,0,.09.22,0,.44.01.66.02.1,0,.19,0,.29,0,.1,0,.19,0,.29,0,.1,0,.2,0,.31,0,.37,0,.75.01,1.12.02.07,0,3.57.03,3.58.02,1.23,0,2.46-.02,3.7-.04,1.61-.03,2.42-.06,2.45-.06,3.4-.08,5.84-.04,6.99-.24.86-.15,1-.43,1.49-.19.13.06.36.2.45-.03.11-.29-.09-1-.16-1.24-.37-1.38-.39-2.92-.58-4.39-.27-2.19-.17-2.5-.35-6.12-.15-4.04-.3-3.38-.33-7.1-.03.01.05-6.35.08-7.29,0-.49,0-.65.01-.98,0,0,0,0,0,0,0-.4.01-.54.01-.57,0-.62-1.07-.36-1.08-.36-.77.18-1.52-.16-2.29,0-1.42.29-1.88-.12-7.17-.14-2.84-.03-3.3.09-5.55-.1-1.14-.1-2.1-.23-2.79-.34,0-.02,0-.05,0-.07-.19-.01-.39-.03-.58-.04-.05.11-.11.21-.16.31-.04.73-.08,1.45-.12,2.18-.2.05-.39.1-.59.14.18-1.2,0-2.39-.35-2.79-.43-.49-.98.11-1.23,1.34-.11.58-.15,1.18-.1,1.72-.25-.31-.49-.25-.78.13.03-.11.06-.21.08-.33.26-1.3.08-2.65-.29-3.07-.43-.5-.98.1-1.23,1.33-.25,1.2-.14,2.53.27,3.06.24.31.54.27.81-.12-.28,1.26-.4,2.58-.23,4.11-.34-.53-.63-.39-.98.1.35-1.54.4-3.37.12-4.53-.25-1.04-.75-1.05-1.15.15-.37,1.1-.51,2.98-.26,4.29.23,1.23.7,1.42,1.16.55ZM153.35,228.48c.2.04.4.09.61.13.04.79.09,1.58.14,2.37-.2.03-.39.06-.59.1-.03-.39-.07-.76-.13-1.11-.02-.51-.04-1.03-.09-1.49.02,0,.04,0,.06.01ZM151.95,227.11c.03-.8,0-1.8-.06-2.62.19.04.38.08.57.12.03.79.06,1.58.1,2.36-.2.05-.4.09-.61.14ZM153.81,219.05c0,.81,0,1.62.02,2.42-.22.03-.45.06-.67.09,0,0-.02,0-.03,0,.02-.2.02-.39.03-.59.03-.71.05-1.44.01-2.08.21.05.43.11.64.16ZM154.13,209.32c-.04.81-.07,1.61-.1,2.42-.23.04-.46.08-.69.11.09-.79.15-1.72.18-2.7.2.06.4.11.61.17ZM152.47,215.1c-.01.8-.02,1.6-.02,2.4-.2.04-.4.08-.6.12.07-.9.1-1.84.07-2.66.18.04.37.09.55.13ZM151.3,219.44c-.12.84-.13,2.11-.02,3.02-.22,0-.44,0-.65,0,.09-1.06.07-2.18-.05-3.08.23.07.47.1.73.06ZM150.12,224.25c-.08,1.07-.03,2.18.12,3.22-.36-.43-.64-.22-.96.3.21-1.23.17-2.56,0-3.75.34.34.57.38.84.23ZM151.56,209.85c-.14.9-.2,2.1-.16,3.03-.21,0-.42.02-.63.03.13-.96.16-2.17.12-3.09.22.01.44.02.67.03ZM150.21,214.68c-.15.98-.16,2.11-.05,3.22-.33-.32-.62-.18-.94.34.25-1.25.29-2.55.16-3.85.29.39.53.47.83.28Z"/>
    <path class="st2" d="M148.25,229.37c-.06-.38-.13-.75-.23-1.06-.37-1.14-.9-1.15-1.21-.07-.12.4-.18.92-.2,1.46,0,.06-.01.11-.02.18-.09,1.59.21,3.4.8,4.02.43.46.96-.12,1.03-1.93.04-.94-.03-1.85-.18-2.59Z"/>
    <path class="st2" d="M144.84,228.01s-.07-.05-.1-.07c-.01,0-.03-.02-.04-.03-.03-.01-.05-.01-.08-.01-.02,0-.05,0-.07,0-.03,0-.07.03-.1.05,0,0-.02.01-.03.02-.26.2-.48.87-.54,1.87-.09,1.43.17,3.08.69,3.65.39.43.86-.1.94-1.74.08-1.65-.21-3.24-.67-3.74Z"/>
    <path class="st2" d="M298.16,131.98c.4.58,1.06,1.12,1.53,1.23.47.11.62-.26.17-.92-.42-.62-1.15-1.13-1.57-1.21-.49-.09-.54.31-.13.9Z"/>
    <path class="st2" d="M297.59,129.11c-.46-.06-.54.28-.2.77.33.48.91.92,1.35.99.44.08.61-.24.24-.79-.35-.51-1-.92-1.39-.97Z"/>
    <path class="st2" d="M295.79,129.73c-.4-.08-.46.24-.14.71.31.45.84.88,1.23.97.39.09.52-.2.17-.72-.33-.49-.92-.89-1.26-.96Z"/>
    <path class="st2" d="M303.35,136.14c-.42-.65-1.12-1.16-1.55-1.2-.43-.04-.5.37-.09,1.01.37.57,1.02,1.14,1.53,1.19.36.04.53-.33.12-.99Z"/>
    <path class="st2" d="M300.8,133.49c.39.58,1.04,1.11,1.5,1.2.47.1.62-.29.18-.94-.43-.63-1.13-1.1-1.55-1.17-.48-.08-.52.34-.14.91Z"/>
    <path class="st2" d="M305.9,137.57c-.41-.66-1.09-1.15-1.54-1.18-.41-.02-.48.4-.1,1.02.36.58,1,1.13,1.49,1.17.37.03.55-.36.14-1.02Z"/>
    <path class="st2" d="M296.61,132.84c.34.47.88.88,1.21.94.37.06.45-.29.02-.86-.41-.54-.97-.92-1.27-.94-.35-.02-.32.36.04.86Z"/>
    <path class="st2" d="M299.19,134.35c.32.48.87.93,1.23.99.38.06.44-.3.09-.82-.34-.5-.89-.9-1.24-.95-.36-.05-.4.29-.08.79Z"/>
    <path class="st2" d="M300.08,136.88c.35.53.89.94,1.21.94.36,0,.37-.41,0-.95-.36-.52-.89-.87-1.2-.87-.35,0-.32.41,0,.89Z"/>
    <path class="st2" d="M303.38,140.05c-.34,0-.31.47.02,1.02.34.57.88,1.02,1.2,1.06.39.05.47-.38.05-1.04-.4-.65-.95-1.03-1.28-1.04Z"/>
    <path class="st2" d="M303.84,138.4c-.37-.56-.9-.9-1.21-.89-.33,0-.31.43,0,.91.32.5.82.88,1.14.92.39.04.46-.36.08-.94Z"/>
    <path class="st2" d="M295.03,131.89c.21.01.28-.22-.09-.69-.33-.42-.76-.69-.97-.7-.26,0-.24.29.12.72.26.33.65.65.94.67Z"/>
    <path class="st2" d="M297.63,135.29c.28.37.69.69.95.66.21-.03.21-.34-.12-.77-.3-.39-.71-.65-.91-.64-.26.01-.23.32.08.74Z"/>
    <path class="st2" d="M301.85,140.07c.23,0,.3-.3-.02-.78-.29-.44-.7-.68-.9-.66-.27.03-.24.36.04.78.25.36.61.66.87.66Z"/>
    <path class="st2" d="M295.12,133.65c.26.34.61.58.8.57.22-.01.18-.31-.15-.7-.27-.32-.65-.55-.78-.51-.19.05-.11.33.13.64Z"/>
    <path class="st2" d="M298.55,137.79c.27.37.6.59.77.56.21-.03.21-.3-.09-.71-.27-.36-.64-.55-.77-.51-.19.07-.12.37.09.65Z"/>
    <path class="st2" d="M301.66,141.8c.14.32.48.71.7.83.31.16.5.01.31-.43-.18-.4-.54-.77-.79-.85-.25-.09-.37.11-.22.46Z"/>
    <path class="st2" d="M302.32,131.85c-.37-.69-1.09-1.36-1.79-1.68-.63-.29-.99-.13-.78.44.2.52.87,1.26,1.58,1.67.66.38,1.08.28,1.07-.2.33.65.93,1.28,1.57,1.63.67.37,1.07.24,1.07-.24.32.62.76,1.17,1.5,1.68-.45-.03-.62.11-.69.44-.34-.72-1.02-1.4-1.71-1.7-.59-.26-.97-.08-.79.5.17.55.81,1.3,1.49,1.69.64.37,1.07.25,1.08-.26.29.65.83,1.27,1.42,1.62.65.38,1.06.29,1.15-.22.03.05.06.1.08.16.06.16.14.33.25.51.48.77,1.34,1.49,2.02,1.51.51.01.76-.53.21-1.41-.3-.49-.71-.88-1.13-1.15-.02-.02-.04-.04-.07-.05.19-.09.38-.18.56-.27.13.21.32.44.51.65.5.67,1.26,1.25,1.88,1.25.03,0,.05,0,.08-.01.01.01.02.03.03.04.17-.09.33-.19.5-.28.07-.04.14-.08.22-.12.07-.04.15-.08.22-.12.08-.04.15-.09.23-.13.28-.16.56-.32.84-.48.06-.03,2.65-1.54,2.65-1.55.91-.54,1.81-1.08,2.71-1.63,1.17-.72,1.76-1.08,1.77-1.09,2.47-1.51,5.61-3.76,6.03-3.9.11-.03.32-.09.32-.21,0-.15-.36-.31-.49-.37-.68-.32-1.18-.82-1.81-1.21-.93-.58-.94-.73-2.38-1.73-1.61-1.1-1.47-.85-2.96-1.86.01,0-2.58-1.68-3-1.91-.21-.12-.28-.16-.42-.25,0,0,0,0,0,0-.17-.1-.23-.14-.24-.15-.28-.15-.94.26-.94.26-.47.3-1.18.46-1.66.75-.9.54-1.42.59-5.28,2.27-2.08.89-2.36,1.08-4.09,1.73-.88.33-1.64.59-2.19.77,0,0-.02-.02-.03-.03-.15.06-.3.11-.44.17.01.05.02.1.02.15.29.26.58.51.87.77-.12.08-.25.16-.37.24-.39-.47-1.05-.81-1.47-.84-.53-.03-.67.34-.31.85.17.24.41.46.67.63-.31-.03-.47.07-.52.3-.02-.04-.05-.09-.08-.14-.36-.54-1.09-.95-1.55-.98-.53-.04-.67.34-.31.86.34.5.99.95,1.51,1.01.31.03.51-.08.54-.31.33.54.79,1.06,1.53,1.55-.47-.07-.62.08-.68.38ZM310.17,135.58c-.25-.33-.6-.71-.94-1,.15-.06.31-.12.46-.18.29.29.59.58.88.88-.13.1-.27.2-.4.3ZM311.66,135.55c.16-.07.33-.13.49-.2.29.3.58.59.86.89-.14.1-.27.19-.41.29-.14-.15-.29-.28-.45-.4-.17-.2-.36-.4-.55-.56.02,0,.03-.01.05-.02ZM308.67,131.82c.31.29.61.58.92.87-.15.1-.31.19-.46.29,0,0-.01,0-.02.01-.06-.08-.13-.15-.2-.23-.24-.28-.5-.54-.77-.76.18-.06.36-.12.53-.18ZM304.99,128.35c.32.28.63.56.95.85-.15.09-.3.18-.46.27-.26-.3-.61-.64-1-.97.17-.05.34-.1.52-.14ZM306.15,130.91c.31.29.62.58.93.86-.13.09-.27.18-.4.27-.29-.35-.64-.7-.99-.98.15-.05.3-.1.46-.15ZM306.97,132.9c.23.35.69.83,1.09,1.14-.16.08-.32.17-.48.25-.31-.44-.74-.86-1.17-1.15.2-.06.38-.14.56-.25ZM307.83,135.19c.31.45.73.88,1.19,1.23-.41-.03-.55.17-.62.52-.25-.59-.73-1.1-1.27-1.5.37,0,.55-.08.7-.24ZM303.33,129.39c.28.36.74.8,1.14,1.11-.15.08-.3.15-.45.23-.3-.38-.77-.82-1.19-1.13.17-.07.33-.14.5-.21ZM304.32,131.56c.28.41.71.83,1.22,1.2-.37,0-.52.16-.57.48-.29-.56-.77-1.06-1.38-1.48.36.04.58-.02.73-.19Z"/>
    <path class="st2" d="M306.71,138.14c.05.22.16.46.32.7.02.03.03.06.04.08.43.72,1.2,1.4,1.81,1.42.46.02.69-.48.21-1.29-.25-.42-.59-.78-.94-1.03-.17-.14-.34-.26-.52-.35-.65-.32-1.05-.11-.93.47Z"/>
    <path class="st2" d="M306.63,141.39c.41.03.63-.42.2-1.19-.43-.77-1.17-1.32-1.67-1.35-.04,0-.07,0-.1,0-.01,0-.03,0-.04,0-.02,0-.04.02-.06.03-.02,0-.04.02-.06.03-.02.02-.04.04-.06.06,0,0-.01.01-.02.02-.13.2-.08.57.19,1.04.38.67,1.07,1.3,1.62,1.34Z"/>
    <path class="st2" d="M279.16,160.4c-.57-.01-1.03.52-.97,1.34.04.66.51,1.39,1.17,1.41.66.02,1.08-.64,1-1.39-.07-.72-.59-1.33-1.2-1.35Z"/>
    <path class="st2" d="M283.85,156.3c-.56,0-1.01.5-.91,1.32.07.59.55,1.28,1.2,1.29.66,0,1.06-.63.96-1.33-.09-.7-.63-1.28-1.26-1.29Z"/>
    <path class="st2" d="M280.31,157.76c-.6-.04-1.02.48-1,1.16.03.75.53,1.49,1.2,1.52.65.03,1.05-.6.99-1.28-.06-.74-.61-1.36-1.19-1.4Z"/>
    <path class="st2" d="M286.46,157.35c-.59-.01-1.01.52-.99,1.2.03.71.53,1.41,1.2,1.4.65,0,1.04-.64.98-1.29-.06-.74-.61-1.31-1.2-1.32Z"/>
    <path class="st2" d="M282.8,158.91c-.57,0-1.03.52-.95,1.34.06.62.51,1.33,1.17,1.33.67,0,1.08-.63.99-1.39-.08-.68-.6-1.28-1.21-1.28Z"/>
    <path class="st2" d="M278.09,159.04c.5,0,.81-.47.73-1.08-.07-.56-.51-1.07-.99-1.1-.49-.03-.82.42-.77,1.01.06.62.5,1.17,1.02,1.17Z"/>
    <path class="st2" d="M279.17,156.45c.54-.04.76-.57.64-1.13-.12-.57-.61-1.01-1.07-1-.47.01-.74.48-.67,1,.08.61.54,1.16,1.09,1.13Z"/>
    <path class="st2" d="M281.76,157.6c.53-.05.76-.6.65-1.15-.12-.57-.61-.99-1.06-.96-.48.03-.74.5-.68,1,.08.63.54,1.16,1.09,1.11Z"/>
    <path class="st2" d="M276.55,155.04c.41.01.6-.4.53-.78-.08-.48-.44-.87-.82-.87-.34,0-.59.29-.53.76.05.39.37.87.81.88Z"/>
    <path class="st2" d="M273.95,152.65c-.26-.07-.53.1-.55.52,0,.3.24.77.6.85.34.07.59-.16.56-.6-.03-.29-.27-.69-.61-.78Z"/>
    <path class="st2" d="M274.41,127.19c.53.08.82-.28.54-.89-.23-.5-.88-1.1-1.5-1.21-.62-.12-.82.31-.53.9.27.56.92,1.12,1.5,1.2Z"/>
    <path class="st2" d="M276.29,126.48c-.63-.1-.82.33-.55.91.27.56.92,1.1,1.49,1.17.54.07.84-.29.55-.9-.22-.49-.87-1.07-1.5-1.17Z"/>
    <path class="st2" d="M270.24,127.76c-.62-.13-.85.31-.6.92.25.61.88,1.2,1.48,1.3.53.09.85-.27.57-.96-.2-.49-.82-1.14-1.45-1.26Z"/>
    <path class="st2" d="M274.8,128.48c-.21-.59-.89-1.23-1.52-1.34-.62-.12-.83.31-.6.87.25.6.91,1.18,1.46,1.28.57.1.85-.26.66-.8Z"/>
    <path class="st2" d="M266.83,127.05c.24.64.89,1.25,1.45,1.39.57.14.85-.24.65-.81-.2-.59-.86-1.27-1.49-1.42-.62-.15-.82.28-.61.85Z"/>
    <path class="st2" d="M271.92,126.91c-.21-.49-.85-1.13-1.47-1.25-.63-.13-.84.29-.56.92.25.57.9,1.15,1.47,1.25.54.1.84-.26.55-.92Z"/>
    <path class="st2" d="M277.33,129.75c-.21-.49-.76-.94-1.25-1-.47-.05-.64.29-.42.77.2.45.73.89,1.18.96.47.06.68-.27.49-.73Z"/>
    <path class="st2" d="M278.95,130.09c-.52-.06-.66.31-.46.77.2.46.73.89,1.19.94.45.05.67-.27.51-.69-.17-.47-.71-.96-1.24-1.01Z"/>
    <path class="st2" d="M276.64,132.66c.44.02.6-.35.43-.77-.21-.5-.76-.98-1.27-1-.5-.02-.59.39-.37.86.23.48.78.9,1.21.92Z"/>
    <path class="st2" d="M273.83,131.26c.44.03.6-.33.43-.75-.21-.52-.78-1.01-1.28-1.05-.49-.03-.58.38-.36.86.24.49.79.91,1.21.94Z"/>
    <path class="st2" d="M279.27,133.78c.32,0,.5-.22.35-.61-.12-.32-.52-.71-.94-.74-.39-.03-.48.29-.35.61.17.39.58.74.94.74Z"/>
    <path class="st2" d="M281.9,134.86c.26.05.49-.09.42-.43-.05-.25-.37-.62-.73-.68-.34-.06-.53.13-.41.48.08.24.38.56.72.63Z"/>
    <path class="st2" d="M272.52,123.32c.29.63,1.08,1.35,1.83,1.49.57.1.94-.24.66-.92-.24-.58-1.03-1.33-1.79-1.51-.74-.18-1.02.24-.7.94Z"/>
    <path class="st2" d="M346.84,116.69c-4.66-1.75-10.2-3.06-10.41-3.16-.58-.18-1.17-.37-1.83-.5-.61-.13-3.03-.81-3.86-.92-.41.01-11.66-2.94-12.45-3.31-.89-.31-2.02-.49-3.13-.72-2.36-.48-4.47-.52-6.68-.49-1.4.02-2.5.14-3.44.31-.94.17-2.13.2-2.92.44-.48.17-5.73.8-6.94.83-.94.04-3.32.4-3.53.47-.7.23-1.72.24-2.57.32-2.59.27-3.7.53-4.27.56-.2,0-1.02.23-1.17.33-.73.47-1.88.68-2.72,1.11-.88.45-1.55,1.05-2.22,1.67-.72.67-1.27,1.49-1.62,2.44-.42,1.13-.58,2.46-.87,3.78-.26,1.14-.69,2.24-.66,3.61,0,.22.01.94.28,1.42.1.01,2.61,3.36,2.92,3.92.07.09,3.03,4.3,3.77,4.88.33.24.42.37.68.25.64-.3,1.43-.53,2.1-.64,1.3-.24,2.24-.88,3.59-1.07,1.33-.19,2.46-.74,3.69-1.12.55-.17.98-.37,1.09-.88.09-.38.11-.79.23-1.14.5-1.41.68-2.84,1.07-4.13.32-1.06.47-2.13.67-3.14.19-.97.35-1.92.47-2.84.17-.94,2.06-7.03,1.99-7.1,0-.29,1.31-1.57,1.89-1.42,1.71.39,3.2.95,4.61,1.5.65.25,3.05,1.45,3.63,1.7,1.61.74,15.8,8.13,16.05,8.39,1,.41,7.23,4.13,7.91,4.7.81.55,1.55,1.18,2.4,1.71.88.56,1.67,1.21,2.46,1.86,1.04.69,4.45,4.76,4.54,5.14.41.67.8,1.37.82,2.37.02.89-.09,2.49-.32,2.84-.21.32-.5.46-.68.54-1.32.59-2.63,1.1-3.96,1.6-1.56.58-3.08.88-4.64,1.34-1.2.36-2.33.41-3.5.59-1.04.17-2.12.17-3.17.21-1.9.08-3.79-.03-5.77.07-2.13.1-4.18-.24-6.32-.3-1.43-.04-2.85-.22-4.23-.42-2.57-.37-5.21-.68-7.81-1.28-1.8-.41-3.64-.85-5.52-1.23-2.25-.45-4.47-1.23-6.72-1.9-2.44-.72-4.85-1.67-7.31-2.53-.91-.32-2.19-.87-3.51-1.5.17-.03.3-.16.28-.32-.02-.31-.32-.71-.7-.81-.35-.09-.54.11-.47.4.03.14.12.29.24.42-.64-.31-1.26-.62-1.85-.92.14-.11.18-.32.05-.61-.16-.35-.57-.72-.97-.71-.37,0-.41.38-.25.69,0,0,0,0,0,.01-.54-.29-.99-.53-1.3-.7.11-.16.11-.4,0-.67-.24-.54-.79-.98-1.27-.99-.45-.02-.56.4-.36.86.02.05.04.09.07.13-.42-.18-.92-.41-1.44-.65.26-.08.37-.36.23-.74-.18-.51-.72-1.01-1.21-1.09-.47-.07-.65.28-.47.77.07.18.18.36.32.52-.59-.29-1.13-.57-1.55-.78.37-.04.55-.36.4-.86-.18-.6-.83-1.29-1.48-1.45-.61-.15-.84.31-.64.87.09.25.23.5.41.71-.13-.07-.26-.14-.39-.21,0,.07-1.16-.48-1.45-.73.03,0,.06.03.09.03.56.14.88-.25.65-.88-.24-.63-.88-1.29-1.48-1.43-.58-.14-.82.26-.61.87.14.4.44.8.78,1.09-.47-.24-1.06-.55-1.02-.56-.2-.11-.4-.22-.61-.33-.07.18-5.95-3.12-6.96-3.92-.72-.53-1.48-.95-2.21-1.45-1.35-.93-2.73-1.7-4.07-2.66-.97-.69-1.94-1.22-2.9-1.96-.9-.7-1.87-1.28-2.78-1.76-.58-.31-1.15-.75-1.74-1.02-1.7-.78-3.43-1.78-5.12-2.62-.95-.47-1.84-.64-2.78-1.09-1.95-.93-3.66-1.2-5.48-1.84-.83-.28-5.37-.95-5.62-1.04-.21-.07-4.34-.7-4.53-.72-.23-.02-.87-.12-1.34-.2-.19-.02-6.52-1.02-6.75-.94-.61.24-1.51-.38-2.19-.29-.41.06-1.03-.17-1.48-.2-1.24-.07-2.66-.56-3.59.12-.6.43-1.25.74-1.6,1.66-.41,1.05-.41,2.33-.29,3.86.14,1.69.45,3.49,1.07,5.28.61,1.58,3.22,12.7,3.8,15.64.4,1.81.54,3.66,1.03,5.49.54,1.73,2.5,13.66,2.85,16.77.45,1.63,2.24,20.32,2,22.64.14,2.24.08,15.67-.09,17.69,0,1.71-.24,6.68-.13,7.48.56,3.39,1.83,5.68,4.48,6.26.79.17,1.72-.24,2.35-.11.83.16,1.72-.17,2.53-.11.84.13,10.61-2.65,11.4-2.91,1.66-.4,3.33-1.1,4.99-1.54,2.29-.6,4.63-1.7,6.88-2.34,2.9-.83,5.74-2.37,8.57-3.64,1.75-.79,3.47-2.14,5.18-3.29,3.9-2.62,7.31-6.17,10.27-9.91,1.58-1.99,2.95-4.19,4.22-6.35,1.84-3.12,3.27-6.32,5.08-9.19.03.88.54,1.82,1.35,1.87.48.03.9-.22,1.19-.63.09.42.18.84.27,1.26-.19,0-.39.05-.59.12-.6.13-1.17.71-1.39,1.62,0,.04,0,.1,0,.17.03,1.59.33,2.81.45,3.32.26,1.26.07,1.15.23,4.77.06,1.75.12,2.9.15,3.72-.05,1.26.31,3.62-1.23,13.25-1.04,5.6-.77,4.55-2.07,9.53-.55,2.27-2.82,9.63-3.23,10.93-.35,1.33-1.11,2.76-1.52,4.1-.55,1.79-1.34,3.69-2.14,5.57-.77,1.82-1.65,3.68-2.51,5.52-1.04,2.24-2.06,4.45-3.27,6.72-1.75,3.27-3.48,6.49-5.6,9.8-.76,1.23-3.01,4.8-3.39,5.33-1.17,1.71-2.04,3.27-3.4,5.03-1.26,1.62-2.32,3.17-3.75,4.85,1.1-1.84,2.24-3.75,3.11-5.55,1.69-2.29,9.23-20.51,9.65-23.66.75-2.42,1.26-4.74,1.76-7.09.4-1.87.89-3.83,1.18-5.68.25-1.61.59-3.32.73-4.89.26-2.85.47-5.73.68-8.62.06-.88.12-1.79.1-2.62-.06-2.89.21-6-.31-8.7-.08-.39-.29-.49-.64-.25-1.86,1.25-3.7,1.68-5.56,2.42-1.18.47-2.36.88-3.58,1.58-1.5.86-3.05,1.21-4.58,1.85-1.11.46-2.16.42-3.34,1.19-.75.49-1.57.48-2.4.88-1.07.52-2.16.76-3.23,1.11-.88.28-1.79.66-2.66.72-.73.05-1.01.65-1.09,1.54,0,1.87.03,13.96-.21,15.03-.21,3.24-.37,6.4-1,9.71-.67,3.52-1.23,6.89-2.12,10.34-.39,1.94-2.56,10.1-3.21,11.38-.62,1.49-1.15,2.95-1.68,4.36-.87,2.33-1.99,4.73-2.97,6.99-.64,1.48-1.52,3.06-2.24,4.52-.69,1.41-1.82,3.02-2.57,4.4-1.02,1.89-2.53,3.95-3.64,5.77-.84,1.38-1.99,2.88-3.07,4.3-1.43,1.88-2.91,3.71-4.61,5.55-3.47,3.76-6.5,6.63-8.77,8.66-3.89,3.47-6.38,5.23-8,6.3-.38.25-.7.46-.92.6-.39.25-.96.61-1.65,1.03-1.59.97-3.83,2.35-6.53,3.69-.06.03-.13.06-.2.1-.22,0-.45.03-.67.03-3.98.14-7.97-.11-11.66-.78-5.2-.93-9.94-2.65-14.05-5.04-4.13-2.4-8.19-5.43-11.35-9.06-6.23-7.98-8.64-10.56-13.79-23.56-1.94-5.48-3.03-10.25-3.63-13.12,0,.02,0,.04,0,.06-.15-1.13-.77-2.39-1.68-2.91-.38-.22-.77-.24-1.08-.05-.09.03-.17.07-.25.11-.03-.86-.22-1.51-.55-2.43,0,0,0,0,.01.01.12.13.25.25.39.35.89.58,1.59.02,1.66-1.21.06-1.13-.47-2.59-1.35-3.15-.68-.43-1.42-.06-1.57,1.16-.08.69.1,1.61.51,2.33,0,.01.01.03.02.04-.7-.71-1.36-.95-1.94-.38.06-.89-.06-1.55-.4-2.57.81.74,1.54.72,1.89-.2.32-.84.14-2.23-.5-3.19-.57-.86-1.35-1.09-1.84-.37-.46.67-.46,1.97.12,3.27-.68-.74-1.4-.91-1.82-.25-.46.73-.39,1.95.19,3.24-.69-.73-1.32-.98-1.93-.43.08-.98-.09-1.75-.42-2.69.78.89,1.56.87,1.94-.05.33-.83.16-2.23-.47-3.22-.57-.91-1.39-1.12-1.87-.36-.45.71-.38,2.02.15,3.26-.73-.86-1.43-.96-1.85-.26-.44.73-.33,2.02.21,3.22-.71-.79-1.33-1.04-1.92-.5.06-.99-.08-1.78-.4-2.72.78.9,1.55.92,1.92-.03.32-.82.16-2.23-.44-3.22-.57-.94-1.38-1.17-1.85-.41-.45.72-.4,2.04.12,3.27-.69-.83-1.37-.98-1.79-.36-.46.68-.42,1.87.09,3.22-.72-.77-1.28-.95-1.86-.48.09-.96-.03-1.66-.37-2.7.69.82,1.44.95,1.84.13.4-.82.26-2.28-.3-3.3-.56-1.02-1.35-1.27-1.83-.6-.5.7-.46,2.06.06,3.36-.69-.87-1.35-1.03-1.78-.42-.47.66-.44,1.87.05,3.22,0,0-.02-.02-.03-.03-.16-.23-.34-.42-.54-.58-.72-.55-1.52-.23-1.71,1.11-.16,1.14.34,2.93,1.31,3.68.52.41.98.43,1.31.13.08.6.16,1.19.25,1.78-.21-.14-.43-.24-.64-.3-.75-.36-1.49.07-1.61,1.39-.04.49.03,1.09.2,1.69.45,2.59,1.17,6.21,2.34,10.39,1.61,5.38,1.87,6.4,4.65,12.9,3.83,8.25,6.56,11.58,8.26,13.95,1.67,2.19,3.59,4.24,5.45,6.12,1.47,1.49,3.54,2.97,5.23,4.25,3.19,2.44,7.35,4.42,11.17,5.9,3.39,1.33,7.58,2.2,11.47,2.67,2.75.35,5.73.46,8.85.32,3.69-.16,7.57-.66,11.57-1.5.78-.17,1.2-.26,1.57-.34.18-.04.43-.1.65-.15,1.41-.32,2.81-.66,4.22-1.01.8-.2,1.57-.39,2.36-.6,1.22-.32,2.43-.64,3.65-.98,0,0,0,0,0,0,1.11-.31,2.17-.61,3.21-.91,1.26-.36,3.04-.9,4.19-1.25,1.36-.43,2.13-.63,5.13-1.68,4.87-1.72,9.91-3.92,14.74-6.4,2.73-1.4,5.14-2.8,8.01-4.49,2.09-1.23,3.81-2.41,5.69-3.7,1.7-1.16,3.52-2.43,5.13-3.65,3.61-2.74,7.41-5.8,10.82-8.89,2.8-2.53,5.57-5.2,8.24-7.92,1.37-1.3,6.59-7.27,7.87-8.82,1.98-2.24,3.64-4.38,5.32-6.58,1.79-2.35,3.43-4.68,5.03-7.04,1.66-2.44,3.31-4.93,4.79-7.37,2.34-3.85,4.66-7.8,6.44-11.53,1.31-2.64,3.96-8.37,4.17-8.64-.07,1.58-.77,3.62-1.18,5.39-.47,2.03-1.18,4.2-1.99,6.39-.55,1.7-3.1,8.08-3.72,9.27-.83,1.84-1.64,3.62-2.63,5.49-1.05,1.98-1.98,3.8-3.25,5.82-1.16,1.84-2.19,3.55-3.34,5.28-.82,1.23-1.58,2.41-2.65,3.76-1.09,1.37-2.07,2.62-3.1,3.88-1.31,1.6-2.66,3.16-4.14,4.75-.71.75-1.04,1.25-1.79,2.02-1.48,1.52-3.18,3.11-4.5,4.4-1.81,1.78-4.22,3.8-6.21,5.44-1.27,1.06-3.31,2.51-4.79,3.57-1.23.89-2.57,1.79-3.94,2.66-.19.1-.34.31-.36.49-.03.22.16.39.43.28,2.22-1.11,4.31-2.18,6.69-3.45,2.45-1.3,4.51-2.42,7.01-3.83,1.56-.88,3.01-1.71,4.31-2.46.81-.47,1.82-1.06,2.75-1.63,4.35-2.63,8.44-5.41,12.5-8.45,4.65-3.48,9.29-7.32,13.37-11.1,1.74-1.61,3.4-3.22,5.11-4.92,1.48-1.47,2.94-2.96,4.34-4.44,2.63-2.8,5.1-5.6,7.55-8.52,2.74-3.03,10.11-13.08,11.46-15.24,2.52-3.61,4.65-7.06,6.66-10.5,2.16-3.48,7-12.84,7.48-14.06,1.15-2.41,2.2-4.78,3.11-7.06,1.28-3.22,2.61-6.53,3.67-9.65,1.11-3.27,1.95-6.34,2.74-9.39.5-1.95,1.07-4.01,1.3-5.78.21-1.59.67-3.46.84-5.04.21-2.01.57-4.13.73-6.08.64-9.49.78-13.08-.43-13.57-.32-.1-.69.11-1.42.5-1.21.72-8.9,8.15-9.92,8.92-1.45,1.21-2.89,2.54-4.41,3.55-1.45.97-2.84,2.24-4.27,3.33-.91.69-1.84,1.5-2.77,2.21-.44.33-.52.76-.47.93.38,1.25.31,2.81.49,4.2.16.69.03,6.53-.08,7.77.07.73-.59,8.11-1.23,11.17-.21,1.18-.5,2.43-.75,3.63-.56,2.72-1.21,5.48-1.98,8.3-.57,2.1-1.56,4.49-2.23,6.59-.86,2.69-2.19,5.68-3.32,8.48-1.31,3.25-3.11,6.79-5,10.3-.57,1.06-1.01,2.06-1.72,3.27-.3-.17.42-1.29.65-1.92.58-1.6,1.16-3.23,1.79-4.96.43-1.16.58-2.12.92-3.26.49-1.64.73-3.07,1.18-4.75.47-1.75.53-3.17.78-4.79.28-1.82.76-3.87.74-5.48-.02-1.61.18-3.46.12-5.1-.04-1.34-.04-2.84.13-4.46.09-.94-.18-1.69-.26-2.56-.19-2.09-.38-4.22-.79-6.19-.29-1.66-1.43-6.15-1.6-6.8-.45-2.25-1.07-3.45-1.73-5.28-.81-2.23-1.56-4.03-2.1-5.28-.52-1.91-1.02-3.32-1.38-4.28-.21-.57-.53-1.39-.94-2.55-.29-.81-.52-1.49-.67-1.93,0,0,0,0,0,0-.17-.77-.77-1.36-1.56-1.28-.33.04-.66.22-.91.51-.07.07-.14.13-.2.21-.08-.61-.29-.97-.65-1.44,0,0,0,0,.01,0,.11.03.23.05.36.04.79-.04,1.33-.79,1.27-1.67,0-.03,0-.05-.01-.08.89.27,1.77.55,2.65.88.27.1.51.24.72.41.52.14,1.05.25,1.6.32,1.04.13,1.99.52,3.01.69,1.62.27,3.24.48,4.87.57,1.87.11,3.84-.23,5.78-.57.92-.16,1.87-.5,2.81-.82,1.81-.61,3.62-1.38,5.41-2.4,1.67-.96,3.33-1.93,4.97-3.16,1.14-.85,2.32-1.84,3.53-2.6.86-.54,1.71-1.44,2.56-2.17,2.24-1.86,8.25-7.37,9.01-8.14,1.19-1.12,2.42-2.29,3.54-3.57.89-.96,5.96-6.26,6.57-6.98,1.95-2.14,3.22-4.31,3.66-6.48.21-1.06.2-1.91-.16-2.49-.39-.63-.76-1.27-1.54-1.55-.26-.13-4.12-2.73-8.93-4.36ZM108.73,256.73s0-.05,0-.07c.05-.78-.14-1.73-.52-2.5,0-.02-.01-.04-.02-.05.63.79,1.22.87,1.68.54-.03.89.04,1.49.22,2.26-.5-.35-.98-.41-1.37-.18ZM108.7,265.9c-.06-.25-.12-.5-.17-.75-.08-.36-.16-.72-.24-1.09.44.28.85.39,1.21.32.02.14.05.28.07.42.07.42.15.84.22,1.26-.36-.05-.73-.11-1.09-.16ZM109.93,262.95c-.12-.54-.24-1.07-.35-1.62.42.23.83.32,1.18.25.07.5.15.99.23,1.48-.35-.04-.71-.08-1.06-.12ZM111.4,260.18c-.1-.57-.2-1.14-.29-1.71.45.3,1.02.38,1.35.1.09.63.19,1.26.29,1.89-.45-.32-.98-.41-1.34-.28ZM112.9,257.5c.05-.88-.16-1.68-.51-2.62.64.76,1.23.84,1.7.5-.02.88.05,1.48.24,2.23-.52-.34-1.01-.36-1.43-.11ZM113.1,266.8c-.13-.52-.26-1.04-.39-1.56-.02-.08-.04-.17-.06-.25.41.23.88.35,1.24.29,0,.05.02.1.03.14.09.51.18,1.01.28,1.51-.37-.04-.73-.09-1.09-.13ZM114.21,263.63c-.13-.53-.25-1.06-.38-1.6.39.19.85.29,1.2.22.08.49.16.98.24,1.46-.36-.03-.71-.06-1.07-.09ZM115.66,260.87c-.11-.58-.21-1.16-.31-1.74.53.35,1.02.36,1.36.07.07.61.18,1.24.33,1.93-.43-.34-1.01-.46-1.38-.27ZM117.17,258.12c0-.88-.2-1.66-.56-2.56.65.69,1.23.81,1.73.42-.04.8.03,1.45.25,2.27-.49-.37-.99-.4-1.42-.13ZM117.54,267.57c-.15-.57-.3-1.15-.45-1.72,0-.02-.01-.05-.02-.08.07.04.15.07.22.1.38.16.74.22,1.03.17.11.55.21,1.1.33,1.64-.37-.03-.74-.07-1.11-.11ZM118.52,264.21c-.13-.53-.26-1.06-.39-1.59.44.21.87.27,1.21.2.08.49.17.97.26,1.45-.36-.02-.72-.04-1.08-.07ZM119.97,261.39c-.12-.56-.23-1.13-.34-1.69.47.29,1,.3,1.37.12.11.6.22,1.2.34,1.79-.45-.28-.99-.37-1.37-.21ZM121.45,258.63c0-.83-.17-1.58-.58-2.52.69.7,1.4.88,1.77.23-.09.97.03,1.59.22,2.35-.56-.3-.98-.27-1.41-.06ZM122.04,268.23c-.17-.59-.34-1.18-.5-1.77.4.21.84.3,1.26.27.11.53.22,1.06.34,1.58-.37-.03-.73-.06-1.1-.09ZM122.88,264.66c-.14-.52-.28-1.04-.42-1.56.38.17.81.24,1.22.21.08.47.17.94.26,1.4-.36-.01-.71-.03-1.07-.05ZM124.31,261.83c-.12-.56-.24-1.13-.36-1.7.5.36,1.08.33,1.42.02,0,.05.01.09.02.14,0,0,0,0,0,0-.04.51.06,1.13.28,1.71-.46-.26-1-.33-1.35-.18ZM127,263.78c.44.26.82.3,1.13.16.07.37.14.73.22,1.1-.36,0-.72,0-1.08-.01-.12-.44-.24-.87-.36-1.31.03.02.06.04.09.06ZM126.56,268.77c-.15-.49-.29-.99-.43-1.48.03.02.06.05.1.07.46.3.86.37,1.17.22.09.41.19.83.28,1.24-.37-.01-.74-.03-1.12-.05ZM283.07,173.72c-.32.17-.64.35-.96.52-.11-.43-.22-.85-.33-1.28.38-.03.75-.19,1.07-.46.08.41.15.82.22,1.22ZM282.13,168.98c-.46,0-.89.22-1.23.62,0-.02,0-.03,0-.05.01-.62-.22-1.23-.62-1.6,0-.01-.01-.02-.02-.03.62.24,1.14-.01,1.53-.51.04.68.14,1.09.34,1.58ZM284.6,170.27c-.41,0-.88.22-1.2.52-.1-.39-.2-.78-.31-1.17.41-.02.92-.27,1.2-.66.11.44.21.87.31,1.31ZM286.91,171.82c-.32.18-.63.36-.95.53-.12-.41-.24-.82-.36-1.23.35-.05.76-.23,1.07-.49.08.39.16.79.24,1.19ZM285.89,167.21c-.47.03-.9.27-1.26.69,0-.69-.24-1.17-.62-1.67.62.21,1.14-.04,1.52-.54.05.65.15,1.06.35,1.52ZM288.4,168.43c-.38-.03-.89.19-1.21.54-.11-.39-.22-.78-.33-1.17.47-.02.91-.28,1.19-.68.09.42.2.85.35,1.3ZM290.71,169.87c-.31.18-.63.36-.94.54-.12-.4-.25-.8-.37-1.21.39-.06.76-.24,1.06-.49.09.38.17.77.25,1.16ZM289.63,165.41c-.44-.01-.87.22-1.24.66-.06-.65-.27-1.12-.66-1.59.61.16,1.12-.06,1.52-.6.03.59.14,1.04.38,1.53ZM292.13,166.49c-.4.02-.87.25-1.18.57-.12-.37-.23-.74-.35-1.11.42-.03.88-.3,1.18-.64.12.39.24.78.36,1.18ZM294.48,167.85c-.31.18-.61.36-.92.55-.13-.39-.26-.77-.4-1.15.34-.06.7-.23,1.05-.48.09.36.18.73.26,1.09ZM293.31,163.51c-.5.07-.85.31-1.21.69-.05-.61-.25-1.06-.68-1.52.65.14,1.26-.09,1.52-.74,0,.73.16,1.12.36,1.57ZM292.22,159.65c-.66-.16-1.29.08-1.56.74-.29.72-.11,1.53.51,2.14-.65-.16-1.21-.02-1.68.69-.02-.74-.25-1.19-.64-1.66.76.22,1.43-.19,1.63-1.01.18-.73-.16-1.57-.83-1.91-.62-.32-1.33-.05-1.62.68-.27.69-.03,1.54.57,2.11-.72-.22-1.33.06-1.61.76-.29.73-.06,1.58.51,2.16-.68-.2-1.24-.06-1.7.64-.03-.75-.23-1.23-.62-1.72.77.23,1.44-.16,1.64-1.01.17-.73-.15-1.6-.8-1.96-.62-.34-1.34-.09-1.63.65-.28.71-.06,1.58.53,2.17-.69-.22-1.29.02-1.58.67-.32.72-.16,1.54.4,2.26-.7-.18-1.2,0-1.67.64,0-.75-.17-1.19-.58-1.75.69.22,1.36-.09,1.62-.87.26-.79-.06-1.72-.68-2.13-.63-.41-1.35-.18-1.67.53-.33.73-.12,1.66.48,2.31-.7-.25-1.3-.02-1.6.64-.33.72-.19,1.58.35,2.31,0,0-.02,0-.02,0-.16-.08-.34-.13-.53-.13-.54-.01-1.07.4-1.31,1.12-.05-.72-.15-1.44-.29-2.17.1.04.21.08.32.08.77.07,1.34-.65,1.31-1.6-.02-.86-.59-1.7-1.38-1.73-.36-.02-.7.18-.93.53-.19-.66-.39-1.31-.6-1.97.1.04.2.08.32.08.66.04,1.07-.61.99-1.36-.07-.72-.6-1.35-1.21-1.38-.33-.02-.62.16-.8.46-.05-.15-.1-.3-.14-.45-.21-.09-.28-.36-.35-.68-.07-.29-.17-.57-.28-.85.12.08.26.13.4.14.54.04.83-.46.75-1.04-.08-.58-.52-1.09-.99-1.13-.35-.03-.62.19-.72.53-.16-.47-.53-.68-1.02-.54-.51.15-1.06.14-1.54.36-2.91,1.3-6.03,2.03-9.07,2.97-.86.27-1.4.69-1.77,1.67-.47,1.24-1.16,2.38-1.76,3.6-2.07,4.15-4.42,8.42-6.97,12.89-2.1,3.69-4.32,7.54-6.9,11.31-1.91,2.79-4.2,5.19-6.47,7.73-1.4,1.57-2.84,3.17-4.47,4.43-.59.45-.98.61-1.23-.1-.15-.43-1.55-3.7-1.74-5.09-.06-.52-1.08-20.21-1.46-21.75-.14-1.93-.67-3.79-.67-5.76,0-1.14-.31-2.33-.52-3.47-.3-1.61-.58-3.24-.83-4.83-.25-1.57-.64-3.11-.89-4.67-.29-1.85-.76-3.68-1.16-5.5-.38-1.71-.72-3.42-1.18-5.11-.49-1.81-.87-3.61-1.4-5.41-.39-1.34-.74-2.7-1.08-4.04-.71-2.78-1.54-5.54-2.4-8.27-.83-2.63-1.62-5.24-2.29-7.76-.72-2.72-1.41-5.46-.96-7.47.07-.33,1.58.44,1.66.6.12.27.35.34,1.02.83.4.3.74.58,1.2.8.06.06,5.7,4.24,5.85,4.35,2.92,2.85,5.96,5.21,8.95,7.83,2.3,2.01,4.66,3.84,7,5.68,2.43,1.91,4.88,3.74,7.34,5.48,2.78,1.96,5.58,3.79,8.37,5.56,2.27,1.44,4.54,2.79,6.82,4.06,2.27,1.27,4.57,2.43,6.81,3.64,1.66.89,3.37,1.55,5.01,2.41,1.67.88,3.46,1.49,5.17,2.22.08.04.17.07.25.1.13.09.27.15.42.17.02,0,.04.02.06.03.14.02.29.06.46.12.46.19,3.14,1.07,3.48,1.16.17.53.61.98,1.16.99.34,0,.6-.18.77-.44.19.05.38.1.56.15.1.68.61,1.27,1.23,1.23.41-.02.73-.3.87-.68.14.04.28.07.42.11-.19.63.01,1.39.61,1.93ZM295.53,163.38s0,0,0,0c0,.4.1.81.31,1.13-.4.04-.85.27-1.15.58-.12-.36-.25-.72-.38-1.08.45,0,.93-.32,1.2-.72,0,.03.01.06.02.09ZM294.13,159.31c.01.51.27,1.05.67,1.34,0,0,.01.01.02.02-.66-.14-1.23.03-1.67.71-.04-.65-.2-1.04-.61-1.56.77.1,1.37-.28,1.55-1.07.03-.12.04-.25.03-.37.07.02.13.04.2.05-.13.24-.21.54-.2.88Z"/>
    <path class="st2" d="M256.01,154.75c-.43-.3-.69.17-.49,1.28.19,1.03.7,2.01,1.09,2.24.45.27.67-.32.48-1.3-.18-.95-.65-1.91-1.08-2.22Z"/>
    <path class="st2" d="M256.07,158.45c-.41-.24-.7.19-.58,1.14.12.88.56,1.7.93,1.87.43.21.68-.32.57-1.15-.11-.81-.51-1.62-.91-1.85Z"/>
    <path class="st2" d="M258.13,158.12c-.35-.22-.59.17-.46,1.04.12.81.53,1.56.85,1.73.37.19.58-.28.45-1.05-.12-.74-.48-1.5-.84-1.72Z"/>
    <path class="st2" d="M253.28,149.36c.25,1.06.79,2.03,1.2,2.24.41.21.6-.35.35-1.35-.22-.9-.73-1.9-1.22-2.18-.35-.2-.59.23-.34,1.29Z"/>
    <path class="st2" d="M255.02,153.99c-.19-.96-.68-1.92-1.1-2.22-.44-.32-.68.16-.46,1.26.22,1.07.72,2,1.11,2.24.44.27.64-.34.45-1.27Z"/>
    <path class="st2" d="M252.36,148.6c.39.21.56-.35.31-1.33-.23-.92-.76-1.91-1.24-2.2-.36-.21-.59.2-.32,1.27.27,1.08.81,2.03,1.24,2.26Z"/>
    <path class="st2" d="M258.05,154.46c-.35-.18-.53.29-.3,1.21.22.89.64,1.58.93,1.67.34.11.46-.44.27-1.25-.18-.75-.58-1.47-.9-1.63Z"/>
    <path class="st2" d="M256.87,153.28c-.17-.77-.59-1.55-.93-1.75-.36-.21-.51.26-.31,1.1.19.81.6,1.55.93,1.73.34.18.49-.3.32-1.08Z"/>
    <path class="st2" d="M256.43,150.75c.34.12.41-.44.21-1.18-.22-.82-.69-1.54-.99-1.65-.35-.13-.44.4-.19,1.26.24.82.67,1.47.97,1.58Z"/>
    <path class="st2" d="M253.96,144.25c.33.14.37-.45.1-1.27-.27-.84-.76-1.62-1.08-1.82-.38-.24-.48.25-.15,1.25.33.98.81,1.7,1.13,1.84Z"/>
    <path class="st2" d="M254.28,147.81c.32.11.39-.45.17-1.18-.23-.78-.66-1.47-.96-1.64-.37-.21-.5.26-.23,1.17.26.88.71,1.54,1.02,1.65Z"/>
    <path class="st2" d="M260.18,157.81c-.21-.06-.36.27-.18,1.03.17.69.48,1.17.7,1.2.26.05.36-.39.18-1.09-.14-.52-.41-1.06-.7-1.15Z"/>
    <path class="st2" d="M257.9,151.27c-.22-.03-.29.4-.08,1.07.19.61.52,1.09.73,1.13.26.05.33-.38.13-1.04-.18-.58-.51-1.12-.77-1.16Z"/>
    <path class="st2" d="M256.14,146.99c.26.06.3-.38.08-1-.19-.55-.5-1.05-.77-1.15-.23-.09-.33.26-.09.98.22.66.58,1.13.77,1.17Z"/>
    <path class="st2" d="M260.07,154.34c-.22-.03-.27.38-.07,1.01.16.51.47.91.62.88.21-.04.23-.44.08-.93-.16-.53-.44-.93-.63-.96Z"/>
    <path class="st2" d="M258.29,149.74c.2-.03.2-.44.04-.88-.2-.57-.48-.94-.65-.96-.21-.03-.26.32-.04.94.19.55.51.92.65.9Z"/>
    <path class="st2" d="M255.58,143.26c.24.2.37,0,.26-.47-.11-.44-.41-1.05-.62-1.27-.29-.31-.49-.22-.33.39.14.55.46,1.15.69,1.35Z"/>
    <path class="st2" d="M252.94,155.51c-.07-1.08-.45-2.21-.95-2.98-.53-.8-.95-.79-1.11-.09-.1-1.04-.37-2-.94-3.05.42.25.63.12.78-.29.15,1.15.59,2.42,1.17,3.12.49.61.92.49.92-.4,0-.85-.42-2.14-.99-2.96-.54-.78-.97-.82-1.11-.12-.12-1.02-.51-2.12-1.01-2.87-.55-.83-.96-.91-1.15-.29-.01-.09-.03-.17-.05-.26-.02-.24-.07-.51-.15-.82-.33-1.28-1.05-2.67-1.7-3.09-.49-.31-.79.25-.42,1.73.21.82.52,1.59.86,2.18.02.03.03.07.05.11-.2.02-.4.04-.6.06-.08-.36-.21-.78-.36-1.18-.34-1.19-.99-2.41-1.58-2.79-.03-.02-.05-.02-.08-.04,0-.02-.02-.05-.03-.07-.17.02-.34.04-.52.06-.08,0-.15.02-.22.03-.08,0-.15.02-.23.03-.08,0-.16.02-.24.03-.29.03-.59.07-.88.1-.06.01-2.8.3-2.8.3-.96.1-1.93.19-2.89.28-1.26.11-1.89.16-1.91.17-2.66.2-4.58.16-5.46.33-.66.13-.73.36-1.15.15-.11-.06-.31-.18-.35.02-.05.25.2.86.28,1.07.47,1.19.69,2.5,1.04,3.75.52,1.86.47,2.13,1.12,5.18.69,3.4.73,2.83,1.3,5.94.02,0,.9,5.3,1.02,6.08.08.41.1.54.14.81,0,0,0,0,0,0,.05.33.07.45.07.47.1.52,1.04.14,1.04.14.67-.27,1.42-.11,2.08-.37,1.24-.5,1.74-.18,6.54-1.29,2.58-.61,2.96-.82,5.02-1.24,1.05-.22,1.94-.38,2.59-.49,0,.02,0,.03.01.05.18-.04.35-.09.53-.13.02-.09.04-.18.07-.26-.14-.53-.28-1.05-.42-1.58.16-.09.33-.17.49-.26.13.9.58,1.69.99,1.87.51.22.85-.36.76-1.29-.04-.43-.17-.87-.34-1.23.29.15.49.03.66-.31,0,.08,0,.16.01.25.1.98.6,1.86,1.03,2.04.51.21.85-.37.75-1.28-.1-.89-.54-1.77-1.02-2.02-.29-.15-.54-.04-.67.31-.07-.96-.31-1.9-.82-2.92.43.28.64.11.81-.32.09,1.16.5,2.44,1.05,3.16.49.64.93.5.96-.44.04-.86-.34-2.17-.88-3-.51-.79-.95-.8-1.12-.07ZM245.15,146.1c-.17,0-.34,0-.51-.01-.2-.59-.4-1.18-.61-1.76.15-.05.3-.1.45-.15.1.29.22.56.34.82.12.38.25.76.39,1.1-.02,0-.03,0-.05,0ZM246.57,146.9c.16.6.39,1.33.63,1.91-.16,0-.33,0-.49.01-.2-.58-.4-1.15-.6-1.73.15-.07.31-.13.46-.2ZM246.82,153.16c-.18-.59-.36-1.19-.55-1.78.18-.06.36-.13.54-.19,0,0,.02,0,.02,0,.03.15.07.29.11.44.13.53.28,1.07.45,1.53-.19,0-.38,0-.58.01ZM248.76,160.32c-.16-.59-.31-1.18-.47-1.77.19-.08.38-.16.57-.24.1.59.27,1.28.47,1.99-.19.01-.38.02-.57.03ZM248.86,155.76c-.18-.58-.36-1.16-.54-1.74.16-.07.32-.15.48-.22.15.66.35,1.35.56,1.93-.17.01-.33.02-.5.03ZM248.84,152.38c-.1-.63-.38-1.55-.68-2.19.18-.04.36-.08.54-.13.17.79.44,1.59.76,2.21-.21,0-.41.03-.62.11ZM248.7,148.67c-.18-.79-.47-1.59-.84-2.31.39.26.57.05.7-.38.12.93.45,1.88.87,2.7-.36-.18-.55-.16-.74,0ZM250.89,159.29c-.1-.67-.34-1.54-.59-2.19.18-.06.36-.12.54-.18.12.71.39,1.58.64,2.21-.2.05-.39.1-.59.15ZM250.89,155.53c-.11-.73-.37-1.54-.73-2.3.35.15.56-.01.71-.46.1.94.37,1.87.8,2.75-.34-.2-.57-.2-.78,0Z"/>
    <path class="st2" d="M249.02,144.65c.14.27.28.52.43.72.56.75.99.66.98-.17,0-.31-.08-.68-.19-1.07-.01-.04-.02-.08-.03-.13-.3-1.14-.97-2.39-1.56-2.75-.44-.27-.72.23-.37,1.55.18.69.45,1.33.74,1.84Z"/>
    <path class="st2" d="M252.06,144.99s.07.02.1.03c.01,0,.03.01.04.01.02,0,.04,0,.07,0,.02,0,.04,0,.06-.01.03-.01.05-.03.07-.05,0,0,.01-.01.02-.02.15-.19.16-.7-.04-1.41-.28-1.01-.89-2.12-1.43-2.44-.4-.24-.64.21-.32,1.39.33,1.19.95,2.25,1.44,2.5Z"/>
  </g>
</svg>