<?xml version="1.0" encoding="UTF-8"?>
<svg id="Layer_1" xmlns="http://www.w3.org/2000/svg" version="1.1" viewBox="0 0 108.75 50">
  <!-- Generator: Adobe Illustrator 30.2.1, SVG Export Plug-In . SVG Version: 2.1.1 Build 1)  -->
  <defs>
    <style>
      .st0 {
        fill: #b400ff;
      }

      .st1 {
        fill: #00bcff;
      }

      .st2 {
        fill: #ff5700;
      }

      .st3 {
        fill: #fff;
      }

      .st4 {
        fill: #f60050;
      }
    </style>
  </defs>
  <path class="st4" d="M107.96,18.24c-.07-1.39-.46-2.69-.72-3.55-.05-.16-.11-.38-.13-.45l-.05-.19-.06-.19c-.2-.65-.41-1.52-.57-2.46l-.03-.17-.04-.16c-.03-.13-.07-.32-.11-.51-.14-.66-.33-1.58-.72-2.55-.11-.5-.3-.99-.55-1.46-.51-.95-1.27-1.7-2.17-2.19-.01-.01-.16-.12-.16-.12l-.19-.12c-1.13-.71-2.38-1.04-3.83-1.03-.15,0-.31,0-.46.01-.03,0-.06,0-.09,0-.17,0-.35,0-.53,0-1.67.02-3.12.33-4.39.6-.51.11-.99.21-1.43.28-.28.05-.56.09-.85.13-1.72.25-3.84.57-5.96,1.65-.37.17-.72.38-1.04.6-1.52-1.23-3.18-1.78-4.28-2.15-.59-.2-1.16-.36-1.71-.52-.5-.14-.98-.28-1.4-.42h-.02c-.4-.14-.8-.29-1.22-.45-.69-.26-1.47-.55-2.34-.81-1.2-.37-3.02-.85-5-.83-.82,0-1.61.1-2.36.28h-.03c-3.77.93-6.64,3.54-7.6,6.87-.28-.03-.56-.04-.84-.04-.55,0-1.12.08-1.67.2,0,0,0,0-.01,0-1.03-1.54-2.74-2.5-4.71-2.48-1.93.02-3.77,1.03-5.05,2.76-.4.53-.74,1.13-1.06,1.83l-.02.06c-.67,1.52-1.01,2.96-1.32,4.24-.04.18-.09.36-.13.54v.05s-.02.05-.02.05c-.34,1.49-.57,3.06-.71,4.73-.34-.04-.69-.06-1.04-.05-.73,0-1.37.11-1.84.18-.11.02-.27.04-.32.05h-.08s-.08.02-.08.02c-.25.03-.53.06-.82.09-.75.07-1.6.16-2.55.36-.16.03-.52.11-.55.11.02-.4.02-.8.02-1.2v-.5c-.05-1.06-.08-2.07-.02-2.97v-.2s.01-.19.01-.19c0-.08,0-.17.01-.27.03-.67.07-1.67-.16-2.78-.5-2.44-2.16-4.3-4.44-4.98l-.21-.06-.44-.09-.22-.03c-.12-.02-.24-.03-.37-.04-1.59-3.88-4.77-6.97-9.32-7.07h-.11s-.08,0-.08,0c-3.42.04-8.02,1.91-10.48,4.27l-.05.05-.05.05c-.22.23-.43.46-.62.69-.33-.06-.67-.09-1.01-.08-.94.01-3.29.31-4.87,2.91-.38.61-.7,1.34-1.03,2.29l-.17.5-.07.53c-.83,6.21-.68,12.42-.54,18.42.06,2.52.12,5.13.11,7.64-.03,1.38.19,3.89,1.94,5.67,1.1,1.12,2.56,1.72,4.1,1.71,1.55-.02,3.04-.68,4.2-1.86l.31-.31.25-.36c1.51-2.15,1.64-4.47,1.73-6.01,0-.17.02-.34.03-.5v-.05s0-.05,0-.05c.02-.33.03-.66.04-.98.56.07,1.12.1,1.68.09,1.9-.02,3.75-.47,5.46-1.32.19,1.1.48,2.21.89,3.33.03.1.07.22.11.35.29.99.73,2.48,1.9,3.88l.15.18.17.17c2.84,2.84,6.47,2.8,7.66,2.79.81,0,1.55-.07,2.21-.13.2-.02.39-.03.58-.05l.28-.02.27-.05c.61-.11,1.18-.23,1.73-.34.98-.2,1.83-.38,2.63-.45.91-.08,2.28-.22,3.68-.59,2.15-.55,3.82-2.06,4.58-4.15.16-.45.27-.89.34-1.3.38.16.74.28,1.04.36l.08.02.08.02c.76.17,1.53.26,2.32.25,2.44-.03,4.81-.97,6.53-2.6.22.99.67,2.09,1.53,3.02,1.05,1.13,2.53,1.77,4.06,1.75h0c.15,0,.29,0,.44-.02.27.54.54,1.06.84,1.57l.08.14.09.13c1.51,2.28,3.7,4.2,6.36,5.57,1.72,1.03,3.73,1.54,5.96,1.51.31,0,.62-.02.94-.04,5.27-.24,6.87-4.24,7.56-5.96l.02-.05.02-.05c.34-.9.61-1.77.88-2.61.17-.56.34-1.09.51-1.58l.04-.13.04-.13c.05-.16.12-.36.19-.58.12-.37.26-.78.38-1.23,1.23,1.37,2.85,1.89,4.21,1.87,1.94-.02,3.71-1.06,4.73-2.78l.27-.46.18-.5c.62-1.76.55-3.42.5-4.63-.01-.31-.03-.6-.02-.79v-.14s0-.14,0-.14c-.03-1.26-.07-2.57-.14-3.89.67.09,1.37.14,2.12.13h.18c.21,0,.42,0,.63,0,.68,0,1.72-.06,2.84-.4l.17-.05.17-.06c2.17-.83,4.41-3.07,4.21-6.87ZM103.28,23.88l-.13.05-.13.04c-.94.29-1.81.33-2.46.34h0c-.2,0-.4,0-.6,0h-.2c-1.27,0-2.41-.17-3.54-.38.12,1.87.19,3.72.23,5.49v.11s0,.11,0,.11c0,.23,0,.55.02.88.05,1.16.11,2.61-.42,4.14l-.13.38-.21.34c-.79,1.32-2.14,2.12-3.61,2.13-.72,0-3.14-.2-4.26-3.22l-.05-.13-.04-.13c-.49-1.65-.56-3.26-.63-4.67-.02-.42-.04-.82-.07-1.19-.07-.78-.11-1.57-.15-2.33-.08-1.47-.17-2.88-.38-4.18-.4-.22-.85-.53-1.29-.97-.64,1.54-1.62,2.85-3.05,4.13l-.04.03-.04.03c-.88.75-2.46,2.1-4.69,2.45.17.22.32.41.46.54.57.49,1.3.91,2.13,1.22.13,0,.26,0,.39-.01.2,0,.43-.02.66-.02.75,0,1.73.03,2.75.43,1.68.67,2.84,2.13,3.11,3.91l.02.16v.16c.12,1.6-.34,3.01-.69,4.03-.08.23-.15.44-.2.63l-.03.1-.03.09c-.18.51-.35,1.05-.53,1.62-.26.82-.52,1.67-.85,2.53l-.03.08c-.7,1.73-1.98,4.94-6.42,5.13-.3.02-.59.04-.87.04-2,.02-3.78-.43-5.3-1.35-2.47-1.26-4.51-3.04-5.9-5.14l-.07-.1-.06-.1c-.44-.77-.85-1.57-1.23-2.41-.51.16-.95.2-1.21.2h0c-1.16.01-2.28-.47-3.08-1.33-1.45-1.56-1.41-3.86-1.37-4.47.02-.36.04-.72.06-1.09-.58.84-1.25,1.65-1.99,2.37-1.48,1.46-3.58,2.32-5.74,2.34-.68,0-1.35-.06-2-.22h-.06s-.06-.03-.06-.03c-.78-.21-1.68-.59-2.52-1.32,0,.16-.01.31-.02.47v.04c-.03.68-.07,1.61-.43,2.58-.61,1.68-1.94,2.88-3.67,3.32-1.31.35-2.6.48-3.46.56-.88.08-1.81.27-2.79.48-.54.11-1.11.23-1.7.34l-.2.04-.21.02c-.19.01-.39.03-.59.05-.64.05-1.36.11-2.11.12-1.05.01-4.26.05-6.71-2.4l-.13-.13-.11-.14c-.99-1.19-1.37-2.47-1.64-3.41-.04-.15-.08-.29-.12-.41-.63-1.69-.94-3.4-1.09-5.06-1.95,1.38-4.19,2.13-6.52,2.16-1,.01-2-.11-2.98-.36.01.82,0,1.65-.04,2.5v.08c-.02.17-.03.35-.04.53-.08,1.39-.2,3.49-1.49,5.33l-.19.27-.23.23c-1.17,1.19-2.42,1.45-3.27,1.46-1.19.01-2.3-.45-3.15-1.31-1.42-1.44-1.59-3.56-1.57-4.72.02-2.53-.05-5.15-.11-7.69-.14-5.95-.29-12.11.53-18.21l.05-.39.13-.38c.3-.86.59-1.5.91-2.03,1.24-2.03,3.04-2.27,3.76-2.27.52,0,1.03.09,1.51.27.29-.43.63-.85,1.04-1.26l.04-.04.04-.03c2.25-2.15,6.46-3.87,9.58-3.9h.06s.08,0,.08,0c4.26.09,7.16,3.26,8.44,7.07.12,0,.24-.02.37-.02.25,0,.5.01.75.04l.16.02.33.07.15.05c1.83.54,3.11,2,3.52,3.98.19.94.16,1.82.13,2.45,0,.12-.01.28-.01.33v.15s0,.15,0,.15c-.06.96-.03,2.04,0,3.09v.49c.04.94-.03,1.86-.18,2.8.59-.09,1.2-.22,1.83-.34.16-.03.32-.06.48-.1.88-.19,1.69-.27,2.41-.34.3-.03.59-.06.86-.09h.06s.06-.01.06-.01c.08,0,.25-.03.4-.06.45-.07,1.02-.16,1.65-.16.5,0,.96.04,1.41.14l.12.03.12.03c.2.06.4.12.58.2.1-2.2.36-4.2.79-6.11l.02-.08c.05-.18.09-.37.13-.55.29-1.22.63-2.61,1.25-4.02l.02-.04c.28-.62.58-1.14.92-1.59,1.03-1.4,2.49-2.21,4.01-2.23,1.39-.02,2.71.65,3.52,1.78.22.31.4.63.54.99.32-.14.64-.25.95-.32.46-.11.93-.17,1.38-.17.66,0,1.29.09,1.88.3.01-.2.04-.4.07-.61l.02-.13.03-.13c.71-3.03,3.29-5.44,6.73-6.28h.02c.65-.16,1.35-.24,2.07-.25,1.8-.02,3.49.43,4.61.77.83.24,1.55.51,2.26.78.43.16.84.31,1.26.46h.01c.45.16.94.3,1.46.45.53.15,1.09.31,1.65.5,1.21.4,3.16,1.06,4.67,2.67.46-.49,1.02-.89,1.66-1.19,1.93-.99,3.86-1.28,5.57-1.53.29-.04.58-.09.87-.13.47-.08.97-.18,1.5-.3,1.22-.26,2.59-.56,4.13-.57.17,0,.34,0,.51,0,.04,0,.09,0,.14,0,.14,0,.28-.01.42-.01.44,0,1.77-.02,3.11.82l.14.09.09.07s.08.06.11.08c.71.37,1.31.96,1.72,1.7.21.39.36.8.44,1.21.37.9.55,1.78.69,2.45.04.2.08.4.12.55l.03.12.02.12c.18.99.39,1.93.61,2.63l.04.14.03.14c.02.09.09.33.15.53.26.85.6,2.01.67,3.24.16,3.1-1.63,4.91-3.36,5.57ZM85.79,29.09c-1.06-.79-2.58-1.37-4.74-1.34-.26,0-.49.01-.7.02-.02,0-.03,0-.05,0,1.18-.61,2.07-1.36,2.67-1.87l.05-.04.05-.05c.93-.84,1.7-1.7,2.32-2.63.09.87.14,1.79.2,2.74.04.76.09,1.55.16,2.35.02.26.03.53.05.82Z"/>
  <g>
    <path class="st2" d="M17.6,18.76c-.14.03-.33.07-.55.14h-.02c-.63.2-1.18.39-1.67.56.03,0,.08,0,.08,0,.27,0,.57-.05.85-.12h.03s.03-.02.03-.02c.43-.11.87-.27,1.3-.49-.01-.02-.02-.04-.04-.06,0,0,0-.01-.01-.02Z"/>
    <path class="st2" d="M105.97,15.07c-.06-.19-.13-.43-.15-.53l-.03-.14-.04-.14c-.22-.7-.44-1.64-.61-2.63l-.02-.12-.03-.12c-.04-.15-.08-.35-.12-.55-.14-.67-.33-1.54-.69-2.45-.09-.41-.23-.82-.44-1.21-.4-.74-1-1.33-1.72-1.7-.04-.03-.07-.06-.11-.08l-.09-.07-.14-.09c-1.34-.84-2.67-.83-3.11-.82-.14,0-.28,0-.42.01-.05,0-.1,0-.14,0-.17,0-.34,0-.51,0-1.54.02-2.91.31-4.13.57-.53.11-1.02.22-1.5.3-.29.05-.58.09-.87.13-1.71.25-3.64.54-5.57,1.53-.64.3-1.2.7-1.66,1.19-1.51-1.61-3.46-2.26-4.67-2.67-.57-.19-1.12-.35-1.65-.5-.52-.15-1.01-.29-1.46-.44h-.01c-.42-.15-.83-.3-1.26-.46-.7-.26-1.43-.54-2.26-.78-1.12-.34-2.8-.79-4.61-.77-.72,0-1.42.09-2.07.25h-.02c-3.44.85-6.01,3.26-6.73,6.29l-.03.13-.02.13c-.03.21-.06.41-.07.61-.59-.2-1.23-.3-1.88-.3-.46,0-.92.06-1.38.17-.32.07-.64.18-.95.32-.14-.35-.32-.68-.54-.99-.81-1.13-2.13-1.79-3.52-1.78-1.51.02-2.97.83-4.01,2.23-.34.45-.64.97-.92,1.59l-.02.04c-.62,1.41-.95,2.79-1.25,4.02-.04.18-.09.37-.13.55l-.02.08c-.43,1.91-.69,3.91-.79,6.11-.19-.08-.38-.15-.58-.2l-.12-.03-.12-.03c-.45-.1-.91-.14-1.41-.14-.64,0-1.2.09-1.65.16-.15.02-.32.05-.4.06h-.06s-.06.01-.06.01c-.27.03-.55.06-.86.09-.72.07-1.53.15-2.41.34-.16.03-.32.06-.48.1-.63.13-1.25.25-1.83.34.15-.94.21-1.86.19-2.8v-.49c-.05-1.05-.08-2.13-.02-3.09v-.15s0-.15,0-.15c0-.06,0-.21.01-.33.03-.64.06-1.51-.13-2.45-.41-1.98-1.69-3.43-3.52-3.98l-.15-.05-.33-.07-.16-.02c-.25-.03-.5-.05-.75-.04-.12,0-.24,0-.37.02-1.29-3.81-4.18-6.98-8.44-7.07h-.08s-.06,0-.06,0c-3.12.04-7.33,1.75-9.58,3.9l-.04.03-.04.04c-.41.41-.75.84-1.04,1.26-.48-.18-.99-.27-1.51-.27-.72,0-2.52.25-3.76,2.27-.32.53-.61,1.18-.91,2.03l-.13.38-.05.39c-.82,6.11-.67,12.26-.53,18.21.06,2.54.12,5.16.11,7.69-.03,1.17.15,3.28,1.57,4.72.84.86,1.96,1.32,3.15,1.31.85,0,2.1-.27,3.27-1.46l.23-.23.19-.27c1.29-1.84,1.41-3.94,1.49-5.33.01-.18.02-.36.03-.53v-.08c.05-.84.06-1.68.05-2.5.98.25,1.98.37,2.98.36,2.33-.03,4.57-.78,6.52-2.16.15,1.67.47,3.37,1.09,5.06.04.12.08.26.12.41.27.94.65,2.22,1.64,3.41l.11.14.13.13c2.45,2.45,5.66,2.41,6.71,2.4.76,0,1.48-.07,2.11-.12.2-.02.4-.03.59-.05l.21-.02.2-.04c.59-.11,1.15-.22,1.7-.34.98-.2,1.91-.4,2.79-.48.86-.07,2.16-.21,3.46-.56,1.72-.44,3.06-1.65,3.67-3.32.35-.97.39-1.9.42-2.58v-.04c0-.16.02-.31.02-.47.85.72,1.75,1.11,2.52,1.32l.06.02h.06c.65.16,1.33.24,2,.23,2.16-.02,4.25-.88,5.74-2.34.74-.73,1.41-1.53,1.99-2.37-.02.36-.03.73-.06,1.09-.04.61-.08,2.91,1.37,4.47.8.86,1.92,1.34,3.08,1.33h0c.25,0,.7-.04,1.21-.2.37.83.79,1.64,1.23,2.41l.06.1.07.1c1.39,2.1,3.43,3.88,5.9,5.14,1.52.92,3.3,1.37,5.3,1.35.29,0,.58-.02.87-.04,4.43-.2,5.72-3.4,6.42-5.13l.03-.08c.33-.87.59-1.71.85-2.53.18-.57.35-1.11.53-1.62l.03-.09.03-.1c.05-.18.13-.4.2-.63.34-1.02.81-2.43.7-4.03v-.16s-.04-.16-.04-.16c-.27-1.78-1.43-3.24-3.11-3.91-1.01-.4-2-.44-2.75-.43-.24,0-.46.01-.66.02-.13,0-.26.01-.39.01-.83-.31-1.56-.73-2.13-1.22-.14-.14-.3-.33-.46-.54,2.23-.35,3.81-1.7,4.69-2.45l.04-.03.04-.03c1.43-1.28,2.41-2.59,3.05-4.13.44.44.9.75,1.29.97.21,1.3.3,2.71.38,4.18.04.76.09,1.54.15,2.33.03.37.05.77.07,1.19.06,1.41.14,3.02.63,4.67l.04.13.05.13c1.12,3.02,3.54,3.22,4.26,3.22,1.48-.02,2.83-.81,3.61-2.13l.21-.34.13-.38c.53-1.52.47-2.97.42-4.14-.01-.34-.03-.65-.02-.88v-.11s0-.11,0-.11c-.04-1.77-.11-3.63-.23-5.49,1.13.22,2.27.39,3.54.38h.2c.2,0,.4,0,.6,0h0c.65,0,1.52-.05,2.46-.34l.13-.04.13-.05c1.73-.66,3.52-2.47,3.36-5.57-.06-1.23-.41-2.39-.67-3.24ZM59.6,28.58v.02c-.69,1.79-1.88,3.57-3.36,5.03-1.24,1.23-3,1.94-4.82,1.96-.57,0-1.14-.05-1.69-.18h-.04s-.04-.02-.04-.02c-2.43-.64-3.56-2.68-4.12-4.76,0,.02,0,.07,0,.07-.08.82-.06,1.7-.05,2.63.01.78.02,1.6-.02,2.43v.03c-.03.63-.07,1.41-.35,2.19-.46,1.28-1.44,2.16-2.75,2.49-1.21.32-2.43.45-3.24.52-.96.09-1.92.29-2.94.5-.54.11-1.09.23-1.66.33l-.14.02h-.14c-.2.02-.4.04-.6.06-.61.05-1.31.11-2.02.12-.92.01-3.7.04-5.76-2.01l-.08-.08-.08-.09c-.82-.98-1.13-2.06-1.39-2.93-.05-.17-.1-.33-.14-.47-.93-2.5-1.13-5-1.15-7.46,0,0-.01.01-.02.02-2.1,2.32-4.84,3.61-7.72,3.65-1.46.02-2.92-.28-4.33-.89,0,.05,0,.1,0,.15.04,1.34.07,2.73,0,4.13v.05c-.02.18-.03.36-.04.55-.08,1.31-.18,3.12-1.25,4.65l-.13.18-.15.16c-.85.87-1.74,1.06-2.34,1.07-.82,0-1.6-.32-2.19-.91-1.12-1.14-1.2-3-1.19-3.78.02-2.56-.05-5.19-.11-7.74-.14-5.9-.29-12,.52-18l.04-.26.09-.25c.38-1.1,1.17-3.39,3.43-3.42.73,0,1.41.25,1.95.74.39-.71.85-1.45,1.52-2.13l.05-.05c2.01-1.92,5.9-3.5,8.68-3.54h.04s.06,0,.06,0c2.51.05,4.69,1.43,6.16,3.87.61,1.01,1.07,2.19,1.37,3.42.51-.19.98-.24,1.32-.24.19,0,.38,0,.57.03h.11s.23.06.23.06l.1.03c1.35.4,2.29,1.49,2.6,2.98.16.78.13,1.56.1,2.13,0,.16-.01.32-.01.4v.1s0,.1,0,.1c-.06,1.02-.03,2.14,0,3.21v.47c.04,1.02-.05,2.02-.25,3.04l-.02.08-.02.08c-.12.46-.18.81-.21,1.05,1.17-.02,2.41-.27,3.73-.53.16-.03.33-.07.49-.1.81-.17,1.55-.25,2.27-.32.31-.03.6-.06.89-.09h.04s.04,0,.04,0c.12-.01.29-.04.48-.07.41-.06.92-.14,1.46-.15.4,0,.77.03,1.12.11l.08.02.08.02c.96.27,1.72.84,2.23,1.65-.04-3.22.21-5.97.79-8.54v-.05c.06-.19.1-.37.15-.55.3-1.23.6-2.49,1.17-3.79v-.03c.26-.54.5-.97.79-1.35.78-1.07,1.86-1.68,2.96-1.7,1.43-.02,2.94,1.04,3.05,3.08v.03s0,.04,0,.04c0,.24,0,.48-.03.71.56-.72,1.33-1.22,2.27-1.44.37-.09.74-.13,1.1-.14,1.15-.01,2.22.41,2.99,1.2.83.84,1.28,2.05,1.26,3.4,0,1.18-.12,2.4-.23,3.47l-.02.23c-.09.7-.17,1.41-.24,2.11-.15,1.37-.31,2.8-.53,4.22v.03c-.2,1.17-.43,2.1-.74,2.95ZM102.81,22.64l-.08.03-.09.03c-.78.24-1.53.28-2.09.28-.19,0-.38,0-.57,0h-.21c-1.28,0-2.4-.19-3.62-.42-.47-.07-.92-.14-1.37-.23.21,2.4.3,4.82.36,7.12v.07s0,.07,0,.07c0,.28,0,.62.02.98.04,1.05.1,2.36-.35,3.64l-.09.25-.14.23c-.55.92-1.48,1.48-2.49,1.49-.64,0-2.2-.21-3-2.35l-.03-.08-.03-.09c-.44-1.5-.51-3.02-.57-4.36-.02-.43-.04-.84-.07-1.24-.06-.77-.11-1.55-.15-2.3-.1-1.76-.2-3.44-.52-5-.73-.32-1.99-.98-2.72-2.87-.09-.22-.16-.43-.23-.65-.36,2.82-1.35,4.7-3.46,6.59l-.05.04c-.9.77-2.41,2.06-4.53,2.21-.2.02-.41.02-.62.03-.37,0-.74-.01-1.1-.05.2.36.41.71.62,1.05.11.14.21.29.31.43.36.51.71.99,1.06,1.32.74.65,1.7,1.19,2.78,1.56.04,0,.11,0,.21,0,.15,0,.31,0,.47-.01.21,0,.42-.02.63-.02.63,0,1.45.03,2.24.34,1.25.5,2.09,1.55,2.29,2.88l.02.11v.11c.1,1.34-.3,2.55-.62,3.52-.08.24-.15.46-.22.67l-.02.06-.02.06c-.19.53-.36,1.08-.54,1.66-.25.8-.51,1.63-.82,2.46l-.02.05c-.67,1.66-1.67,4.15-5.27,4.31-.27.02-.55.03-.81.04-1.77.02-3.33-.38-4.64-1.18-2.29-1.16-4.16-2.79-5.44-4.71l-.04-.07-.04-.07c-.65-1.13-1.23-2.34-1.72-3.62-.64.61-1.37.74-1.88.75h0c-.78,0-1.55-.32-2.09-.91-1.1-1.18-1.04-3.08-1.01-3.48.06-1.05.1-2.14.14-3.19.06-1.74.13-3.54.29-5.33.08-1.15.24-2.25.41-3.31.14-.91.27-1.76.34-2.6.07-1.09.09-2.18.12-3.33.01-.52.03-1.04.04-1.56,0-.24-.03-.31-.36-.77-.47-.66-1.35-1.9-1.04-3.74v-.09s.03-.09.03-.09c.59-2.51,2.85-4.59,5.75-5.3h.02c.56-.14,1.15-.21,1.78-.21,1.62-.02,3.18.4,4.21.71h0c.78.23,1.49.49,2.17.75.44.17.86.32,1.3.47.49.17,1,.31,1.54.47.52.15,1.06.3,1.6.48,1.27.43,3.2,1.07,4.5,2.76l.03.03.02.03c.22.31.43.64.6.99.35-1.08,1.11-1.93,2.17-2.41,1.74-.9,3.57-1.17,5.18-1.41.3-.04.59-.09.89-.14.51-.08,1.02-.19,1.56-.31,1.21-.26,2.46-.53,3.87-.54.16,0,.32,0,.48,0h.01c.07,0,.14,0,.2,0,.13,0,.25-.01.38-.01.34,0,1.38-.02,2.39.62l.1.06.06.04c.06.05.12.09.18.14.52.25.97.66,1.26,1.2.15.27.27.6.33.95.36.83.54,1.68.68,2.35.05.21.09.41.13.59l.02.08v.08c.2,1.06.43,2.03.67,2.8l.03.09.02.1c.03.13.1.37.17.6.24.78.56,1.86.61,2.93.11,2.03-.83,3.62-2.51,4.26Z"/>
  </g>
  <g>
    <path class="st0" d="M17.95,17.39s-.11,0-.11,0c-.28,0-.74.1-1.2.24-1.01.32-1.84.6-2.53.89-.5.22-1.07.47-1.28.81,0,.01,0,.02,0,.02,0,.05.12.36.68.81l.03.03c.58.5,1.36.6,1.91.59h0c.39,0,.79-.06,1.18-.17h.03c.73-.19,1.48-.51,2.15-.93.11-.07.42-.26.52-.37,0-.27-.45-1.01-.61-1.25-.29-.45-.55-.68-.78-.68ZM16.35,19.33h-.03s-.03.02-.03.02c-.28.08-.58.12-.85.12,0,0-.05,0-.08,0,.49-.18,1.04-.36,1.67-.56h.02c.22-.08.41-.12.55-.15,0,0,0,.01.01.02.01.02.02.04.04.06-.42.22-.86.38-1.3.49Z"/>
    <path class="st0" d="M60.34,25.59c.21-1.43.37-2.85.53-4.22.08-.69.16-1.41.24-2.11l.02-.23c.11-1.07.24-2.29.23-3.47.02-1.35-.43-2.56-1.26-3.4-.77-.78-1.84-1.21-2.99-1.2-.36,0-.73.05-1.1.14-.94.22-1.71.72-2.27,1.44.02-.23.04-.46.03-.71v-.04s0-.03,0-.03c-.11-2.04-1.61-3.09-3.05-3.08-1.1.01-2.17.63-2.96,1.7-.29.38-.53.81-.78,1.35v.03c-.58,1.3-.89,2.57-1.18,3.79-.04.18-.09.37-.13.55v.05c-.59,2.57-.85,5.32-.8,8.54-.51-.8-1.27-1.37-2.23-1.65l-.08-.02-.08-.02c-.35-.08-.72-.11-1.12-.11-.54,0-1.05.09-1.46.15-.18.03-.36.06-.48.07h-.04s-.04,0-.04,0c-.29.04-.58.06-.89.09-.72.07-1.46.14-2.27.32-.16.03-.32.06-.49.1-1.32.27-2.56.52-3.73.53.03-.25.09-.59.21-1.05l.02-.08.02-.08c.2-1.03.28-2.02.26-3.04v-.47c-.05-1.08-.08-2.19-.02-3.21v-.1s0-.1,0-.1c0-.09,0-.25.01-.4.02-.57.06-1.35-.1-2.13-.31-1.49-1.26-2.58-2.6-2.98l-.1-.03-.23-.05h-.11c-.19-.04-.38-.05-.57-.05-.34,0-.81.05-1.32.24-.3-1.23-.76-2.41-1.37-3.42-1.46-2.44-3.65-3.82-6.16-3.87h-.06s-.04,0-.04,0c-2.78.03-6.68,1.62-8.68,3.54l-.05.05c-.67.68-1.14,1.42-1.52,2.13-.54-.49-1.22-.75-1.95-.74-2.26.03-3.05,2.32-3.43,3.42l-.09.25-.04.26c-.81,6-.66,12.1-.52,18,.06,2.55.13,5.18.11,7.74-.02.78.07,2.64,1.19,3.78.59.6,1.36.92,2.19.91.6,0,1.49-.2,2.34-1.07l.15-.16.13-.18c1.07-1.53,1.18-3.33,1.25-4.65.01-.19.02-.37.03-.55v-.05c.08-1.4.04-2.78,0-4.13,0-.05,0-.1,0-.15,1.42.61,2.87.91,4.33.89,2.88-.03,5.62-1.33,7.72-3.65,0,0,.01-.01.02-.02.01,2.46.22,4.97,1.15,7.46.05.14.09.3.14.47.26.87.57,1.96,1.39,2.93l.08.09.08.08c2.06,2.06,4.84,2.02,5.76,2.01.71,0,1.41-.07,2.02-.12.2-.02.41-.03.6-.05h.14s.14-.03.14-.03c.57-.1,1.13-.22,1.66-.33,1.02-.21,1.98-.41,2.94-.5.82-.07,2.03-.2,3.24-.52,1.31-.33,2.29-1.21,2.75-2.49.28-.78.32-1.56.35-2.19v-.03c.04-.84.03-1.65.02-2.43-.01-.93-.03-1.81.05-2.63,0,0,0-.05,0-.07.56,2.08,1.69,4.12,4.12,4.76h.04s.04.02.04.02c.55.13,1.12.19,1.69.18,1.82-.02,3.58-.74,4.82-1.96,1.48-1.46,2.67-3.24,3.35-5.03v-.02c.32-.85.56-1.78.75-2.95v-.03ZM44.27,27.87v.17c.03.85,0,1.68-.07,2.53-.08.9-.07,1.82-.06,2.78.01.76.02,1.55-.02,2.35v.04c-.05,1.04-.14,2.97-2.11,3.46-1.12.3-2.26.42-3.03.48-1.03.09-2.03.3-3.1.52-.53.11-1.07.22-1.62.32h-.07s-.07.02-.07.02c-.2.01-.41.03-.62.05-.62.05-1.26.1-1.93.11-1.35.02-3.32-.14-4.81-1.63l-.04-.04-.04-.05c-.64-.77-.9-1.67-1.14-2.46-.05-.19-.11-.36-.16-.53-1.18-3.16-1.11-6.44-1.04-9.62.01-.5.02-1.01.03-1.51,0,0,.01-1.1.02-1.34-.5,1.53-1.18,3.22-2.4,4.57-1.85,2.04-4.25,3.18-6.75,3.21-1.54.02-3.08-.37-4.57-1.15-.38-.2-.75-.43-1.1-.68,0,.8.02,1.62.04,2.46.04,1.32.07,2.68,0,4.02v.03c-.02.19-.03.38-.04.57-.07,1.22-.16,2.74-1.02,3.96l-.06.09-.08.08c-.43.44-.91.66-1.41.67-.46,0-.89-.18-1.23-.52-.81-.82-.82-2.46-.81-2.83.02-2.58-.05-5.23-.11-7.79-.14-5.85-.29-11.9.5-17.8l.02-.13.04-.13c.42-1.21.97-2.51,2.2-2.53.43,0,.84.17,1.15.5.36.39.57,1.05.69,1.78.07-.12.15-.25.23-.37.24-.37.45-.78.68-1.21.42-.81.9-1.73,1.64-2.48l.02-.02c1.77-1.69,5.33-3.14,7.78-3.17h.06c2.03.04,3.82,1.19,5.04,3.23.87,1.46,1.44,3.38,1.54,5.19.48-.75,1.2-1.35,2.3-1.36.13,0,.26,0,.39.02h.05s.12.03.12.03l.05.02c1.9.57,1.81,2.74,1.76,3.78,0,.18-.02.35-.01.48v.05s0,.05,0,.05c-.07,1.08-.03,2.23,0,3.34v.45c.03.94-.04,1.84-.22,2.77v.04s-.02.04-.02.04c-.25.98-.43,1.99-.02,2.68.11.02.32.02.47.02h.16s.02,0,.02,0c.14,0,.28,0,.43,0,1.3-.01,2.68-.29,4.01-.56.17-.03.33-.07.49-.1.74-.16,1.45-.23,2.13-.3.32-.03.62-.06.93-.1h.04c.16-.02.35-.05.55-.08.39-.06.83-.13,1.28-.13.3,0,.57.02.82.08h.04s.04.02.04.02c1.97.56,1.98,2.57,1.99,3.54ZM59.82,18.9l-.02.21c-.09.71-.17,1.42-.24,2.12-.15,1.36-.31,2.77-.52,4.18v.02c-.18,1.08-.39,1.94-.68,2.7-.62,1.63-1.7,3.24-3.05,4.57-1,.99-2.43,1.56-3.91,1.58-.47,0-.93-.04-1.38-.15h-.04c-3.22-.86-3.54-5.19-3.72-7.52v-.14s-.01-.02-.01-.02c-.17-3.89.05-7.07.71-9.99v-.03c.05-.19.1-.37.14-.56.28-1.17.57-2.38,1.1-3.57h0c.2-.46.4-.81.63-1.12.26-.35.95-1.15,1.91-1.16.78,0,1.64.56,1.71,1.82v.04c.02.61-.13,1.2-.26,1.71-.05.18-.09.35-.12.51-.12.59-.25,1.19-.37,1.76-.33,1.55-.64,3.01-.82,4.51-.24,2.67-.21,5.15.09,7.37v.02c.17,1.19.42,1.85.6,2.17.23-.26.63-.84,1.06-2.1.28-.81.41-1.7.53-2.78.1-.93.19-1.87.28-2.81.15-1.52.3-3.08.47-4.61.04-.43.07-.88.1-1.32.02-.24.03-.48.05-.71.13-2.44,1.62-3.05,2.26-3.2.28-.06.55-.1.81-.1.8,0,1.51.27,2.03.8.59.6.89,1.45.88,2.47.01,1.11-.11,2.24-.22,3.34Z"/>
    <path class="st0" d="M104.7,15.45c-.07-.23-.14-.47-.17-.6l-.02-.1-.03-.09c-.24-.77-.47-1.73-.66-2.8v-.08s-.03-.08-.03-.08c-.04-.17-.08-.37-.13-.59-.14-.67-.32-1.51-.68-2.35-.06-.35-.18-.68-.33-.95-.29-.54-.74-.95-1.26-1.2-.06-.05-.12-.09-.18-.14l-.06-.04-.1-.06c-1.01-.64-2.05-.63-2.39-.62-.13,0-.25,0-.38.01-.07,0-.14,0-.2,0h-.01c-.16,0-.32,0-.48,0-1.4.02-2.66.28-3.87.54-.54.12-1.06.23-1.56.31-.29.05-.59.09-.89.14-1.61.24-3.44.51-5.18,1.41-1.06.48-1.82,1.33-2.17,2.41-.18-.35-.38-.68-.6-.99l-.02-.03-.03-.03c-1.3-1.7-3.23-2.34-4.5-2.76-.54-.18-1.08-.33-1.6-.48-.54-.15-1.04-.3-1.54-.47-.44-.15-.86-.31-1.3-.47-.68-.26-1.38-.52-2.17-.75h0c-1.03-.32-2.59-.73-4.21-.72-.62,0-1.22.08-1.78.21h-.02c-2.91.72-5.16,2.8-5.75,5.3l-.02.09v.09c-.32,1.84.56,3.08,1.03,3.74.33.46.36.53.36.77-.02.52-.03,1.04-.04,1.56-.03,1.15-.06,2.24-.12,3.33-.07.84-.2,1.69-.34,2.6-.16,1.06-.33,2.16-.41,3.31-.16,1.78-.23,3.59-.29,5.33-.04,1.05-.08,2.15-.14,3.19-.03.4-.08,2.3,1.01,3.48.55.59,1.31.92,2.09.91h0c.51,0,1.24-.14,1.88-.75.49,1.28,1.07,2.49,1.72,3.62l.04.07.04.07c1.27,1.93,3.15,3.55,5.44,4.71,1.31.8,2.87,1.2,4.64,1.18.26,0,.54-.02.81-.04,3.6-.15,4.6-2.65,5.27-4.31l.02-.05c.31-.83.57-1.66.82-2.46.18-.58.35-1.13.54-1.66l.02-.06.02-.06c.06-.21.14-.43.22-.67.32-.97.73-2.18.63-3.52v-.11s-.02-.11-.02-.11c-.2-1.33-1.04-2.38-2.29-2.88-.8-.32-1.62-.35-2.24-.34-.21,0-.42,0-.63.02-.16,0-.31.01-.47.01-.1,0-.17,0-.21,0-1.08-.37-2.04-.91-2.78-1.56-.35-.33-.7-.81-1.06-1.32-.1-.14-.21-.29-.31-.43-.22-.34-.43-.69-.62-1.05.36.03.73.05,1.1.05.21,0,.42-.01.62-.03,2.12-.15,3.63-1.44,4.53-2.21l.05-.04c2.1-1.89,3.09-3.77,3.46-6.59.07.21.15.43.23.65.73,1.89,1.99,2.55,2.72,2.87.32,1.56.42,3.23.52,5,.04.75.09,1.53.15,2.3.03.39.05.8.07,1.24.06,1.34.13,2.86.57,4.36l.03.09.03.08c.79,2.14,2.36,2.36,3,2.35,1.01-.01,1.94-.57,2.49-1.49l.14-.23.09-.25c.45-1.28.4-2.59.35-3.64-.02-.36-.03-.7-.02-.98v-.07s0-.07,0-.07c-.06-2.29-.14-4.72-.36-7.12.45.08.9.16,1.37.23,1.22.24,2.34.43,3.62.42h.21c.19,0,.38,0,.57,0,.56,0,1.31-.04,2.09-.28l.09-.03.08-.03c1.68-.64,2.62-2.23,2.51-4.26-.06-1.07-.38-2.14-.61-2.93ZM83.49,16.69c-.28,2.73-1.12,4.4-3.07,6.16l-.03.02c-.83.71-2.08,1.78-3.77,1.89-.18.01-.36.02-.54.02-1.21.01-2.39-.23-3.46-.51.55,1.21,1.16,2.45,1.9,3.59.11.15.22.3.33.45.41.57.79,1.1,1.25,1.52.88.78,2.02,1.42,3.29,1.85h.04s.04.03.04.03c.01,0,.13.03.53.03.16,0,.33,0,.5-.01.2,0,.4-.01.59-.02.5,0,1.16.02,1.74.25.82.32,1.34.98,1.47,1.84v.05s.01.05.01.05c.08,1.08-.27,2.11-.57,3.01-.08.25-.16.49-.23.71v.03s-.02.03-.02.03c-.19.55-.37,1.11-.55,1.7-.25.78-.5,1.59-.8,2.39v.03c-.64,1.58-1.36,3.37-4.13,3.48-.25.02-.5.03-.75.03-1.54.02-2.87-.32-3.98-1.01-2.1-1.06-3.82-2.54-4.98-4.29l-.02-.03-.02-.03c-1.27-2.19-2.23-4.72-2.84-7.41-.05.61-.11,1.23-.19,1.84v.06s-.02.06-.02.06c-.1.47-.41,1.91-1.71,1.92-.42,0-.81-.17-1.11-.49-.62-.67-.7-1.92-.66-2.5.06-1.06.1-2.16.14-3.22.06-1.73.13-3.52.29-5.27.07-1.1.24-2.18.4-3.22.14-.93.28-1.82.35-2.71.07-1.12.1-2.28.13-3.39.01-.52.03-1.04.04-1.57,0-.7-.25-1.06-.6-1.56-.44-.61-1.03-1.45-.82-2.76v-.04s.02-.04.02-.04c.58-2.46,2.94-3.87,4.78-4.32.47-.11.97-.17,1.49-.18,1.44-.02,2.87.37,3.81.66h.01c.73.21,1.41.47,2.07.72.43.16.88.33,1.34.49.52.18,1.07.33,1.6.49.51.15,1.03.29,1.54.47,1.19.4,2.81.94,3.87,2.32l.03.03c1.44,2,1.48,4.56,1.26,6.35ZM102.34,21.4l-.04.02h-.04c-.62.2-1.25.23-1.72.24-.18,0-.37,0-.54,0h-.22c-1.17,0-2.24-.18-3.4-.41-.94-.13-1.86-.32-2.75-.5-.11-.02-.23-.05-.34-.07,0,.08.02.18.03.29v.02c.33,2.83.43,5.75.5,8.49v.04s0,.04,0,.04c0,.33,0,.69.02,1.07.04.99.09,2.11-.28,3.15l-.04.13-.07.11c-.45.75-1.11.84-1.37.84-.44,0-1.26-.18-1.74-1.49l-.02-.04v-.04c-.41-1.34-.47-2.72-.53-4.04-.02-.45-.04-.87-.07-1.28-.06-.75-.11-1.52-.15-2.26-.11-1.91-.22-3.89-.66-5.7-.08-.19-.13-.21-.49-.36-.59-.25-1.58-.67-2.17-2.21-.34-.86-.54-1.73-.73-2.56-.07-.31-.14-.6-.21-.89v-.05s-.05-.16-.05-.16c-.13-.6-.29-1.34-.22-2.08.1-1.09.68-1.92,1.64-2.34,1.55-.81,3.2-1.06,4.8-1.3.3-.04.61-.09.91-.14.54-.09,1.07-.2,1.63-.32,1.15-.25,2.33-.5,3.6-.51.15,0,.3,0,.44,0,.02,0,.03,0,.05,0,.08,0,.16,0,.25,0,.11,0,.22,0,.33-.01.42,0,1.06.03,1.67.42l.06.04.03.02c.09.07.18.14.26.21.33.11.61.36.8.69.1.19.19.43.21.68.35.74.52,1.55.67,2.26.05.22.09.43.14.63v.04s.02.04.02.04c.14.78.37,1.93.7,2.96v.05s.03.05.03.05c.04.17.11.42.19.68.23.76.51,1.7.56,2.62.1,1.98-1,2.7-1.66,2.96Z"/>
  </g>
  <g>
    <path class="st1" d="M57.13,12.29c-.26,0-.54.04-.81.1-.64.15-2.14.76-2.26,3.2-.02.23-.03.47-.05.71-.03.44-.06.89-.1,1.32-.17,1.53-.32,3.1-.47,4.61-.09.94-.18,1.88-.28,2.81-.12,1.08-.25,1.97-.53,2.78-.43,1.26-.83,1.85-1.06,2.1-.18-.32-.43-.98-.6-2.17v-.02c-.3-2.22-.33-4.7-.09-7.37.18-1.5.49-2.96.82-4.51.12-.58.25-1.17.37-1.76.03-.16.07-.33.12-.51.13-.51.27-1.09.26-1.71v-.04c-.07-1.26-.93-1.83-1.71-1.82-.96.01-1.65.81-1.91,1.16-.23.3-.43.65-.63,1.1h0c-.52,1.21-.82,2.42-1.1,3.59-.04.19-.09.37-.14.56v.03c-.66,2.92-.89,6.09-.71,9.99v.02s.01.14.01.14c.18,2.33.5,6.66,3.72,7.51h.04c.45.11.91.16,1.38.16,1.48-.02,2.91-.59,3.91-1.58,1.35-1.33,2.43-2.95,3.05-4.57.28-.76.5-1.62.67-2.7v-.02c.21-1.4.37-2.81.52-4.18.08-.69.16-1.41.24-2.12l.02-.21c.11-1.09.23-2.23.22-3.34.02-1.01-.28-1.87-.88-2.47-.53-.53-1.23-.81-2.03-.8ZM58.72,15.55c.01,1.1-.12,2.28-.23,3.39-.26,2.09-.45,4.17-.76,6.26-.14.83-.32,1.66-.61,2.45-.57,1.49-1.58,2.95-2.74,4.09-1.05,1.03-2.64,1.41-4.07,1.08-2.35-.62-2.59-4.42-2.75-6.45-.14-3.23-.03-6.49.68-9.64.33-1.35.61-2.65,1.16-3.92.14-.3.3-.6.49-.86.44-.6,1.18-1.02,1.23-.06.02.62-.22,1.29-.35,1.92-.43,2.13-.95,4.24-1.21,6.4-.23,2.55-.25,5.17.09,7.69v.03c.66,4.62,2.78,4.5,4.22.3.34-.99.48-2.03.59-3.07.25-2.46.47-4.97.75-7.43.07-.7.1-1.41.16-2.08.04-.83.32-1.77,1.24-1.99,1.37-.32,2.13.53,2.1,1.87Z"/>
    <path class="st1" d="M82.21,10.31c-1.06-1.38-2.68-1.92-3.87-2.32-.51-.17-1.03-.32-1.54-.47-.53-.15-1.07-.31-1.6-.49-.46-.16-.91-.32-1.34-.49-.66-.25-1.34-.51-2.07-.72h-.01c-.95-.29-2.37-.68-3.81-.66-.52,0-1.02.06-1.49.18-1.84.45-4.2,1.85-4.78,4.32v.04s-.02.04-.02.04c-.22,1.31.38,2.15.82,2.76.35.5.61.86.6,1.56-.02.52-.03,1.04-.04,1.57-.03,1.12-.06,2.27-.13,3.39-.07.89-.21,1.77-.35,2.71-.16,1.04-.32,2.12-.4,3.22-.16,1.75-.23,3.54-.29,5.27-.04,1.06-.08,2.16-.14,3.22-.04.58.04,1.83.66,2.5.3.32.69.49,1.11.49,1.29-.01,1.61-1.45,1.71-1.92v-.06s.02-.06.02-.06c.08-.61.14-1.23.19-1.84.61,2.69,1.58,5.22,2.84,7.41l.02.03.02.03c1.16,1.75,2.88,3.23,4.98,4.29,1.11.69,2.45,1.03,3.98,1.01.24,0,.49-.01.75-.03,2.76-.11,3.48-1.9,4.12-3.48v-.03c.31-.79.56-1.6.81-2.39.18-.59.36-1.15.55-1.7v-.03s.02-.03.02-.03c.07-.23.15-.46.23-.71.3-.9.64-1.93.57-3.01v-.05s-.01-.05-.01-.05c-.13-.87-.65-1.52-1.47-1.84-.58-.23-1.24-.25-1.74-.25-.2,0-.4,0-.59.02-.17,0-.34.01-.5.01-.4,0-.52-.03-.53-.03h-.04s-.04-.03-.04-.03c-1.27-.43-2.41-1.07-3.29-1.85-.45-.42-.84-.96-1.25-1.52-.11-.15-.22-.3-.33-.45-.74-1.14-1.35-2.38-1.9-3.59,1.06.29,2.25.53,3.46.51.18,0,.36,0,.54-.02,1.69-.12,2.94-1.18,3.77-1.89l.03-.02c1.96-1.76,2.79-3.43,3.07-6.16.22-1.79.18-4.35-1.26-6.35l-.03-.03ZM82.18,16.54c-.24,2.37-.9,3.76-2.64,5.33-.87.74-1.8,1.5-3,1.58-1.42.11-2.89-.24-4.26-.65-1.54-.44-2-.42-1.25,1.14.71,1.59,1.46,3.2,2.42,4.68.56.76,1.07,1.56,1.77,2.21,1.08.95,2.4,1.66,3.75,2.12,1.09.44,3.78-.54,4.03,1.06.07,1.07-.43,2.2-.75,3.26-.47,1.34-.84,2.73-1.34,4.06-.67,1.67-1.13,2.59-2.97,2.65-1.39.12-2.81-.05-4-.81-1.79-.89-3.41-2.18-4.53-3.86-1.61-2.78-2.61-5.95-3.09-9.13-.44-3.3-.45-6.78-.86-10.11-.06-.16-.1.12-.12.17-.19,1.08-.5,2.93-.65,4.17-.42,3.26-.36,6.57-.76,9.83-.41,1.89-.95.3-.87-.69.16-2.8.17-5.67.43-8.48.13-1.99.59-3.95.75-5.93.1-1.67.12-3.35.17-5.02.03-2.21-1.7-2.54-1.44-4.13.41-1.76,2.14-2.93,3.81-3.34,1.49-.35,3.21.03,4.6.46h.02c1.16.34,2.17.79,3.37,1.2,1.05.36,2.13.61,3.14.95,1.19.4,2.46.85,3.24,1.87,1.1,1.53,1.25,3.59,1.02,5.43Z"/>
    <path class="st1" d="M71.52,13.25c-.26-.21-.73-.02-1.05.08-.68.23-.88.73-.89,1.61.02.93.2,1.86.53,2.72.15.37.47.95.89.7.34-.29.4-.82.5-1.24.15-.75.59-3.33.03-3.87h0Z"/>
    <path class="st1" d="M42.28,24.33h-.04s-.04-.02-.04-.02c-.25-.05-.52-.08-.82-.08-.45,0-.89.07-1.28.13-.2.03-.4.06-.55.08h-.04c-.3.04-.61.07-.93.1-.69.07-1.39.14-2.13.3-.16.03-.33.07-.49.1-1.33.27-2.71.55-4.01.56-.15,0-.29,0-.43,0h-.02s-.16,0-.16,0c-.15,0-.35,0-.47-.02-.41-.69-.23-1.7.02-2.68v-.04s.02-.04.02-.04c.18-.93.26-1.84.24-2.77v-.45c-.05-1.11-.08-2.25-.01-3.34v-.05s0-.05,0-.05c0-.12,0-.3.01-.48.04-1.04.14-3.22-1.76-3.78l-.05-.02-.12-.03h-.05c-.13-.02-.26-.03-.39-.03-1.11.01-1.82.61-2.3,1.36-.1-1.81-.67-3.73-1.54-5.19-1.22-2.04-3.01-3.19-5.04-3.23h-.06c-2.45.03-6.02,1.48-7.78,3.17l-.02.02c-.75.75-1.22,1.67-1.64,2.48-.23.44-.44.85-.68,1.21-.08.12-.16.24-.23.37-.12-.72-.33-1.39-.69-1.78-.31-.33-.72-.51-1.15-.5-1.23.01-1.78,1.31-2.2,2.53l-.04.13-.02.13c-.79,5.9-.65,11.95-.5,17.8.06,2.56.13,5.21.11,7.79,0,.36,0,2,.81,2.83.33.34.77.52,1.23.52.51,0,.98-.23,1.41-.67l.08-.08.06-.09c.86-1.22.95-2.74,1.02-3.96.01-.19.02-.39.04-.57v-.03c.08-1.34.04-2.7,0-4.02-.02-.84-.05-1.66-.04-2.46.35.26.72.49,1.1.68,1.49.78,3.03,1.17,4.57,1.15,2.51-.03,4.9-1.17,6.75-3.21,1.22-1.35,1.9-3.04,2.4-4.57,0,.24-.02,1.34-.02,1.34,0,.5-.02,1-.03,1.51-.07,3.18-.15,6.46,1.04,9.62.05.17.11.34.16.53.23.79.5,1.69,1.14,2.46l.04.05.04.04c1.49,1.49,3.46,1.64,4.81,1.63.66,0,1.3-.06,1.93-.11.21-.02.42-.03.62-.05h.07s.07-.02.07-.02c.55-.1,1.1-.21,1.62-.32,1.06-.22,2.06-.43,3.1-.52.77-.06,1.92-.18,3.03-.48,1.98-.49,2.06-2.42,2.11-3.46v-.04c.04-.79.03-1.58.02-2.35-.01-.97-.03-1.88.06-2.78.08-.86.1-1.69.08-2.53v-.17c0-.97-.02-2.98-1.99-3.54ZM23.22,22.86c-.49,1.55-1.12,3.15-2.21,4.35-2.62,2.89-6.26,3.6-9.73,1.77-.6-.31-1.25-.76-1.82-1.33-.26-.21-.9-.99-1.11-.54-.29,2.86.09,5.87-.07,8.76-.1,1.28-.06,2.8-.82,3.87-.98,1-1.2-1-1.18-1.72.06-8.45-.74-17.06.38-25.43,1.44-4.17,1.71.78,1.59,2.34-.04,3-.24,5.32,1.06.67.33-1.19.81-2.3,1.48-3.33.74-1.12,1.2-2.52,2.15-3.48,1.52-1.45,4.79-2.78,6.88-2.8h.02c3.51.07,5.21,4.35,5.29,7.41.19,3.27-.97,6.38-1.93,9.46ZM42.87,30.46c-.16,1.72,0,3.46-.08,5.18-.05,1.04-.08,2.03-1.12,2.28-.91.24-1.87.37-2.81.45-1.66.15-3.21.57-4.84.86-2.11.15-4.68.56-6.32-1.08-.6-.71-.78-1.7-1.06-2.58-1.29-3.41-.98-7.1-.93-10.67.04-2.91,0-5.91.91-8.67.45-1.14.8-3.36,2.38-3.17h.01c1.11.33.79,2.09.8,3.01-.08,1.3-.02,2.64.01,3.91.02.85-.05,1.67-.21,2.49-.31,1.21-.54,2.59.14,3.71.39.69,1.08.64,1.73.64,1.76.06,3.53-.34,5.25-.68.98-.21,1.96-.25,2.95-.38.68-.06,1.57-.3,2.25-.16,1.09.31,1.02,1.51,1.03,2.46.02.81,0,1.59-.07,2.39Z"/>
    <path class="st1" d="M17.83,16.08h-.02c-.46.01-1.05.14-1.57.31-.89.28-1.81.59-2.64.93-.71.31-1.49.66-1.91,1.37-.55.98.26,1.93.99,2.52,1.16.99,2.87,1.09,4.3.7.91-.22,1.78-.61,2.54-1.08.44-.27.91-.58,1.08-1.08.23-.8-.32-1.69-.75-2.38-.47-.73-1.1-1.35-2.02-1.29ZM18.82,19.7c-.68.42-1.42.74-2.15.92h-.03c-.39.11-.8.17-1.18.18h0c-.55,0-1.33-.09-1.91-.59l-.03-.03c-.56-.45-.68-.76-.68-.81,0,0,0,0,0-.02.21-.34.77-.59,1.28-.81.69-.28,1.52-.57,2.53-.89.45-.14.91-.24,1.2-.24,0,0,.1,0,.11,0,.23,0,.49.23.78.68.16.25.61.98.61,1.25-.09.11-.4.3-.52.37Z"/>
    <path class="st1" d="M103.44,15.83c-.08-.26-.15-.51-.19-.68v-.05s-.03-.05-.03-.05c-.33-1.04-.56-2.18-.7-2.96v-.04s-.02-.04-.02-.04c-.05-.19-.09-.4-.14-.63-.15-.71-.32-1.52-.67-2.26-.02-.25-.11-.49-.21-.68-.18-.34-.46-.58-.8-.69-.08-.07-.17-.14-.26-.21l-.03-.02-.06-.04c-.61-.38-1.25-.42-1.67-.42-.11,0-.22,0-.33.01-.08,0-.16,0-.25,0-.02,0-.03,0-.05,0-.15,0-.3,0-.44,0-1.27.01-2.46.27-3.6.51-.56.12-1.09.23-1.63.32-.3.05-.6.09-.91.14-1.6.24-3.25.48-4.8,1.3-.96.42-1.54,1.25-1.64,2.34-.07.74.09,1.48.22,2.08l.03.16v.05c.08.29.15.58.22.89.19.83.39,1.7.73,2.56.59,1.53,1.58,1.95,2.17,2.21.36.15.41.18.49.36.44,1.81.55,3.79.66,5.7.04.75.09,1.52.15,2.26.03.42.05.84.07,1.28.06,1.33.12,2.7.52,4.04v.04s.03.04.03.04c.48,1.31,1.3,1.49,1.74,1.49.26,0,.92-.09,1.37-.84l.07-.11.04-.13c.37-1.04.32-2.16.28-3.15-.02-.38-.03-.75-.02-1.07v-.04s0-.04,0-.04c-.07-2.74-.18-5.66-.5-8.49v-.02c-.02-.11-.03-.21-.03-.29.11.02.23.05.34.07.89.18,1.81.37,2.75.5,1.16.23,2.23.42,3.4.4h.22c.18,0,.36,0,.54,0,.48,0,1.1-.04,1.72-.23h.04s.04-.03.04-.03c.66-.25,1.76-.97,1.66-2.96-.05-.91-.33-1.86-.56-2.62ZM101.86,20.17c-.67.2-1.42.17-2.1.16-1.09.01-2.1-.17-3.18-.39-1.12-.15-2.22-.4-3.3-.62-1.38-.36-1.43.72-1.29,1.81.32,2.77.42,5.6.49,8.37-.04,1.23.22,2.67-.18,3.82-.28.47-.57.01-.74-.43-.48-1.61-.41-3.38-.54-5.05-.23-2.73-.2-5.59-.87-8.27-.62-1.63-1.95-.71-2.7-2.65-.42-1.06-.61-2.19-.88-3.29-.23-1.07-.63-2.58.66-3.11,1.64-.88,3.54-1.03,5.35-1.32,1.83-.3,3.57-.88,5.43-.81.54,0,1.13-.12,1.63.2h.01c1.1.81,1.26,2.48,1.56,3.72.18,1.05.43,2.17.74,3.13.28,1.21,1.53,4.1-.09,4.72Z"/>
  </g>
  <g>
    <path class="st3" d="M19.86,5.99h-.02c-2.09.02-5.37,1.35-6.88,2.8-.96.96-1.41,2.36-2.15,3.48-.67,1.03-1.15,2.14-1.48,3.33-1.3,4.65-1.11,2.33-1.06-.67.12-1.57-.14-6.52-1.59-2.34-1.13,8.38-.33,16.99-.38,25.43-.02.73.2,2.72,1.18,1.72.76-1.08.72-2.59.82-3.87.16-2.89-.22-5.9.07-8.76.21-.46.85.33,1.11.54.57.57,1.22,1.01,1.82,1.33,3.47,1.82,7.11,1.12,9.73-1.77,1.09-1.2,1.72-2.8,2.21-4.35.96-3.09,2.12-6.19,1.93-9.46-.09-3.06-1.78-7.33-5.29-7.41ZM20.6,19.74c-.17.5-.64.81-1.08,1.08-.76.47-1.63.86-2.54,1.08-1.44.39-3.15.3-4.3-.7-.73-.59-1.54-1.54-.99-2.52.42-.71,1.2-1.06,1.91-1.37.83-.34,1.75-.65,2.64-.93.52-.17,1.11-.3,1.57-.31h.02c.92-.06,1.55.55,2.02,1.29.43.69.99,1.58.75,2.38Z"/>
    <path class="st3" d="M41.92,25.6c-.67-.15-1.56.09-2.25.16-.99.12-1.97.16-2.95.38-1.72.34-3.49.74-5.25.68-.65,0-1.33.05-1.73-.64-.68-1.12-.45-2.5-.14-3.71.16-.82.23-1.63.21-2.49-.04-1.28-.09-2.62-.01-3.91-.01-.92.3-2.68-.8-3.01h-.01c-1.58-.2-1.93,2.03-2.38,3.16-.9,2.76-.87,5.76-.91,8.67-.04,3.57-.35,7.26.93,10.67.29.88.47,1.87,1.06,2.58,1.64,1.64,4.21,1.24,6.32,1.08,1.63-.29,3.18-.71,4.84-.86.94-.08,1.9-.2,2.81-.45,1.04-.25,1.07-1.24,1.12-2.28.09-1.72-.08-3.46.08-5.18.07-.8.09-1.58.07-2.39-.01-.95.06-2.16-1.03-2.46Z"/>
    <path class="st3" d="M56.62,13.68c-.92.21-1.2,1.16-1.24,1.99-.05.67-.09,1.38-.16,2.08-.28,2.46-.5,4.97-.75,7.43-.11,1.04-.26,2.08-.59,3.07-1.44,4.2-3.56,4.32-4.22-.3v-.03c-.34-2.52-.33-5.14-.1-7.69.26-2.16.78-4.27,1.21-6.4.13-.63.37-1.3.35-1.92-.05-.96-.8-.54-1.23.06-.19.26-.35.56-.49.86-.55,1.26-.83,2.57-1.16,3.92-.71,3.15-.82,6.41-.68,9.64.15,2.02.4,5.83,2.75,6.45,1.42.33,3.02-.05,4.07-1.08,1.15-1.14,2.17-2.6,2.74-4.09.29-.79.47-1.62.61-2.45.31-2.09.5-4.17.76-6.26.12-1.11.24-2.29.23-3.39.03-1.35-.73-2.19-2.1-1.87Z"/>
    <path class="st3" d="M77.92,9.25c-1.01-.34-2.09-.59-3.14-.95-1.2-.41-2.22-.85-3.37-1.19h-.02c-1.4-.44-3.11-.82-4.6-.47-1.66.41-3.39,1.58-3.81,3.34-.26,1.59,1.47,1.93,1.44,4.13-.06,1.67-.07,3.35-.17,5.02-.16,1.99-.62,3.94-.75,5.93-.26,2.8-.26,5.68-.43,8.48-.08.99.46,2.59.87.69.41-3.26.35-6.57.76-9.83.15-1.24.46-3.09.65-4.17.02-.05.06-.33.12-.17.41,3.32.43,6.8.86,10.11.48,3.18,1.48,6.35,3.09,9.13,1.12,1.69,2.74,2.97,4.53,3.86,1.19.76,2.61.93,4,.81,1.84-.06,2.29-.98,2.97-2.65.5-1.33.87-2.72,1.34-4.06.31-1.06.82-2.19.75-3.26-.24-1.61-2.94-.62-4.03-1.06-1.35-.46-2.68-1.17-3.75-2.12-.7-.65-1.21-1.45-1.77-2.21-.96-1.48-1.71-3.09-2.42-4.68-.76-1.56-.3-1.58,1.25-1.14,1.37.41,2.84.76,4.26.65,1.2-.08,2.13-.84,3-1.58,1.74-1.57,2.4-2.96,2.64-5.33.23-1.84.08-3.9-1.02-5.43-.78-1.02-2.05-1.47-3.24-1.87ZM71.5,17.12c-.1.42-.16.95-.5,1.24-.43.25-.74-.33-.89-.7-.33-.86-.51-1.8-.53-2.72,0-.88.21-1.39.89-1.61.32-.1.79-.29,1.05-.08h0c.56.54.13,3.13-.03,3.88Z"/>
    <path class="st3" d="M101.22,12.32c-.3-1.24-.46-2.91-1.56-3.71h-.01c-.5-.32-1.09-.2-1.63-.2-1.86-.07-3.6.52-5.43.81-1.8.29-3.7.45-5.35,1.32-1.29.53-.89,2.04-.66,3.11.28,1.1.46,2.22.88,3.29.74,1.94,2.08,1.02,2.7,2.65.67,2.67.64,5.53.87,8.27.13,1.67.07,3.44.54,5.05.16.44.46.9.74.43.41-1.16.15-2.6.18-3.82-.07-2.77-.18-5.61-.49-8.37-.14-1.09-.1-2.17,1.29-1.81,1.09.22,2.19.46,3.3.62,1.08.21,2.1.4,3.18.39.69,0,1.44.04,2.1-.16,1.62-.62.37-3.51.09-4.72-.3-.96-.55-2.08-.74-3.13Z"/>
  </g>
</svg>