<?xml version="1.0" encoding="UTF-8"?>
<svg id="Layer_1" xmlns="http://www.w3.org/2000/svg" version="1.1" viewBox="0 0 109.3 50">
  <!-- Generator: Adobe Illustrator 30.2.1, SVG Export Plug-In . SVG Version: 2.1.1 Build 1)  -->
  <defs>
    <style>
      .st0 {
        fill: #e2e100;
      }
    </style>
  </defs>
  <path class="st0" d="M15.92,34.53c-.43-.36-1.33-.22-1.99-.25-.92,0-1.88.02-2.79-.02-.64-.05-.48-.25-.37-.84.56-2.52,1.09-4.96,1.91-8.68,1.28-5.81,2.75-12.44,3.09-14,.03-.17.07-.31-.09-.39-.11-.09-.7-.08-1.01-.09-1.06,0-3.01,0-4.07,0-.93.05-1.15-.06-1.31.49-.56,2.53-3.63,16.43-4.21,19.13-.09.56-.05.78-.06,1.59,0,2.18,0,5.03,0,7.3.01.77.1.9.75.92,1.22.01,2.43,0,3.69,0,1.31,0,2.85,0,4.1,0,1.06-.05,1.64.11,2.32-.11.32-.22.27-.7.3-1.06.01-.73,0-1.91,0-2.75-.02-.41.02-.9-.25-1.22l-.02-.02Z"/>
  <path class="st0" d="M17.21,18.99c-.19,3.62-.01,12.46-.07,15.22-.02.51.14.96.63,1.19,1.02.55,3.13.82,4.51.73,3.44-.14,5.99-1.45,7.74-3.9.51-.72.4-1.1.41-1.84,0-.47,0-1.06,0-1.75,0-5.69.01-15.51,0-21.28-.06-.5-.38-.53-1-.61-.9-.08-1.98-.05-2.9.07-6.68.83-8.29,6.43-9.31,12.14v.03ZM21.59,28.21c.16-1.2.59-2.75.86-4.06.74-3.11,1.39-6.58,2.2-9.56.18-.52.55-1.23,1.1-1.61.98-.7,2.48-.42,2.66.79.15.76-.05,1.48-.21,2.21-.51,2.25-2.01,8.96-2.48,11.03-.18.79-.36,1.56-.85,2.26-.57.96-2.21,1.35-2.91.53-.37-.42-.42-1.05-.37-1.58v-.03Z"/>
  <path class="st0" d="M77.72,35.84c1.21.39,2.9.36,4.23.22,4.14-.42,6.96-3.05,8.27-6.84.27-.75.39-1.19.38-1.89,0-2.46,0-11.75,0-16.75,0-1.21,0-2.16,0-2.71-.02-.67-.37-.78-1.32-.98-4.24-.78-9.02.74-10.99,4.58-.48.89-1.01,1.81-.99,2.79,0,2.8,0,15.98,0,20.91,0,.29.09.53.39.65h.02ZM80.28,28.22c.72-3.71,2.29-9.97,2.9-12.75.2-.88.63-2.09,1.54-2.59.71-.4,1.69-.36,2.15.19.65.84.31,1.97.11,2.9-.51,2.22-2.08,8.98-2.56,11.06-.23,1.01-.52,2.14-1.39,2.82-1.53,1.01-3,.17-2.76-1.6v-.03Z"/>
  <path class="st0" d="M96.19,40.88c.2.1.63.09,1.34.09,1.19,0,2.59,0,3.8,0,1.79.06,1.82-.16,2.18-1.72.25-1.23.68-2.55.77-3.74,0-4.86,0-21.3,0-23.15,0-.15,0-.32-.07-.06-.42,1.78-1.02,4.44-1.49,6.45-.42,1.78-1.15,5.07-1.46,6.25-.02.06-.04.03-.05-.03-.28-3.12-.57-10.95-.87-13.19-.21-.35-.74-.22-1.11-.26-1.26,0-3.79,0-5.11,0-.48.01-1.04-.03-1.27.47-.31.73-.44,1.65-.66,2.54-.21,1.01-.48,1.8-.52,2.64,0,3.17,0,20.43,0,23.16,0,.18,0,.28.01.3.05-.07.07-.24.11-.39.53-2.17,2.85-12.61,3.26-14.06.09.29.05.66.1,1.18.2,3.18.46,7.44.65,10.61.08,1.18.12,2.09.16,2.53.02.16.05.3.2.38h.01Z"/>
  <path class="st0" d="M31.6,19.28c-.17.4-.21.67-.22,1.06.12,3.5-.24,18.77.13,22.48.15.21.51.32,1.09.39,1.04.12,2.29.13,3.36-.01,3.85-.46,6.39-2.49,7.77-6.13.38-1.1.92-2.55.87-3.68-.06-.48-.51-.66-.94-.7-.65-.07-1.68-.04-2.57-.05-.54,0-1.11-.03-1.6.16-.63.22-.85.98-1.06,1.68-.19.63-.44,1.3-.81,1.76-.65.92-2.18,1.32-2.95.5-.78-.82-.47-2.01-.25-3,.52-2.31,1.77-7.97,2.33-10.45.22-1.04.53-2.12,1.41-2.82.7-.58,1.78-.68,2.39-.17.65.51.62,1.42.54,2.18-.07.65-.14,1.19.15,1.49.57.54,1.65.37,2.51.37,1.24-.02,1.1-.71,1.1-1.98,0-1.21,0-2.43,0-3.73,0-.98,0-1.91,0-2.59,0-.92-.13-1.4-.68-1.67-1.32-.55-3.11-.57-4.57-.47-3.78.28-6.5,2.23-7.99,5.34v.03Z"/>
  <path class="st0" d="M56.96,36.09c.25-.04.31-.17.31-.39,0-5.87,0-15.81,0-22.32,0-3.11,0-5.5,0-6.28-.02-.53-1.08-.33-1.5-.39-.42,0-.85,0-1.26.06-.56.09-.55.35-.79.9-.21.54-.41,1.05-.63,1.6-2.03,5.15-6.28,15.86-7.18,18.2-.22,1.05-.06,2.1-.11,3.42,0,1.08,0,2.2,0,3.28,0,.81-.03,1.36.25,1.64.46.44,1.17.26,1.65-.08.42-.27.68-.67,1.02-1.02.64-.65,1.45-.58,2.44-.59.74-.02,1.72.05,1.93.89.11.35.25.73.6.91.56.3,1.39.2,2.16.22.36,0,.75,0,1.09-.05h.02ZM50.48,30.14c-.28-.12-.09-.45.14-1.05.12-.3.25-.6.37-.92.82-2.02,1.92-4.74,2.74-6.76.2-.47.4-1.14.33-.26-.13,1.66-.38,6.79-.58,8.62-.17.51-.59.42-1.23.47-.69,0-1.35.04-1.76-.09h-.02Z"/>
  <path class="st0" d="M58.6,16.48c.34.29,1.05.21,1.56.24.62,0,1.27-.02,1.87.04.58.06.5.28.38.83-.64,2.81-1.24,5.48-2.07,9.15-.89,3.96-1.68,7.41-2.03,8.97-.11.5-.1,1.03-.1,1.57.04.88-.11,1.97.15,2.78.22.5.85.47,1.32.5.79,0,1.92,0,2.67,0,.48-.05,1.26.12,1.41-.37.58-2.42,2.8-12.35,4.23-18.63.5-2.13.77-3.55,1.02-4.42.13-.29.43-.35.62-.6.59-.85.33-2.27.39-3.33-.07-.77.25-2.06-.68-2.07-1.55-.05-4.4,0-6.84-.02-.93,0-1.71,0-2.2,0-.2,0-.44.03-.58.12-.36.24-.41.74-.53,1.15-.18.79-.46,2.01-.65,2.86-.06.39-.24.89.02,1.21l.02.02Z"/>
  <path class="st0" d="M76.22,23.92c0-2.8.09-7.18-.03-9.55-.08-.38-.47-.45-.81-.48-.79-.04-1.96-.05-2.79,0-.42.05-.55.14-.64.47-.57,2.45-3.88,17.06-4.45,19.58-.17.75-.11.97-.12,1.99,0,1.68,0,4.87,0,6.28-.02.84.26,1.07,1.19,1.07.8,0,1.81.03,2.55-.01.55-.02.78-.12.87-.6.56-2.58,3.32-14.3,4.24-18.74v-.02Z"/>
</svg>