<?xml version="1.0" encoding="UTF-8"?>
<svg id="Layer_1" xmlns="http://www.w3.org/2000/svg" version="1.1" viewBox="0 0 210.03 80.93">
  <!-- Generator: Adobe Illustrator 30.2.1, SVG Export Plug-In . SVG Version: 2.1.1 Build 1)  -->
  <defs>
    <style>
      .st0 {
        fill: #e2e100;
      }
    </style>
  </defs>
  <g>
    <path class="st0" d="M83.61,16.38c-.17-1.47.01-5.44-.14-7.02-.15-.48-.57-.3-1.35-.35-1.37,0-3.38,0-4.4,0-.41,0-.65.01-.76.07-.14.08-.11.26-.11.42.08,2.26.52,14.3.6,16.68.04.83-.3,1.81-.47,2.69-.22.88-.24,1.43-.22,2.36.01,1.95-.02,5.29.01,6.81-.02.54.49.56.92.56.7,0,1.93,0,2.63,0,.3-.02.66.02.89-.18.7-2.05,2.13-9.16,2.66-11.14.17-.79.41-1.08.81-1.95,1.07-2.18,2.34-4.75,3.43-6.98.18-.36.34-.69.51-1.04.35-.7.37-.74.37-1.68,0-1.63,0-3.46,0-5.07.02-1.03.05-1.58-1.01-1.55-.51,0-.94.21-1.14.68-.79,1.54-2.46,5.44-3.2,6.67h0Z"/>
    <path class="st0" d="M89.93,10.68c-.11.26-.15.45-.15.71,0,5.16,0,20.22,0,22.54,0,.55.53.49,1.1.59,4.45.55,8.85-1.22,10.76-5.2.23-.47.33-.66.36-1.05-.02-2.62.05-16.97-.02-22.77-.22-.56-2.44-.48-3.09-.49-4.1.04-7.39,2.16-8.94,5.65v.02ZM99.37,13.11c-.73,3.46-2.41,10.34-2.99,12.92-.16.67-.59,1.88-1.33,2.32-.71.47-1.9.47-2.38-.11-.57-.78-.26-1.87-.08-2.71.49-2.08,2.24-9.59,2.69-11.51.23-.99.56-2.24,1.54-2.8.69-.39,1.75-.38,2.23.12.43.45.39,1.19.33,1.75v.03Z"/>
    <path class="st0" d="M153.35,15.98c-.11.26-.15.45-.15.71,0,5.16,0,20.22,0,22.54,0,.55.53.49,1.1.59,4.45.55,8.85-1.22,10.76-5.2.23-.47.33-.66.36-1.05-.02-2.62.05-16.97-.02-22.77-.22-.56-2.44-.48-3.09-.49-4.1.04-7.39,2.16-8.94,5.65v.02ZM162.8,18.4c-.73,3.46-2.41,10.34-2.99,12.92-.16.67-.59,1.88-1.33,2.32-.71.47-1.9.47-2.38-.11-.57-.78-.26-1.87-.08-2.71.49-2.08,2.24-9.59,2.69-11.51.23-.99.56-2.24,1.54-2.8.69-.39,1.75-.38,2.23.12.43.45.39,1.19.33,1.75v.03Z"/>
    <path class="st0" d="M166.6,11.73c-.11.26-.15.45-.15.71,0,5.16,0,20.22,0,22.54,0,.55.53.49,1.1.59,4.45.55,8.85-1.22,10.76-5.2.23-.47.33-.66.36-1.05-.02-2.62.05-16.97-.02-22.77-.22-.56-2.44-.48-3.09-.49-4.1.04-7.39,2.16-8.94,5.65v.02ZM176.04,14.15c-.73,3.46-2.41,10.34-2.99,12.92-.16.67-.59,1.88-1.33,2.32-.71.47-1.9.47-2.38-.11-.57-.78-.26-1.87-.08-2.71.49-2.08,2.24-9.59,2.69-11.51.23-.99.56-2.24,1.54-2.8.69-.39,1.75-.38,2.23.12.43.45.39,1.19.33,1.75v.03Z"/>
    <path class="st0" d="M107.62,32.13c-1.76-.04-1.42-2.06-1.1-3.23.2-.87.4-1.71.6-2.61.92-4.03,3.56-15.29,4.04-17.56,0-.05-.02-.09-.07-.12-.12-.06-.44-.05-1.02-.05-1.46,0-3.18,0-4.67,0-.65,0-.72.11-.86.73-.1.42-.19.83-.3,1.28-.44,1.92-1.01,4.33-1.41,6.14-.09,2.5,0,17.53-.03,20.46,0,.17.01.32.16.43.83.45,2.21.53,3.24.55,3.45.06,6.51-1.27,8.31-3.76.3-.41.5-.65.51-1.09.02-1.77,0-20.03,0-24.62,0,0-.01.03-.03.09-.5,1.94-4.18,18.49-5,21.41-.33,1.02-1.15,2-2.31,1.94h-.04Z"/>
    <path class="st0" d="M118.14,8.8c-.12.11-.16.27-.2.45-.36,1.53-1.53,6.58-2.06,8.9-.18,2.43,0,16.55-.06,19.61-.02.24.07.44.33.47.64.09,1.67.16,1.75-.64.53-2.25,1.65-7.14,2.26-9.79.16-.68.19-1.09.55-1.23.44-.16.97.02,1.35.28.93.7.61,1.97.39,2.93-.39,1.68-1.48,6.4-1.81,7.86-.03.18-.08.36-.01.5.09.18.47.16,1.18.17,1.51-.04,3.57.07,4.88-.05.31-.06.38-.33.45-.61.29-1.21,1.1-4.74,1.59-6.86.48-2.12,1.4-4.99-.65-6.57-.22-.2-.64-.45-.6-.72.32-.63,1.66-.75,1.87-1.55.15-2.18,0-9.67.05-12.22,0-.21,0-.43-.09-.59-.44-.68-2.82-.35-3.83-.43-1.52,0-3.51,0-5.01,0-.88,0-1.57,0-1.94,0-.14,0-.27.02-.38.09h-.01ZM125.51,16.83c-.32,1.8-.95,3.64-3.08,3.66-.45.02-.63-.19-.53-.59.23-1.02.86-3.6,1.15-4.8.08-.32.18-.68.55-.75,1.6-.15,2.28.84,1.93,2.43v.05Z"/>
    <path class="st0" d="M140.9,5.3c-.12.11-.16.27-.2.45-.36,1.53-1.53,6.58-2.06,8.9-.18,2.43,0,16.55-.06,19.61-.02.24.07.44.33.47.64.09,1.67.16,1.75-.64.53-2.25,1.65-7.14,2.26-9.79.16-.68.19-1.09.55-1.23.44-.16.97.02,1.35.28.93.7.61,1.97.39,2.93-.39,1.68-1.48,6.4-1.81,7.86-.03.18-.08.36-.01.5.09.18.47.16,1.18.17,1.51-.04,3.57.07,4.88-.05.31-.06.38-.33.45-.61.29-1.21,1.1-4.74,1.59-6.86.48-2.12,1.4-4.99-.65-6.57-.22-.2-.64-.45-.6-.72.32-.63,1.66-.75,1.87-1.55.15-2.18,0-9.67.05-12.22,0-.21,0-.43-.09-.59-.44-.68-2.82-.35-3.83-.43-1.52,0-3.51,0-5.01,0-.88,0-1.57,0-1.94,0-.14,0-.27.02-.38.09h-.01ZM148.27,13.33c-.32,1.8-.95,3.64-3.08,3.66-.45.02-.63-.19-.53-.59.23-1.02.86-3.6,1.15-4.8.08-.32.18-.68.55-.75,1.6-.15,2.28.84,1.93,2.43v.05Z"/>
    <path class="st0" d="M190.35,23.3c.07-3.23.57-12.76.59-14.19,0-.2-.03-.3-.26-.33-2.38-.04-5.67,0-8.19-.02-.23,0-.44,0-.65,0-.64,0-.79.03-.96.64-.25.99-.48,2.07-.72,3.08-.19.92-.44,1.63-.48,2.37.04,2.25-.08,20.41.04,23.41,1.14-4.6,2.69-11.65,3.86-16.58.28-1.17.46-2.09.7-3-.05,1.68-.69,15.23-.85,19.08-.07.64.14.57.72.59,1.01,0,3.58,0,4.65,0,.55-.03.8.07.97-.37.63-1.51,3.77-9.04,5.94-14.24,1.17-2.78,2.02-4.9,2.13-5.07-.98,4.3-4.02,17.39-4.45,19.29-.02.15-.07.27.08.34,1.29.13,3.68.02,5.02.05.51-.03,1.06.09.99-.32-.11-2.82.2-26.85-.11-29.2-.66-.16-1.7-.06-2.41-.06-.41.04-.56.08-.7.38-.85,1.96-5.29,12.84-5.9,14.14h0Z"/>
    <path class="st0" d="M60.44,19.11c.71-3.3,2.77-11.89,3.15-13.75.02-.37-.44-.22-1.17-.26-.34,0-.75,0-1.18,0-1.18,0-2.41-.01-3.58,0-.63-.03-.57.39-.72.94-.68,2.93-1.93,8.37-2.67,11.56-.09.35-.09.5-.09.84,0,2.17,0,13.96,0,15.88,0,.24.11.33.55.36.49.03,1.34.03,1.74-.02.2-.03.31-.09.37-.19.6-2.1,2.72-11.85,3.15-13.41.19,2.87.46,11.97.55,13.3.04.51.65.3,1.19.35.84,0,2.13,0,3.09,0,.63,0,1.09,0,1.32-.03.23-.03.27-.12.27-.32-.06-1.86-.38-10.78-.52-14.83-.02-.6-.06-.61.34-1.31.48-.85,1.01-1.77,1.5-2.63.44-.86,1-1.42.94-2.35,0-1.29,0-4.88,0-6.75,0-.72-.02-1.14-.11-1.24-.1-.13-.3.21-.38.33-1.25,2.16-7.02,12.39-7.73,13.54h0Z"/>
    <path class="st0" d="M38.52,27.8c.09-.28.13-.47.13-.74,0-.77,0-2.78,0-5.28,0-5.73,0-14.01,0-15.78,0-.2-.05-.34-.25-.45-1.21-.47-2.95-.5-4.3-.4-4.19.3-7.01,2.62-8.44,6.31-.2.53-.3.76-.32,1.19,0,2.44,0,15.76,0,21.22.04.45.33.46.95.62,5.5,1.03,10.53-1.33,12.23-6.66v-.03ZM35.41,13.2c-.7,3.46-2.3,10.34-2.86,12.92-.15.68-.58,1.89-1.33,2.33-.72.47-1.92.45-2.38-.15-.54-.78-.25-1.85-.08-2.69.47-2.08,2.14-9.58,2.57-11.51.22-.99.54-2.24,1.51-2.81.68-.39,1.74-.38,2.23.12.43.45.41,1.18.35,1.75v.03Z"/>
    <path class="st0" d="M52.94,31.19c.09-.28.13-.47.13-.74,0-.77,0-2.78,0-5.28,0-5.73,0-14.01,0-15.78,0-.2-.05-.34-.25-.45-1.21-.47-2.95-.5-4.3-.4-4.19.3-7.01,2.62-8.44,6.31-.2.53-.3.76-.32,1.19,0,2.44,0,15.76,0,21.22.04.45.33.46.95.62,5.5,1.03,10.53-1.33,12.23-6.66v-.03ZM49.83,16.59c-.7,3.46-2.3,10.34-2.86,12.92-.15.68-.58,1.89-1.33,2.33-.72.47-1.92.45-2.38-.15-.54-.78-.25-1.85-.08-2.69.47-2.08,2.14-9.58,2.57-11.51.22-.99.54-2.24,1.51-2.81.68-.39,1.74-.38,2.23.12.43.45.41,1.18.35,1.75v.03Z"/>
    <g>
      <path class="st0" d="M24.22,26.36c-.04.63,0,1.79-.01,2.52.17-.6.18-1.86.02-2.51h0Z"/>
      <path class="st0" d="M23.14,9.35c-2.19-.06-4.98,0-7.29-.03-.75,0-1.44,0-2.16,0-.65,0-.72.04-.85.59-.72,3.1-1.57,6.75-2.25,9.76-.15,2.41,0,16.5-.05,18.89-.05.48.67.31,1.25.35,1.74-.05,3.89.12,5.54-.12,2.45-.38,4.58-2.19,5.55-4.69.49-1.23.73-2.6,1.04-3.87.17-.72.24-1.23.27-1.94.08-1.69-.11-2.77-1.52-3.74-.53-.41-.21-.67.23-.9,1.23-.62,1.37-.71,1.3-2.24,0-2.86,0-9.46,0-11.31.03-.6-.49-.74-1.04-.77h-.03ZM17.64,29.55c-.25,1.16-.49,2.52-1.51,3.26-.41.32-2.37.97-2.13-.06.17-.78.61-2.57.93-3.91.2-.59.15-1.23.56-1.67.52-.31,1.43-.06,1.88.39.46.53.39,1.22.28,1.94v.05ZM20.43,17.46c-.32,1.8-.95,3.64-3.08,3.67-.45.02-.63-.19-.53-.59.23-1.02.86-3.6,1.15-4.8.08-.32.18-.68.55-.75,1.6-.15,2.28.84,1.93,2.43v.05Z"/>
    </g>
  </g>
  <g>
    <path class="st0" d="M31.86,44.81c.22-.19.2-.54.22-.83,0-.96,0-2.79,0-3.7-.03-.31.07-.76-.25-.89-2.51-.06-10.44-.07-12.9,0-.39.13-.29.47-.33.98,0,.65,0,1.71,0,2.64,0,.73-.03,1.3.11,1.59.34.65,2.08.23,2.72.45.35.1.19.39.06.99-.75,3.49-2.48,10.26-2.89,12.79.05,2.66-.12,7.62.07,9.88.08.17.3.22.73.24.61.02,1.72,0,2.38,0,.33-.03.88.07.98-.26.65-2.76,4.11-17.76,5.37-23.2.09-.36.05-.48.66-.5.74-.03,1.6,0,2.34-.02.34-.01.58-.05.72-.15h.02Z"/>
    <path class="st0" d="M17.31,74.83c.13-.03.16-.07.17-.18,0-3.32.01-11.17,0-15.78-.02-6.34.03-12.06-.02-13.43-.11-.22-.5-.14-.73-.17-.74,0-1.92-.03-2.71.01-.32.03-.45.04-.57.27-.89,2.24-5.6,14.14-7.42,18.74-.2.53-.26.53-.25,1.28,0,1.89,0,4.28,0,6.29,0,.55,0,1.08,0,1.62,0,.64-.05,1.03.23,1.2.54.32,1.19-.06,1.54-.52.28-.34.41-.78.75-1.05.33-.31,1.13-.29,1.78-.28.62.02,1.36-.06,1.94.08.79.23.33,1.24.77,1.72.22.21.57.21.88.22,1.16-.02,2.52.05,3.6-.03h.02ZM9.86,68.82c-.12-.05-.1-.16-.06-.26.11-.3.36-.91.67-1.7.82-2.04,1.91-4.76,2.73-6.8.11-.28.2-.5.25-.63.08-.19.1-.18.09,0-.05.95-.46,7.24-.56,8.9-.01.16-.02.34-.14.44-.11.09-.36.11-.75.12-.73-.02-1.57.07-2.21-.06h-.02Z"/>
    <g>
      <path class="st0" d="M67.28,54.58c-.05,4.17,0,15.64-.01,17.61.03.29.18.32.53.36.58,0,1.73.22,1.93-.51.34-1.35.97-4.18,1.53-6.55.23-.99.42-1.84.54-2.33.11-.46.27-.61.94-.64,1.44-.05,3,.09,4.34-.29.82-.22,2.1-.74,2.55-1.36.3-3.03.04-15.13.1-17.69-.06-.34-.52-.18-1.03-.22-2.17.03-7.02-.05-8.49.03-.32.05-.33.36-.41.63-.5,2.22-2.09,8.94-2.52,10.94h0ZM75.45,48.63c2.56-.13,2.13,1.97,1.66,3.73-.43,1.53-.5,3.32-1.94,4.17-.52.25-1.25.49-1.8.27-.23-.14-.07-.53.07-1.15.09-.38.18-.75.27-1.13.31-1.31.7-2.91.99-4.14.19-.57.22-1.68.72-1.75h.03Z"/>
      <path class="st0" d="M88.61,58.6c-.71.12-1.72.05-2.41.05-.2-.03-.49,0-.57-.2.43-2.49,2.23-9.65,2.64-11.63.15-.59-.14-.48-.9-.5-.69,0-1.66,0-2.44,0-.83,0-1.66-.01-2.47,0-.53.02-.62.16-.77.76-.11.45-.21.9-.32,1.38-.3,1.45-.81,3.21-1,4.56,0,1.71,0,19.18,0,22.33,0,.25-.03.4.15.47.27.12.85.1,1.05-.22.54-1.8,1.93-8.31,2.48-10.53.11-.62.26-.77.89-.78.54-.02,1.47-.02,1.96,0,.18.02.44.01.52.18.04.09,0,.22-.01.33-.18.8-.65,2.81-1.13,4.89-.43,1.98-1.07,4.38-1.35,6,0,.09.05.14.14.17.16.05.52.05,1.07.05.38,0,.84,0,1.32,0,1.03,0,2.11,0,3.13,0,.6,0,.76-.07.89-.56.44-1.84.97-4.11,1.36-5.9.04-2.02.03-20.1,0-22.91-.04-.14-.27-.21-.53-.2-.4,0-.72.2-.77.61-.46,1.99-2.21,9.57-2.6,11.24-.05.19-.1.34-.31.41h-.02Z"/>
      <path class="st0" d="M93.76,61.49c-.01,2.99-.04,9.43,0,11.46.07.38.54.32.84.35.59.01,1.56,0,2.12,0,.32-.02.83.05.86-.33.59-2.6,5.02-21.62,5.5-23.86.05-1,.01-2.61.02-3.73-.02-.55.05-.98-.1-1.4-.19-.33-.65-.25-.99-.28-.95,0-2.61,0-3.39,0-.37.01-.84-.04-.89.42-.43,1.92-3.19,13.66-3.99,17.35h0Z"/>
      <path class="st0" d="M110.93,46.35c-1.2-.08-3.98-.03-5.22-.04-.46,0-.75,0-.92.05-.12.03-.18.09-.23.19-.53,1.95-2.57,11.1-3.02,12.96-.1.43-.1.58-.1,1.08.04,4.17-.08,13.3.05,15.19.04.07.11.1.24.12.19.02.51.02.98.02h6.3c.77,0,1.38,0,1.74,0,.17-.01.35-.04.43-.2.1-.24.08-.54.09-.82,0-.88,0-2.45,0-3.35,0-.26,0-.56-.1-.79-.08-.33-.92-.29-1.48-.29-1.25,0-2.73.01-3.62,0-.39-.03-.5,0-.45-.29.41-2.4,5.18-21.24,5.36-23.81h-.01Z"/>
      <path class="st0" d="M123.63,45.21c-.39.77-.55,2.11-.8,3.02-.15.68-.4,1.62-.34,2.02,0,3.78,0,6.87,0,11.26,0,5.68,0,11.54,0,12.77,0,.43.52.28.94.33,1.25-.02,2.64.07,3.89-.13,3.15-.35,6.07-3.4,7.02-6.99.19-.63.12-.92.13-1.54,0-1.2,0-2.16,0-3.63,0-2.49,0-5.52,0-8.13,0-2.41,0-7.41,0-8.55.09-.81-2.24-.57-2.91-.62-1.53,0-4.29,0-5.99,0-.54.04-1.66-.13-1.93.18v.02ZM131.08,53.93c-.58,2.59-2.1,8.93-2.56,10.9-.47,2.03-1.15,4.39-3.76,4.14-.14-.03-.25-.11-.22-.27.44-1.93,3.6-15.27,4.16-17.64.04-.16.09-.29.25-.36.55-.16,1.41,0,1.89.43.66.73.38,1.9.26,2.77v.03Z"/>
      <path class="st0" d="M135.66,49.93c-.06,2.55,0,15.57-.02,18.1,0,.18-.01.33.16.4,1.99.12,6.39.01,8.43.04.7.04.78-.39.92-.97.22-.93.63-2.73.85-3.69.11-.53.27-1.02-.46-1-1.34-.07-4.58.09-6.04-.07-.36-.16-.16-.52-.06-1.11.33-1.42.71-3.09,1.05-4.54.16-.97.84-.78,1.6-.8,1.12,0,2.45,0,3.54,0,1.29.03,1.26-.21,1.55-1.44.2-.87.5-2.17.7-3.03.19-.84.27-1.17-.69-1.15-1.07,0-3.33,0-4.35,0-.6,0-.85-.11-.69-.76.2-.92.71-3.1.98-4.28.16-.74.29-1.16,1.25-1.12.73-.01,1.96,0,2.71,0,.52-.02,1,.02,1.08-.53.1-1.16.02-2.88.04-4.03-.03-.33.06-.75-.2-.97-.15-.15-1.04-.06-1.6-.09-1.19,0-2.81,0-4.11,0-1.15,0-2.26,0-3.37,0-.73,0-.76.04-.92.72-.74,3.25-1.68,7.2-2.37,10.33h0Z"/>
      <path class="st0" d="M157.22,46.35c-1.64-.09-3.86-.02-5.59-.04-.86,0-.76.06-.88.52-.1.43-.19.84-.3,1.29-1.24,5.43-4.81,20.72-5.28,22.88-.04.54-.02,1.1-.03,1.85.03,1-.08,2.03.07,2.83.07.2.22.22.42.23,1.75,0,8.2.02,11.37,0,.94-.03.66-1.24.73-1.9,0-.79,0-1.91,0-2.58,0-.24-.01-.52-.12-.72-.1-.31-1.03-.25-1.63-.25-1.29,0-2.74.01-3.64,0-.4-.03-.52,0-.47-.29.41-2.4,5.18-21.24,5.36-23.81h-.01Z"/>
      <path class="st0" d="M157.36,52.9c-.04,4.19-.02,13.7,0,16.24.03.53,1.04.33,1.48.38.65,0,1.25,0,1.35-.71.27-1.16.96-4.14,1.48-6.38.26-1.09.45-2.01.58-2.46.1-.36.3-.47.86-.5,1.65-.06,3.37.11,4.89-.45.58-.2,1.58-.64,1.84-1.05.32-2.87,0-15.14.11-17.6,0-.17.01-.34-.15-.4-2.08-.12-6.83,0-8.7-.04-.27.01-.61-.05-.75.19-.56,2.08-2.45,10.47-2.97,12.78h0ZM165.85,45.57c2.56-.13,2.13,1.97,1.66,3.73-.43,1.53-.5,3.32-1.94,4.17-.52.25-1.25.49-1.8.27-.23-.14-.07-.53.07-1.15.09-.38.18-.75.27-1.13.31-1.31.7-2.91.99-4.14.19-.57.22-1.68.72-1.75h.03Z"/>
      <path class="st0" d="M180.5,55.24c-.71.12-1.72.05-2.41.05-.2-.03-.49,0-.57-.2.43-2.49,2.23-9.65,2.64-11.63.03-.15.08-.3,0-.41-.1-.11-.46-.09-1.12-.1-1.25,0-3.41,0-4.42,0-1.01-.04-.88.21-1.1,1.11-.57,2.73-1.93,7.86-2.43,10.81,0,1.71,0,14.92,0,17.23,0,.25.03.37.36.41.37.05,1.09.05,1.54,0,.34-.05.48-.13.56-.42.37-1.55,2.03-8.77,2.46-10.59.12-.76.85-.53,1.53-.58.53,0,1.09,0,1.41.03.43.02.45.22.36.56-.4,1.76-1.85,7.94-2.46,10.7-.02.12-.02.25.12.3.88.11,2.51.03,3.56.05.68,0,1.35,0,2.01,0,.88.05.82-.49,1-1.14.4-1.76.93-3.94,1.29-5.62.04-2.04.04-19.8,0-22.61-.13-.28-.93-.25-1.17-.02-.77,2.1-2.27,9.77-2.8,11.67-.05.19-.1.34-.31.41h-.02Z"/>
      <path class="st0" d="M196.14,39.25c-.16-.23-.46-.23-.73-.24-1.03,0-3.21,0-4.15,0-.51.03-.7-.05-.83.27-.47,2.19-4.07,17.18-4.48,19.6,0,2.36,0,7.49,0,9.13-.02.52.33.58.9.58.65,0,1.75,0,2.4,0,.24,0,.74,0,.87-.1.98-3.46,4.74-20.5,6.12-26.19.06-.25.05-.48.06-.76-.04-.58.12-1.69-.15-2.29v-.02Z"/>
      <path class="st0" d="M191.84,67.85c-.05,1.51,0,5.13-.02,7.06,0,.3-.02.66.26.83.51.24,1.34.2,1.85-.17.65-.45.71-1.49,1.58-1.64.85-.12,1.95-.05,2.77-.05.25.02.52.04.72.2.5.41.05,1.35.65,1.69.17.09.39.11.6.12,1.16,0,2.7.06,3.79-.03.2-.04.19-.14.19-.3,0-2.73,0-26.2,0-28.93.07-.37-.44-.31-.72-.33-.56,0-1.61,0-2.24,0-.34.02-.84-.06-.97.33-.38.93-1.81,4.5-3.39,8.44-1.47,3.76-4.04,9.88-5.07,12.76h0ZM199.47,69.85c-.17.09-.91.06-1.4.07-.57-.04-1.59.12-1.58-.22.57-1.6,3.2-7.86,3.71-9.19.17-.44.1.02.09.32-.14,2.05-.34,4.84-.48,6.92-.06.84-.09,1.49-.14,1.82-.02.12-.06.23-.19.28h-.02Z"/>
      <path class="st0" d="M118.76,39.05c-.19.03-.28.06-.36.19-2.33,5.77-8.94,22.29-9.74,24.27-.09.25-.09.33-.1.69,0,.78,0,2.09,0,2.97,0,.62-.01,1.34.56,1.39.83.08,1.87.16,2.66-.1.59-.25.74-.93,1.11-1.39.37-.46.84-.48,1.65-.48.51,0,1.06,0,1.56,0,1.94-.06.7,1.32,1.71,1.9.22.09.48.11.72.12.74,0,1.43.03,2.07-.02.26-.04.3-.08.31-.28,0-2.78.01-21.82,0-29.05-.02-.11-.07-.16-.21-.19-.24-.06-.85-.06-1.37-.05-.21,0-.4.01-.54.03h-.02ZM117.52,62.56c-.17.09-.91.06-1.4.07-.57-.04-1.59.12-1.58-.22.57-1.6,3.2-7.86,3.71-9.19.17-.44.1.02.09.32-.14,2.05-.34,4.84-.48,6.92-.06.84-.09,1.49-.14,1.82-.02.12-.06.23-.19.28h-.02Z"/>
    </g>
    <path class="st0" d="M46.5,60.58c-.04,1.13-.78,8.61-.94,10.69-.02.28-.08.58.29.61,1.16.06,3.57.02,4.63.03.57-.03.88.08,1.06-.4,2.59-6.88,7.45-19.07,10.58-26.77.45-1.41-1.55-.97-2.38-1.05-.73.01-1.63-.04-2.29.06-.37.06-.56.31-.69.64-.65,1.53-2.88,7.15-3.77,9.16.06-2.25.78-8.2.75-9.61-.11-.27-.33-.21-.68-.24-.36,0-.9,0-1.5,0h-1.8c-.79.04-1.24-.11-1.74.15-1.04,1.82-3.78,8.72-4.34,9.71-.08-.09.09-.87.19-2.01.27-2.37.7-6.14.83-7.29.1-.56-.36-.53-.79-.54-.88,0-2.71,0-3.54,0-.32.03-.82-.07-.77.27.02,2.49-.05,24.92.02,27.76.07.16.32.13.69.16.59,0,1.25.07,1.47-.52.86-1.92,4.22-9.79,4.74-10.81h0Z"/>
  </g>
</svg>