<?xml version="1.0" encoding="UTF-8"?>
<svg id="Layer_1" xmlns="http://www.w3.org/2000/svg" version="1.1" viewBox="0 0 900 780">
  <!-- Generator: Adobe Illustrator 30.2.1, SVG Export Plug-In . SVG Version: 2.1.1 Build 1)  -->
  <defs>
    <style>
      .st0 {
        fill: #231f20;
      }

      .st1 {
        fill: #a501f8;
      }

      .st2 {
        fill: #fff;
      }

      .st3 {
        fill: #03bafd;
      }

      .st4 {
        fill: #282828;
      }

      .st5 {
        fill: #e22454;
      }

      .st6 {
        fill: #fd651e;
      }
    </style>
  </defs>
  <g>
    <path class="st5" d="M655.45,100.11c-.2-5.32-1.63-10.33-2.58-13.64-.18-.62-.42-1.46-.48-1.72l-.16-.74-.22-.73c-.75-2.49-1.48-5.85-2.07-9.46l-.1-.64-.14-.63c-.12-.52-.26-1.22-.4-1.96-.5-2.55-1.19-6.07-2.61-9.82-.41-1.91-1.09-3.8-2.03-5.61-1.91-3.65-4.78-6.58-8.19-8.52-.06-.04-.63-.47-.63-.47l-.71-.47c-4.27-2.77-9.05-4.13-14.62-4.14-.59,0-1.18.01-1.76.03-.12,0-.23,0-.34,0-.67-.03-1.34-.04-2.01-.04-6.4-.02-11.95,1.09-16.86,2.07-1.96.39-3.8.76-5.5,1.01-1.08.16-2.17.31-3.26.45-6.59.88-14.74,1.98-22.9,6.01-1.43.64-2.78,1.4-4.03,2.26-5.75-4.78-12.08-6.99-16.29-8.46-2.26-.79-4.42-1.44-6.51-2.07-1.92-.58-3.73-1.12-5.34-1.7l-.07-.02c-1.53-.54-3.04-1.13-4.64-1.76-2.62-1.03-5.6-2.19-8.92-3.21-4.58-1.47-11.51-3.41-19.11-3.43-3.14,0-6.18.31-9.06.96l-.13.03c-14.5,3.34-25.64,13.19-29.46,25.88-1.05-.13-2.13-.19-3.21-.2-2.11,0-4.28.23-6.4.7-.02,0-.04,0-.05.01-3.86-5.94-10.36-9.73-17.91-9.75-7.4-.02-14.5,3.74-19.5,10.32-1.54,2.01-2.91,4.29-4.16,6.96l-.1.21c-2.63,5.77-4.04,11.29-5.29,16.16-.18.69-.35,1.38-.53,2.07l-.05.19-.05.19c-1.36,5.69-2.35,11.69-2.97,18.1-1.29-.17-2.62-.26-3.98-.26-2.8,0-5.26.34-7.06.59-.44.06-1.04.15-1.24.16l-.3.02-.3.03c-.97.11-2.03.2-3.15.29-2.88.24-6.14.52-9.78,1.24-.61.11-2.02.38-2.11.39.1-1.52.14-3.05.12-4.59l-.03-1.9c-.07-4.08-.13-7.93.13-11.37l.06-.76v-.72c0-.31.03-.66.05-1.03.14-2.55.36-6.41-.45-10.65-1.8-9.37-8.06-16.59-16.73-19.31l-.78-.25-1.68-.38-.84-.12c-.47-.07-.93-.12-1.4-.16-5.89-14.94-17.92-26.97-35.32-27.57h-.43s-.29-.01-.29-.01c-13.09-.03-30.82,6.91-40.38,15.8l-.19.17-.18.18c-.87.85-1.68,1.73-2.42,2.61-1.26-.24-2.55-.37-3.85-.37-3.59,0-12.61,1.03-18.82,10.87-1.47,2.33-2.76,5.1-4.07,8.72l-.69,1.91-.3,2.01c-3.52,23.75-3.28,47.53-3.04,70.53.1,9.66.2,19.65,0,29.25-.19,5.29.53,14.9,7.15,21.83,4.15,4.34,9.7,6.73,15.63,6.75,5.93.02,11.68-2.43,16.19-6.89l1.19-1.17.98-1.35c5.89-8.14,6.53-17.05,6.95-22.95.05-.66.09-1.3.15-1.93l.02-.2v-.2c.1-1.26.17-2.51.21-3.75,2.13.29,4.27.43,6.43.44,7.3.02,14.41-1.62,20.98-4.75.69,4.22,1.72,8.5,3.23,12.8.12.39.25.86.39,1.36,1.06,3.81,2.66,9.56,7.07,14.98l.57.71.64.65c10.74,11.04,24.63,11.08,29.19,11.09,3.09,0,5.95-.19,8.47-.36.75-.05,1.49-.1,2.22-.15l1.06-.06,1.05-.17c2.34-.39,4.53-.81,6.66-1.23,3.77-.73,7.03-1.36,10.11-1.6,3.5-.25,8.73-.73,14.13-2.08,8.28-1.99,14.74-7.68,17.76-15.66.65-1.72,1.08-3.39,1.38-4.97,1.45.64,2.81,1.1,3.98,1.43l.31.09.31.08c2.88.71,5.86,1.07,8.86,1.08,9.35.02,18.47-3.47,25.13-9.61.8,3.8,2.44,8.04,5.7,11.64,3.98,4.39,9.61,6.91,15.46,6.93h0c.56,0,1.12-.02,1.68-.06.99,2.07,2.03,4.09,3.13,6.05l.3.53.33.51c5.66,8.82,13.96,16.29,24.05,21.66,6.54,4.03,14.19,6.09,22.75,6.11,1.18,0,2.38-.03,3.6-.11,20.19-.65,26.56-15.89,29.29-22.43l.08-.19.08-.19c1.36-3.44,2.44-6.75,3.49-9.94.7-2.13,1.36-4.14,2.04-6.01l.18-.48.15-.49c.19-.61.46-1.39.75-2.21.49-1.4,1.04-2.97,1.54-4.7,4.65,5.31,10.83,7.39,16.02,7.41,7.43.02,14.27-3.86,18.28-10.39l1.07-1.74.7-1.92c2.46-6.73,2.28-13.08,2.15-17.72-.03-1.19-.07-2.32-.03-3.03l.02-.55v-.55c-.06-4.84-.15-9.83-.33-14.89,2.58.36,5.25.6,8.13.62l.69.02c.8.02,1.61.04,2.42.04,2.62,0,6.6-.13,10.89-1.38l.66-.19.65-.24c8.34-3.05,17.05-11.51,16.49-26.1ZM637.22,121.45l-.48.18-.5.14c-3.63,1.05-6.96,1.18-9.46,1.18h0c-.78,0-1.55-.02-2.31-.04l-.75-.02c-4.87-.03-9.22-.77-13.54-1.65.38,7.15.51,14.25.59,21.05v.41s-.01.41-.01.41c-.04.89,0,2.1.03,3.39.13,4.46.28,10.02-1.85,15.83l-.53,1.44-.8,1.31c-3.09,5.01-8.3,7.99-13.95,7.98-2.74,0-12.01-.93-16.13-12.54l-.17-.49-.14-.5c-1.78-6.36-1.97-12.5-2.15-17.92-.05-1.61-.1-3.14-.19-4.57-.21-3.01-.34-6.01-.47-8.92-.25-5.64-.48-11.05-1.24-16.03-1.5-.87-3.22-2.06-4.9-3.77-2.54,5.86-6.37,10.82-11.9,15.65l-.15.13-.15.12c-3.41,2.83-9.52,7.91-18.09,9.14.62.85,1.21,1.58,1.75,2.11,2.14,1.91,4.92,3.55,8.08,4.78.48,0,.98-.01,1.49-.03.77-.02,1.64-.04,2.55-.04,2.86,0,6.64.22,10.5,1.81,6.4,2.64,10.78,8.3,11.71,15.14l.08.61.03.61c.34,6.15-1.52,11.5-2.88,15.4-.3.87-.59,1.69-.8,2.38l-.11.36-.13.36c-.71,1.95-1.38,4-2.1,6.17-1.03,3.13-2.09,6.36-3.39,9.66l-.12.29c-2.75,6.59-7.86,18.81-24.85,19.32-1.13.07-2.26.11-3.35.1-7.67-.02-14.47-1.85-20.24-5.44-9.39-4.97-17.1-11.87-22.31-20l-.25-.39-.22-.4c-1.66-2.96-3.19-6.07-4.58-9.29-1.97.6-3.67.71-4.64.7h0c-4.43-.01-8.7-1.93-11.72-5.26-5.47-6.04-5.18-14.85-4.99-17.19.1-1.38.19-2.76.27-4.16-2.28,3.2-4.89,6.24-7.75,8.98-5.77,5.53-13.82,8.69-22.11,8.67-2.59,0-5.17-.32-7.67-.93l-.23-.06-.23-.06c-2.97-.83-6.39-2.36-9.6-5.18-.03.59-.06,1.19-.1,1.8v.14c-.16,2.61-.37,6.17-1.77,9.87-2.41,6.39-7.59,10.94-14.22,12.53-5.03,1.26-9.98,1.72-13.3,1.95-3.38.26-6.94.95-10.71,1.68-2.09.41-4.25.83-6.52,1.2l-.79.13-.79.05c-.74.04-1.5.1-2.27.15-2.44.17-5.2.36-8.11.35-4.04-.01-16.32-.04-25.57-9.56l-.48-.49-.43-.53c-3.74-4.61-5.11-9.54-6.12-13.15-.16-.57-.31-1.11-.45-1.58-2.31-6.51-3.42-13.06-3.91-19.46-7.54,5.18-16.18,7.94-25.11,7.92-3.84-.01-7.65-.52-11.4-1.52,0,3.14-.07,6.32-.3,9.56l-.02.29c-.06.66-.11,1.33-.16,2.02-.38,5.32-.96,13.36-6,20.34l-.73,1.01-.89.88c-4.55,4.5-9.37,5.44-12.61,5.43-4.54-.01-8.8-1.85-11.98-5.18-5.35-5.6-5.91-13.71-5.75-18.18.2-9.7.1-19.74,0-29.45-.24-22.8-.48-46.39,2.99-69.74l.22-1.51.52-1.43c1.18-3.27,2.32-5.73,3.59-7.74,4.86-7.7,11.77-8.52,14.52-8.51,1.99,0,3.94.39,5.77,1.11,1.14-1.62,2.47-3.24,4.05-4.79l.14-.13.14-.13c8.74-8.13,24.95-14.47,36.91-14.44h.22s.3,0,.3,0c16.32.56,27.24,12.85,31.97,27.52.46-.03.93-.05,1.4-.04.95,0,1.92.07,2.87.21l.63.09,1.27.29.59.18c6.97,2.18,11.81,7.81,13.27,15.43.7,3.63.51,6.97.37,9.41-.02.44-.06,1.05-.06,1.27v.57s-.04.57-.04.57c-.28,3.67-.21,7.83-.14,11.84l.03,1.86c.03,3.61-.26,7.13-.88,10.7,2.26-.33,4.62-.77,7.04-1.22.62-.12,1.24-.23,1.85-.35,3.37-.67,6.49-.93,9.24-1.16,1.16-.1,2.25-.19,3.28-.3l.22-.02.22-.02c.31-.02.96-.12,1.53-.2,1.74-.24,3.9-.55,6.34-.54,1.92,0,3.68.2,5.4.6l.47.11.46.14c.77.23,1.51.5,2.23.81.49-8.42,1.59-16.07,3.34-23.37l.07-.29c.18-.7.36-1.4.54-2.1,1.19-4.67,2.55-9.96,4.99-15.32l.07-.16c1.1-2.34,2.28-4.32,3.6-6.04,4.03-5.31,9.66-8.35,15.46-8.33,5.33.01,10.33,2.63,13.39,7,.83,1.18,1.49,2.45,2,3.8,1.22-.52,2.45-.91,3.67-1.18,1.77-.39,3.56-.59,5.3-.58,2.52,0,4.94.43,7.2,1.24.06-.76.16-1.54.3-2.34l.09-.5.12-.5c2.89-11.58,12.9-20.66,26.1-23.71l.09-.02c2.51-.56,5.18-.84,7.94-.83,6.91.02,13.34,1.82,17.6,3.19,3.16.97,5.92,2.05,8.6,3.1,1.64.64,3.19,1.25,4.8,1.82l.05.02c1.73.62,3.6,1.18,5.58,1.78,2.04.61,4.15,1.25,6.3,2,4.62,1.61,12.05,4.21,17.74,10.47,1.79-1.85,3.95-3.36,6.41-4.46,7.43-3.7,14.86-4.7,21.42-5.58,1.12-.15,2.23-.3,3.33-.46,1.82-.27,3.73-.65,5.75-1.05,4.67-.93,9.96-1.99,15.85-1.98.66,0,1.32.02,1.97.05.17,0,.36,0,.55-.01.53-.02,1.07-.03,1.6-.03,1.68,0,6.78.02,11.87,3.33l.54.36.34.25c.14.11.29.22.43.33,2.71,1.46,4.98,3.74,6.48,6.61.78,1.5,1.33,3.07,1.64,4.65,1.36,3.48,2.02,6.84,2.53,9.4.15.78.3,1.52.43,2.11l.11.47.08.48c.62,3.81,1.4,7.4,2.21,10.1l.16.54.12.56c.08.35.34,1.28.55,2.02.93,3.26,2.21,7.73,2.39,12.45.46,11.87-6.5,18.71-13.17,21.15ZM569.96,140.5c-4.03-3.09-9.81-5.38-18.09-5.4-.98,0-1.88.02-2.68.04-.06,0-.12,0-.18,0,4.57-2.26,8-5.11,10.32-7.03l.2-.17.19-.17c3.62-3.17,6.61-6.43,9.03-9.94.29,3.34.45,6.87.6,10.5.13,2.93.26,5.96.47,9.03.06.98.1,2.03.14,3.14Z"/>
    <g>
      <path class="st6" d="M309.27,97.32c-.54.1-1.26.26-2.13.52l-.07.02c-2.42.71-4.54,1.39-6.43,2.05.1,0,.3,0,.3,0,1.05,0,2.18-.14,3.26-.42l.12-.03.13-.03c1.66-.38,3.36-1,4.99-1.81-.05-.08-.09-.15-.14-.22-.02-.03-.04-.06-.05-.09Z"/>
      <path class="st6" d="M648,87.86c-.21-.74-.48-1.67-.55-2.02l-.12-.56-.16-.54c-.81-2.7-1.6-6.29-2.21-10.1l-.08-.48-.11-.47c-.13-.59-.28-1.33-.43-2.11-.51-2.57-1.17-5.93-2.53-9.4-.31-1.59-.86-3.15-1.64-4.65-1.5-2.87-3.77-5.14-6.48-6.61-.14-.11-.28-.22-.43-.33l-.34-.25-.54-.36c-5.1-3.31-10.2-3.32-11.87-3.33-.53,0-1.07.01-1.6.03-.19,0-.38.01-.55.01-.65-.03-1.31-.04-1.97-.05-5.89-.02-11.18,1.04-15.85,1.98-2.02.4-3.93.79-5.75,1.05-1.1.16-2.22.31-3.33.46-6.57.88-13.99,1.88-21.42,5.58-2.46,1.1-4.62,2.61-6.41,4.46-5.69-6.26-13.12-8.85-17.74-10.47-2.16-.75-4.26-1.39-6.3-2-1.98-.6-3.86-1.16-5.58-1.78l-.05-.02c-1.61-.57-3.16-1.18-4.8-1.82-2.68-1.05-5.44-2.13-8.6-3.1-4.26-1.37-10.69-3.17-17.6-3.19-2.76,0-5.43.27-7.94.83l-.09.02c-13.21,3.05-23.21,12.13-26.1,23.71l-.12.5-.09.5c-.14.8-.24,1.59-.3,2.34-2.26-.81-4.69-1.23-7.2-1.24-1.74,0-3.54.19-5.3.58-1.21.26-2.45.65-3.67,1.18-.51-1.35-1.17-2.62-2-3.8-3.06-4.37-8.06-6.98-13.39-7-5.8-.02-11.43,3.02-15.46,8.33-1.32,1.72-2.5,3.69-3.6,6.04l-.07.16c-2.44,5.36-3.8,10.65-4.99,15.32-.18.7-.36,1.39-.54,2.1l-.07.29c-1.75,7.3-2.85,14.95-3.34,23.37-.72-.31-1.46-.58-2.23-.81l-.46-.14-.47-.11c-1.71-.4-3.48-.59-5.4-.6-2.44,0-4.6.3-6.34.54-.57.08-1.22.17-1.53.2l-.22.02-.22.02c-1.03.11-2.13.21-3.28.3-2.76.23-5.88.49-9.24,1.16-.62.11-1.23.23-1.85.35-2.43.45-4.79.9-7.04,1.22.62-3.58.91-7.1.88-10.7l-.03-1.86c-.07-4.01-.14-8.17.14-11.84l.04-.57v-.57c0-.21.04-.82.06-1.27.14-2.44.33-5.78-.37-9.41-1.46-7.62-6.3-13.24-13.27-15.43l-.59-.18-1.27-.29-.63-.09c-.96-.13-1.92-.2-2.87-.21-.47,0-.94.01-1.4.04-4.72-14.67-15.65-26.96-31.97-27.52h-.3s-.22,0-.22,0c-11.96-.03-28.18,6.31-36.91,14.44l-.14.13-.14.13c-1.58,1.55-2.91,3.17-4.05,4.79-1.83-.72-3.79-1.1-5.77-1.11-2.75,0-9.66.81-14.52,8.51-1.27,2.01-2.41,4.47-3.59,7.74l-.52,1.43-.22,1.51c-3.47,23.35-3.22,46.93-2.99,69.74.1,9.71.2,19.76,0,29.45-.17,4.46.39,12.57,5.75,18.18,3.18,3.33,7.44,5.17,11.98,5.18,3.24,0,8.06-.93,12.61-5.43l.89-.88.73-1.01c5.04-6.97,5.62-15.02,6-20.34.05-.69.1-1.36.16-2.02l.02-.29c.22-3.23.29-6.42.3-9.56,3.75,1,7.56,1.51,11.4,1.52,8.93.02,17.57-2.74,25.11-7.92.49,6.4,1.61,12.95,3.91,19.46.14.46.29,1.01.45,1.58,1,3.6,2.38,8.54,6.12,13.15l.43.53.48.49c9.26,9.51,21.54,9.55,25.57,9.56,2.9,0,5.67-.18,8.11-.35.77-.05,1.52-.11,2.27-.15l.79-.05.79-.13c2.27-.37,4.43-.79,6.52-1.2,3.77-.73,7.32-1.42,10.71-1.68,3.31-.23,8.27-.69,13.3-1.95,6.63-1.59,11.8-6.14,14.22-12.53,1.4-3.69,1.61-7.26,1.76-9.87v-.14c.05-.6.08-1.2.1-1.8,3.21,2.82,6.63,4.35,9.6,5.18l.23.06.23.06c2.49.61,5.07.92,7.67.93,8.28.02,16.34-3.14,22.11-8.67,2.86-2.74,5.47-5.78,7.75-8.98-.08,1.39-.17,2.78-.27,4.16-.19,2.34-.48,11.15,4.99,17.19,3.02,3.33,7.29,5.25,11.72,5.26h0c.97,0,2.67-.1,4.64-.7,1.39,3.22,2.92,6.32,4.58,9.29l.22.4.25.39c5.22,8.13,12.92,15.03,22.31,20,5.77,3.59,12.57,5.42,20.24,5.44,1.09,0,2.22-.03,3.35-.1,16.99-.52,22.09-12.74,24.85-19.32l.12-.29c1.3-3.3,2.36-6.54,3.39-9.66.71-2.17,1.38-4.22,2.1-6.17l.13-.36.11-.36c.22-.7.5-1.52.8-2.38,1.36-3.9,3.22-9.25,2.88-15.4l-.03-.61-.08-.61c-.94-6.84-5.32-12.5-11.71-15.14-3.86-1.59-7.64-1.8-10.5-1.81-.91,0-1.78.02-2.55.04-.5.01-1,.03-1.49.03-3.16-1.23-5.94-2.86-8.08-4.78-.53-.53-1.12-1.27-1.75-2.11,8.57-1.23,14.68-6.3,18.09-9.14l.15-.12.15-.13c5.53-4.83,9.36-9.79,11.9-15.65,1.68,1.71,3.4,2.91,4.9,3.77.75,4.98.99,10.39,1.24,16.03.13,2.91.26,5.91.47,8.92.09,1.43.14,2.95.19,4.57.17,5.42.37,11.56,2.15,17.92l.14.5.17.49c4.12,11.61,13.39,12.54,16.13,12.54,5.65.01,10.87-2.97,13.95-7.98l.8-1.31.53-1.44c2.13-5.81,1.97-11.37,1.85-15.83-.04-1.28-.07-2.5-.03-3.39l.02-.41v-.41c-.08-6.8-.22-13.9-.6-21.05,4.32.89,8.67,1.62,13.54,1.65l.75.02c.76.02,1.53.04,2.31.04h0c2.5,0,5.83-.12,9.46-1.18l.5-.14.48-.18c6.66-2.44,13.62-9.27,13.17-21.15-.18-4.71-1.46-9.18-2.39-12.45ZM469.64,137.14l-.03.08c-2.71,6.81-7.37,13.59-13.11,19.1-4.83,4.63-11.6,7.27-18.59,7.25-2.19,0-4.37-.27-6.47-.78l-.15-.04-.15-.04c-9.28-2.58-13.51-10.47-15.55-18.45,0,.08-.03.28-.03.28-.34,3.15-.34,6.52-.34,10.08,0,3.01,0,6.12-.2,9.32v.12c-.15,2.41-.33,5.4-1.45,8.38-1.84,4.87-5.63,8.2-10.69,9.4-4.66,1.17-9.33,1.6-12.45,1.82-3.68.28-7.38,1-11.3,1.76-2.06.4-4.18.81-6.38,1.18l-.52.09-.53.03c-.76.04-1.53.1-2.32.15-2.35.16-5.02.35-7.75.34-3.51,0-14.18-.04-21.95-8.02l-.32-.33-.29-.35c-3.07-3.79-4.24-7.96-5.17-11.31-.18-.64-.35-1.26-.52-1.8-3.43-9.61-4.07-19.22-3.99-28.66-.02.03-.05.05-.07.07-8.16,8.77-18.73,13.59-29.76,13.56-5.61-.01-11.16-1.24-16.55-3.64,0,.2,0,.39,0,.59.07,5.14.14,10.46-.23,15.81l-.02.2c-.06.69-.11,1.39-.16,2.1-.36,5.03-.85,11.92-5.05,17.73l-.49.68-.59.59c-3.32,3.28-6.74,3.97-9.03,3.96-3.15,0-6.11-1.29-8.33-3.62-4.23-4.42-4.46-11.54-4.34-14.52.2-9.79.1-19.89,0-29.65-.23-22.61-.48-45.99,2.93-68.94l.15-1.01.35-.96c1.52-4.2,4.68-12.92,13.33-12.9,2.78,0,5.39,1.05,7.43,2.95,1.52-2.7,3.34-5.52,5.95-8.08l.18-.18c7.78-7.24,22.79-13.11,33.45-13.08h.15s.23,0,.23,0c9.61.33,17.9,5.72,23.38,15.16,2.27,3.92,4,8.46,5.07,13.18,1.96-.69,3.75-.86,5.06-.86.72,0,1.45.05,2.18.16l.42.06.86.2.39.12c5.13,1.61,8.71,5.82,9.81,11.55.58,3.01.41,5.99.29,8.16-.03.59-.07,1.21-.07,1.55v.38s-.03.38-.03.38c-.3,3.91-.23,8.18-.16,12.31l.03,1.82c.03,3.92-.35,7.73-1.16,11.65l-.06.3-.08.3c-.48,1.77-.73,3.08-.84,4.03,4.47,0,9.25-.9,14.31-1.85.63-.12,1.25-.23,1.87-.35,3.1-.62,5.95-.86,8.71-1.09,1.19-.1,2.31-.19,3.42-.32l.15-.02h.15c.46-.05,1.12-.14,1.83-.24,1.58-.22,3.54-.5,5.62-.49,1.53,0,2.93.16,4.27.47l.32.07.31.09c3.65,1.09,6.56,3.32,8.46,6.42,0-12.33,1.14-22.84,3.49-32.66l.05-.19c.19-.71.37-1.42.55-2.12,1.2-4.68,2.43-9.52,4.69-14.47l.05-.11c.96-2.04,1.93-3.67,3.04-5.12,3.06-4.04,7.22-6.35,11.42-6.34,5.49.01,11.2,4.12,11.5,11.94v.13s0,.13,0,.13c.01.94-.05,1.84-.15,2.7,2.18-2.74,5.17-4.62,8.79-5.41,1.41-.31,2.83-.47,4.21-.46,4.42.01,8.47,1.69,11.39,4.74,3.14,3.27,4.79,7.92,4.64,13.1-.02,4.53-.57,9.17-1.06,13.28l-.11.89c-.36,2.68-.71,5.41-1.04,8.05-.66,5.26-1.35,10.7-2.24,16.15l-.02.13c-.79,4.45-1.74,8.03-2.99,11.25ZM635.48,116.69l-.32.12-.33.1c-3.01.87-5.87.98-8.03.97-.74,0-1.47-.02-2.2-.04l-.8-.02c-4.91-.02-9.19-.83-13.85-1.81-1.78-.28-3.52-.6-5.24-.95.69,9.21.89,18.5,1,27.28v.28s0,.28,0,.28c-.05,1.07,0,2.37.03,3.75.11,4.03.26,9.05-1.54,13.94l-.35.96-.54.87c-2.15,3.49-5.75,5.58-9.62,5.56-2.44,0-8.43-.91-11.36-9.17l-.12-.33-.09-.33c-1.61-5.76-1.8-11.58-1.96-16.71-.05-1.66-.1-3.23-.2-4.74-.2-2.95-.33-5.92-.46-8.8-.3-6.76-.58-13.18-1.74-19.17-2.77-1.26-7.56-3.86-10.26-11.13-.32-.83-.6-1.67-.86-2.49-1.54,10.79-5.44,17.92-13.59,25.05l-.2.17c-3.49,2.9-9.33,7.75-17.46,8.21-.78.05-1.59.07-2.39.07-1.42,0-2.83-.09-4.21-.23.74,1.38,1.52,2.73,2.33,4.04.39.55.78,1.11,1.18,1.67,1.37,1.96,2.66,3.81,3.99,5.1,2.8,2.53,6.45,4.64,10.57,6.12.16,0,.41.02.8.02.58,0,1.18-.01,1.78-.03.8-.02,1.61-.04,2.41-.04,2.4,0,5.54.17,8.58,1.43,4.78,1.97,7.92,6.03,8.62,11.14l.06.41.02.41c.29,5.15-1.32,9.76-2.61,13.45-.32.91-.62,1.77-.86,2.55l-.08.24-.09.24c-.74,2.03-1.43,4.12-2.15,6.33-1,3.06-2.04,6.22-3.29,9.39l-.08.19c-2.64,6.31-6.62,15.83-20.4,16.21-1.05.07-2.1.1-3.11.1-6.78-.02-12.74-1.62-17.72-4.76-8.69-4.56-15.8-10.9-20.58-18.34l-.16-.26-.15-.27c-2.44-4.36-4.58-9.03-6.41-13.94-2.47,2.29-5.28,2.77-7.22,2.77h0c-3,0-5.91-1.32-7.97-3.59-4.14-4.57-3.82-11.85-3.7-13.37.29-4,.5-8.18.7-12.22.33-6.67.68-13.57,1.4-20.4.35-4.4,1.06-8.6,1.74-12.67.58-3.46,1.13-6.73,1.44-9.94.31-4.18.48-8.35.65-12.76.08-1.99.16-3.98.25-5.97.02-.92-.11-1.18-1.34-2.96-1.77-2.57-5.06-7.35-3.8-14.39l.06-.34.08-.33c2.39-9.57,11.15-17.42,22.32-20h.06c2.14-.49,4.43-.73,6.81-.73,6.22.02,12.15,1.69,16.08,2.96h.02c2.98.92,5.67,1.97,8.26,2.99,1.68.66,3.27,1.28,4.96,1.88,1.88.67,3.81,1.25,5.86,1.87,1.99.6,4.04,1.22,6.09,1.93,4.85,1.7,12.19,4.26,17.09,10.83l.1.13.09.13c.84,1.21,1.6,2.48,2.26,3.83,1.42-4.11,4.36-7.32,8.45-9.11,6.72-3.37,13.73-4.31,19.93-5.14,1.14-.15,2.28-.3,3.4-.47,1.95-.29,3.92-.68,6-1.1,4.65-.93,9.46-1.89,14.84-1.88.62,0,1.24.02,1.84.04h.06c.26,0,.52,0,.78-.02.48-.01.96-.03,1.44-.02,1.31,0,5.28.01,9.12,2.51l.38.25.23.17c.24.18.47.36.69.54,1.99.98,3.67,2.6,4.76,4.68.55,1.05.99,2.31,1.21,3.66,1.33,3.21,1.97,6.45,2.47,9.03.16.82.31,1.59.47,2.26l.07.32.05.32c.66,4.08,1.48,7.8,2.36,10.75l.11.36.08.37c.11.5.38,1.43.63,2.32.86,3.01,2.04,7.14,2.2,11.25.3,7.77-3.38,13.83-9.84,16.19Z"/>
    </g>
    <g>
      <path class="st1" d="M310.68,92.1s-.41.01-.41.01c-1.09,0-2.85.34-4.6.87-3.9,1.15-7.07,2.22-9.73,3.26-1.94.82-4.12,1.75-4.94,3.05-.03.06-.04.08-.04.08,0,.2.45,1.39,2.56,3.14l.12.1c2.2,1.94,5.18,2.36,7.29,2.36h0c1.48,0,3.05-.2,4.54-.58l.13-.03c2.81-.65,5.68-1.83,8.3-3.41.44-.26,1.63-.97,2-1.39.03-1.04-1.68-3.87-2.26-4.84-1.08-1.73-2.08-2.63-2.96-2.63ZM304.47,99.44l-.13.03-.12.03c-1.08.28-2.21.42-3.26.42,0,0-.2,0-.3,0,1.88-.66,4.01-1.34,6.43-2.05l.07-.02c.86-.26,1.59-.42,2.13-.52.02.03.04.06.05.09.04.07.09.15.14.22-1.63.81-3.33,1.43-4.99,1.81Z"/>
      <path class="st1" d="M472.65,125.76c.89-5.46,1.58-10.9,2.24-16.15.33-2.64.68-5.38,1.04-8.05l.11-.89c.48-4.11,1.03-8.75,1.06-13.28.15-5.18-1.5-9.82-4.64-13.1-2.92-3.04-6.97-4.73-11.39-4.74-1.37,0-2.8.15-4.21.46-3.61.79-6.6,2.67-8.79,5.41.1-.86.16-1.77.15-2.7v-.13s0-.13,0-.13c-.31-7.82-6.02-11.93-11.5-11.94-4.2-.01-8.36,2.3-11.42,6.34-1.11,1.45-2.08,3.07-3.04,5.12l-.05.11c-2.26,4.95-3.49,9.79-4.69,14.47-.18.7-.36,1.41-.55,2.12l-.05.19c-2.35,9.81-3.48,20.33-3.49,32.66-1.9-3.1-4.81-5.33-8.46-6.42l-.31-.09-.32-.07c-1.34-.31-2.73-.46-4.27-.47-2.07,0-4.04.27-5.62.49-.71.1-1.37.19-1.83.23h-.15s-.15.03-.15.03c-1.1.12-2.23.22-3.42.32-2.76.23-5.62.47-8.71,1.09-.62.11-1.25.23-1.87.35-5.06.95-9.84,1.84-14.31,1.85.11-.95.36-2.25.84-4.03l.08-.3.06-.3c.81-3.92,1.19-7.73,1.16-11.65l-.03-1.82c-.07-4.13-.14-8.4.16-12.31l.03-.38v-.38c0-.34.04-.95.07-1.55.12-2.17.29-5.15-.29-8.16-1.1-5.73-4.68-9.94-9.81-11.55l-.39-.12-.86-.2-.42-.06c-.73-.1-1.46-.15-2.18-.16-1.31,0-3.1.17-5.06.86-1.07-4.72-2.8-9.26-5.07-13.18-5.47-9.44-13.76-14.83-23.38-15.16h-.23s-.15,0-.15,0c-10.66-.03-25.67,5.84-33.45,13.08l-.18.18c-2.61,2.55-4.43,5.38-5.95,8.08-2.05-1.9-4.65-2.94-7.43-2.95-8.66-.02-11.81,8.71-13.33,12.9l-.35.96-.15,1.01c-3.41,22.95-3.17,46.33-2.93,68.94.1,9.77.21,19.87,0,29.65-.11,2.99.12,10.1,4.34,14.52,2.22,2.32,5.18,3.61,8.33,3.62,2.29,0,5.71-.68,9.03-3.96l.59-.59.49-.68c4.2-5.8,4.69-12.7,5.05-17.73.05-.71.1-1.42.16-2.1l.02-.2c.37-5.35.3-10.67.23-15.81,0-.2,0-.39,0-.59,5.39,2.4,10.94,3.63,16.55,3.64,11.03.03,21.6-4.79,29.76-13.56.02-.02.05-.05.07-.07-.08,9.44.56,19.04,3.99,28.66.17.55.34,1.16.52,1.8.93,3.35,2.1,7.52,5.17,11.31l.29.35.32.33c7.77,7.98,18.44,8.01,21.95,8.02,2.72,0,5.39-.18,7.75-.34.79-.05,1.56-.11,2.32-.15l.53-.03.52-.09c2.2-.36,4.32-.78,6.38-1.18,3.92-.76,7.63-1.48,11.3-1.76,3.13-.22,7.8-.65,12.45-1.82,5.05-1.2,8.84-4.53,10.69-9.4,1.12-2.97,1.3-5.97,1.44-8.38v-.12c.21-3.2.21-6.31.21-9.32,0-3.56,0-6.93.34-10.08,0,0,.02-.21.03-.28,2.04,7.98,6.27,15.87,15.55,18.45l.15.04.15.04c2.1.51,4.28.78,6.47.78,6.98.02,13.76-2.63,18.59-7.25,5.74-5.5,10.39-12.29,13.11-19.1l.03-.08c1.25-3.22,2.2-6.8,2.99-11.25l.02-.13ZM410.95,133.61v.66c.05,3.24-.09,6.42-.43,9.7-.37,3.45-.37,6.95-.37,10.65,0,2.93,0,5.95-.19,8.99v.14c-.24,3.98-.68,11.37-8.28,13.15-4.29,1.08-8.7,1.48-11.64,1.69-3.95.3-7.81,1.05-11.88,1.84-2.02.39-4.11.8-6.24,1.15l-.26.04-.26.02c-.77.05-1.56.1-2.37.16-2.38.16-4.84.33-7.38.33-5.17-.01-12.7-.7-18.33-6.49l-.16-.16-.14-.18c-2.41-2.97-3.37-6.43-4.22-9.48-.2-.72-.39-1.4-.59-2.05-4.36-12.17-3.91-24.75-3.46-36.91.07-1.93.14-3.86.19-5.77,0,0,.11-4.2.13-5.12-1.98,5.83-4.69,12.28-9.44,17.37-7.19,7.73-16.44,11.97-26.04,11.95-5.91-.02-11.79-1.59-17.46-4.67-1.45-.78-2.86-1.68-4.19-2.68-.06,3.07-.02,6.2.02,9.43.07,5.04.14,10.25-.22,15.39v.1c-.07.71-.12,1.45-.18,2.19-.33,4.67-.75,10.48-4.1,15.12l-.24.34-.3.29c-1.67,1.66-3.51,2.5-5.45,2.49-1.76,0-3.42-.73-4.68-2.05-3.05-3.2-2.99-9.48-2.94-10.87.21-9.88.1-20.03,0-29.86-.23-22.41-.47-45.58,2.88-68.14l.07-.5.17-.48c1.67-4.63,3.86-9.57,8.55-9.56,1.66,0,3.22.71,4.39,1.99,1.36,1.5,2.13,4.07,2.56,6.85.29-.47.59-.93.9-1.39.94-1.39,1.78-2.95,2.67-4.61,1.66-3.08,3.53-6.57,6.43-9.41l.09-.09c6.86-6.38,20.58-11.75,29.98-11.72h.22c7.79.27,14.59,4.76,19.15,12.64,3.26,5.63,5.33,13.01,5.61,19.94,1.89-2.84,4.65-5.11,8.89-5.09.49,0,.99.04,1.49.11l.21.03.46.1.2.06c7.25,2.27,6.77,10.59,6.55,14.58-.04.69-.08,1.35-.08,1.83v.38c-.33,4.15-.26,8.54-.19,12.79l.03,1.74c.03,3.59-.31,7.05-1.05,10.61l-.03.15-.04.15c-1.02,3.75-1.75,7.6-.22,10.28.43.07,1.23.08,1.79.09h.63s.07.01.07.01c.53.03,1.09.04,1.64.04,4.99.01,10.28-.98,15.39-1.94.63-.12,1.27-.24,1.9-.35,2.83-.57,5.55-.8,8.18-1.02,1.22-.1,2.38-.2,3.55-.33h.15c.61-.06,1.34-.17,2.13-.28,1.49-.21,3.18-.45,4.9-.44,1.15,0,2.18.11,3.14.34l.16.04.15.05c7.52,2.25,7.46,9.96,7.43,13.66ZM471.01,100.07l-.09.79c-.37,2.7-.71,5.45-1.05,8.1-.66,5.21-1.34,10.6-2.22,15.97v.07c-.74,4.12-1.61,7.39-2.73,10.3-2.46,6.19-6.69,12.34-11.92,17.35-3.89,3.73-9.38,5.86-15.06,5.84-1.79,0-3.57-.22-5.28-.64l-.15-.04c-12.28-3.42-13.3-20.03-13.86-28.96l-.03-.53v-.08c-.46-14.93.57-27.07,3.24-38.22l.02-.1c.19-.72.37-1.43.55-2.14,1.14-4.47,2.32-9.09,4.39-13.63l.02-.05c.8-1.71,1.59-3.05,2.48-4.2,1.01-1.34,3.7-4.35,7.38-4.34,2.97,0,6.26,2.22,6.45,7.07v.13c.03,2.36-.55,4.57-1.07,6.53-.18.69-.36,1.35-.49,1.94-.48,2.25-1,4.53-1.5,6.74-1.35,5.91-2.62,11.49-3.39,17.24-1.06,10.22-1.09,19.71-.06,28.22v.06c.59,4.57,1.52,7.12,2.18,8.35.9-.98,2.46-3.2,4.19-8,1.1-3.1,1.66-6.49,2.17-10.62.41-3.55.81-7.15,1.21-10.75.64-5.8,1.31-11.79,2.04-17.64.19-1.66.33-3.38.46-5.05.07-.91.15-1.82.22-2.71.61-9.33,6.38-11.58,8.83-12.12,1.06-.23,2.11-.35,3.11-.35,3.08,0,5.76,1.11,7.75,3.18,2.24,2.33,3.35,5.61,3.23,9.5-.02,4.26-.53,8.59-1.02,12.78Z"/>
      <path class="st1" d="M643.12,89.26c-.26-.9-.52-1.82-.63-2.32l-.08-.37-.11-.36c-.88-2.95-1.7-6.66-2.36-10.75l-.05-.32-.07-.32c-.15-.66-.3-1.44-.47-2.26-.51-2.58-1.15-5.82-2.47-9.03-.22-1.36-.66-2.61-1.21-3.66-1.09-2.08-2.77-3.7-4.76-4.68-.22-.19-.45-.37-.69-.54l-.23-.17-.38-.25c-3.84-2.49-7.82-2.5-9.12-2.51-.48,0-.96.01-1.44.02-.26,0-.52.02-.78.02h-.06c-.61-.03-1.23-.04-1.84-.05-5.38-.01-10.19.95-14.84,1.88-2.09.42-4.06.81-6,1.1-1.13.17-2.26.32-3.4.47-6.2.83-13.21,1.77-19.93,5.14-4.09,1.79-7.03,5-8.45,9.11-.66-1.34-1.42-2.62-2.26-3.83l-.09-.13-.1-.13c-4.9-6.57-12.24-9.13-17.09-10.83-2.05-.72-4.1-1.34-6.09-1.93-2.05-.62-3.98-1.2-5.86-1.87-1.69-.6-3.28-1.22-4.96-1.88-2.59-1.02-5.27-2.07-8.26-2.98h-.02c-3.93-1.27-9.86-2.95-16.08-2.96-2.38,0-4.68.23-6.81.71h-.06c-11.17,2.59-19.93,10.44-22.32,20.01l-.08.33-.06.34c-1.26,7.04,2.03,11.82,3.8,14.39,1.22,1.77,1.35,2.04,1.34,2.96-.09,1.99-.17,3.98-.25,5.97-.17,4.41-.34,8.57-.65,12.76-.31,3.21-.86,6.48-1.44,9.94-.68,4.07-1.38,8.27-1.74,12.67-.72,6.83-1.07,13.73-1.4,20.4-.2,4.04-.41,8.21-.7,12.22-.12,1.52-.45,8.8,3.7,13.37,2.06,2.28,4.97,3.59,7.97,3.59h0c1.94,0,4.76-.48,7.22-2.77,1.82,4.91,3.97,9.59,6.41,13.94l.15.27.16.26c4.77,7.44,11.88,13.77,20.58,18.34,4.99,3.14,10.95,4.75,17.72,4.76,1.01,0,2.05-.03,3.11-.1,13.79-.39,17.77-9.9,20.4-16.21l.08-.19c1.25-3.16,2.29-6.33,3.29-9.39.73-2.21,1.41-4.3,2.15-6.33l.09-.24.08-.24c.24-.78.54-1.64.86-2.55,1.29-3.7,2.89-8.3,2.61-13.45l-.02-.41-.06-.41c-.7-5.11-3.84-9.17-8.62-11.14-3.04-1.25-6.18-1.42-8.58-1.43-.8,0-1.61.02-2.41.04-.61.01-1.21.03-1.78.03-.38,0-.64-.01-.8-.02-4.12-1.48-7.77-3.6-10.57-6.12-1.33-1.28-2.62-3.14-3.99-5.1-.39-.56-.78-1.12-1.18-1.67-.82-1.31-1.59-2.66-2.33-4.04,1.38.14,2.79.23,4.21.23.8,0,1.61-.02,2.39-.07,8.13-.46,13.97-5.31,17.46-8.21l.2-.17c8.15-7.13,12.05-14.26,13.59-25.05.26.83.54,1.66.86,2.49,2.69,7.28,7.49,9.87,10.26,11.13,1.16,5.99,1.44,12.41,1.74,19.17.13,2.88.26,5.85.46,8.8.09,1.51.14,3.08.2,4.74.16,5.13.35,10.95,1.96,16.71l.09.33.12.33c2.93,8.26,8.92,9.16,11.36,9.17,3.87.01,7.47-2.07,9.62-5.56l.54-.87.35-.96c1.79-4.9,1.65-9.91,1.54-13.94-.04-1.38-.08-2.68-.03-3.75v-.28s0-.28,0-.28c-.1-8.79-.3-18.07-1-27.28,1.71.35,3.46.67,5.24.95,4.66.98,8.95,1.79,13.85,1.81l.8.02c.72.02,1.46.04,2.2.04,2.16,0,5.03-.1,8.03-.97l.33-.1.32-.12c6.46-2.36,10.14-8.42,9.84-16.19-.16-4.1-1.34-8.23-2.2-11.25ZM561.8,92.89c-1.22,10.44-4.51,16.8-12.1,23.44l-.1.08c-3.21,2.67-8.06,6.69-14.53,7.05-.68.04-1.37.06-2.07.06-4.62-.01-9.16-1-13.21-2.15,2.06,4.67,4.33,9.43,7.1,13.85.41.58.82,1.17,1.23,1.75,1.53,2.2,2.98,4.27,4.69,5.91,3.34,3.03,7.66,5.54,12.51,7.25l.14.05.14.06s.5.14,2.03.14c.62,0,1.27-.01,1.92-.03.76-.02,1.52-.04,2.28-.03,1.93,0,4.43.13,6.66,1.05,3.11,1.28,5.08,3.82,5.53,7.14l.03.2v.2c.24,4.15-1.12,8.06-2.32,11.51-.33.95-.65,1.86-.92,2.72l-.04.12-.04.12c-.77,2.11-1.47,4.23-2.21,6.48-.98,2.99-2,6.08-3.19,9.11l-.04.1c-2.52,6.02-5.37,12.84-15.96,13.1-.97.06-1.93.1-2.86.09-5.88-.02-10.99-1.39-15.2-4.09-8-4.16-14.52-9.93-18.85-16.68l-.08-.13-.07-.13c-4.73-8.45-8.3-18.2-10.5-28.55-.22,2.35-.49,4.71-.81,7.05l-.03.22-.05.22c-.42,1.8-1.69,7.29-6.65,7.28-1.6,0-3.11-.69-4.23-1.93-2.35-2.59-2.6-7.38-2.4-9.62.29-4.06.5-8.25.7-12.32.33-6.62.67-13.47,1.38-20.18.33-4.2,1.02-8.32,1.69-12.3.6-3.57,1.16-6.94,1.49-10.35.32-4.29.5-8.71.66-12.98.08-2,.16-4,.25-6,.06-2.69-.9-4.08-2.23-6.01-1.64-2.38-3.88-5.63-2.98-10.62l.03-.17.04-.17c2.35-9.41,11.46-14.65,18.54-16.29,1.8-.4,3.72-.6,5.73-.6,5.53.01,10.97,1.56,14.58,2.72l.05.02c2.77.85,5.38,1.87,7.89,2.85,1.65.65,3.35,1.31,5.12,1.94,1.98.71,4.07,1.34,6.09,1.94,1.93.58,3.93,1.18,5.88,1.87,4.53,1.58,10.73,3.75,14.7,9.08l.09.13c5.42,7.75,5.43,17.54,4.48,24.4ZM633.73,111.93l-.16.06-.16.05c-2.39.69-4.78.78-6.6.77-.7,0-1.4-.02-2.08-.04l-.86-.02c-4.5-.02-8.56-.79-13.01-1.73-3.6-.56-7.12-1.33-10.52-2.08-.43-.09-.86-.19-1.29-.28.02.32.06.69.11,1.12v.09c1.1,10.85,1.36,22.05,1.48,32.54v.14s0,.14,0,.14c-.05,1.25-.01,2.64.03,4.11.11,3.78.23,8.07-1.23,12.05l-.18.48-.27.44c-1.76,2.85-4.29,3.16-5.29,3.15-1.7,0-4.81-.76-6.6-5.8l-.06-.16-.05-.17c-1.45-5.17-1.62-10.43-1.78-15.51-.05-1.71-.11-3.33-.21-4.93-.2-2.86-.33-5.82-.45-8.68-.32-7.34-.65-14.93-2.24-21.88-.29-.72-.5-.82-1.86-1.42-2.26-1-6.04-2.67-8.21-8.56-1.26-3.32-1.97-6.64-2.65-9.85-.25-1.18-.49-2.29-.75-3.41l-.04-.18-.12-.62c-.46-2.29-1.03-5.14-.73-7.98.44-4.17,2.71-7.32,6.39-8.89,5.99-3.04,12.33-3.89,18.46-4.71,1.16-.16,2.32-.31,3.47-.48,2.07-.31,4.1-.71,6.25-1.14,4.41-.88,8.96-1.79,13.83-1.78.57,0,1.14.02,1.7.04.07,0,.13,0,.2,0,.31,0,.62,0,.94-.02.43-.01.85-.02,1.28-.02,1.63,0,4.06.18,6.38,1.69l.21.14.11.09c.35.26.67.53.98.81,1.26.46,2.33,1.4,3.01,2.7.39.74.69,1.66.77,2.63,1.29,2.86,1.9,5.96,2.44,8.69.17.86.33,1.67.5,2.41l.04.16.03.16c.49,3,1.32,7.41,2.51,11.39l.05.18.04.19c.14.66.42,1.61.71,2.63.83,2.92,1.87,6.56,2.01,10.05.29,7.59-3.96,10.3-6.52,11.23Z"/>
    </g>
    <g>
      <path class="st3" d="M461.06,74.62c-1.01,0-2.06.11-3.11.35-2.46.54-8.22,2.79-8.83,12.12-.08.89-.15,1.79-.22,2.71-.13,1.67-.27,3.39-.46,5.05-.74,5.84-1.4,11.84-2.04,17.64-.4,3.61-.8,7.21-1.21,10.75-.5,4.13-1.07,7.52-2.17,10.62-1.73,4.8-3.29,7.03-4.19,8-.66-1.22-1.58-3.77-2.17-8.35v-.06c-1.03-8.51-1.01-18,.05-28.22.77-5.74,2.04-11.33,3.39-17.24.5-2.2,1.02-4.48,1.5-6.74.13-.6.3-1.25.49-1.94.52-1.96,1.11-4.17,1.08-6.53v-.13c-.19-4.85-3.48-7.06-6.46-7.07-3.67,0-6.36,3.01-7.38,4.34-.89,1.15-1.68,2.49-2.48,4.2l-.02.05c-2.07,4.54-3.25,9.16-4.39,13.63-.18.71-.36,1.42-.55,2.14l-.02.1c-2.67,11.14-3.7,23.29-3.25,38.22v.08s.04.53.04.53c.55,8.93,1.58,25.55,13.86,28.96l.15.04c1.71.42,3.49.63,5.28.64,5.68.01,11.17-2.12,15.06-5.84,5.23-5.01,9.45-11.16,11.92-17.35,1.13-2.91,1.99-6.18,2.72-10.3v-.07c.89-5.37,1.57-10.76,2.23-15.97.33-2.66.68-5.4,1.05-8.1l.09-.79c.49-4.19,1-8.52,1.02-12.78.13-3.89-.99-7.17-3.23-9.5-1.99-2.07-4.67-3.17-7.75-3.18ZM466.96,87.2c-.01,4.23-.57,8.72-1.07,12.98-1.09,8.01-1.93,15.94-3.24,23.94-.56,3.18-1.3,6.36-2.46,9.35-2.27,5.69-6.22,11.23-10.7,15.53-4.07,3.9-10.2,5.27-15.63,3.94-8.97-2.5-9.7-17.08-10.18-24.84-.38-12.37.23-24.87,3.11-36.88,1.34-5.14,2.46-10.14,4.65-14.94.54-1.16,1.16-2.29,1.92-3.27,1.71-2.28,4.59-3.83,4.73-.15.03,2.36-.93,4.94-1.45,7.34-1.74,8.13-3.87,16.18-4.97,24.44-1.02,9.75-1.22,19.81-.06,29.47v.1c2.28,17.75,10.41,17.38,16.16,1.38,1.34-3.78,1.95-7.75,2.43-11.72,1.1-9.4,2.07-19.01,3.26-28.41.3-2.68.47-5.39.71-7.97.2-3.18,1.31-6.78,4.86-7.55,5.25-1.15,8.13,2.12,7.94,7.28Z"/>
      <path class="st3" d="M557.23,68.36c-3.98-5.33-10.18-7.49-14.7-9.08-1.95-.68-3.95-1.28-5.88-1.87-2.02-.61-4.1-1.24-6.09-1.94-1.77-.62-3.47-1.29-5.12-1.94-2.52-.99-5.12-2.01-7.89-2.85l-.05-.02c-3.61-1.16-9.05-2.71-14.58-2.72-2.01,0-3.92.19-5.73.6-7.08,1.63-16.19,6.88-18.54,16.29l-.04.17-.03.17c-.9,4.99,1.35,8.24,2.98,10.62,1.33,1.93,2.29,3.32,2.23,6.01-.09,2-.17,4-.25,6-.17,4.27-.34,8.69-.66,12.98-.33,3.41-.89,6.78-1.49,10.35-.67,3.98-1.36,8.1-1.69,12.3-.71,6.71-1.05,13.56-1.38,20.18-.2,4.06-.41,8.26-.7,12.32-.2,2.24.05,7.02,2.4,9.62,1.12,1.24,2.63,1.93,4.23,1.93,4.96.01,6.23-5.48,6.65-7.28l.05-.22.03-.22c.33-2.34.59-4.7.81-7.05,2.2,10.35,5.77,20.09,10.5,28.55l.07.13.08.13c4.33,6.75,10.85,12.52,18.85,16.68,4.2,2.7,9.31,4.07,15.2,4.09.93,0,1.89-.03,2.86-.09,10.59-.26,13.44-7.08,15.96-13.1l.04-.1c1.19-3.03,2.21-6.12,3.19-9.11.74-2.25,1.44-4.38,2.21-6.48l.04-.12.04-.12c.27-.87.58-1.77.92-2.72,1.2-3.45,2.56-7.36,2.33-11.51v-.2s-.04-.2-.04-.2c-.46-3.32-2.42-5.86-5.53-7.14-2.22-.92-4.73-1.04-6.66-1.05-.75,0-1.52.02-2.28.03-.65.02-1.3.03-1.92.03-1.53,0-1.99-.13-2.03-.14l-.14-.06-.14-.05c-4.84-1.72-9.17-4.23-12.51-7.25-1.71-1.63-3.16-3.71-4.69-5.91-.41-.59-.82-1.17-1.23-1.75-2.77-4.42-5.05-9.18-7.1-13.85,4.06,1.15,8.59,2.14,13.21,2.15.7,0,1.4-.02,2.07-.06,6.47-.36,11.32-4.38,14.53-7.05l.1-.08c7.59-6.64,10.88-13,12.1-23.44.95-6.86.93-16.65-4.48-24.4l-.09-.13ZM556.77,92.25c-1.05,9.05-3.64,14.35-10.41,20.27-3.37,2.8-6.97,5.64-11.59,5.89-5.43.35-11.06-1.08-16.28-2.71-5.89-1.76-7.64-1.72-4.83,4.3,2.62,6.13,5.41,12.35,9.02,18.06,2.1,2.93,4.04,6.03,6.68,8.54,4.07,3.71,9.11,6.49,14.26,8.32,4.15,1.75,14.52-1.88,15.37,4.28.23,4.12-1.78,8.4-3.03,12.45-1.86,5.09-3.36,10.41-5.35,15.47-2.66,6.38-4.45,9.85-11.51,9.99-5.34.37-10.75-.33-15.28-3.31-6.81-3.51-12.95-8.51-17.13-15.03-6.01-10.74-9.69-22.92-11.36-35.13-1.5-12.68-1.38-26.01-2.77-38.76-.24-.62-.39.45-.48.64-.79,4.13-2.06,11.19-2.71,15.92-1.77,12.46-1.72,25.16-3.45,37.61-1.67,7.23-3.64,1.09-3.28-2.71.77-10.72.94-21.73,2.08-32.44.6-7.62,2.46-15.09,3.18-22.69.48-6.4.63-12.83.93-19.23.22-8.45-6.38-9.83-5.29-15.91,1.68-6.71,8.37-11.1,14.76-12.57,5.72-1.28,12.28.3,17.61,2.01l.08.03c4.41,1.35,8.28,3.12,12.85,4.73,4,1.43,8.13,2.47,11.98,3.81,4.52,1.58,9.37,3.38,12.32,7.32,4.13,5.92,4.59,13.81,3.61,20.85Z"/>
      <path class="st3" d="M516.13,79.06c-.99-.8-2.8-.13-4.03.25-2.61.83-3.42,2.75-3.5,6.13.04,3.56.67,7.14,1.9,10.46.56,1.42,1.73,3.66,3.38,2.73,1.31-1.1,1.56-3.11,1.97-4.72.63-2.86,2.43-12.73.31-14.82l-.03-.03Z"/>
      <path class="st3" d="M403.51,119.95l-.15-.05-.16-.04c-.96-.22-1.99-.33-3.14-.34-1.71,0-3.4.23-4.9.44-.78.11-1.52.21-2.13.26h-.15c-1.17.14-2.33.24-3.55.34-2.63.22-5.35.45-8.18,1.02-.63.12-1.26.24-1.9.35-5.12.96-10.41,1.95-15.39,1.94-.56,0-1.11-.02-1.64-.04h-.07s-.63-.01-.63-.01c-.56,0-1.36-.02-1.79-.09-1.52-2.68-.79-6.52.22-10.28l.04-.15.03-.15c.74-3.56,1.08-7.02,1.05-10.61l-.03-1.74c-.07-4.25-.15-8.64.17-12.79v-.19s.01-.19.01-.19c0-.48.04-1.13.08-1.83.23-4,.7-12.31-6.55-14.58l-.2-.06-.46-.1-.21-.03c-.5-.07-1-.11-1.49-.11-4.24-.01-7,2.25-8.89,5.09-.28-6.94-2.35-14.32-5.61-19.94-4.56-7.88-11.36-12.36-19.15-12.63h-.22c-9.4-.03-23.12,5.34-29.98,11.72l-.09.09c-2.9,2.84-4.77,6.33-6.43,9.41-.89,1.66-1.73,3.22-2.67,4.61-.31.46-.61.92-.9,1.39-.42-2.77-1.19-5.35-2.56-6.85-1.17-1.28-2.72-1.99-4.39-1.99-4.69-.01-6.88,4.93-8.55,9.56l-.17.48-.07.5c-3.35,22.56-3.11,45.73-2.88,68.14.1,9.82.21,19.98,0,29.86-.05,1.39-.12,7.67,2.94,10.87,1.26,1.32,2.92,2.04,4.68,2.05,1.94,0,3.77-.83,5.45-2.49l.3-.29.24-.34c3.35-4.63,3.77-10.45,4.1-15.12.05-.74.11-1.48.17-2.19v-.1c.36-5.14.29-10.35.23-15.39-.04-3.23-.09-6.37-.02-9.43,1.34,1,2.74,1.9,4.19,2.68,5.67,3.08,11.54,4.65,17.46,4.67,9.6.03,18.85-4.22,26.04-11.95,4.75-5.09,7.45-11.55,9.44-17.37-.03.92-.13,5.12-.13,5.12-.05,1.92-.12,3.84-.19,5.77-.44,12.17-.9,24.75,3.46,36.91.2.64.39,1.33.59,2.05.85,3.05,1.81,6.51,4.22,9.48l.14.18.16.16c5.63,5.79,13.16,6.47,18.33,6.49,2.54,0,5-.16,7.38-.33.8-.06,1.59-.11,2.37-.16l.26-.02.26-.04c2.13-.35,4.22-.76,6.24-1.15,4.08-.79,7.93-1.54,11.88-1.84,2.94-.21,7.35-.6,11.64-1.69,7.59-1.78,8.03-9.17,8.27-13.15v-.14c.2-3.04.2-6.06.2-8.99,0-3.7,0-7.2.37-10.65.34-3.28.47-6.45.42-9.7v-.66c.03-3.7.09-11.41-7.43-13.66ZM330.59,113.33c-1.96,5.91-4.45,12.01-8.68,16.55-10.19,10.95-24.17,13.46-37.37,6.28-2.28-1.23-4.73-2.97-6.9-5.18-.99-.82-3.39-3.85-4.22-2.12-1.27,10.94.02,22.48-.74,33.55-.44,4.9-.38,10.71-3.33,14.79-3.81,3.77-4.54-3.89-4.43-6.67.68-32.36-1.93-65.37,2.82-97.41,5.76-15.91,6.5,3.06,5.96,9.07-.33,11.49-1.19,20.35,4.03,2.61,1.34-4.55,3.21-8.77,5.85-12.68,2.9-4.26,4.71-9.58,8.44-13.22,5.88-5.48,18.51-10.39,26.51-10.36h.08c13.45.47,19.72,16.94,19.88,28.66.56,12.54-4.05,24.37-7.9,36.15ZM405.48,143.46c-.71,6.56-.15,13.25-.58,19.83-.24,3.98-.41,7.77-4.41,8.69-3.5.89-7.19,1.31-10.8,1.56-6.37.48-12.34,2.01-18.6,3.04-8.08.48-17.94,1.9-24.14-4.48-2.24-2.77-2.88-6.56-3.94-9.94-4.74-13.13-3.37-27.26-3.01-40.94.3-11.14.33-22.63,3.94-33.15,1.78-4.33,3.26-12.84,9.28-12h.05c4.22,1.33,2.92,8.05,2.92,11.58-.38,4.96-.23,10.09-.16,14.99.03,3.27-.3,6.38-.95,9.51-1.25,4.61-2.21,9.88.33,14.22,1.46,2.65,4.09,2.5,6.58,2.55,6.73.33,13.55-1.12,20.14-2.33,3.78-.76,7.51-.86,11.33-1.29,2.62-.21,6.04-1.08,8.61-.48,4.15,1.24,3.82,5.85,3.81,9.5.05,3.1-.09,6.11-.4,9.15Z"/>
      <path class="st3" d="M310.29,87.04h-.06c-1.76.02-4.03.49-6.03,1.09-3.44,1.02-6.97,2.15-10.18,3.42-2.73,1.15-5.76,2.46-7.39,5.16-2.18,3.74.88,7.41,3.66,9.71,4.38,3.87,10.93,4.31,16.45,2.89,3.49-.8,6.87-2.25,9.79-4.02,1.69-1,3.53-2.17,4.19-4.08.94-3.04-1.15-6.48-2.76-9.14-1.77-2.83-4.15-5.23-7.67-5.04ZM313.9,100.97c-2.62,1.59-5.48,2.76-8.3,3.41l-.13.03c-1.49.38-3.06.58-4.54.58h0c-2.11,0-5.09-.42-7.29-2.36l-.12-.1c-2.11-1.75-2.56-2.94-2.56-3.14,0,0,0-.03.04-.08.81-1.3,2.99-2.23,4.94-3.05,2.66-1.04,5.83-2.11,9.73-3.26,1.75-.53,3.51-.86,4.6-.87,0,0,.37-.01.41-.01.87,0,1.87.9,2.96,2.63.58.96,2.3,3.79,2.26,4.84-.37.42-1.55,1.13-2,1.39Z"/>
      <path class="st3" d="M638.25,90.65c-.29-1.01-.56-1.97-.71-2.63l-.04-.19-.05-.18c-1.2-3.99-2.03-8.39-2.51-11.39l-.03-.16-.04-.16c-.17-.74-.33-1.55-.5-2.41-.54-2.73-1.15-5.83-2.44-8.69-.08-.97-.38-1.89-.77-2.63-.68-1.3-1.75-2.24-3.01-2.7-.31-.28-.64-.55-.98-.81l-.11-.09-.21-.14c-2.32-1.51-4.75-1.69-6.38-1.69-.43,0-.85.01-1.28.02-.32,0-.63.02-.94.02-.07,0-.13,0-.2,0-.56-.03-1.13-.04-1.7-.04-4.87-.01-9.43.9-13.83,1.78-2.15.43-4.18.84-6.25,1.14-1.15.17-2.31.33-3.47.48-6.13.82-12.46,1.67-18.46,4.71-3.69,1.57-5.95,4.71-6.39,8.89-.3,2.84.27,5.69.73,7.98l.12.62.04.18c.26,1.11.5,2.23.75,3.41.68,3.21,1.39,6.52,2.65,9.85,2.18,5.89,5.95,7.56,8.21,8.56,1.36.6,1.57.69,1.86,1.42,1.59,6.95,1.92,14.54,2.24,21.88.12,2.86.25,5.82.45,8.68.1,1.6.15,3.21.21,4.93.16,5.08.33,10.34,1.78,15.51l.05.17.06.16c1.79,5.03,4.9,5.79,6.6,5.8,1.01,0,3.53-.3,5.29-3.15l.27-.44.18-.48c1.46-3.98,1.34-8.27,1.23-12.05-.04-1.47-.08-2.86-.03-4.11v-.14s0-.14,0-.14c-.12-10.49-.38-21.69-1.47-32.54v-.09c-.06-.43-.1-.8-.12-1.12.43.09.86.19,1.29.28,3.4.75,6.92,1.52,10.52,2.08,4.45.94,8.51,1.71,13.01,1.73l.86.02c.69.02,1.38.03,2.08.04,1.82,0,4.22-.08,6.6-.77l.16-.05.16-.06c2.56-.94,6.81-3.64,6.52-11.23-.13-3.49-1.17-7.13-2.01-10.05ZM631.99,107.17c-2.56.74-5.44.57-8.07.52-4.16-.01-8.03-.78-12.17-1.65-4.27-.65-8.47-1.64-12.62-2.54-5.28-1.44-5.52,2.68-5.03,6.88,1.06,10.61,1.32,21.46,1.44,32.09-.2,4.7.72,10.22-.9,14.64-1.1,1.78-2.19.01-2.8-1.68-1.74-6.2-1.41-12.98-1.81-19.38-.73-10.48-.48-21.43-2.88-31.71-2.28-6.28-7.44-2.82-10.19-10.29-1.56-4.1-2.21-8.4-3.21-12.64-.81-4.12-2.26-9.92,2.69-11.89,6.35-3.27,13.62-3.76,20.55-4.79,7.02-1.04,13.72-3.18,20.85-2.83,2.08.06,4.32-.4,6.23.84l.05.03c4.17,3.12,4.7,9.53,5.79,14.3.65,4.02,1.55,8.34,2.66,12.04,1.02,4.65,5.65,15.77-.59,18.06Z"/>
    </g>
    <g>
      <path class="st2" d="M318.61,48.52h-.08c-8-.02-20.63,4.89-26.51,10.36-3.72,3.64-5.54,8.95-8.44,13.22-2.63,3.92-4.5,8.14-5.85,12.68-5.22,17.74-4.36,8.88-4.03-2.61.54-6-.2-24.97-5.96-9.07-4.76,32.04-2.15,65.06-2.82,97.41-.12,2.78.62,10.44,4.43,6.67,2.95-4.08,2.89-9.89,3.33-14.79.77-11.07-.53-22.6.74-33.55.83-1.74,3.23,1.29,4.22,2.12,2.17,2.21,4.62,3.95,6.9,5.18,13.2,7.17,27.18,4.67,37.37-6.28,4.23-4.54,6.73-10.64,8.68-16.55,3.85-11.78,8.45-23.6,7.9-36.15-.17-11.72-6.43-28.19-19.88-28.65ZM320.72,101.22c-.66,1.91-2.5,3.07-4.19,4.08-2.92,1.77-6.29,3.21-9.79,4.02-5.52,1.42-12.06.98-16.45-2.89-2.78-2.3-5.83-5.97-3.66-9.71,1.63-2.71,4.66-4.01,7.39-5.16,3.21-1.26,6.73-2.4,10.18-3.42,1.99-.6,4.27-1.08,6.03-1.09h.06c3.51-.19,5.9,2.21,7.67,5.04,1.61,2.66,3.7,6.1,2.76,9.14Z"/>
      <path class="st2" d="M402.06,124.81c-2.57-.59-5.99.27-8.61.48-3.81.42-7.54.52-11.33,1.29-6.6,1.22-13.41,2.66-20.14,2.33-2.49-.05-5.11.11-6.58-2.55-2.54-4.34-1.58-9.61-.33-14.22.65-3.13.97-6.24.95-9.51-.07-4.89-.22-10.02.16-14.99,0-3.52,1.3-10.24-2.92-11.57h-.05c-6.02-.86-7.5,7.65-9.28,11.99-3.61,10.52-3.64,22.01-3.94,33.15-.36,13.68-1.73,27.81,3.01,40.94,1.06,3.38,1.7,7.18,3.94,9.94,6.2,6.37,16.06,4.96,24.14,4.48,6.26-1.03,12.23-2.56,18.6-3.04,3.62-.25,7.3-.67,10.8-1.56,4-.92,4.17-4.71,4.41-8.69.42-6.58-.13-13.27.58-19.83.31-3.05.45-6.06.4-9.15,0-3.65.33-8.25-3.81-9.5Z"/>
      <path class="st2" d="M459.02,79.92c-3.55.77-4.66,4.37-4.86,7.55-.23,2.58-.4,5.29-.71,7.97-1.19,9.4-2.16,19-3.26,28.41-.49,3.98-1.09,7.94-2.43,11.72-5.75,16-13.88,16.37-16.15-1.38v-.1c-1.18-9.66-.98-19.72.04-29.47,1.1-8.27,3.23-16.31,4.97-24.44.52-2.39,1.48-4.97,1.45-7.34-.14-3.68-3.02-2.12-4.73.15-.76.98-1.38,2.12-1.92,3.27-2.19,4.81-3.31,9.8-4.65,14.94-2.88,12.01-3.49,24.51-3.11,36.88.48,7.76,1.21,22.35,10.18,24.84,5.43,1.33,11.56-.03,15.63-3.94,4.48-4.3,8.44-9.83,10.7-15.53,1.16-3,1.89-6.18,2.46-9.35,1.31-7.99,2.15-15.93,3.24-23.94.5-4.26,1.06-8.76,1.07-12.98.19-5.15-2.69-8.43-7.94-7.28Z"/>
      <path class="st2" d="M540.85,64.07c-3.85-1.35-7.98-2.39-11.98-3.81-4.58-1.62-8.44-3.39-12.85-4.73l-.08-.03c-5.33-1.72-11.89-3.29-17.61-2.01-6.39,1.47-13.09,5.87-14.76,12.57-1.09,6.07,5.51,7.46,5.29,15.91-.3,6.41-.45,12.84-.93,19.23-.72,7.6-2.58,15.07-3.18,22.69-1.14,10.72-1.31,21.73-2.08,32.44-.36,3.79,1.61,9.93,3.28,2.71,1.73-12.46,1.68-25.16,3.45-37.61.65-4.73,1.92-11.79,2.71-15.92.09-.2.24-1.26.48-.64,1.38,12.75,1.27,26.09,2.77,38.76,1.66,12.21,5.35,24.39,11.36,35.13,4.18,6.52,10.32,11.53,17.13,15.03,4.53,2.98,9.94,3.68,15.28,3.31,7.05-.14,8.84-3.62,11.51-9.99,1.99-5.06,3.49-10.38,5.35-15.47,1.25-4.05,3.26-8.33,3.03-12.45-.85-6.16-11.22-2.53-15.37-4.28-5.16-1.83-10.19-4.61-14.26-8.32-2.64-2.51-4.57-5.61-6.68-8.54-3.61-5.71-6.39-11.93-9.02-18.06-2.81-6.01-1.05-6.05,4.83-4.3,5.22,1.63,10.85,3.06,16.28,2.71,4.61-.25,8.22-3.09,11.59-5.89,6.77-5.92,9.36-11.22,10.41-20.27.98-7.04.52-14.94-3.61-20.85-2.95-3.94-7.79-5.74-12.32-7.32ZM515.85,93.91c-.42,1.6-.67,3.62-1.97,4.72-1.65.93-2.82-1.31-3.38-2.73-1.22-3.32-1.86-6.9-1.9-10.46.08-3.38.89-5.3,3.5-6.13,1.23-.37,3.04-1.05,4.03-.25l.03.03c2.12,2.09.32,11.96-.31,14.82Z"/>
      <path class="st2" d="M629.93,77.07c-1.09-4.77-1.62-11.18-5.79-14.3l-.05-.03c-1.91-1.24-4.15-.78-6.23-.84-7.13-.36-13.83,1.79-20.85,2.83-6.93,1.03-14.2,1.51-20.55,4.79-4.95,1.97-3.5,7.77-2.69,11.89,1,4.24,1.66,8.54,3.21,12.64,2.75,7.47,7.9,4.01,10.19,10.29,2.41,10.27,2.16,21.23,2.88,31.71.4,6.4.07,13.18,1.81,19.38.6,1.69,1.7,3.46,2.8,1.68,1.62-4.41.7-9.94.9-14.64-.12-10.63-.38-21.48-1.44-32.09-.5-4.2-.26-8.32,5.03-6.88,4.15.9,8.35,1.89,12.62,2.54,4.13.87,8.01,1.64,12.17,1.65,2.63.05,5.51.23,8.07-.52,6.25-2.29,1.62-13.41.59-18.06-1.11-3.69-2.01-8.01-2.66-12.04Z"/>
    </g>
  </g>
  <g>
    <g>
      <path class="st0" d="M265.09,355.07v8.31c0,3.92-2.79,6.76-6.52,6.76h-3.83v11.24h-7.28v-33.07h11.1c3.73,0,6.52,2.83,6.52,6.76ZM255.5,363.86c1.89,0,2.31-1.23,2.31-2.83v-3.59c0-1.51-.43-2.83-2.31-2.83h-.76v9.26h.76Z"/>
      <path class="st0" d="M318.61,362.3v5.1h-24.66v-5.1h24.66Z"/>
      <g>
        <path class="st0" d="M365.52,355.07v8.31c0,3.92-2.79,6.76-6.52,6.76h-3.83v11.24h-7.28v-33.07h11.1c3.73,0,6.52,2.83,6.52,6.76ZM355.93,363.86c1.89,0,2.31-1.23,2.31-2.83v-3.59c0-1.51-.42-2.83-2.31-2.83h-.76v9.26h.76Z"/>
        <path class="st0" d="M386.9,348.32v6.28h-8.03v6.9h6.9v6.28h-6.9v7.28h7.89v6.33h-15.16v-33.07h15.31Z"/>
        <path class="st0" d="M411.74,381.39h-6.94l-.38-2.27h-4.96l-.38,2.27h-6.19l5.62-33.07h7.65l5.57,33.07ZM403.71,374.63l-1.75-10.72-1.8,10.72h3.54Z"/>
        <path class="st0" d="M426.53,348.32c6.42,0,9.4,3.07,9.4,9.5v2.31h-6.8v-2.31c0-1.75-.61-2.88-2.36-2.88s-2.36,1.13-2.36,2.88v14.08c0,1.75.61,2.88,2.36,2.88s2.36-1.18,2.36-2.93v-2.46h6.8v2.46c0,6.42-2.98,9.54-9.4,9.54s-9.4-3.5-9.4-9.92v-13.27c0-6.42,2.98-9.87,9.4-9.87Z"/>
        <path class="st0" d="M457.31,348.32v6.28h-8.03v6.9h6.9v6.28h-6.9v7.28h7.89v6.33h-15.16v-33.07h15.31Z"/>
      </g>
      <path class="st0" d="M254.75,394.61v26.97h7.89v6.09h-15.16v-33.07h7.28Z"/>
      <path class="st0" d="M318.61,408.59v5.1h-24.66v-5.1h24.66Z"/>
      <g>
        <path class="st0" d="M355.18,394.61v26.97h7.89v6.09h-15.16v-33.07h7.28Z"/>
        <path class="st0" d="M378.38,394.61c6.42,0,9.4,3.45,9.4,9.87v13.32c0,6.42-3.07,9.87-9.5,9.87s-9.31-3.45-9.31-9.87v-13.32c0-6.42,2.98-9.87,9.4-9.87ZM378.38,421.06c1.75,0,2.13-1.13,2.13-2.88v-14.08c0-1.75-.38-2.88-2.13-2.88s-2.13,1.13-2.13,2.88v14.08c0,1.75.38,2.88,2.13,2.88Z"/>
        <path class="st0" d="M393.22,394.61h6.94l2.69,17.53,2.74-17.53h6.19l-5.2,33.07h-8.13l-5.24-33.07Z"/>
        <path class="st0" d="M433.16,394.61v6.28h-8.03v6.9h6.9v6.28h-6.9v7.28h7.89v6.33h-15.16v-33.07h15.31Z"/>
      </g>
      <path class="st0" d="M247.47,464v-23.1h7.28v23.57c0,1.75.38,2.88,2.13,2.88s2.13-1.18,2.13-2.93v-23.53h7.28v23.1c0,6.42-2.98,9.97-9.4,9.97s-9.4-3.54-9.4-9.97Z"/>
      <path class="st0" d="M318.61,454.88v5.1h-24.66v-5.1h24.66Z"/>
      <g>
        <path class="st0" d="M347.9,464v-23.1h7.28v23.57c0,1.75.38,2.88,2.13,2.88s2.13-1.18,2.13-2.93v-23.53h7.28v23.1c0,6.42-2.98,9.97-9.4,9.97s-9.4-3.54-9.4-9.97Z"/>
        <path class="st0" d="M381.45,440.9l4.49,15.4v-15.4h6.19v33.07h-7.98l-4.91-16.87v16.87h-6.19v-33.07h8.41Z"/>
        <path class="st0" d="M405.78,440.9v33.07h-7.28v-33.07h7.28Z"/>
        <path class="st0" d="M429.02,447.18h-5.01v26.79h-7.28v-26.79h-4.91v-6.28h17.2v6.28Z"/>
        <path class="st0" d="M442.55,440.9l2.03,8.5,2.03-8.5h6.19l-5.15,19.79v13.28h-7.28v-13.28l-5.29-19.79h7.46Z"/>
      </g>
      <path class="st0" d="M265.09,493.94v3.78c0,3.78-1.51,5.29-4.11,6,2.6.71,4.11,2.22,4.11,6v10.54h-7.28v-10.44c0-1.51-.43-2.83-2.31-2.83h-.76v13.27h-7.28v-33.07h11.1c3.73,0,6.52,2.83,6.52,6.76ZM255.5,500.37c1.89,0,2.31-1.23,2.31-2.83v-1.23c0-1.51-.43-2.83-2.31-2.83h-.76v6.9h.76Z"/>
      <path class="st0" d="M318.61,501.17v5.1h-24.66v-5.1h24.66Z"/>
      <g>
        <path class="st0" d="M365.52,493.94v3.78c0,3.78-1.51,5.29-4.11,6,2.6.71,4.11,2.22,4.11,6v10.54h-7.27v-10.44c0-1.51-.43-2.83-2.31-2.83h-.76v13.27h-7.28v-33.07h11.1c3.73,0,6.52,2.83,6.52,6.76ZM355.93,500.37c1.89,0,2.31-1.23,2.31-2.83v-1.23c0-1.51-.43-2.83-2.31-2.83h-.76v6.9h.76Z"/>
        <path class="st0" d="M387.15,487.19v6.28h-8.03v6.9h6.9v6.28h-6.9v7.28h7.89v6.33h-15.16v-33.07h15.31Z"/>
        <path class="st0" d="M402.08,513.64c1.51,0,2.5-1.18,2.5-2.69,0-2.22-3.07-3.87-4.87-5.01-4.35-2.74-6.57-4.35-6.57-9.5,0-6.09,3.78-9.26,9.87-9.26s8.6,3.31,8.6,9.31v2.27h-6.28v-2.27c0-1.51-.94-2.69-2.46-2.69s-2.41,1.18-2.41,2.69c0,2.03,2.98,3.54,4.68,4.58,3.78,2.46,6.71,5.34,6.71,9.83,0,6.09-3.54,9.35-9.64,9.35s-9.16-3.21-9.16-9.31v-2.69h6.28v2.69c0,1.51,1.23,2.69,2.74,2.69Z"/>
        <path class="st0" d="M435.55,493.94v8.31c0,3.92-2.79,6.76-6.52,6.76h-3.83v11.24h-7.28v-33.07h11.1c3.73,0,6.52,2.83,6.52,6.76ZM425.96,502.73c1.89,0,2.31-1.23,2.31-2.83v-3.59c0-1.51-.42-2.83-2.31-2.83h-.76v9.26h.76Z"/>
        <path class="st0" d="M456.93,487.19v6.28h-8.03v6.9h6.9v6.28h-6.9v7.28h7.89v6.33h-15.16v-33.07h15.31Z"/>
        <path class="st0" d="M472.27,487.19c6.42,0,9.4,3.07,9.4,9.5v2.32h-6.8v-2.32c0-1.75-.61-2.88-2.36-2.88s-2.36,1.13-2.36,2.88v14.08c0,1.75.61,2.88,2.36,2.88s2.36-1.18,2.36-2.93v-2.46h6.8v2.46c0,6.42-2.98,9.54-9.4,9.54s-9.4-3.5-9.4-9.92v-13.28c0-6.42,2.98-9.87,9.4-9.87Z"/>
        <path class="st0" d="M504.83,493.47h-5.01v26.79h-7.28v-26.79h-4.91v-6.28h17.2v6.28Z"/>
      </g>
      <path class="st0" d="M264.67,539.76h-5.01v26.79h-7.28v-26.79h-4.91v-6.28h17.2v6.28Z"/>
      <path class="st0" d="M318.61,547.46v5.1h-24.66v-5.1h24.66Z"/>
      <g>
        <path class="st0" d="M365.1,539.76h-5.01v26.79h-7.28v-26.79h-4.91v-6.28h17.2v6.28Z"/>
        <path class="st0" d="M388.79,540.23v3.78c0,3.78-1.51,5.29-4.11,6,2.6.71,4.11,2.22,4.11,6v10.54h-7.28v-10.44c0-1.51-.43-2.83-2.31-2.83h-.76v13.27h-7.28v-33.07h11.1c3.73,0,6.52,2.83,6.52,6.76ZM379.2,546.66c1.89,0,2.31-1.23,2.31-2.83v-1.23c0-1.51-.43-2.83-2.31-2.83h-.76v6.9h.76Z"/>
        <path class="st0" d="M413.7,566.54h-6.94l-.38-2.27h-4.96l-.38,2.27h-6.19l5.62-33.07h7.65l5.57,33.07ZM405.67,559.79l-1.75-10.72-1.8,10.72h3.54Z"/>
        <path class="st0" d="M428.18,533.47l4.49,15.4v-15.4h6.19v33.07h-7.98l-4.91-16.87v16.87h-6.19v-33.07h8.41Z"/>
        <path class="st0" d="M453.95,559.93c1.51,0,2.5-1.18,2.5-2.69,0-2.22-3.07-3.87-4.87-5.01-4.35-2.74-6.57-4.35-6.57-9.5,0-6.09,3.78-9.26,9.87-9.26s8.6,3.31,8.6,9.31v2.27h-6.28v-2.27c0-1.51-.94-2.69-2.46-2.69s-2.41,1.18-2.41,2.69c0,2.03,2.98,3.54,4.68,4.58,3.78,2.46,6.71,5.34,6.71,9.83,0,6.09-3.54,9.35-9.64,9.35s-9.16-3.21-9.16-9.31v-2.69h6.28v2.69c0,1.51,1.23,2.69,2.74,2.69Z"/>
        <path class="st0" d="M479.2,533.47c6.42,0,9.4,3.07,9.4,9.5v2.32h-6.8v-2.32c0-1.75-.61-2.88-2.36-2.88s-2.36,1.13-2.36,2.88v14.08c0,1.75.61,2.88,2.36,2.88s2.36-1.18,2.36-2.93v-2.46h6.8v2.46c0,6.42-2.98,9.54-9.4,9.54s-9.4-3.5-9.4-9.92v-13.28c0-6.42,2.98-9.87,9.4-9.87Z"/>
        <path class="st0" d="M509.97,533.47v6.28h-8.03v6.9h6.9v6.28h-6.9v7.28h7.89v6.33h-15.16v-33.07h15.31Z"/>
        <path class="st0" d="M524.45,533.47l4.49,15.4v-15.4h6.19v33.07h-7.98l-4.91-16.87v16.87h-6.19v-33.07h8.41Z"/>
        <path class="st0" d="M559.42,542.59v14.93c0,6.09-3.16,9.02-7.51,9.02h-10.39v-33.07h10.39c4.44,0,7.51,3.07,7.51,9.12ZM549.59,560.26c2.13,0,2.55-1.37,2.55-4.02v-12.47c0-2.69-.43-4.02-2.55-4.02h-.8v20.5h.8Z"/>
        <path class="st0" d="M580.98,533.47v6.28h-8.03v6.9h6.9v6.28h-6.9v7.28h7.89v6.33h-15.16v-33.07h15.31Z"/>
        <path class="st0" d="M595.46,533.47l4.49,15.4v-15.4h6.19v33.07h-7.98l-4.91-16.87v16.87h-6.19v-33.07h8.41Z"/>
        <path class="st0" d="M621.75,533.47c6.42,0,9.4,3.07,9.4,9.5v2.32h-6.8v-2.32c0-1.75-.61-2.88-2.36-2.88s-2.36,1.13-2.36,2.88v14.08c0,1.75.61,2.88,2.36,2.88s2.36-1.18,2.36-2.93v-2.46h6.8v2.46c0,6.42-2.98,9.54-9.4,9.54s-9.4-3.5-9.4-9.92v-13.28c0-6.42,2.98-9.87,9.4-9.87Z"/>
        <path class="st0" d="M652.53,533.47v6.28h-8.03v6.9h6.9v6.28h-6.9v7.28h7.89v6.33h-15.16v-33.07h15.31Z"/>
      </g>
    </g>
    <path class="st5" d="M679.46,593.25H220.54v-271.65h458.92v271.65ZM226.29,587.5h447.42v-260.15H226.29v260.15Z"/>
  </g>
  <g>
    <path class="st4" d="M452.13,707.31l.07,15.98c-.4.35-.88.67-1.27,1.02-.75.67-1.57,1.53-2.34,2.14-.09.07-.12.18-.27.14v-9.91s-2.2,11.84-2.2,11.84l-1.89,1.71-2.18-7.82v9.75s-3,2.43-3,2.43l-.04-15.73,5.47-4.9h.21s1,3.53,1,3.53l1.05-5.54c1.56-1.31,3.06-2.74,4.58-4.06.08-.07.77-.65.82-.59Z"/>
    <path class="st4" d="M457.67,714.4l3.64-2.91.04,3.91-7.41,6.32-.18-.09c.2-.32.02-.62.02-.91,0-.14.08-.29.08-.45.04-4.78-.2-9.59-.16-14.39,2.28-1.93,4.56-3.88,6.97-5.66l.23,3.45-3.36,2.82.04,2.54c.8-.55,1.58-1.42,2.37-1.95.11-.07.21-.17.36-.14l.05,2.46-2.74,2.4c-.04.11.05.27.05.36v2.23Z"/>
    <path class="st4" d="M425.72,702.18c-1.11,2.11-2.48,2.05-4.41,1.07-2.84-1.45-3.72-4.07-3.07-7.14.19-.93.68-2.48,1.03-3.23,1.23-2.69,3.44-3.56,6.05-2,1.1.65,1.69,2.15,1.8,3.38.15,1.74-.59,6.38-1.41,7.92ZM421.61,700c.71.66,1.03-.22,1.2-.79.33-1.08.52-2.37.78-3.49.14-.61.95-2.58.02-2.86-.87-.26-1.2,1.34-1.38,1.94-.26.86-.52,1.92-.67,2.69-.13.65-.5,1.99.05,2.5Z"/>
    <path class="st4" d="M479.55,691.16c1.18,1.03,1.82,3,2.19,4.49.96,3.85-.04,6.74-3.86,8.18-2.41.91-3.64-1.44-4.09-3.41-.6-2.62-1.72-7.68,1.04-9.36,1.6-.98,3.23-1.2,4.72.11ZM477.7,700.19c.43.41,1.01-.13,1.12-.61.18-.76-.47-3.17-.71-4.03-.18-.65-.68-3.14-1.7-2.48-.35.23-.31.79-.27,1.17.13,1.2.83,3.66,1.18,4.91.06.21.26.91.38,1.03Z"/>
    <path class="st4" d="M412.4,699.76l1.46-5.54c-.4-.01-.81-.25-1.13.1-.62.52-1.34,4.96-1.59,5.14l-3.05-.33c-.1,0-.19-.05-.22-.15-.06-.21.92-3.55,1.1-3.98.36-.87.95-1.84,1.9-2.15v-.13c-1.2-1.18.29-3.56,1.37-4.36,2.07-1.53,5.2.06,7.45.45.15.11.04.11.02.2-.14.45-.55,1.04-.76,1.52-1.42,3.25-2.28,6.7-3.03,10.15l-3.5-.91ZM415.22,690.67c-.25.06-.53-.09-.75-.07-.62.06-1.12,1.15-.77,1.69l.88.2.64-1.81Z"/>
    <path class="st4" d="M488.37,688.97c.95.97,1.92,2.88.85,4.06,1.67.58,2.2,2.78,2.61,4.35.07.27.48,1.84.39,1.93-1.1-.02-2.2.15-3.27.36-.16-.85-.36-1.71-.59-2.55-.14-.52-.61-2.36-.93-2.64-.4-.33-.75-.12-1.2-.09l1.46,5.54-3.45.9c-.82-4.07-1.9-8.12-3.83-11.81,1.01-.28,2.04-.58,3.07-.79,1.84-.37,3.42-.76,4.9.73ZM486.1,690.97c-.29-.27-.86-.26-1.15.03l.68,1.66c.6-.12,1.09-.03.93-.83-.03-.13-.37-.77-.46-.86Z"/>
    <path class="st4" d="M411.85,738.58c.57,3.94,1.6,7.84,3.18,11.49-.03.16-.83.35-1.04.41-.37.11-1.88.53-2.13.41-.19-.09-.48-.55-.69-.68l-2.77-3.64c.49,1.64,1.24,3.2,2,4.73l-2.21.28c-1.91-3.41-3.15-7.26-3.88-11.1,1.17.05,2.32-.42,3.46-.5l3,5.23-1.36-5.82,2.45-.82Z"/>
    <path class="st4" d="M490.66,739.5l-1.26,5.81,2.93-5.25,3.3.53.21.13c-.95,3.76-1.92,7.61-3.95,10.94l-2.13-.26,1.82-4.45-3.27,4.05c-.25.12-1.82-.32-2.2-.43-.18-.05-.94-.25-.97-.39,1.54-3.67,2.51-7.57,3.17-11.49l2.35.83Z"/>
    <path class="st4" d="M377.13,716.21l2.43,6.61.57,4.93.43-2.26.12-.2c.85,1.88,1.97,3.6,3.07,5.34.22,4.2.68,8.39,1.38,12.53-.08.14-.15.02-.22-.05-.39-.39-2.47-2.89-2.58-3.24-.32-2.55-.43-5.11-.66-7.66l-.73,5.18c-.16.04-.18-.05-.26-.15-.15-.2-.88-1.63-.95-1.86-.34-1.08-.53-3.44-.69-4.68-.22-1.76-.33-3.54-.56-5.31v7s-1.36-3.68-1.36-3.68v-12.5Z"/>
    <path class="st4" d="M419.64,735.88c.57.52,1.53,2.55,1.29,3.27-.05.15-2.02,1.23-2.31,1.41-.18.05-.19-.37-.26-.54-.39-.82-1.03-.79-1.43.03-.26.54-.22.97-.15,1.55s.76,3.9,1.07,4.18c1.3.36.77-1.21.74-1.94l-.82.18-.23-1.46,3.69-2.09c.1.83.3,1.66.36,2.5.11,1.72-.1,4.3-1.69,5.3-3.82,2.41-5.4-1.98-5.98-4.98-.67-3.45.33-6.26,3.6-7.77.76-.35,1.52-.22,2.14.34Z"/>
    <path class="st4" d="M484.73,736.88c.84.77,1.5,2.56,1.64,3.67.29,2.21-.75,7.19-2.98,8.25-1.46.69-3.38-.16-4.1-1.53-1.08-2.04-.76-4.52-.35-6.7l3.69,2.09-.28,1.45c-.19.27-.47-.31-.68-.14-.23.5-.56,1.99.33,1.97.52-.01.79-1.4.91-1.87.23-.9.63-2.65.48-3.53-.24-1.44-1.64-1.3-1.71.11l-2.5-1.46c.09-1.54,1.28-4.44,3.26-3.71.42.15,1.98,1.08,2.31,1.38Z"/>
    <path class="st4" d="M402.76,687.76c-2.78,4.06-4.79,8.56-6.36,13.21l-4,2.06.09-2.86c.02-3.08.22-6.17.66-9.21l3.07-1.39c-.17,1.33-.44,2.66-.58,3.99-.03.31-.08.73-.09,1.03,0,.12-.08.2.12.25.83-2.14,1.93-4.16,3.09-6.13l4-.96Z"/>
    <path class="st4" d="M433.85,711.3l-3.71-2.79.54-6.24-2.42-1.64.33-2.23,2.45,1.55.36-2.05-.18-.26-2.89-1.79.76-2.89,6.03,3.88c-.09,1.33-.37,2.66-.52,4-.39,3.48-.61,6.99-.74,10.49Z"/>
    <path class="st4" d="M468.87,697.77l.26,2.26,2.45-1.45.37,2.21-2.45,1.67.51,6.29-3.57,2.56c-.24-.05-.12-1.56-.14-1.86-.13-2.33-.3-4.68-.55-7-.19-1.82-.47-3.63-.71-5.44,1.9-1.49,3.98-2.76,6.08-3.97l.72,2.85-2.98,1.89Z"/>
    <path class="st4" d="M501.52,689.56c.25.39.66.86.91,1.32.74,1.37,1.38,2.82,1.98,4.25.15.02.09-.21.09-.32,0-.47-.03-1.02-.18-1.46l-.46-3.49,3.07,1.38c.46,3.97.73,7.98.66,11.98l-3.95-2.09c-1.56-4.58-3.48-9.1-6.32-13.05.29-.08.7.03,1,.09.67.13,2.29.44,2.84.71.41.2.29.56.37.68Z"/>
    <path class="st4" d="M519.95,718.49l-2.45-4.78c.12-4.53-.57-9.03-.83-13.54,0-.1-.06-.5.09-.5,2.85,4.06,5.23,8.33,5.9,13.33.13.94.26,2.33.19,3.26-.03.33-.04,1.07-.49.96-.09-.02,0-.27-.24-.18.87,2.82.59,5.81.64,8.73l-1.98-5.25c-.15-2.33.35-4.73-.38-6.98l-.46-.77v5.73ZM519.86,708.3v2.05c0,.08.64,1.37.73,1.46.1.12.12-.06.14-.14.18-.78-.13-1.57-.32-2.31l-.54-1.05Z"/>
    <path class="st4" d="M432.49,724.58l-.02,3.84-1.98,1.84.62,10.71c-.9.88-1.99,1.55-3.02,2.25-.1-.06-.11-.12-.14-.23-.22-1.11-.33-2.49-.46-3.64-.18-1.68-.32-3.4-.46-5.09-.02-.24.12-1.3-.23-1.23-.23.14-1.66,1.4-1.77,1.27l-.16-3.57,7.62-6.15Z"/>
    <path class="st4" d="M468.34,725.09c2.25,1.95,4.64,3.75,6.95,5.64l-.17,3.67-2-1.36-.09,2.68-.82,7.59c-.1.02-.18,0-.27-.05-.25-.12-.92-.66-1.2-.87-.34-.24-1.31-.89-1.53-1.13-.08-.09-.17-.15-.17-.28l.45-5.82c-.15-1.46.37-3.43.19-4.82-.02-.17-.04-.19-.13-.32-.28-.37-1.75-1.26-1.85-1.6v-3.42s.12-.42.12-.42c.2.14.37.37.53.51Z"/>
    <path class="st4" d="M391.85,691.76c-.21.72-.43,1.44-.61,2.16-.92,3.8-1.54,7.62-2.05,11.5-1.76,1.65-3.41,3.4-4.83,5.35-.27.37-.48.8-.75,1.15-.06.07,0,.17-.21.11l.22-3.55c.49-.64.92-1.32,1.42-1.95.38-.48,1.32-1.29,1.44-1.83.14-.62.14-1.49.15-2.13l-2.14,2.45c.06-.66.02-1.68.2-2.3.06-.19.58-.78.75-.98.3-.35,1.5-1.46,1.61-1.75.22-.55.1-1.51.34-2.11-.08-.14-.12-.05-.19.01-.61.52-1.09,1.28-1.75,1.75l-1.24,1.55.41-3.45c1.6-1.79,3.36-3.46,5.34-4.84.21-.15,1.8-1.23,1.88-1.16Z"/>
    <path class="st4" d="M410.94,687.31c-2.09,3.64-3.41,7.63-4.45,11.69-2.28.05-4.53.29-6.73.86l.84-3.34,3.42-.68.56-2.07-2.45.36.62-2.04,2.56-.37.82-1.86-3.36.36,1.2-2.61c2.28-.38,4.66-.47,6.98-.3Z"/>
    <path class="st4" d="M514.64,697.15c.77.84.79,1.06.94,2.2.09.67.06,1.37.18,2.04l-3.05-3.27c-.11.76.23,1.51.27,2.27.53.62,2.05,1.87,2.32,2.59.2.55.11,1.61.18,2.23l-2.05-2.36c-.2-.04-.14.09-.13.23.02.43.11,1.3.19,1.72.18.95,2.44,2.79,2.86,3.87l.22,3.55c-1-1.23-1.86-2.56-2.91-3.75-.87-.98-1.88-1.93-2.86-2.8-.55-4.56-1.32-9.1-2.59-13.5l.13-.13c1.16.79,2.37,1.56,3.45,2.46.88.73,2.07,1.83,2.83,2.67Z"/>
    <path class="st4" d="M496.11,687.77l1.2,2.71c-1.06-.24-2.15-.3-3.23-.45-.14-.02-.15-.01-.13.13l.74,1.76,2.61.3.65,2.08-2.45-.36.63,2.13,3.35.62.84,3.34c-2.19-.55-4.45-.85-6.72-.83-.96-4.06-2.3-8.08-4.46-11.67,2.33-.12,4.67-.06,6.99.24Z"/>
    <path class="st4" d="M395.02,739.41l1.02,4.53.82-3.9,2.27.36-.49,3.28c1.2,2.78,2.67,5.43,4.4,7.9-.13.1-2.8-.23-3.04-.37l-2.01-3.17c-.49,1.17.19,1.85.5,2.91l-3.26-1.05c-1.51-3.77-2.39-7.74-3.19-11.72.06-.13.17,0,.25.03.91.4,1.78.93,2.74,1.22Z"/>
    <path class="st4" d="M507.95,738.21c-.68,4.04-1.64,8.05-3.18,11.85l-3.19.97c.26-1.03.95-1.78.5-2.91l-1.96,3.14c-.25.19-2.95.51-3.09.41,1.22-1.77,2.37-3.61,3.32-5.54.29-.59.9-1.74,1.05-2.32.13-.52-.61-3.18-.46-3.32l2.27-.36c.25,1.16.35,2.45.64,3.59.03.13,0,.28.18.32l1.02-4.52,2.89-1.29Z"/>
    <path class="st4" d="M456.67,722.85c.06-.78.54-.2.63-.96l-.44-.22h.55s-.09.72-.09.72l.45.09c-.4-.26-.17-.29-.18-.73.38-.05-.08.46.36.55-.2-.79.14-.52.35-.65.1-.07.3-.92.83-.44.02-.3-.36-.11-.09-.5-.14-.27-.41.15-.36-.23.47-.16.4.04.59.1.28.08.6.06.5-.28l-.36.18.45-.41-.18-.59.09.27h.54c-.04-.4.14-.58.55-.55v-.45s.27,0,.27,0l-.18.23.36.14c-.11.27-.24.54,0,.77l-.27.09.28.09-.23,14.41c-.08.15-.46-.21-.54-.28-.83-.68-1.62-1.41-2.4-2.15l.07-9.27.19-.18-.12-.05-.07-.23.18-.09-.27-.14s-.15.72-.19.84c-.04.15-.06.27-.11.47-.56,2.26-1.25,4.5-1.79,6.77l-1.98-1.66-.38-2.62c.29.07.35-.22.63.09.05-.46-.6-.08-.54-.45.28.09.5-.04.73.18l-.09-.46s-.58.27-.63,0l.46-.04.27-.5-.07.5.34.13c-.17-.1-.21-.84,0-.68l.27.09-.23-.22.05-.37c.2.01,0,.35.31.36.05,0,.29-.07.31-.11.04-.11,0-.23.01-.35-.06,0-.12,0-.18,0l.14-.64c.08.17.05.44.05.64.19,0,.36-.09.55-.09.05-.33-.18-.09-.36-.09l.1-.4-.19-.14h.64s.09-.55.09-.55c.06.29.13.41-.09.63h.27c.06-.29.13-.4-.09-.63.09,0,.18,0,.27,0,0,.09,0,.18,0,.27h.18s.09-.27.09-.27c-.09,0-.18,0-.27,0ZM457.4,722.76l-.54-.27c.05.51.25-.07.54.27ZM455.86,723.76c.05.05.27-.08.27-.14,0-.25-.41,0-.27.14Z"/>
    <path class="st4" d="M466.47,723.42c.08.12.09.74.09.93,0,4.44-.05,9.5-.43,13.91,0,.09-.04.49-.23.41-.9-.9-2.16-1.61-3.05-2.5-.11-.11-.25-.19-.27-.37.11-5.16.23-10.32.18-15.5l3.7,3.12Z"/>
    <path class="st4" d="M437.4,720.31c.03,2.23-.03,4.46,0,6.69,0,.21.1.41.1.63.04,2.74-.01,5.46.13,8.19l-3.5,2.86c-.1-1.41-.12-2.82-.18-4.23-.17-3.64-.33-7.25-.27-10.91l.08-.19,3.64-3.04Z"/>
    <path class="st4" d="M394.13,749.49c-.07.07-1.55-.63-1.76-.74-.36-.18-1.44-.72-1.65-.99-.2-.25-.18-.6-.46-.82-.41-.32-1.12-.63-1.55-1l-.27.36-2.27-1.91c-.21-3.59-.17-7.22-.05-10.82.16-.04.18.07.27.14.43.33.85.9,1.27,1.27.54.49,1.19.88,1.66,1.43,1.11,4.52,2.72,8.91,4.8,13.06ZM389.58,745.12l-1.27-3.73.18,2.93,1.09.8Z"/>
    <path class="st4" d="M513.86,733.67l.1,1.77c-.07,3.02.13,6.05-.14,9.05l-2.36,2-.09-.54c-.4.45-1.11.71-1.55,1.09-.35.3-.39.78-.65.99-.45.36-1.87,1.01-2.46,1.27-.11.05-.73.32-.76.29.33-.89.81-1.71,1.2-2.57,1.51-3.41,2.68-6.98,3.58-10.61l1.7-1.37,1.44-1.36ZM510.4,745.21l.95-.64.21-.25.11-2.84-1.27,3.73Z"/>
    <path class="st4" d="M377.85,713.76c-.06-.23-.37-.29.09-.51l-.1-.49c-.37.1.12.52-.27.45-.03-.3-.01-.5.18-.73h-.36s.18-.36.18-.36l-.18-.04c.26-.17.1-.41.14-.64.41-2.59,1.49-5.03,2.72-7.32.86-1.61,1.87-3.25,3.05-4.63l-.63,7.68c-.17,1.98-.03,4.03-.18,6-.07.88-1.32,2.85-1.78,3.77-.22.44-.42.9-.59,1.37-.15.02-.11-.25-.12-.36-.08-.77-.04-1.81-.03-2.6,0-.95.11-1.91.06-2.86l-.55,1.13c-.12.36-.36,1.21-.36,1.55v1.86h-.36s.18-.36.18-.36h-.36s.36-.36.36-.36h-.36s.18-.36.18-.36l-.36.09c-.04-.31.24-.15.36-.32l-.26-.15.08-.35-.18.27-.16-.13.14-.46c-.02-.17-.43-.05-.35-.27.11-.29.33.09.36.04.03-.27-.22-.27-.45-.28,0-.22-.04-.42-.1-.63.01.03.28.22.36.18l-.23-.27.14-.27c-.22-.04-.34.21-.27.36ZM380.04,708.12c-.47.98-.91,2.02-.82,3.14.01.16-.03.29.14.4.73-.98.81-2.05.77-3.23,0-.11.07-.34-.09-.32Z"/>
    <path class="st4" d="M520.61,725.1c.08.06.26-.02.25.07-.31.07-.2.39-.1.64-.15.07-.21,0-.17.22l.32.09c-.07.24.12.38.14.59s.01.26-.21.23l-.07.18.36.14-.27.23.36.09-.27.14c.19.18.2.73.18,1-.1,2.22-.69,4.6-.92,6.82-.27.52-.54.91-.74,1.44l-.44.52-.82-5.36c-.03,2.63-.32,5.23-.57,7.84-.74.98-1.42,2.06-2.28,2.95-.07.07-.44.48-.51.4.7-4.16,1.19-8.36,1.38-12.57,1.05-1.72,2.22-3.37,2.98-5.25.22-.03.14,0,.19.13.17.49.21,1.27.29,1.8.02.11.02.44.15.44.14-.57.07-1.31.18-1.85.01-.07.16-.05.16-.1.06-.38-.34-1.03.25-1.02.08.01.09.18.15.23Z"/>
    <path class="st4" d="M443.49,711.49c0,.06,0,.12,0,.18l-.73-.09-.05.36.04-.45h-.41s-2.5-2.07-2.5-2.07l.09-2.57c.06-.07.59.39.68.46.31.25.67.57.9.88l1.15.76c.01-.65,0-1.3,0-1.95,0-.13.09-.27.09-.38,0-.16-1.03-1.03-1.25-1.22-.73-.62-1.56-1.15-2.25-1.82l.28-3.37c.12-.16.13-.03.23.05,2.3,1.81,4.57,3.68,6.76,5.62l-.03,2.52h-.36s.04.18.04.18l.23-.09v.27s-.23-.09-.23-.09c-.22.44.26.05.23.45-.46-.17-.69-.04-.55.45h-.44s-.15.64-.15.64c-.35-.05.28-.58-.32-.45l.09.36-.18-.36c-.36.2-.14.68.27.55l-.36.36.36.09h-.45s-.01-.39-.01-.39c-.07-.24-.39-.09-.53-.02.14.26.52-.16.45.23h-.55s.27.36.27.36c-.12,0-.24,0-.36,0,0,.09,0,.18,0,.27h-.18c-.12-.13-.01-.26.18-.27,0-.05,0-.1-.02-.15l-.25-.03-.09.5c.03.23.47-.08.36.18s-.3-.12-.45.05c-.01-.13-.02-.19-.14-.27l-.23.23.36.05ZM445.67,709.03c.13.03.19-.04.27-.13l-.23-.32-.04.45ZM445.31,709.4c-.05-.05-.27.08-.27.14,0,.25.41,0,.27-.14Z"/>
    <path class="st4" d="M404.04,751.67c-.31-.8-.77-1.53-1.12-2.3-.37-.84-.77-1.93-1.11-2.88-.67-1.92-1.23-3.92-1.6-5.9.97.01,1.94.15,2.9,0,.72,3.25,1.67,6.57,3.11,9.57.23.49.63.98.72,1.51h-2.91Z"/>
    <path class="st4" d="M493.13,751.76c.42-1,.96-1.94,1.38-2.94,1.1-2.59,1.81-5.34,2.49-8.07l2.95-.04c-1,3.79-2,7.62-3.95,11.05h-2.86Z"/>
    <path class="st4" d="M440.49,713.21c.36-.02.63-.15.73.36-.23-.19-.43-.21-.73-.18l.09.36c-.08.02-.22-.02-.27,0,.09-.17.09-.38.18-.55Z"/>
    <path class="st4" d="M439.85,714.58s-.21-.3-.46-.18c.12-.12-.02-.38.01-.44.04-.06.33-.05.26-.29-.61.11-.1,1.07-.82.91l.36-.18c.12-.37-.46.03-.45-.23,0-.12.34-.16.45-.14l-.45-.23.18-.09c.08-.25-.19-.23-.19-.28,0-.11.1-.27.1-.44,0-.53-.02-1.06,0-1.59l1.59,1.27v.46c-.01-.17.16-.43.32-.27.12.12-.23.29-.27.36-.15,0-.3,0-.45,0-.03.14.27.13.27.23,0,.11-.29.07-.27.23l.27.09c-.13.05.01.26-.45,0-.02.05,0,.16,0,.18-.09.09-.57.23,0,.36v-.36c.26.08.13.27.09.45.05.04.5-.09.55.18-.18-.09-.5.04-.64,0v.27s-.18,0-.18,0v-.27s.18,0,.18,0Z"/>
    <path class="st4" d="M521.76,729.03s-.07.19-.05.28c.04.12.18.21.2.32.03.17-.22.28.12.35-.42.14-.18.43-.27.77l.18-.64c.17,0,.19.52.18.58-.01.07-.18.05-.18.11-.04.58-.09.89-.34,1.47-.05.11-.05.27-.21.29l.06-1.05c.09-.33-.04-1.07.03-1.44.02-.09.63-.36,0-.66.03-.06.1-.59.28-.4Z"/>
    <path class="st4" d="M520.22,724.85v-.36s.36.09.36.09l.09-.45c.07.54-.03.55-.45.73Z"/>
    <path class="st4" d="M439.58,715.12c-.29.06-.33-.54-.14-.64l.14.64Z"/>
    <path class="st4" d="M439.31,715.12v.27s-.55-.09-.55-.09c-.07-.33.38-.14.55-.18Z"/>
    <path class="st4" d="M442.95,712.49c-.19.1-.29-.44-.27-.45.02-.01.16.03.24-.03.06-.04.05-.16.16-.21.31-.13.54.2.28.22-.04,0-.14-.09-.25-.07-.25.05-.25.34-.16.53Z"/>
    <path class="st4" d="M441.04,713.94c-.03.19.13.53-.18.45l-.09-.45h.27Z"/>
    <polygon class="st4" points="440.04 715.12 440.04 715.58 439.85 715.58 439.85 715.12 440.04 715.12"/>
    <path class="st4" d="M438.76,714.85v-.09s.32-.09.32-.09l.13.13c-.14.22-.25.09-.45.04Z"/>
    <path class="st4" d="M440.67,714.4h-.09c0-.21-.17-.4.04-.54l.04.54Z"/>
    <path class="st4" d="M440.4,714.03c0,.33-.27.33-.27,0h.27Z"/>
    <path class="st4" d="M441.58,713.85h-.54s0-.09,0-.09c.21.03.47-.18.54.09Z"/>
    <rect class="st4" x="453.95" y="724.85" width=".18" height=".27"/>
    <path class="st4" d="M440.67,713.76c-.14-.14.27-.39.27-.14,0,.06-.22.19-.27.14Z"/>
    <polygon class="st4" points="444.49 711.49 444.49 711.67 444.13 711.58 444.13 711.49 444.49 711.49"/>
  </g>
  <g>
    <g>
      <path class="st0" d="M298.65,618.52c0,3.76,1.3,7.12,1.99,8.59h-3.31c-.81-1.47-2.11-4.84-2.11-8.59s1.3-7.15,2.11-8.59h3.31c-.69,1.45-1.99,4.91-1.99,8.59Z"/>
      <path class="st0" d="M311.27,613.44v4.32c0,2.04-1.45,3.51-3.39,3.51h-1.99v5.84h-3.78v-17.19h5.77c1.94,0,3.39,1.47,3.39,3.51ZM306.28,618.01c.98,0,1.2-.64,1.2-1.47v-1.87c0-.79-.22-1.47-1.2-1.47h-.39v4.81h.39Z"/>
      <path class="st0" d="M316.52,609.93v14.02h4.1v3.17h-7.88v-17.19h3.78Z"/>
      <path class="st0" d="M322.1,621.94v-12.01h3.78v12.25c0,.91.2,1.5,1.11,1.5s1.1-.61,1.1-1.52v-12.23h3.78v12.01c0,3.34-1.55,5.18-4.89,5.18s-4.89-1.84-4.89-5.18Z"/>
      <path class="st0" d="M342.5,613.44v1.96c0,1.96-.79,2.75-2.14,3.12,1.35.37,2.14,1.15,2.14,3.12v5.48h-3.78v-5.43c0-.79-.22-1.47-1.2-1.47h-.39v6.9h-3.78v-17.19h5.77c1.94,0,3.39,1.47,3.39,3.51ZM337.52,616.78c.98,0,1.2-.64,1.2-1.47v-.64c0-.79-.22-1.47-1.2-1.47h-.39v3.59h.39Z"/>
      <path class="st0" d="M352.91,613.2h-2.6v13.92h-3.78v-13.92h-2.55v-3.27h8.94v3.27Z"/>
      <path class="st0" d="M362.1,609.93v17.19h-3.78v-17.19h3.78Z"/>
      <path class="st0" d="M368.26,623.68c.79,0,1.3-.61,1.3-1.4,0-1.15-1.6-2.01-2.53-2.6-2.26-1.42-3.41-2.26-3.41-4.94,0-3.17,1.96-4.81,5.13-4.81s4.47,1.72,4.47,4.84v1.18h-3.27v-1.18c0-.79-.49-1.4-1.28-1.4s-1.25.61-1.25,1.4c0,1.06,1.55,1.84,2.43,2.38,1.96,1.28,3.49,2.77,3.49,5.11,0,3.17-1.84,4.86-5.01,4.86s-4.76-1.67-4.76-4.84v-1.4h3.27v1.4c0,.79.64,1.4,1.42,1.4Z"/>
      <path class="st0" d="M381.96,615.63v11.49h-3.22v-17.19h5.77l1.6,8.52,1.57-8.52h5.77v17.19h-3.61v-11.49l-2.14,11.49h-3.61l-2.14-11.49Z"/>
      <path class="st0" d="M399.81,609.93c3.34,0,4.89,1.79,4.89,5.13v6.92c0,3.34-1.6,5.13-4.94,5.13s-4.84-1.79-4.84-5.13v-6.92c0-3.34,1.55-5.13,4.89-5.13ZM399.81,623.68c.91,0,1.1-.59,1.1-1.5v-7.32c0-.91-.2-1.5-1.1-1.5s-1.11.59-1.11,1.5v7.32c0,.91.2,1.5,1.11,1.5Z"/>
      <path class="st0" d="M415.33,613.44v1.96c0,1.96-.79,2.75-2.14,3.12,1.35.37,2.14,1.15,2.14,3.12v5.48h-3.78v-5.43c0-.79-.22-1.47-1.2-1.47h-.39v6.9h-3.78v-17.19h5.77c1.94,0,3.39,1.47,3.39,3.51ZM410.35,616.78c.98,0,1.2-.64,1.2-1.47v-.64c0-.79-.22-1.47-1.2-1.47h-.39v3.59h.39Z"/>
      <path class="st0" d="M424.76,609.93v3.27h-4.17v3.59h3.58v3.27h-3.58v3.78h4.1v3.29h-7.88v-17.19h7.96Z"/>
      <path class="st0" d="M439.1,613.2h-2.6v13.92h-3.78v-13.92h-2.55v-3.27h8.94v3.27Z"/>
      <path class="st0" d="M444.35,609.93v7.17h1.92v-7.17h3.78v17.19h-3.78v-6.75h-1.92v6.75h-3.78v-17.19h3.78Z"/>
      <path class="st0" d="M461.32,627.12h-3.61l-.2-1.18h-2.58l-.2,1.18h-3.22l2.92-17.19h3.98l2.9,17.19ZM457.14,623.61l-.91-5.57-.93,5.57h1.84Z"/>
      <path class="st0" d="M467.16,609.93l2.33,8v-8h3.22v17.19h-4.15l-2.55-8.77v8.77h-3.22v-17.19h4.37Z"/>
      <path class="st0" d="M484.18,609.93h3.78v12.18c-.07,3.54-1.82,5.01-4.96,5.01-3.66,0-4.96-2.46-4.89-5.79l3.76.02c-.02.96.27,2.28,1.18,2.31.76.02,1.13-.52,1.13-1.55v-12.18Z"/>
      <path class="st0" d="M489.43,621.94v-12.01h3.78v12.25c0,.91.2,1.5,1.11,1.5s1.1-.61,1.1-1.52v-12.23h3.78v12.01c0,3.34-1.55,5.18-4.89,5.18s-4.89-1.84-4.89-5.18Z"/>
      <path class="st0" d="M505.37,623.68c.79,0,1.3-.61,1.3-1.4,0-1.15-1.6-2.01-2.53-2.6-2.26-1.42-3.41-2.26-3.41-4.94,0-3.17,1.96-4.81,5.13-4.81s4.47,1.72,4.47,4.84v1.18h-3.27v-1.18c0-.79-.49-1.4-1.28-1.4s-1.25.61-1.25,1.4c0,1.06,1.55,1.84,2.43,2.38,1.96,1.28,3.49,2.77,3.49,5.11,0,3.17-1.84,4.86-5.01,4.86s-4.76-1.67-4.76-4.84v-1.4h3.27v1.4c0,.79.64,1.4,1.42,1.4Z"/>
      <path class="st0" d="M520.86,613.2h-2.6v13.92h-3.78v-13.92h-2.55v-3.27h8.94v3.27Z"/>
      <path class="st0" d="M536.06,627.12h-3.61l-.2-1.18h-2.58l-.2,1.18h-3.22l2.92-17.19h3.98l2.9,17.19ZM531.89,623.61l-.91-5.57-.93,5.57h1.84Z"/>
      <path class="st0" d="M544.68,615.63v11.49h-3.22v-17.19h5.77l1.6,8.52,1.57-8.52h5.77v17.19h-3.61v-11.49l-2.14,11.49h-3.61l-2.14-11.49Z"/>
      <path class="st0" d="M562.53,609.93c3.34,0,4.89,1.79,4.89,5.13v6.92c0,3.34-1.6,5.13-4.94,5.13s-4.84-1.79-4.84-5.13v-6.92c0-3.34,1.55-5.13,4.89-5.13ZM562.53,623.68c.91,0,1.1-.59,1.1-1.5v-7.32c0-.91-.2-1.5-1.1-1.5s-1.11.59-1.11,1.5v7.32c0,.91.2,1.5,1.11,1.5Z"/>
      <path class="st0" d="M577.83,613.2h-2.6v13.92h-3.78v-13.92h-2.55v-3.27h8.94v3.27Z"/>
      <path class="st0" d="M588.24,613.2h-2.6v13.92h-3.78v-13.92h-2.55v-3.27h8.94v3.27Z"/>
      <path class="st0" d="M594.6,609.93c3.34,0,4.89,1.79,4.89,5.13v6.92c0,3.34-1.6,5.13-4.94,5.13s-4.84-1.79-4.84-5.13v-6.92c0-3.34,1.55-5.13,4.89-5.13ZM594.6,623.68c.91,0,1.1-.59,1.1-1.5v-7.32c0-.91-.2-1.5-1.1-1.5s-1.11.59-1.11,1.5v7.32c0,.91.2,1.5,1.11,1.5Z"/>
      <path class="st0" d="M601.72,624.42h3.07l-1.28,5.18h-2.55l.76-5.18ZM604.64,615.63v2.82h-3.02v-2.82h3.02Z"/>
    </g>
    <g>
      <path class="st0" d="M238.07,633.95v17.19h-3.78v-17.19h3.78Z"/>
      <path class="st0" d="M248.48,637.22h-2.6v13.92h-3.78v-13.92h-2.55v-3.27h8.94v3.27Z"/>
      <path class="st0" d="M252.98,633.95v1.5l-.49,3.68h-2.04l-.49-3.68v-1.5h3.02Z"/>
      <path class="st0" d="M259.14,647.7c.79,0,1.3-.61,1.3-1.4,0-1.15-1.6-2.01-2.53-2.6-2.26-1.42-3.41-2.26-3.41-4.94,0-3.17,1.96-4.81,5.13-4.81s4.47,1.72,4.47,4.84v1.18h-3.27v-1.18c0-.79-.49-1.4-1.28-1.4s-1.25.61-1.25,1.4c0,1.06,1.55,1.84,2.43,2.38,1.96,1.28,3.49,2.77,3.49,5.11,0,3.17-1.84,4.86-5.01,4.86s-4.76-1.67-4.76-4.84v-1.4h3.27v1.4c0,.79.64,1.4,1.42,1.4Z"/>
      <path class="st0" d="M279.42,651.14h-3.61l-.2-1.18h-2.58l-.2,1.18h-3.22l2.92-17.19h3.98l2.9,17.19ZM275.25,647.63l-.91-5.57-.93,5.57h1.84Z"/>
      <path class="st0" d="M288.6,633.95v14.02h4.1v3.17h-7.88v-17.19h3.78Z"/>
      <path class="st0" d="M297.96,633.95v17.19h-3.78v-17.19h3.78Z"/>
      <path class="st0" d="M307.39,633.95v3.29h-4.17v3.56h3.58v3.29h-3.58v7.05h-3.78v-17.19h7.96Z"/>
      <path class="st0" d="M316.82,633.95v3.27h-4.17v3.59h3.58v3.27h-3.58v3.78h4.1v3.29h-7.88v-17.19h7.96Z"/>
      <path class="st0" d="M322.98,647.7c.79,0,1.3-.61,1.3-1.4,0-1.15-1.6-2.01-2.53-2.6-2.26-1.42-3.41-2.26-3.41-4.94,0-3.17,1.96-4.81,5.13-4.81s4.47,1.72,4.47,4.84v1.18h-3.27v-1.18c0-.79-.49-1.4-1.28-1.4s-1.25.61-1.25,1.4c0,1.06,1.55,1.84,2.43,2.38,1.96,1.28,3.49,2.77,3.49,5.11,0,3.17-1.84,4.86-5.01,4.86s-4.76-1.67-4.76-4.84v-1.4h3.27v1.4c0,.79.64,1.4,1.42,1.4Z"/>
      <path class="st0" d="M338.47,637.22h-2.6v13.92h-3.78v-13.92h-2.55v-3.27h8.94v3.27Z"/>
      <path class="st0" d="M343.83,633.95l1.06,4.42,1.06-4.42h3.22l-2.68,10.29v6.9h-3.78v-6.9l-2.75-10.29h3.88Z"/>
      <path class="st0" d="M354.41,633.95v14.02h4.1v3.17h-7.88v-17.19h3.78Z"/>
      <path class="st0" d="M367.94,633.95v3.27h-4.17v3.59h3.58v3.27h-3.58v3.78h4.1v3.29h-7.88v-17.19h7.96Z"/>
      <path class="st0" d="M382.28,637.22h-2.6v13.92h-3.78v-13.92h-2.55v-3.27h8.94v3.27Z"/>
      <path class="st0" d="M387.53,633.95v7.17h1.92v-7.17h3.78v17.19h-3.78v-6.75h-1.92v6.75h-3.78v-17.19h3.78Z"/>
      <path class="st0" d="M404.5,651.14h-3.61l-.2-1.18h-2.58l-.2,1.18h-3.22l2.92-17.19h3.98l2.9,17.19ZM400.33,647.63l-.91-5.57-.93,5.57h1.84Z"/>
      <path class="st0" d="M414.91,637.22h-2.6v13.92h-3.78v-13.92h-2.55v-3.27h8.94v3.27Z"/>
      <path class="st0" d="M428.27,633.95v3.27h-4.17v3.59h3.58v3.27h-3.58v3.78h4.1v3.29h-7.88v-17.19h7.96Z"/>
      <path class="st0" d="M434.11,633.95l2.33,8v-8h3.22v17.19h-4.15l-2.55-8.77v8.77h-3.22v-17.19h4.37Z"/>
      <path class="st0" d="M446.02,633.95c3.34,0,4.89,1.6,4.89,4.94v1.2h-3.54v-1.2c0-.91-.32-1.5-1.23-1.5s-1.23.59-1.23,1.5v7.32c0,.91.32,1.5,1.23,1.5s1.23-.61,1.23-1.52v-1.28h3.54v1.28c0,3.34-1.55,4.96-4.89,4.96s-4.89-1.82-4.89-5.16v-6.9c0-3.34,1.55-5.13,4.89-5.13Z"/>
      <path class="st0" d="M457.27,633.95c3.34,0,4.89,1.79,4.89,5.13v6.92c0,3.34-1.6,5.13-4.94,5.13s-4.84-1.79-4.84-5.13v-6.92c0-3.34,1.55-5.13,4.89-5.13ZM457.27,647.7c.91,0,1.1-.59,1.1-1.5v-7.32c0-.91-.2-1.5-1.1-1.5s-1.1.59-1.1,1.5v7.32c0,.91.2,1.5,1.1,1.5Z"/>
      <path class="st0" d="M463.63,645.96v-12.01h3.78v12.25c0,.91.2,1.5,1.1,1.5s1.1-.61,1.1-1.52v-12.23h3.78v12.01c0,3.34-1.55,5.18-4.89,5.18s-4.89-1.84-4.89-5.18Z"/>
      <path class="st0" d="M484.03,637.46v1.96c0,1.96-.79,2.75-2.14,3.12,1.35.37,2.14,1.15,2.14,3.12v5.48h-3.78v-5.43c0-.79-.22-1.47-1.2-1.47h-.39v6.9h-3.78v-17.19h5.77c1.94,0,3.39,1.47,3.39,3.51ZM479.05,640.8c.98,0,1.2-.64,1.2-1.47v-.64c0-.79-.22-1.47-1.2-1.47h-.39v3.59h.39Z"/>
      <path class="st0" d="M495.3,651.14h-3.61l-.2-1.18h-2.58l-.2,1.18h-3.22l2.92-17.19h3.98l2.9,17.19ZM491.13,647.63l-.91-5.57-.93,5.57h1.84Z"/>
      <path class="st0" d="M496.78,646.18v-7.1c0-3.56,1.87-5.13,5.01-5.13,3.34,0,4.76,1.6,4.76,4.94v2.33h-3.54v-2.33c0-.91-.32-1.5-1.23-1.5s-1.23.59-1.23,1.5v7.29c0,.91.2,1.5,1.1,1.5s1.1-.59,1.1-1.5v-.83h-1.3v-3h5.08v8.79h-3.61v-5.79h.64l-.12,2.68c0,.74-.15,1.42-.52,1.96-.44.69-1.23,1.15-2.43,1.15-2.16,0-3.73-1.62-3.73-4.96Z"/>
      <path class="st0" d="M515.98,633.95v3.27h-4.17v3.59h3.58v3.27h-3.58v3.78h4.1v3.29h-7.88v-17.19h7.96Z"/>
      <path class="st0" d="M522.14,647.7c.79,0,1.3-.61,1.3-1.4,0-1.15-1.6-2.01-2.53-2.6-2.26-1.42-3.41-2.26-3.41-4.94,0-3.17,1.96-4.81,5.13-4.81s4.47,1.72,4.47,4.84v1.18h-3.27v-1.18c0-.79-.49-1.4-1.28-1.4s-1.25.61-1.25,1.4c0,1.06,1.55,1.84,2.43,2.38,1.96,1.28,3.49,2.77,3.49,5.11,0,3.17-1.84,4.86-5.01,4.86s-4.76-1.67-4.76-4.84v-1.4h3.27v1.4c0,.79.64,1.4,1.42,1.4Z"/>
      <path class="st0" d="M537.51,633.95c3.34,0,4.89,1.79,4.89,5.13v6.92c0,3.34-1.6,5.13-4.94,5.13s-4.84-1.79-4.84-5.13v-6.92c0-3.34,1.55-5.13,4.89-5.13ZM537.51,647.7c.91,0,1.1-.59,1.1-1.5v-7.32c0-.91-.2-1.5-1.1-1.5s-1.11.59-1.11,1.5v7.32c0,.91.2,1.5,1.11,1.5Z"/>
      <path class="st0" d="M553.03,637.46v4.32c0,2.04-1.45,3.51-3.39,3.51h-1.99v5.84h-3.78v-17.19h5.77c1.94,0,3.39,1.47,3.39,3.51ZM548.04,642.03c.98,0,1.2-.64,1.2-1.47v-1.87c0-.79-.22-1.47-1.2-1.47h-.39v4.81h.39Z"/>
      <path class="st0" d="M562.46,633.95v3.27h-4.17v3.59h3.58v3.27h-3.58v3.78h4.1v3.29h-7.88v-17.19h7.96Z"/>
      <path class="st0" d="M568.3,633.95l2.33,8v-8h3.22v17.19h-4.15l-2.55-8.77v8.77h-3.22v-17.19h4.37Z"/>
      <path class="st0" d="M579.6,641.22v2.65h-4.27v-2.65h4.27Z"/>
      <path class="st0" d="M584.29,639.65v11.49h-3.22v-17.19h5.77l1.6,8.52,1.57-8.52h5.77v17.19h-3.61v-11.49l-2.14,11.49h-3.61l-2.14-11.49Z"/>
      <path class="st0" d="M601.03,633.95v17.19h-3.78v-17.19h3.78Z"/>
      <path class="st0" d="M606.88,633.95l2.33,8v-8h3.22v17.19h-4.15l-2.55-8.77v8.77h-3.22v-17.19h4.37Z"/>
      <path class="st0" d="M623.2,638.69v7.76c0,3.17-1.65,4.69-3.9,4.69h-5.4v-17.19h5.4c2.31,0,3.9,1.6,3.9,4.74ZM618.1,647.87c1.11,0,1.33-.71,1.33-2.09v-6.48c0-1.4-.22-2.09-1.33-2.09h-.42v10.66h.42Z"/>
      <path class="st0" d="M632.63,633.95v3.27h-4.17v3.59h3.59v3.27h-3.59v3.78h4.1v3.29h-7.88v-17.19h7.96Z"/>
      <path class="st0" d="M643.41,638.69v7.76c0,3.17-1.65,4.69-3.9,4.69h-5.4v-17.19h5.4c2.31,0,3.9,1.6,3.9,4.74ZM638.31,647.87c1.11,0,1.33-.71,1.33-2.09v-6.48c0-1.4-.22-2.09-1.33-2.09h-.42v10.66h.42Z"/>
      <path class="st0" d="M649.26,633.95l2.33,8v-8h3.22v17.19h-4.15l-2.55-8.77v8.77h-3.22v-17.19h4.37Z"/>
      <path class="st0" d="M664.23,633.95v3.27h-4.17v3.59h3.59v3.27h-3.59v3.78h4.1v3.29h-7.88v-17.19h7.96Z"/>
      <path class="st0" d="M670.4,647.7c.79,0,1.3-.61,1.3-1.4,0-1.15-1.6-2.01-2.53-2.6-2.26-1.42-3.41-2.26-3.41-4.94,0-3.17,1.96-4.81,5.13-4.81s4.47,1.72,4.47,4.84v1.18h-3.27v-1.18c0-.79-.49-1.4-1.28-1.4s-1.25.61-1.25,1.4c0,1.06,1.55,1.84,2.43,2.38,1.96,1.28,3.49,2.77,3.49,5.11,0,3.17-1.84,4.86-5.01,4.86s-4.76-1.67-4.76-4.84v-1.4h3.27v1.4c0,.79.64,1.4,1.42,1.4Z"/>
      <path class="st0" d="M681.64,647.7c.79,0,1.3-.61,1.3-1.4,0-1.15-1.6-2.01-2.53-2.6-2.26-1.42-3.41-2.26-3.41-4.94,0-3.17,1.96-4.81,5.13-4.81s4.47,1.72,4.47,4.84v1.18h-3.27v-1.18c0-.79-.49-1.4-1.28-1.4s-1.25.61-1.25,1.4c0,1.06,1.55,1.84,2.43,2.38,1.96,1.28,3.49,2.77,3.49,5.11,0,3.17-1.84,4.86-5.01,4.86s-4.76-1.67-4.76-4.84v-1.4h3.27v1.4c0,.79.64,1.4,1.42,1.4Z"/>
      <path class="st0" d="M692.03,648.44l-1.28,5.18h-2.55l.76-5.18h3.07Z"/>
    </g>
    <g>
      <path class="st0" d="M175.79,674.78h-3.61l-.2-1.18h-2.58l-.2,1.18h-3.22l2.92-17.19h3.98l2.9,17.19ZM171.62,671.27l-.91-5.57-.93,5.57h1.84Z"/>
      <path class="st0" d="M182.15,657.6c3.34,0,4.89,1.6,4.89,4.94v1.2h-3.54v-1.2c0-.91-.32-1.5-1.23-1.5s-1.23.59-1.23,1.5v7.32c0,.91.32,1.5,1.23,1.5s1.23-.61,1.23-1.52v-1.28h3.54v1.28c0,3.34-1.55,4.96-4.89,4.96s-4.89-1.82-4.89-5.16v-6.9c0-3.34,1.55-5.13,4.89-5.13Z"/>
      <path class="st0" d="M193.4,657.6c3.34,0,4.89,1.6,4.89,4.94v1.2h-3.54v-1.2c0-.91-.32-1.5-1.23-1.5s-1.23.59-1.23,1.5v7.32c0,.91.32,1.5,1.23,1.5s1.23-.61,1.23-1.52v-1.28h3.54v1.28c0,3.34-1.55,4.96-4.89,4.96s-4.89-1.82-4.89-5.16v-6.9c0-3.34,1.55-5.13,4.89-5.13Z"/>
      <path class="st0" d="M207.71,657.6v3.27h-4.17v3.59h3.58v3.27h-3.58v3.78h4.1v3.29h-7.88v-17.19h7.96Z"/>
      <path class="st0" d="M218.34,661.11v4.32c0,2.04-1.45,3.51-3.39,3.51h-1.99v5.84h-3.78v-17.19h5.77c1.94,0,3.39,1.47,3.39,3.51ZM213.36,665.67c.98,0,1.2-.64,1.2-1.47v-1.87c0-.79-.22-1.47-1.2-1.47h-.39v4.81h.39Z"/>
      <path class="st0" d="M228.75,660.86h-2.6v13.92h-3.78v-13.92h-2.55v-3.27h8.94v3.27Z"/>
      <path class="st0" d="M240.02,674.78h-3.61l-.2-1.18h-2.58l-.2,1.18h-3.22l2.92-17.19h3.98l2.9,17.19ZM235.85,671.27l-.91-5.57-.93,5.57h1.84Z"/>
      <path class="st0" d="M245.87,657.6l2.33,8v-8h3.22v17.19h-4.15l-2.55-8.77v8.77h-3.22v-17.19h4.37Z"/>
      <path class="st0" d="M257.78,657.6c3.34,0,4.89,1.6,4.89,4.94v1.2h-3.54v-1.2c0-.91-.32-1.5-1.23-1.5s-1.23.59-1.23,1.5v7.32c0,.91.32,1.5,1.23,1.5s1.23-.61,1.23-1.52v-1.28h3.54v1.28c0,3.34-1.55,4.96-4.89,4.96s-4.89-1.82-4.89-5.16v-6.9c0-3.34,1.55-5.13,4.89-5.13Z"/>
      <path class="st0" d="M272.09,657.6v3.27h-4.17v3.59h3.58v3.27h-3.58v3.78h4.1v3.29h-7.88v-17.19h7.96Z"/>
      <path class="st0" d="M277.4,672.08l-1.28,5.18h-2.55l.76-5.18h3.07Z"/>
      <path class="st0" d="M295.89,661.11v4.32c0,2.04-1.45,3.51-3.39,3.51h-1.99v5.84h-3.78v-17.19h5.77c1.94,0,3.39,1.47,3.39,3.51ZM290.9,665.67c.98,0,1.2-.64,1.2-1.47v-1.87c0-.79-.22-1.47-1.2-1.47h-.39v4.81h.39Z"/>
      <path class="st0" d="M302.25,657.6c3.34,0,4.89,1.79,4.89,5.13v6.92c0,3.34-1.6,5.13-4.94,5.13s-4.84-1.79-4.84-5.13v-6.92c0-3.34,1.55-5.13,4.89-5.13ZM302.25,671.34c.91,0,1.1-.59,1.1-1.5v-7.32c0-.91-.2-1.5-1.1-1.5s-1.11.59-1.11,1.5v7.32c0,.91.2,1.5,1.11,1.5Z"/>
      <path class="st0" d="M313.29,671.34c.79,0,1.3-.61,1.3-1.4,0-1.15-1.6-2.01-2.53-2.6-2.26-1.42-3.41-2.26-3.41-4.94,0-3.17,1.96-4.81,5.13-4.81s4.47,1.72,4.47,4.84v1.18h-3.27v-1.18c0-.79-.49-1.4-1.28-1.4s-1.25.61-1.25,1.4c0,1.06,1.55,1.84,2.43,2.38,1.96,1.28,3.49,2.77,3.49,5.11,0,3.17-1.84,4.86-5.01,4.86s-4.76-1.67-4.76-4.84v-1.4h3.27v1.4c0,.79.64,1.4,1.42,1.4Z"/>
      <path class="st0" d="M323.63,657.6v17.19h-3.78v-17.19h3.78Z"/>
      <path class="st0" d="M334.04,660.86h-2.6v13.92h-3.78v-13.92h-2.55v-3.27h8.94v3.27Z"/>
      <path class="st0" d="M339.3,657.6v17.19h-3.78v-17.19h3.78Z"/>
      <path class="st0" d="M340.77,657.6h3.61l1.4,9.11,1.42-9.11h3.22l-2.7,17.19h-4.22l-2.73-17.19Z"/>
      <path class="st0" d="M359.85,657.6v3.27h-4.17v3.59h3.58v3.27h-3.58v3.78h4.1v3.29h-7.88v-17.19h7.96Z"/>
      <path class="st0" d="M369.94,671.34c.79,0,1.3-.61,1.3-1.4,0-1.15-1.6-2.01-2.53-2.6-2.26-1.42-3.41-2.26-3.41-4.94,0-3.17,1.96-4.81,5.13-4.81s4.47,1.72,4.47,4.84v1.18h-3.27v-1.18c0-.79-.49-1.4-1.28-1.4s-1.25.61-1.25,1.4c0,1.06,1.55,1.84,2.43,2.38,1.96,1.28,3.49,2.77,3.49,5.11,0,3.17-1.84,4.86-5.01,4.86s-4.76-1.67-4.76-4.84v-1.4h3.27v1.4c0,.79.64,1.4,1.42,1.4Z"/>
      <path class="st0" d="M381.38,657.6c3.34,0,4.89,1.79,4.89,5.13v6.92c0,3.34-1.6,5.13-4.94,5.13s-4.84-1.79-4.84-5.13v-6.92c0-3.34,1.55-5.13,4.89-5.13ZM381.38,671.34c.91,0,1.1-.59,1.1-1.5v-7.32c0-.91-.2-1.5-1.1-1.5s-1.11.59-1.11,1.5v7.32c0,.91.2,1.5,1.11,1.5Z"/>
      <path class="st0" d="M392.63,657.6c3.34,0,4.89,1.6,4.89,4.94v1.2h-3.54v-1.2c0-.91-.32-1.5-1.23-1.5s-1.23.59-1.23,1.5v7.32c0,.91.32,1.5,1.23,1.5s1.23-.61,1.23-1.52v-1.28h3.54v1.28c0,3.34-1.55,4.96-4.89,4.96s-4.89-1.82-4.89-5.16v-6.9c0-3.34,1.55-5.13,4.89-5.13Z"/>
      <path class="st0" d="M402.77,657.6v17.19h-3.78v-17.19h3.78Z"/>
      <path class="st0" d="M414.04,674.78h-3.61l-.2-1.18h-2.58l-.2,1.18h-3.22l2.92-17.19h3.98l2.9,17.19ZM409.87,671.27l-.91-5.57-.93,5.57h1.84Z"/>
      <path class="st0" d="M419.3,657.6v14.02h4.1v3.17h-7.88v-17.19h3.78Z"/>
      <path class="st0" d="M432.58,657.6v17.19h-3.78v-17.19h3.78Z"/>
      <path class="st0" d="M438.42,657.6l2.33,8v-8h3.22v17.19h-4.15l-2.55-8.77v8.77h-3.22v-17.19h4.37Z"/>
      <path class="st0" d="M454.38,660.86h-2.6v13.92h-3.78v-13.92h-2.55v-3.27h8.94v3.27Z"/>
      <path class="st0" d="M463.81,657.6v3.27h-4.17v3.59h3.58v3.27h-3.58v3.78h4.1v3.29h-7.88v-17.19h7.96Z"/>
      <path class="st0" d="M474.44,661.11v1.96c0,1.96-.79,2.75-2.14,3.12,1.35.37,2.14,1.15,2.14,3.12v5.48h-3.78v-5.43c0-.79-.22-1.47-1.2-1.47h-.39v6.9h-3.78v-17.19h5.77c1.94,0,3.39,1.47,3.39,3.51ZM469.46,664.45c.98,0,1.2-.64,1.2-1.47v-.64c0-.79-.22-1.47-1.2-1.47h-.39v3.59h.39Z"/>
      <path class="st0" d="M485.71,674.78h-3.61l-.2-1.18h-2.58l-.2,1.18h-3.22l2.92-17.19h3.98l2.9,17.19ZM481.54,671.27l-.91-5.57-.93,5.57h1.84Z"/>
      <path class="st0" d="M492.07,657.6c3.34,0,4.89,1.6,4.89,4.94v1.2h-3.54v-1.2c0-.91-.32-1.5-1.23-1.5s-1.23.59-1.23,1.5v7.32c0,.91.32,1.5,1.23,1.5s1.23-.61,1.23-1.52v-1.28h3.54v1.28c0,3.34-1.55,4.96-4.89,4.96s-4.89-1.82-4.89-5.16v-6.9c0-3.34,1.55-5.13,4.89-5.13Z"/>
      <path class="st0" d="M507.37,660.86h-2.6v13.92h-3.78v-13.92h-2.55v-3.27h8.94v3.27Z"/>
      <path class="st0" d="M512.63,657.6v17.19h-3.78v-17.19h3.78Z"/>
      <path class="st0" d="M518.98,657.6c3.34,0,4.89,1.79,4.89,5.13v6.92c0,3.34-1.6,5.13-4.94,5.13s-4.84-1.79-4.84-5.13v-6.92c0-3.34,1.55-5.13,4.89-5.13ZM518.98,671.34c.91,0,1.1-.59,1.1-1.5v-7.32c0-.91-.2-1.5-1.1-1.5s-1.11.59-1.11,1.5v7.32c0,.91.2,1.5,1.11,1.5Z"/>
      <path class="st0" d="M529.72,657.6l2.33,8v-8h3.22v17.19h-4.15l-2.55-8.77v8.77h-3.22v-17.19h4.37Z"/>
      <path class="st0" d="M541.43,671.34c.79,0,1.3-.61,1.3-1.4,0-1.15-1.6-2.01-2.53-2.6-2.26-1.42-3.41-2.26-3.41-4.94,0-3.17,1.96-4.81,5.13-4.81s4.47,1.72,4.47,4.84v1.18h-3.27v-1.18c0-.79-.49-1.4-1.28-1.4s-1.25.61-1.25,1.4c0,1.06,1.55,1.84,2.43,2.38,1.96,1.28,3.49,2.77,3.49,5.11,0,3.17-1.84,4.86-5.01,4.86s-4.76-1.67-4.76-4.84v-1.4h3.27v1.4c0,.79.64,1.4,1.42,1.4Z"/>
      <path class="st0" d="M561.71,674.78h-3.61l-.2-1.18h-2.58l-.2,1.18h-3.22l2.92-17.19h3.98l2.9,17.19ZM557.54,671.27l-.91-5.57-.93,5.57h1.84Z"/>
      <path class="st0" d="M567.55,657.6l2.33,8v-8h3.22v17.19h-4.15l-2.55-8.77v8.77h-3.22v-17.19h4.37Z"/>
      <path class="st0" d="M583.88,662.33v7.76c0,3.17-1.64,4.69-3.9,4.69h-5.4v-17.19h5.4c2.31,0,3.9,1.6,3.9,4.74ZM578.77,671.52c1.1,0,1.33-.71,1.33-2.09v-6.48c0-1.4-.22-2.09-1.33-2.09h-.42v10.66h.42Z"/>
      <path class="st0" d="M598.22,660.86h-2.6v13.92h-3.78v-13.92h-2.55v-3.27h8.94v3.27Z"/>
      <path class="st0" d="M608.85,661.11v1.96c0,1.96-.79,2.75-2.14,3.12,1.35.37,2.14,1.15,2.14,3.12v5.48h-3.78v-5.43c0-.79-.22-1.47-1.2-1.47h-.39v6.9h-3.78v-17.19h5.77c1.94,0,3.39,1.47,3.39,3.51ZM603.87,664.45c.98,0,1.2-.64,1.2-1.47v-.64c0-.79-.22-1.47-1.2-1.47h-.39v3.59h.39Z"/>
      <path class="st0" d="M620.12,674.78h-3.61l-.2-1.18h-2.58l-.2,1.18h-3.22l2.92-17.19h3.98l2.9,17.19ZM615.95,671.27l-.91-5.57-.93,5.57h1.84Z"/>
      <path class="st0" d="M625.97,657.6l2.33,8v-8h3.22v17.19h-4.15l-2.55-8.77v8.77h-3.22v-17.19h4.37Z"/>
      <path class="st0" d="M637.68,671.34c.79,0,1.3-.61,1.3-1.4,0-1.15-1.6-2.01-2.53-2.6-2.26-1.42-3.41-2.26-3.41-4.94,0-3.17,1.96-4.81,5.13-4.81s4.47,1.72,4.47,4.84v1.18h-3.27v-1.18c0-.79-.49-1.4-1.28-1.4s-1.25.61-1.25,1.4c0,1.06,1.55,1.84,2.43,2.38,1.96,1.28,3.49,2.77,3.49,5.11,0,3.17-1.84,4.86-5.01,4.86s-4.76-1.67-4.76-4.84v-1.4h3.27v1.4c0,.79.64,1.4,1.42,1.4Z"/>
      <path class="st0" d="M649.12,657.6c3.34,0,4.89,1.6,4.89,4.94v1.2h-3.54v-1.2c0-.91-.32-1.5-1.23-1.5s-1.23.59-1.23,1.5v7.32c0,.91.32,1.5,1.23,1.5s1.23-.61,1.23-1.52v-1.28h3.54v1.28c0,3.34-1.55,4.96-4.89,4.96s-4.89-1.82-4.89-5.16v-6.9c0-3.34,1.55-5.13,4.89-5.13Z"/>
      <path class="st0" d="M663.44,657.6v3.27h-4.17v3.59h3.58v3.27h-3.58v3.78h4.1v3.29h-7.88v-17.19h7.96Z"/>
      <path class="st0" d="M669.28,657.6l2.33,8v-8h3.22v17.19h-4.15l-2.55-8.77v8.77h-3.22v-17.19h4.37Z"/>
      <path class="st0" d="M685.61,662.33v7.76c0,3.17-1.64,4.69-3.9,4.69h-5.4v-17.19h5.4c2.31,0,3.9,1.6,3.9,4.74ZM680.5,671.52c1.11,0,1.33-.71,1.33-2.09v-6.48c0-1.4-.22-2.09-1.33-2.09h-.42v10.66h.42Z"/>
      <path class="st0" d="M695.04,657.6v3.27h-4.17v3.59h3.58v3.27h-3.58v3.78h4.1v3.29h-7.88v-17.19h7.96Z"/>
      <path class="st0" d="M700.88,657.6l2.33,8v-8h3.22v17.19h-4.15l-2.55-8.77v8.77h-3.22v-17.19h4.37Z"/>
      <path class="st0" d="M712.79,657.6c3.34,0,4.89,1.6,4.89,4.94v1.2h-3.54v-1.2c0-.91-.32-1.5-1.23-1.5s-1.23.59-1.23,1.5v7.32c0,.91.32,1.5,1.23,1.5s1.23-.61,1.23-1.52v-1.28h3.54v1.28c0,3.34-1.55,4.96-4.89,4.96s-4.89-1.82-4.89-5.16v-6.9c0-3.34,1.55-5.13,4.89-5.13Z"/>
      <path class="st0" d="M727.11,657.6v3.27h-4.17v3.59h3.59v3.27h-3.59v3.78h4.1v3.29h-7.88v-17.19h7.95Z"/>
      <path class="st0" d="M734.01,666.19c0,3.76-1.3,7.12-2.11,8.59h-3.31c.69-1.47,1.99-4.84,1.99-8.59s-1.3-7.15-1.99-8.59h3.31c.81,1.45,2.11,4.91,2.11,8.59Z"/>
    </g>
  </g>
  <g>
    <g>
      <path class="st0" d="M200.34,301.11h-6.4l-.35-2.09h-4.57l-.35,2.09h-5.7l5.18-30.48h7.05l5.14,30.48ZM192.93,294.88l-1.61-9.88-1.65,9.88h3.27Z"/>
      <path class="st0" d="M210.23,270.63l4.14,14.2v-14.2h5.7v30.48h-7.36l-4.53-15.55v15.55h-5.7v-30.48h7.75Z"/>
      <path class="st0" d="M239.01,279.03v13.76c0,5.62-2.92,8.32-6.92,8.32h-9.58v-30.48h9.58c4.09,0,6.92,2.83,6.92,8.4ZM229.96,295.32c1.96,0,2.35-1.26,2.35-3.7v-11.5c0-2.48-.39-3.7-2.35-3.7h-.74v18.9h.74Z"/>
      <path class="st0" d="M264.45,276.42h-4.62v24.69h-6.71v-24.69h-4.53v-5.79h15.85v5.79Z"/>
      <path class="st0" d="M282.83,276.86v3.48c0,3.48-1.39,4.88-3.79,5.53,2.39.65,3.79,2.05,3.79,5.53v9.71h-6.71v-9.62c0-1.39-.39-2.61-2.13-2.61h-.7v12.24h-6.71v-30.48h10.23c3.44,0,6.01,2.61,6.01,6.23ZM274,282.78c1.74,0,2.13-1.13,2.13-2.61v-1.13c0-1.39-.39-2.61-2.13-2.61h-.7v6.36h.7Z"/>
      <path class="st0" d="M302.36,301.11h-6.4l-.35-2.09h-4.57l-.35,2.09h-5.7l5.18-30.48h7.05l5.14,30.48ZM294.95,294.88l-1.61-9.88-1.65,9.88h3.27Z"/>
      <path class="st0" d="M312.26,270.63l4.14,14.2v-14.2h5.7v30.48h-7.36l-4.53-15.55v15.55h-5.7v-30.48h7.75Z"/>
      <path class="st0" d="M332.56,295.02c1.39,0,2.31-1.09,2.31-2.48,0-2.05-2.83-3.57-4.49-4.62-4.01-2.53-6.05-4.01-6.05-8.75,0-5.62,3.48-8.54,9.1-8.54s7.93,3.05,7.93,8.58v2.09h-5.79v-2.09c0-1.39-.87-2.48-2.26-2.48s-2.22,1.09-2.22,2.48c0,1.87,2.74,3.27,4.31,4.22,3.48,2.26,6.18,4.92,6.18,9.06,0,5.62-3.27,8.62-8.88,8.62s-8.45-2.96-8.45-8.58v-2.48h5.79v2.48c0,1.39,1.13,2.48,2.53,2.48Z"/>
      <path class="st0" d="M352.39,270.63c5.92,0,8.67,2.83,8.67,8.75v2.13h-6.27v-2.13c0-1.61-.57-2.66-2.18-2.66s-2.18,1.05-2.18,2.66v12.98c0,1.61.57,2.66,2.18,2.66s2.18-1.09,2.18-2.7v-2.26h6.27v2.26c0,5.92-2.74,8.8-8.67,8.8s-8.67-3.22-8.67-9.14v-12.24c0-5.92,2.74-9.1,8.67-9.1Z"/>
      <path class="st0" d="M377.31,270.63v5.79h-7.4v6.36h6.36v5.79h-6.36v6.71h7.27v5.84h-13.98v-30.48h14.11Z"/>
      <path class="st0" d="M387.21,270.63l4.14,14.2v-14.2h5.7v30.48h-7.36l-4.53-15.55v15.55h-5.7v-30.48h7.75Z"/>
      <path class="st0" d="M415.99,279.03v13.76c0,5.62-2.92,8.32-6.92,8.32h-9.58v-30.48h9.58c4.09,0,6.92,2.83,6.92,8.4ZM406.93,295.32c1.96,0,2.35-1.26,2.35-3.7v-11.5c0-2.48-.39-3.7-2.35-3.7h-.74v18.9h.74Z"/>
      <path class="st0" d="M432.41,270.63v5.79h-7.4v6.36h6.36v5.79h-6.36v6.71h7.27v5.84h-13.98v-30.48h14.11Z"/>
      <path class="st0" d="M442.31,270.63l4.14,14.2v-14.2h5.7v30.48h-7.36l-4.53-15.55v15.55h-5.7v-30.48h7.75Z"/>
      <path class="st0" d="M470.15,276.42h-4.62v24.69h-6.71v-24.69h-4.53v-5.79h15.85v5.79Z"/>
      <path class="st0" d="M487.41,301.11h-6.4l-.35-2.09h-4.57l-.35,2.09h-5.7l5.18-30.48h7.05l5.14,30.48ZM480.01,294.88l-1.61-9.88-1.65,9.88h3.27Z"/>
      <path class="st0" d="M496.27,270.63v24.86h7.27v5.62h-13.98v-30.48h6.71Z"/>
      <path class="st0" d="M527.23,270.63v5.79h-7.4v6.36h6.36v5.79h-6.36v6.71h7.27v5.84h-13.98v-30.48h14.11Z"/>
      <path class="st0" d="M545.23,276.42h-4.62v24.69h-6.71v-24.69h-4.53v-5.79h15.85v5.79Z"/>
      <path class="st0" d="M554.08,270.63v12.72h3.4v-12.72h6.71v30.48h-6.71v-11.97h-3.4v11.97h-6.71v-30.48h6.71Z"/>
      <path class="st0" d="M573.32,270.63v30.48h-6.71v-30.48h6.71Z"/>
      <path class="st0" d="M584.29,270.63c5.92,0,8.67,2.83,8.67,8.75v2.13h-6.27v-2.13c0-1.61-.57-2.66-2.18-2.66s-2.18,1.05-2.18,2.66v12.98c0,1.61.57,2.66,2.18,2.66s2.18-1.09,2.18-2.7v-2.26h6.27v2.26c0,5.92-2.74,8.8-8.67,8.8s-8.67-3.22-8.67-9.14v-12.24c0-5.92,2.74-9.1,8.67-9.1Z"/>
      <path class="st0" d="M611.88,301.11h-6.4l-.35-2.09h-4.57l-.35,2.09h-5.7l5.18-30.48h7.05l5.14,30.48ZM604.47,294.88l-1.61-9.88-1.65,9.88h3.27Z"/>
      <path class="st0" d="M620.73,270.63v24.86h7.27v5.62h-13.98v-30.48h6.71Z"/>
      <path class="st0" d="M646.25,270.63c5.92,0,8.67,2.83,8.67,8.75v2.13h-6.27v-2.13c0-1.61-.57-2.66-2.18-2.66s-2.18,1.05-2.18,2.66v12.98c0,1.61.57,2.66,2.18,2.66s2.18-1.09,2.18-2.7v-2.26h6.27v2.26c0,5.92-2.74,8.8-8.67,8.8s-8.67-3.22-8.67-9.14v-12.24c0-5.92,2.74-9.1,8.67-9.1Z"/>
      <path class="st0" d="M665.73,270.63c5.92,0,8.67,3.18,8.67,9.1v12.28c0,5.92-2.83,9.1-8.75,9.1s-8.58-3.18-8.58-9.1v-12.28c0-5.92,2.74-9.1,8.67-9.1ZM665.73,295.02c1.61,0,1.96-1.04,1.96-2.66v-12.98c0-1.61-.35-2.66-1.96-2.66s-1.96,1.05-1.96,2.66v12.98c0,1.61.35,2.66,1.96,2.66Z"/>
      <path class="st0" d="M693.18,279.03v13.76c0,5.62-2.92,8.32-6.92,8.32h-9.58v-30.48h9.58c4.09,0,6.92,2.83,6.92,8.4ZM684.12,295.32c1.96,0,2.35-1.26,2.35-3.7v-11.5c0-2.48-.39-3.7-2.35-3.7h-.74v18.9h.74Z"/>
      <path class="st0" d="M709.6,270.63v5.79h-7.4v6.36h6.36v5.79h-6.36v6.71h7.27v5.84h-13.98v-30.48h14.11Z"/>
      <path class="st0" d="M717.04,280.73v5.01h-5.36v-5.01h5.36ZM711.68,296.1h5.36v5.01h-5.36v-5.01Z"/>
    </g>
    <g>
      <path class="st0" d="M141.03,234.18v7.66c0,3.61-2.57,6.23-6.01,6.23h-3.53v10.36h-6.71v-30.48h10.23c3.44,0,6.01,2.61,6.01,6.23ZM132.19,242.28c1.74,0,2.13-1.13,2.13-2.61v-3.31c0-1.39-.39-2.61-2.13-2.61h-.7v8.53h.7Z"/>
      <path class="st0" d="M149.88,227.96v24.86h7.27v5.62h-13.98v-30.48h6.71Z"/>
      <path class="st0" d="M173.41,227.96v5.79h-7.4v6.36h6.36v5.79h-6.36v6.71h7.27v5.84h-13.98v-30.48h14.11Z"/>
      <path class="st0" d="M192.86,258.44h-6.4l-.35-2.09h-4.57l-.35,2.09h-5.7l5.18-30.48h7.05l5.14,30.48ZM185.46,252.21l-1.61-9.88-1.65,9.88h3.27Z"/>
      <path class="st0" d="M202.73,252.34c1.39,0,2.31-1.09,2.31-2.48,0-2.05-2.83-3.57-4.49-4.62-4.01-2.53-6.05-4.01-6.05-8.75,0-5.62,3.48-8.54,9.1-8.54s7.93,3.05,7.93,8.58v2.09h-5.79v-2.09c0-1.39-.87-2.48-2.26-2.48s-2.22,1.09-2.22,2.48c0,1.87,2.74,3.27,4.31,4.22,3.48,2.26,6.18,4.92,6.18,9.06,0,5.62-3.27,8.62-8.88,8.62s-8.45-2.96-8.45-8.58v-2.48h5.79v2.48c0,1.39,1.13,2.48,2.53,2.48Z"/>
      <path class="st0" d="M228,227.96v5.79h-7.4v6.36h6.36v5.79h-6.36v6.71h7.27v5.84h-13.98v-30.48h14.11Z"/>
      <path class="st0" d="M254.96,258.44h-6.4l-.35-2.09h-4.57l-.35,2.09h-5.7l5.18-30.48h7.05l5.14,30.48ZM247.56,252.21l-1.61-9.88-1.65,9.88h3.27Z"/>
      <path class="st0" d="M273.35,234.18v3.48c0,3.48-1.39,4.88-3.79,5.53,2.39.65,3.79,2.05,3.79,5.53v3.48c0,3.75-2.39,6.23-5.75,6.23h-10.49v-30.48h10.23c3.44,0,6.01,2.61,6.01,6.23ZM264.51,240.11c1.74,0,2.13-1.13,2.13-2.61v-1.13c0-1.39-.39-2.61-2.13-2.61h-.7v6.36h.7ZM264.51,252.65c1.74,0,2.13-1.13,2.13-2.61v-1.22c0-1.39-.39-2.61-2.13-2.61h-.7v6.44h.7Z"/>
      <path class="st0" d="M282.38,227.96v30.48h-6.71v-30.48h6.71Z"/>
      <path class="st0" d="M301.29,236.36v13.76c0,5.62-2.92,8.32-6.92,8.32h-9.58v-30.48h9.58c4.09,0,6.92,2.83,6.92,8.4ZM292.23,252.65c1.96,0,2.35-1.26,2.35-3.7v-11.5c0-2.48-.39-3.7-2.35-3.7h-.74v18.9h.74Z"/>
      <path class="st0" d="M317.72,227.96v5.79h-7.4v6.36h6.36v5.79h-6.36v6.71h7.27v5.84h-13.98v-30.48h14.11Z"/>
      <path class="st0" d="M343.54,234.18v3.48c0,3.48-1.39,4.88-3.79,5.53,2.39.65,3.79,2.05,3.79,5.53v3.48c0,3.75-2.39,6.23-5.75,6.23h-10.49v-30.48h10.23c3.44,0,6.01,2.61,6.01,6.23ZM334.7,240.11c1.74,0,2.13-1.13,2.13-2.61v-1.13c0-1.39-.39-2.61-2.13-2.61h-.7v6.36h.7ZM334.7,252.65c1.74,0,2.13-1.13,2.13-2.61v-1.22c0-1.39-.39-2.61-2.13-2.61h-.7v6.44h.7Z"/>
      <path class="st0" d="M351.95,227.96l1.87,7.84,1.87-7.84h5.7l-4.75,18.25v12.24h-6.71v-12.24l-4.88-18.25h6.88Z"/>
      <path class="st0" d="M379.64,227.96c5.92,0,8.67,3.18,8.67,9.1v12.28c0,5.92-2.83,9.1-8.75,9.1s-8.58-3.18-8.58-9.1v-12.28c0-5.92,2.74-9.1,8.67-9.1ZM379.64,252.34c1.61,0,1.96-1.04,1.96-2.66v-12.98c0-1.61-.35-2.66-1.96-2.66s-1.96,1.04-1.96,2.66v12.98c0,1.61.35,2.66,1.96,2.66Z"/>
      <path class="st0" d="M390.55,249.25v-21.29h6.71v21.73c0,1.61.35,2.66,1.96,2.66s1.96-1.09,1.96-2.7v-21.69h6.71v21.29c0,5.92-2.74,9.19-8.67,9.19s-8.67-3.27-8.67-9.19Z"/>
      <path class="st0" d="M426.52,234.18v3.48c0,3.48-1.39,4.88-3.79,5.53,2.39.65,3.79,2.05,3.79,5.53v9.71h-6.71v-9.62c0-1.39-.39-2.61-2.13-2.61h-.7v12.24h-6.71v-30.48h10.23c3.44,0,6.01,2.61,6.01,6.23ZM417.68,240.11c1.74,0,2.13-1.13,2.13-2.61v-1.13c0-1.39-.39-2.61-2.13-2.61h-.7v6.36h.7Z"/>
      <path class="st0" d="M659.61,238.06v20.38h-5.7v-30.48h10.23l2.83,15.11,2.79-15.11h10.23v30.48h-6.4v-20.38l-3.79,20.38h-6.4l-3.79-20.38Z"/>
      <path class="st0" d="M699.56,258.44h-6.4l-.35-2.09h-4.57l-.35,2.09h-5.7l5.18-30.48h7.05l5.14,30.48ZM692.16,252.21l-1.61-9.88-1.65,9.88h3.27Z"/>
      <path class="st0" d="M709.46,227.96l4.14,14.2v-14.2h5.7v30.48h-7.36l-4.53-15.55v15.55h-5.7v-30.48h7.75Z"/>
      <path class="st0" d="M737.3,233.75h-4.62v24.69h-6.71v-24.69h-4.53v-5.79h15.85v5.79Z"/>
      <path class="st0" d="M755.69,234.18v3.48c0,3.48-1.39,4.88-3.79,5.53,2.4.65,3.79,2.05,3.79,5.53v9.71h-6.71v-9.62c0-1.39-.39-2.61-2.13-2.61h-.7v12.24h-6.71v-30.48h10.23c3.44,0,6.01,2.61,6.01,6.23ZM746.85,240.11c1.74,0,2.13-1.13,2.13-2.61v-1.13c0-1.39-.39-2.61-2.13-2.61h-.7v6.36h.7Z"/>
      <path class="st0" d="M775.21,258.44h-6.4l-.35-2.09h-4.57l-.35,2.09h-5.7l5.18-30.48h7.05l5.14,30.48ZM767.81,252.21l-1.61-9.88-1.65,9.88h3.27Z"/>
      <g>
        <path class="st0" d="M450.78,228.02v5.8h-7.36v6.28h6.32v5.8h-6.32v12.42h-6.66v-30.29h14.02Z"/>
        <path class="st0" d="M461.37,228.02c5.89,0,8.61,3.16,8.61,9.05v12.2c0,5.89-2.81,9.04-8.7,9.04s-8.53-3.16-8.53-9.04v-12.2c0-5.89,2.73-9.05,8.61-9.05ZM461.37,252.25c1.6,0,1.95-1.04,1.95-2.64v-12.9c0-1.6-.35-2.64-1.95-2.64s-1.95,1.04-1.95,2.64v12.9c0,1.6.35,2.64,1.95,2.64Z"/>
        <path class="st0" d="M472.18,249.18v-21.16h6.66v21.6c0,1.6.35,2.64,1.95,2.64s1.95-1.08,1.95-2.68v-21.55h6.66v21.16c0,5.89-2.73,9.13-8.61,9.13s-8.61-3.25-8.61-9.13Z"/>
        <path class="st0" d="M499.46,228.02l4.11,14.11v-14.11h5.67v30.29h-7.31l-4.5-15.45v15.45h-5.67v-30.29h7.7Z"/>
        <path class="st0" d="M528.03,236.37v13.68c0,5.58-2.9,8.27-6.88,8.27h-9.52v-30.29h9.52c4.07,0,6.88,2.81,6.88,8.35ZM519.03,252.55c1.95,0,2.34-1.26,2.34-3.68v-11.43c0-2.47-.39-3.68-2.34-3.68h-.74v18.78h.74Z"/>
        <path class="st0" d="M546.83,258.31h-6.36l-.35-2.08h-4.54l-.35,2.08h-5.67l5.15-30.29h7.01l5.11,30.29ZM539.47,252.12l-1.6-9.82-1.64,9.82h3.25Z"/>
        <path class="st0" d="M562.44,233.77h-4.59v24.54h-6.66v-24.54h-4.5v-5.76h15.75v5.76Z"/>
        <path class="st0" d="M571.2,228.02v30.29h-6.66v-30.29h6.66Z"/>
        <path class="st0" d="M582.07,228.02c5.89,0,8.61,3.16,8.61,9.05v12.2c0,5.89-2.81,9.04-8.7,9.04s-8.53-3.16-8.53-9.04v-12.2c0-5.89,2.73-9.05,8.61-9.05ZM582.07,252.25c1.6,0,1.95-1.04,1.95-2.64v-12.9c0-1.6-.35-2.64-1.95-2.64s-1.95,1.04-1.95,2.64v12.9c0,1.6.35,2.64,1.95,2.64Z"/>
        <path class="st0" d="M600.62,228.02l4.11,14.11v-14.11h5.67v30.29h-7.31l-4.5-15.45v15.45h-5.67v-30.29h7.7Z"/>
        <path class="st0" d="M629.77,258.31h-6.36l-.35-2.08h-4.54l-.35,2.08h-5.67l5.15-30.29h7.01l5.11,30.29ZM622.41,252.12l-1.6-9.82-1.64,9.82h3.25Z"/>
        <path class="st0" d="M638.53,228.02v24.71h7.23v5.58h-13.89v-30.29h6.66Z"/>
      </g>
    </g>
  </g>
</svg>