<?xml version="1.0" encoding="UTF-8"?>
<svg id="Layer_1" xmlns="http://www.w3.org/2000/svg" version="1.1" viewBox="0 0 95.57 50">
  <!-- Generator: Adobe Illustrator 30.2.1, SVG Export Plug-In . SVG Version: 2.1.1 Build 1)  -->
  <defs>
    <style>
      .st0 {
        fill: #e2e100;
      }
    </style>
  </defs>
  <path class="st0" d="M15.26,14.2c.63-.12,1.64.06,1.97-.68.12-.3.13-.67.14-1,0-.85,0-2,0-2.74-.03-.43.06-1.07-.45-1.19-.56-.09-1.17-.02-2.18-.04-2.89.02-6.9-.05-8.64.03-.64.06-.5.86-.54,1.35,0,.81-.01,2.04,0,2.85,0,.92.38,1.32,1.29,1.36.39.04.98.02,1.25.24.21.19.09.57-.05,1.18l-.54,2.35c-.47,2.03-.98,4.24-1.45,6.27-.26,1.25-.56,1.97-.51,3.3,0,2.01,0,4.1,0,6.12,0,.98,0,1.79,0,2.61.04.84-.13,1.28.26,1.61.7.31,1.74.14,2.59.17.4-.03.97,0,1.04-.45.45-1.89,2.7-11.68,4.15-17.93.54-2.33.96-4.17,1.14-4.92.06-.27.2-.4.5-.45h.02Z"/>
  <path class="st0" d="M38.65,28.78c.1-.92.41-2.18-.22-2.94-.44-.38-1.05-.31-1.93-.33-.66.01-1.37-.04-2.01.08-.59.1-.99.51-1.18,1.05-.35.97-.63,2.32-1.57,2.98-.75.58-2.03.67-2.6-.18-.6-.9-.26-1.96-.05-2.93.53-2.31,1.88-8.16,2.37-10.27.21-.91.42-1.8,1.07-2.53.76-.97,2.54-1.24,3.12-.09.5.84-.1,2.33.21,3.02.35.69,1.44.63,2.17.54.31-.05.64-.18.72-.5.19-2.08.02-5.85.07-8.09-.01-.49,0-1.05-.39-1.37-.77-.53-2.45-.48-3.52-.46-4.52.11-7.86,2.78-9.23,7.07-.4,1.13-.69,2.44-.99,3.7-.3,1.32-.6,2.33-.53,3.65,0,3.68,0,10.34,0,12.91,0,.28.02.57.14.8.78,1.23,3.93,1.33,5.31,1.26,4.64-.15,8.05-2.95,9.04-7.32v-.05Z"/>
  <path class="st0" d="M45.25,29.76c.19,2.93.42,10.86.52,12.78.02.21.02.39.14.53.45.29.96.14,1.71.19,1.08-.02,2.77.06,3.7-.07.27-.07.29-.23.3-.48-.05-1.67-.32-9.02-.45-12.78-.02-.48-.03-.92-.05-1.37-.02-.81-.08-.96.34-1.72.66-1.26,1.56-2.59,2.12-3.87.12-.34.13-.68.14-1.05-.01-1.64.04-5.66-.03-7.68-.04-.4-.17-.14-.31.07-1.09,1.89-6.74,11.83-7.54,13.22-.1.17-.16.25-.1-.03.45-1.99.98-4.27,1.49-6.46.51-2.23,1.15-4.91,1.54-6.73.1-.63-.53-.43-1.3-.49-.41,0-.92,0-1.45,0-1.01.01-2.04-.03-3.03.03-.6.06-.65.31-.83,1.08-.12.53-.24,1.05-.37,1.6-.58,2.66-1.41,5.76-1.88,8.33-.03,2.33,0,14.77,0,17.71,0,.23.01.44.24.55.51.18,1.92.31,2.09-.52.67-2.7,2.61-11.49,3-12.84h0Z"/>
  <path class="st0" d="M64.26,30.79c-.19-.24-.55-.22-.85-.24-1.13-.02-3.47,0-4.66-.01-1.26.03-1.1-.5-.84-1.63.31-1.28.59-2.72.95-3.99.22-.95,1.21-.84,2.02-.85.93,0,2.07,0,2.97,0,.54-.02.9-.07,1.14-.28.52-.55.63-1.87.88-2.73.15-.69.36-1.36.37-1.96.01-.5-.48-.58-.89-.59-1.08-.05-2.97.03-4.1-.04-1.06-.07-.67-.9-.48-1.87.2-.87.46-2.03.67-2.88.19-.89.54-1.34,1.47-1.34.77-.05,1.98.01,2.69-.05.36-.03.76-.12.9-.49.24-.75.11-1.64.14-2.47-.06-.78.17-2.02-.3-2.45-.22-.23-1.31-.13-2.02-.15-2.23,0-4.68-.02-6.93,0-.65.02-.84.17-1.02.85-.22.83-.4,1.68-.6,2.55-.22.93-.5,2.17-.69,2.98-.19.86-.27,1.08-.26,1.79,0,2.84,0,17.79,0,20.63,0,.22-.01.41.15.53.27.12.63.1.96.11,1.68-.04,4.87.07,6.69-.04.83-.15.81-.92,1.04-1.72.16-.69.36-1.54.51-2.21.16-.69.25-1.16.1-1.39v-.02Z"/>
  <path class="st0" d="M77.85,14.54c1.15-.1,1.73-.32,1.7-1.63,0-1.02.02-2.26-.01-3.15-.01-.48-.13-.88-.69-.86-.44-.02-1.17,0-2.07-.01-2.43,0-6.01,0-7.69,0-.52.01-1.16.02-1.27.64-.14.76-.08,1.76-.1,2.9.04.63-.12,1.49.51,1.85.68.37,1.82.03,2.45.4.22.19.05.61-.09,1.29-.76,3.56-2.42,9.92-2.86,12.72-.02,2.24,0,6.68,0,8.67,0,.25.02.48.15.66.2.24.56.25.87.28.61.03,1.52.02,2.13.01.42-.03,1.04.03,1.12-.44.55-2.33,4.01-17.37,5.29-22.86.05-.28.22-.42.53-.47h.02Z"/>
  <path class="st0" d="M89.78,36.98c.22-.56.24-1.17.23-2.08,0-1.37,0-3.27,0-4.65.06-1.91-.06-2.71-1.53-4.03-1.32-1.39-3.48-2.28-4.23-4.16-.46-1.27.36-2.79,1.64-3.17.92-.33,2.01.2,2.17,1.19.16.68-.07,1.56.09,2.08.15.66,1.01.94,1.54.55.49-.32.27-1.49.32-2.39,0-2.03,0-4.91,0-6.32,0-.29-.04-.57-.16-.8-.39-.64-1.36-.49-2.08-.52-3.33.05-6.49,1.38-8.34,3.88-1.28,1.56-1.28,2.72-1.24,4.73,0,1.29,0,2.82,0,3.83.01.54.03,1.05.23,1.52.43.87,1.16,1.34,1.99,2.05.88.7,1.84,1.36,2.65,2.13.71.67,1.27,1.48,1.33,2.35.12,1.23-.78,2.49-1.98,2.76-.92.26-2-.24-2.25-1.18-.31-.78.23-2.09-.19-2.8-.5-.79-1.88-.5-1.78.51-.03,1.98,0,5.94,0,8.02,0,.67.06,1.36.85,1.5.83.17,1.89.14,2.77.07,3.51-.32,6.48-2.04,7.96-5.03v-.03Z"/>
  <path class="st0" d="M23.42,19.55c.03-1.3,0-2.9.01-4.31-.02-.4.02-.88-.27-1.17-.27-.23-.67-.22-1.02-.24-.71-.01-1.75,0-2.47,0-.41,0-1.03.02-1.19.14-.2.11-.25.33-.31.56-.63,2.8-3,12.82-3.57,15.54-.07,3.51-.03,9.85-.01,12.59.05.42.27.51.77.57.59.05,1.51.04,2.04,0,.41-.03.69-.12.74-.53,1.04-4.71,4.18-17.67,5.29-23.13v-.02Z"/>
</svg>