<?xml version="1.0" encoding="UTF-8"?>
<svg id="Layer_1" xmlns="http://www.w3.org/2000/svg" version="1.1" viewBox="0 0 336.56 90.7">
  <!-- Generator: Adobe Illustrator 30.2.1, SVG Export Plug-In . SVG Version: 2.1.1 Build 1)  -->
  <defs>
    <style>
      .st0 {
        fill: #e2e100;
      }
    </style>
  </defs>
  <g>
    <path class="st0" d="M50.45,54.67c-.3,1.25-.62,2.27-.56,3.58.06,4.76-.12,12.35.07,15.55.41.99,3.26,1.05,4.31,1.04,5.06,0,8.57-3.4,9.68-8.21.27-1.12.61-2.2.63-3.26,0-2.45.02-11.52,0-15.75-.03-.61-.33-.81-1.09-1.05-6.54-1.54-11.53,1.52-13.01,8.05v.05h-.03ZM60.63,53.93c-.71,3.61-2.26,9.7-2.86,12.41-.2.86-.62,2.03-1.51,2.51-.69.39-1.65.35-2.09-.18-.63-.81-.3-1.92-.1-2.82.5-2.16,2.05-8.74,2.52-10.77.23-.98.51-2.08,1.36-2.75,1.49-.99,2.92-.17,2.68,1.56v.03h0Z"/>
    <path class="st0" d="M89.17,58.29c.28-.23.29-.64.31-.99.02-.79,0-2.04,0-2.86-.04-.42.09-1.02-.31-1.26-2.25-.19-8.99-.02-11.89-.06-.75-.02-.84.35-.85,1.12-.02.61,0,1.55-.01,2.36-.11,2.54.99,1.68,2.66,2.08.37.14.23.51.07,1.21-.68,3.03-2.18,9.32-2.68,11.68-.11,2.62-.05,7.1-.03,9.53.05.46.27.58.84.64.74.04,1.79.05,2.56,0,.45-.03.62-.15.69-.53.38-1.64,1.81-7.82,3.07-13.29.8-3.44,1.32-5.7,1.98-8.57.12-.48.1-.69.65-.75.9-.15,2.11.16,2.91-.28l.02-.02h0Z"/>
    <path class="st0" d="M33.71,53.24c.28-.23.29-.64.31-.99.02-.79,0-2.04,0-2.86-.04-.42.09-1.02-.31-1.26-2.25-.19-8.99-.02-11.89-.06-.75-.02-.84.35-.85,1.12-.02.61,0,1.55-.01,2.36-.11,2.54.99,1.68,2.66,2.08.37.14.23.51.07,1.21-.68,3.03-2.18,9.32-2.68,11.68-.11,2.62-.05,7.1-.03,9.53.05.46.27.58.84.64.74.04,1.79.05,2.56,0,.45-.03.62-.15.69-.53.38-1.64,1.81-7.82,3.07-13.29.8-3.44,1.32-5.7,1.98-8.57.12-.48.1-.69.65-.75.9-.15,2.11.16,2.91-.28l.02-.02h.01Z"/>
    <path class="st0" d="M257.94,62.35c-.09,2.77,0,13.54-.03,16.51-.03.4.23.63.63.67.53.08,1.27.05,1.61-.27.16-.16.23-.37.29-.59.2-.83.55-2.37.94-4.03.35-1.5.67-2.91.98-4.25.21-.83.34-1.88.78-2.05.74-.33,1.57.37,1.77,1.09.22.83-.07,1.66-.24,2.48-.41,1.78-1.26,5.41-1.56,6.77-.04.23-.09.46,0,.65.13.22.56.24,1.3.25h3.62c.47-.03.79,0,1.09-.27.21-.24.26-.58.35-.9.31-1.31.91-3.95,1.33-5.74.24-1.1.52-2.05.61-3.12.12-1.27-.06-2.72-1.11-3.54-.21-.22-.56-.46-.5-.75.12-.39.71-.6,1.16-.94.41-.3.56-.64.6-1.13.03-2.61.02-8.53,0-11.18,0-.88-.72-1.05-1.53-1.06-2.47-.04-6.28-.02-8.78,0-.66,0-.79.31-.92.91-.54,2.42-1.97,8.33-2.4,10.48v.02h.01ZM265.92,56.43c.48-.16,1.22.09,1.58.49.53.58.38,1.61.16,2.55-.22.85-.52,1.75-1.22,2.31-.6.44-1.47.72-1.97.5-.46-.33-.01-1.21.05-1.71.21-.86.47-1.93.67-2.74.19-.75.25-1.19.71-1.39h.03,0Z"/>
    <path class="st0" d="M258.35,55.96c0-2.73.09-6.99-.03-9.29-.08-.37-.46-.44-.79-.47-.77-.04-1.91-.05-2.72,0-.41.05-.53.13-.62.46-.55,2.39-3.78,16.61-4.34,19.06-.16.73-.1.94-.12,1.93v6.11c-.02.82.25,1.04,1.16,1.04.78,0,1.76.03,2.48-.01.53-.02.76-.12.84-.59.55-2.51,3.23-13.92,4.13-18.24v-.02.02Z"/>
    <path class="st0" d="M327.67,58.43c.28-.23.29-.64.31-.99.02-.79,0-2.04,0-2.86-.04-.42.09-1.02-.31-1.26-2.25-.19-8.99-.02-11.89-.06-.75-.02-.84.35-.85,1.12-.02.61,0,1.55-.01,2.36-.11,2.54.99,1.68,2.66,2.08.37.14.23.51.07,1.21-.68,3.03-2.18,9.32-2.68,11.68-.11,2.62-.05,7.1-.03,9.53.05.46.27.58.84.64.74.04,1.79.05,2.56,0,.45-.03.62-.15.69-.53.38-1.64,1.81-7.82,3.07-13.29.8-3.44,1.32-5.7,1.98-8.57.12-.48.1-.69.65-.75.9-.15,2.11.16,2.91-.28l.02-.02h.01Z"/>
    <path class="st0" d="M300.16,57.58c-.09,2.77,0,13.54-.03,16.51-.03.4.23.63.63.67.53.08,1.27.05,1.61-.27.16-.16.23-.37.29-.59.2-.83.55-2.37.94-4.03.35-1.5.67-2.91.98-4.25.21-.83.34-1.88.78-2.05.74-.33,1.57.37,1.77,1.09.22.83-.07,1.66-.24,2.48-.41,1.78-1.26,5.41-1.56,6.77-.04.23-.09.46,0,.65.13.22.56.24,1.3.25h3.62c.47-.03.79,0,1.09-.27.21-.24.26-.58.35-.9.31-1.31.91-3.95,1.33-5.74.24-1.1.52-2.05.61-3.12.12-1.27-.06-2.72-1.11-3.54-.21-.22-.56-.46-.5-.75.12-.39.71-.6,1.16-.94.41-.3.56-.64.6-1.13.03-2.61.02-8.53,0-11.18,0-.88-.72-1.05-1.53-1.06-2.47-.04-6.28-.02-8.78,0-.66,0-.79.31-.92.91-.54,2.42-1.97,8.33-2.4,10.48v.02h.01ZM308.14,51.66c.48-.16,1.22.09,1.58.49.53.58.38,1.61.16,2.55-.22.85-.52,1.75-1.22,2.31-.6.44-1.47.72-1.97.5-.46-.33-.01-1.21.05-1.71.21-.86.47-1.93.67-2.74.19-.75.25-1.19.71-1.39h.03,0Z"/>
    <path class="st0" d="M298.83,71.75c.12-.36.16-.64.16-1-.04-5,.07-17.41-.04-20.27-.22-.66-1.43-.65-2.35-.76-4.18-.37-8.16,1.51-9.8,5.26-.38.81-.73,1.57-.7,2.41v19.94c.02.54.29.66.99.82,5.24.94,10.03-1.24,11.73-6.38v-.03h.01ZM295.88,57.44c-.67,3.59-2.16,9.69-2.72,12.38-.17.8-.55,1.89-1.31,2.43-.73.53-1.88.51-2.34-.14-.55-.82-.25-1.86-.06-2.74.48-2.16,1.95-8.73,2.41-10.76.22-1,.5-2.12,1.37-2.78,1.49-.96,2.88-.11,2.66,1.59v.03h-.01Z"/>
    <path class="st0" d="M272.74,57.01c-.08,4.33-.01,14.8-.02,17.24,0,.57.71.56,1.17.57.66,0,1.24-.24,1.35-.94.28-1.19.85-3.8,1.31-5.81.31-1.17.31-1.86.68-2.57.48-.61,1.97-.33,2.81-.42,1.69-.04,3.34-.43,4.61-1.52.48-.41.32-1.23.35-2.08-.08-4.75.15-12.06-.09-15.1-.05-.1-.13-.15-.27-.18-.18-.04-.47-.04-.88-.04h-5.71c-.99,0-1.79,0-2.25,0-.24,0-.5.04-.63.26-.74,2.52-1.88,8.19-2.42,10.57v.02h-.01ZM280.6,51.65c.65-.13,1.5.25,1.76.9.28.68.1,1.5-.12,2.49-.41,1.47-.49,3.32-1.89,4.21-.5.26-1.27.6-1.78.26-.23-.21-.05-.74.12-1.51.11-.45.21-.91.32-1.37.24-1.04.54-2.28.76-3.22.21-.77.24-1.62.8-1.76,0,0,.03,0,.03,0Z"/>
    <path class="st0" d="M19.63,81.7c.23-.04.26-.18.26-.38v-15.05c-.02-6,.04-11.31-.02-12.91-.02-.08-.07-.13-.17-.17-.14-.06-.41-.08-.79-.09-.7,0-1.6-.03-2.24.03-.47.03-.66.17-.8.56-.96,2.43-4.88,12.33-6.58,16.64-.38,1.12-.77,1.41-.71,2.78v4.87c.01,1.05-.03,1.95.02,2.93.1.96.95.82,1.48.27.44-.38.71-.9,1.25-1.16.73-.31,2.18-.3,3.07-.11.75.2.63,1,1.04,1.48.32.33.84.34,1.29.36,1.02-.01,1.96.05,2.87-.05h.03ZM12.57,75.9c-.27-.12-.09-.44.14-1.02.12-.3.24-.59.36-.89.8-1.97,1.87-4.61,2.67-6.59.2-.46.39-1.11.33-.25-.13,1.62-.37,6.61-.57,8.4-.17.5-.57.41-1.2.46-.67,0-1.32.04-1.71-.09h-.02v-.02Z"/>
    <path class="st0" d="M43.76,51.99c-.22.11-.28.33-.34.58-.42,1.85-2,8.94-2.47,11.03-.15.63-.2.98-.19,1.66v14.53c0,.3-.04.64.34.7,1.87.1,4.8,0,6.81.04,1.43-.04,2.06.27,2.02-1.23,0-4.88.54-3.94-4.17-4.05-.37-.03-1.17.09-1-.43.59-2.67,4.06-18.17,5.02-22.46.03-.2.08-.33-.11-.41-.24-.07-.54-.07-.81-.07h-3.92c-.39,0-.81-.02-1.16.11,0,0-.02,0-.02,0Z"/>
    <path class="st0" d="M67.23,48.55c-.17.17-.27.48-.38.94-.19.79-.41,1.78-.61,2.61-.09.38-.17.75-.26,1.12-.25,1.04-.16,1.28-.18,2.18v21.04c.02.7.9.75,1.19-.34.06-.22.1-.43.16-.67.65-2.78,1.57-6.84,2.18-9.43.12-.51.29-.7.99-.73.38-.02.93-.01,1.55-.02.92-.02,1.95.06,2.77-.07.68-.11.61-.87.63-1.41v-2.69c-.01-.32-.02-.68-.18-.94-.43-.59-1.69-.33-2.43-.39-1.3-.02-1.97.09-1.57-1.41.28-1.14.54-2.64.92-3.76.47-1.36,2.52-.22,3.12-1.34.23-.65.1-1.78.13-2.57v-1.24c-.03-.41,0-.71-.26-.95-.24-.17-.57-.15-.88-.17h-5.14c-.66,0-1.53-.05-1.74.22l-.02.02h0Z"/>
    <path class="st0" d="M96.66,61.24c-.08,4.24-.01,14.43-.02,16.85,0,.77,1.37.61,1.87.45.39-.13.54-.48.63-.85.4-1.64,1.34-5.9,1.86-7.98.2-.73.73-.74,1.64-.77,1.4,0,2.83,0,4.11-.5.93-.38,2.06-.81,1.96-1.88-.02-3.03.04-13.75-.02-16.23-.09-.4-.46-.28-1-.32h-5.73c-.95,0-1.71,0-2.14,0-.23,0-.48.06-.6.27-.75,2.63-2.01,8.53-2.56,10.93,0,0,0,.02,0,.02ZM104.64,55.49c.65-.13,1.49.25,1.75.89.28.69.09,1.52-.15,2.54-.41,1.46-.51,3.3-1.92,4.17-.5.25-1.27.59-1.77.25-.23-.21-.05-.74.13-1.51.11-.45.22-.91.33-1.37.25-1.04.55-2.28.78-3.22.21-.77.25-1.62.81-1.75h.04Z"/>
    <path class="st0" d="M117.2,65.09c-.67.16-1.69.12-2.29.05-.26-.03-.49-.17-.44-.46.46-2.26,2-8.66,2.45-10.71.04-.2.1-.4,0-.56-.09-.15-.38-.17-.92-.18h-3.07c-2.22,0-2.16-.16-2.63,2.06-.24,1.03-.55,2.38-.77,3.35-.16.7-.21.86-.2,1.43v21.22c-.03.45.34.61.72.5.28-.08.5-.37.59-.68.52-2.15,1.77-7.65,2.23-9.62.11-.66.48-.83,1.1-.84.59-.03,1.39-.04,1.79.05.36.05.41.36.33.67-.37,1.66-1.4,6.08-1.89,8.18-.09.38-.17.75-.26,1.12-.15.69-.27,1.02.03,1.13,1.1.17,2.84.04,4.06.08.79-.05,1.89.25,2.1-.77.43-1.71.92-3.84,1.26-5.5,0-3.31.13-18.94-.05-22.13-.5-.51-1.19.02-1.27.66-.5,2.13-1.99,8.66-2.41,10.38-.07.26-.17.45-.44.54h-.02v.03Z"/>
    <path class="st0" d="M122.29,67.95c-.05,2.74,0,8.53-.01,10.57-.02.49.18.78.7.8.71.05,1.79.07,2.54,0,.37-.06.45-.16.52-.45.64-2.75,4.68-20.26,5.22-22.57.18-1.11.05-2.66.09-3.89,0-1.08.02-1.71-1.24-1.68-.76-.02-1.92,0-2.66,0-.37.02-.8-.03-1.11.16-.14.11-.18.29-.23.47-.39,1.66-1.74,7.53-2.72,11.77-.54,2.42-.85,3.51-1.09,4.82h0Z"/>
    <path class="st0" d="M138.82,53.31c-1.17-.13-3.75-.04-4.91-.06-.62.04-.94-.06-1.2.37-.68,2.66-2.39,10.02-2.99,12.95-.04,3.95,0,12.03,0,14.6,0,.2,0,.4.08.54.05.09.14.13.29.16.21.03.54.03,1.01.03h6.2c.77,0,1.31.03,1.58-.1.39-.21.31-.74.35-1.13,0-.77,0-1.99,0-2.78,0-.3-.02-.64-.16-.89-.14-.37-.95-.39-1.54-.38-1.15-.01-2.3.02-3.27-.02-.43-.04-.52-.09-.46-.41.56-2.47,4.56-19.71,5.18-22.44.03-.19.1-.36-.11-.44h-.04Z"/>
    <path class="st0" d="M151.24,52.27c-.45.73-.57,1.97-.82,2.85-.06.24-.11.46-.15.68-.25,1.03-.15,1.24-.17,2.11v22.25c.02.53.53.42,1.05.47,1.26,0,2.74.06,4.01-.22,2.96-.49,5.6-3.54,6.43-6.8.16-.6.1-1.09.11-1.8v-10.87c-.02-2.5.04-6.84-.02-8.33-.1-.9-2.79-.55-3.79-.63h-4.69c-.61.03-1.69-.11-1.94.27l-.02.02h0ZM158.46,60.54c-.64,2.95-1.83,7.71-2.4,10.17-.43,1.92-1.08,4.55-3.53,4.49-.39,0-.52-.22-.41-.6.61-2.57,3.31-13.93,3.94-16.55.12-1.06,1.89-.6,2.29.15.35.7.23,1.57.12,2.31v.03h0Z"/>
    <path class="st0" d="M162.86,56.73c-.09,2.87,0,14.47-.03,17.33,0,.25,0,.47.23.56.18.07.51.07,1.04.07h6.75c.46,0,.89-.11,1.05-.58.37-1.1.64-2.61.9-3.68.18-.88.16-1.24-1.07-1.21h-3.38c-.59-.05-1.67.16-1.87-.35-.07-.28.02-.62.08-.93.25-1.1.63-2.81.92-3.95.19-.79.5-1.08,1.48-1.07,1.13-.02,2.46,0,3.62-.02,1.05.02,1.25-.59,1.45-1.43.22-1.04.63-2.39.71-3.39.03-.62-.66-.6-1.11-.61-.97-.02-2.59,0-3.48-.02-.62,0-1.07-.13-.93-.85.23-1.24.59-2.7.9-3.96.18-.66.39-.97.92-1.08.63-.12,1.3-.07,1.95-.08,1.38,0,2.12.09,2.05-1.59,0-.82,0-2.06,0-2.84-.02-.53-.09-.95-.64-.99-1.58-.08-4.65,0-6.9-.03-.59.02-1.78-.06-2.01.14-.26.2-.3.57-.39.9-.54,2.41-1.79,7.59-2.21,9.64v.02h-.02Z"/>
    <path class="st0" d="M183.64,53.31c-1.58-.14-3.69-.04-5.35-.05-.81.02-.74.17-.89.76-.08.35-.16.68-.24,1.05-1.2,5.26-4.54,19.51-5.08,22.03-.06.57-.04,1.19-.04,1.94.03.87-.09,1.84.12,2.56.15.34.53.29.85.31h9.25c.91,0,1.46.02,1.71-.26.13-.15.17-.34.2-.55.08-.58.07-1.71.07-2.69-.02-1.25.07-1.84-1.57-1.77h-3.09c-.27,0-.89.02-.98-.18.44-2.65,4.57-19.78,5.18-22.69.03-.19.1-.36-.11-.44h0l-.02-.02Z"/>
    <path class="st0" d="M183.86,58.73c-.07,3.97,0,12.61-.03,15.28-.09.84.68.8,1.35.8.72,0,1.33-.17,1.46-.95.29-1.19.88-3.8,1.35-5.81.22-.93.38-1.72.52-2.2.06-.2.15-.4.32-.52.43-.33,1.58-.22,2.24-.26,1.1-.01,2.09-.1,3.07-.44.94-.35,2.01-.75,1.9-1.8v-16.03c0-.23,0-.44-.18-.55-.14-.07-.4-.08-.83-.09h-6.51c-.93.04-1.52-.14-1.79.31-.76,2.83-2.29,9.72-2.85,12.25h-.02ZM192.15,51.64c.65-.13,1.49.25,1.75.89.28.69.09,1.52-.15,2.54-.41,1.46-.51,3.3-1.92,4.17-.5.25-1.27.59-1.77.25-.23-.21-.05-.74.13-1.51.11-.45.22-.91.33-1.37.25-1.04.55-2.28.78-3.22.21-.77.25-1.62.81-1.75h.04Z"/>
    <path class="st0" d="M206.15,61.85c-.67.16-1.69.12-2.29.05-.26-.03-.49-.17-.44-.46.46-2.26,2-8.66,2.45-10.71.04-.21.1-.42,0-.57-.11-.15-.45-.16-1.08-.17h-3.81c-.22,0-.43,0-.63.02-.59.04-.67.23-.81.84-.09.39-.18.76-.27,1.17-.57,2.44-1.22,5.27-1.77,7.65-.2.97-.35,1.23-.36,2.01,0,2.05-.02,13.61,0,16.45.03.64,1.07.49,1.58.47.53-.05.81-.32.9-.82.46-1.95,1.84-8.02,2.25-9.7.1-.36.24-.54.62-.61.54-.1,1.55-.09,2.08-.03.35.06.52.14.5.47-.32,1.71-1.29,5.62-1.91,8.36-.09.39-.17.76-.26,1.13-.16.71-.29,1.06.02,1.17.19.07.55.08,1.08.08h3.54c.76,0,1.4.06,1.58-.88.42-1.78.95-3.97,1.3-5.68,0-3.31.13-18.64-.04-21.83-.24-.3-.79-.26-1.06.04-.15.15-.23.39-.28.61-.5,2.13-1.99,8.66-2.41,10.38-.07.26-.17.45-.44.54h-.02l-.02.02Z"/>
    <path class="st0" d="M221.31,46.52c-.25-.33-.72-.33-1.11-.34h-3.1c-.53.04-1.13-.08-1.26.41-.72,3.02-3.67,15.8-4.26,18.43-.09.63-.04.9-.05,1.86.06,2.27-.11,5.68.07,7.52.06.31.53.41.92.42.6.03,1.5.02,2.1.01.27,0,.78-.02.94-.15,1.21-4.18,4.35-18.81,5.82-24.82.14-.48.17-.94.17-1.52,0-.57.07-1.3-.22-1.79l-.02-.02h0Z"/>
    <path class="st0" d="M217.24,74.14c-.07,1.79,0,4.56-.02,6.46-.11,1.3,1.01,1.55,1.96.88.7-.47.9-1.24,1.8-1.45.82-.15,2.07-.16,2.74.03.87.24.54,1.5,1.42,1.72.91.21,2.18.07,3.02.11.32-.04.98.08,1.05-.29.04-3.27,0-24.57,0-27.85,0-.08,0-.16-.02-.22-.03-.24-.49-.26-.73-.27-.62-.02-1.7-.03-2.28,0-.28.02-.6.05-.75.29-.56,1.25-1.75,4.37-3.3,8.18-1.49,3.86-3.81,9.2-4.9,12.39v.02h0ZM224.53,76.03c-.23.1-.68.11-1.2.11-.62-.04-1.65.12-1.57-.39.64-1.79,2.98-7.24,3.53-8.65.2-.49.17-.17.15.23-.14,1.96-.33,4.61-.46,6.59-.02.34-.05.66-.07.98-.05.63-.03.98-.35,1.11h-.02v.02Z"/>
    <path class="st0" d="M236.68,72.65c-.07,1.79,0,4.56-.02,6.46-.11,1.3,1.01,1.55,1.96.88.7-.47.9-1.24,1.8-1.45.82-.15,2.07-.16,2.74.03.87.24.54,1.5,1.42,1.72.91.21,2.18.07,3.02.11.32-.04.98.08,1.05-.29.04-3.27,0-24.57,0-27.85,0-.08,0-.16-.02-.22-.03-.24-.49-.26-.73-.27-.62-.02-1.7-.03-2.28,0-.28.02-.6.05-.75.29-.56,1.25-1.75,4.37-3.3,8.18-1.49,3.86-3.81,9.2-4.9,12.39v.02h0ZM243.97,74.54c-.23.1-.68.11-1.2.11-.62-.04-1.65.12-1.57-.39.64-1.79,2.98-7.24,3.53-8.65.2-.49.17-.17.15.23-.14,1.96-.33,4.61-.46,6.59-.02.34-.05.66-.07.98-.05.63-.03.98-.35,1.11h-.02v.02Z"/>
    <path class="st0" d="M146.59,46.23c-.29.04-.45.14-.55.39-2.39,6-8.35,20.73-9.36,23.4-.1.55-.06,1.06-.08,1.81v1.62c.02.41.03.83.34,1.1.63.44,2.06.34,2.72.02.58-.27.81-.84,1.27-1.24.61-.51,1.34-.45,2.26-.46.55.01,1.31-.01,1.66.45.29.38.29.95.72,1.23.44.34,1.4.29,2.05.28.27-.01.56,0,.79-.11.15-.08.14-.24.15-.4,0-3.39.02-20.73,0-27.77,0-.53-1.48-.35-1.94-.32h-.03ZM145.2,68.96c-.23.1-.68.11-1.2.11-.62-.04-1.65.12-1.57-.39.64-1.79,2.98-7.24,3.53-8.65.2-.49.17-.17.15.23-.14,1.96-.33,4.61-.46,6.59-.02.34-.05.66-.07.98-.05.63-.03.98-.35,1.11h-.02v.02Z"/>
  </g>
  <g>
    <path class="st0" d="M147.6,21.89c-.07-.06-.06-.26-.07-.38-.04-1.11,0-4.28-.07-5.79-.06-.89-.55-.81-1.61-.83h-3.31c-.73.05-1.53-.17-1.5.54.06,2.15.42,11.71.57,15.93.04,1.05-.35,2.09-.52,3.13-.25,1.32-.11,3.03-.15,4.48v2.74c0,.68-.02,1.16.12,1.43.18.33.6.34.94.37.82.02,1.89.06,2.71-.04.5-.04.69-.42.78-.88.52-2.22,1.88-8.18,2.35-10.14.19-.74.42-1.06.8-1.87.88-1.78,1.94-3.96,2.85-5.8.29-.58.56-1.13.83-1.69.41-.76.44-1.24.43-2.17v-3.07c-.05-.84.15-1.98-.23-2.57-.34-.43-.93-.4-1.37-.12-.35.22-.57.61-.75.99-.72,1.51-2.12,4.52-2.57,5.44-.07.1-.12.28-.22.29h-.01Z"/>
    <path class="st0" d="M153.73,14.22c-.14.33-.19.59-.2.93v21.44c-.04.91,1.22.77,2.14.86,4.13.22,7.96-1.83,9.52-5.52.21-.53.16-.81.17-1.5v-1.65c0-5.18,0-13.93,0-19.19,0-.13-.03-.24-.1-.34-.12-.18-.4-.28-.86-.35-.9-.12-1.98-.13-2.91-.04-3.53.26-6.36,2.3-7.73,5.34v.02h-.03ZM162.85,16.53c-.71,3.61-2.26,9.7-2.86,12.41-.2.86-.62,2.03-1.51,2.51-.69.39-1.65.35-2.09-.18-.63-.81-.3-1.92-.1-2.82.5-2.16,2.05-8.74,2.52-10.77.23-.98.51-2.08,1.36-2.75,1.49-.99,2.92-.17,2.68,1.56v.03h0Z"/>
    <path class="st0" d="M215.13,21.12c-.14.33-.19.59-.2.93v21.44c-.04.91,1.22.77,2.14.86,4.13.22,7.96-1.83,9.52-5.52.21-.53.16-.81.17-1.5v-1.65c0-5.18,0-13.93,0-19.19,0-.13-.03-.24-.1-.34-.12-.18-.4-.28-.86-.35-.9-.12-1.98-.13-2.91-.04-3.53.26-6.36,2.3-7.73,5.34v.02h-.03ZM224.24,23.43c-.71,3.61-2.26,9.7-2.86,12.41-.2.86-.62,2.03-1.51,2.51-.69.39-1.65.35-2.09-.18-.63-.81-.3-1.92-.1-2.82.5-2.16,2.05-8.74,2.52-10.77.23-.98.51-2.08,1.36-2.75,1.49-.99,2.92-.17,2.68,1.56v.03h0Z"/>
    <path class="st0" d="M227.95,15.23c-.14.33-.19.59-.2.93v21.44c-.04.91,1.22.77,2.14.86,4.13.22,7.96-1.83,9.52-5.52.21-.53.16-.81.17-1.5v-1.65c0-5.18,0-13.93,0-19.19,0-.13-.03-.24-.1-.34-.12-.18-.4-.28-.86-.35-.9-.12-1.98-.13-2.91-.04-3.53.26-6.36,2.3-7.73,5.34v.02h-.03ZM237.06,17.54c-.71,3.61-2.26,9.7-2.86,12.41-.2.86-.62,2.03-1.51,2.51-.69.39-1.65.35-2.09-.18-.63-.81-.3-1.92-.1-2.82.5-2.16,2.05-8.74,2.52-10.77.23-.98.51-2.08,1.36-2.75,1.49-.99,2.92-.17,2.68,1.56v.03h0Z"/>
    <path class="st0" d="M170.83,34.98c-1.73-.14-1.34-2.18-1.01-3.37,1.21-5.47,3.97-16.78,4.38-19.22-.05-.14-.29-.16-.86-.17h-3.47c-.43,0-.84,0-1.24.02-.62.05-.71.3-.89,1.1-.32,1.39-.67,2.89-.99,4.28-.23,1.17-.59,2.11-.6,3.12v19.07c-.05.62.6.75,1.3.89,3.95.73,8.7-.66,10.47-4.25.17-2.38,0-18.78.05-23.98,0-.1-.02-.08-.04.02-.53,1.94-3.9,17.5-4.87,20.77-.32.86-1.14,1.79-2.18,1.73h-.05Z"/>
    <path class="st0" d="M181.04,15.86c-.23.21-.27.55-.36.87-.43,2.05-1.52,6.21-1.93,8.57-.03,2.51,0,15.04,0,18.25,0,.23,0,.47.2.6.46.28,1.3.24,1.67-.25.13-.18.18-.4.24-.62.21-.9.57-2.47.95-4.11.34-1.49.66-2.88.96-4.15.22-.91.29-1.55.63-1.83.56-.43,1.35.05,1.68.57.43.68.28,1.43.12,2.23-.46,2.06-1.35,5.82-1.72,7.47-.19.84.16.9,1.21.9,1.15,0,2.58,0,3.75,0,.98,0,1.21-.23,1.4-1.2.43-1.85.89-3.87,1.32-5.7.43-2.06,1.31-4.38-.13-6.24-.26-.37-.85-.73-.82-1.17.1-.41.7-.63,1.14-.97.4-.31.52-.67.54-1.16.02-2.45,0-8.37,0-10.83,0-.28,0-.58-.12-.81-.33-.56-.9-.49-1.57-.54-.57-.02-1.25,0-2.22-.01h-5.05c-.69.02-1.71-.06-1.89.16h0v-.03ZM188.17,23.56c-.23,1.14-.52,2.39-1.5,3.08-.76.48-2.44.98-1.97-.54.27-1.1.74-3.06,1-4.09.06-.21.13-.39.22-.52.38-.53,1.07-.39,1.62-.08.75.44.76,1.27.64,2.1v.05h0Z"/>
    <path class="st0" d="M203.08,9.13c-.23.21-.27.55-.36.87-.43,2.05-1.52,6.21-1.93,8.57-.03,2.51,0,15.04,0,18.25,0,.23,0,.47.2.6.46.28,1.3.24,1.67-.25.13-.18.18-.4.24-.62.21-.9.57-2.47.95-4.11.34-1.49.66-2.88.96-4.15.22-.91.29-1.55.63-1.83.56-.43,1.35.05,1.68.57.43.68.28,1.43.12,2.23-.46,2.06-1.35,5.82-1.72,7.47-.19.84.16.9,1.21.9,1.15,0,2.58,0,3.75,0,.98,0,1.21-.23,1.4-1.2.43-1.85.89-3.87,1.32-5.7.43-2.06,1.31-4.38-.13-6.24-.26-.37-.85-.73-.82-1.17.1-.41.7-.63,1.14-.97.4-.31.52-.67.54-1.16.02-2.45,0-8.37,0-10.83,0-.28,0-.58-.12-.81-.33-.56-.9-.49-1.57-.54-.57-.02-1.25,0-2.22-.01h-5.05c-.69.02-1.71-.06-1.89.16h0v-.03ZM210.2,16.84c-.23,1.14-.52,2.39-1.5,3.08-.76.48-2.44.98-1.97-.54.27-1.1.74-3.06,1-4.09.06-.21.13-.39.22-.52.38-.53,1.07-.39,1.62-.08.75.44.76,1.27.64,2.1v.05h0Z"/>
    <path class="st0" d="M250.92,30.42c0-3.53.6-11.24.51-13.77-.04-.09-.11-.15-.22-.18-.26-.07-.8-.05-1.61-.05h-6.47c-.81,0-1.12.02-1.33.58-.31.94-.49,2-.73,2.98-.2.93-.45,1.68-.48,2.47.04,3.37-.08,19.54.04,22.48,1.11-4.43,2.59-11.22,3.72-15.96.28-1.12.44-2.05.68-2.87-.06,1.92-.65,14.53-.81,18.16-.02.55-.06.74.49.79.19,0,.4.03.61.02h3.67c.35,0,.91,0,1.08-.09.2-.08.27-.22.35-.41.75-1.72,6.22-14.99,7.72-18.49.04.1-.36,1.58-.83,3.68-1.14,4.97-2.96,12.72-3.44,14.92-.03.35.16.34.57.38,1.05.04,3.25,0,4.36,0,.87-.03.94-.02.94-.5-.01-3.26.02-24.42,0-27.8.02-.51-1.75-.32-2.29-.31-.59.04-.82.28-1,.77-1.12,2.6-4.88,11.91-5.52,13.19h0Z"/>
    <path class="st0" d="M125.16,33.5c.66-3.22,2.57-10.98,2.98-13.1.02-.47-.39-.35-1.14-.4h-2.08c-.82,0-1.64-.03-2.44.03-.67-.02-.67.66-.84,1.31-.61,2.65-1.81,7.82-2.47,10.71-.1.42-.1.65-.1,1.06.02,2.44-.04,12.52.02,15.1.05.64,1.77.43,2.16.35.33-.09.45-.27.53-.57.5-2.12,2.53-10.98,2.85-12.3.15-.7.12,1.24.2,2.58.12,3.16.31,8.14.38,9.69.01.19.02.38.13.51.4.3.92.15,1.62.19h2.39c.77-.05,1.58.17,1.55-.53-.06-2.08-.36-10.13-.49-13.99-.02-.64-.03-.79.36-1.5.68-1.29,1.59-2.66,2.18-3.95.14-.36.14-.71.15-1.11v-6.17c0-.69-.04-1.1-.13-1.2-.15-.14-.36.32-.47.47-1.4,2.4-6.55,11.59-7.33,12.82h0Z"/>
    <path class="st0" d="M103.88,37.6c.12-.36.16-.64.16-1-.04-5,.07-17.41-.04-20.27-.22-.66-1.43-.65-2.35-.76-4.18-.37-8.16,1.51-9.8,5.26-.38.81-.73,1.57-.7,2.41v19.94c.02.54.29.66.99.82,5.24.94,10.03-1.24,11.73-6.38v-.03h.01ZM100.93,23.29c-.67,3.59-2.16,9.69-2.72,12.38-.17.8-.55,1.89-1.31,2.43-.73.53-1.88.51-2.34-.14-.55-.82-.25-1.86-.06-2.74.48-2.16,1.95-8.73,2.41-10.76.22-1,.5-2.12,1.37-2.78,1.49-.96,2.88-.11,2.66,1.59v.03h-.01Z"/>
    <path class="st0" d="M117.84,40.89c.12-.36.16-.64.16-1-.04-5,.07-17.41-.04-20.27-.22-.66-1.43-.65-2.35-.76-4.18-.37-8.16,1.51-9.8,5.26-.38.81-.73,1.57-.7,2.41v19.94c.02.54.29.66.99.82,5.24.94,10.03-1.24,11.73-6.38v-.03h0ZM114.89,26.58c-.67,3.59-2.16,9.69-2.72,12.38-.17.8-.55,1.89-1.31,2.43-.73.53-1.88.51-2.34-.14-.55-.82-.25-1.86-.06-2.74.48-2.16,1.95-8.73,2.41-10.76.22-1,.5-2.12,1.37-2.78,1.49-.96,2.88-.11,2.66,1.59v.03h-.01Z"/>
    <g>
      <path class="st0" d="M90.09,36.13c-.05.12,0,.82-.02,1.11.01.45-.02.92.01,1.35.13-.5.18-1.9,0-2.46h0Z"/>
      <path class="st0" d="M89.03,19.67c-2.11-.09-4.78-.02-7.01-.04h-2.04c-.7.02-.8.14-.98.85-.67,2.9-1.47,6.32-2.1,9.13-.17,2.88-.02,14.72-.06,18.18-.02.61.74.44,1.44.49,1.64-.04,3.7.12,5.26-.17,2.08-.4,3.84-1.75,4.87-3.76.73-1.39,1.02-2.97,1.37-4.51.37-1.87.58-4.03-1.05-5.34-.46-.45-.27-.76.18-1.05.98-.56,1.21-.85,1.14-2.21v-10.61c.01-.62-.39-.95-1-.98h-.03v.02ZM83.74,39.21c-.26,1.44-.76,3.17-2.36,3.55-.92.26-1.42.06-1.12-.95.26-1.08.72-2.96.98-4.01.06-.23.14-.47.26-.64.38-.54,1.1-.38,1.65-.06.72.45.73,1.27.6,2.08v.05-.02ZM86.44,27.5c-.23,1.14-.52,2.39-1.5,3.08-.76.48-2.44.98-1.97-.54.27-1.1.74-3.06,1-4.09.06-.21.13-.39.22-.52.38-.53,1.07-.39,1.62-.08.75.44.76,1.27.64,2.1v.05h-.01Z"/>
    </g>
  </g>
</svg>