<?xml version="1.0" encoding="UTF-8"?>
<svg id="Layer_1" xmlns="http://www.w3.org/2000/svg" version="1.1" viewBox="0 0 105.36 50">
  <!-- Generator: Adobe Illustrator 30.2.1, SVG Export Plug-In . SVG Version: 2.1.1 Build 1)  -->
  <defs>
    <style>
      .st0 {
        fill: #e2e100;
      }
    </style>
  </defs>
  <path class="st0" d="M34.09,6.87c-.24.2-.28.56-.36.87-.49,2.11-1.72,7.44-2.35,10.2-.32,3.33-.03,13.97-.12,17.43-.02.37.13.66.52.72.61.11,1.56.13,1.9-.4.48-1.27.67-2.79,1.21-4.91.35-1.51.67-2.91.97-4.2.29-1.11.27-1.78.9-2.01.76-.19,1.52.5,1.7,1.21.21.83-.1,1.75-.28,2.61-.45,2.08-1.35,5.6-1.63,7.22,0,.64.46.52,1.39.57h3.72c1.04,0,1.28-.23,1.48-1.2.31-1.35.94-4.06,1.36-5.9.43-2.03,1.24-4.35.06-6.23-.24-.35-.63-.65-.9-.94-.14-.16-.21-.3-.19-.43.17-.61,1.61-.92,1.81-1.7.1-.26.12-.6.12-.9-.02-2.53.04-8.59-.02-11.11-.07-.96-1-.97-1.83-1-.59-.02-1.26-.01-2.25-.01h-5.24c-.7.02-1.77-.05-1.93.14h0l-.03-.03ZM41.4,14.81c-.23,1.17-.54,2.46-1.54,3.17-.78.5-2.5,1.01-2.02-.56.27-1.12.76-3.15,1.02-4.2.06-.22.13-.4.23-.53.39-.55,1.1-.4,1.67-.09.77.45.79,1.31.65,2.16v.05h0Z"/>
  <path class="st0" d="M52.16,27.69c.67-3.31,2.64-11.28,3.06-13.46.02-.49-.4-.36-1.17-.41h-2.14c-.85.01-1.69-.03-2.51.03-.69-.02-.69.68-.86,1.34-.63,2.72-1.86,8.03-2.54,11-.1.43-.1.67-.1,1.09.02,2.51-.04,12.86.02,15.51.05.66,1.82.44,2.22.36.34-.09.46-.28.54-.59.52-2.17,2.6-11.28,2.93-12.63.16-.72.12,1.27.2,2.65.13,3.25.32,8.36.39,9.95,0,.2.02.39.13.52.41.3.95.15,1.66.2h2.46c.79-.05,1.62.18,1.59-.54-.06-2.14-.37-10.41-.51-14.37-.02-.65-.03-.82.37-1.54.7-1.32,1.64-2.73,2.24-4.06.14-.37.15-.73.15-1.14v-6.33c0-.71-.04-1.13-.13-1.23-.15-.14-.37.33-.48.48-1.43,2.46-6.73,11.91-7.53,13.16h0Z"/>
  <path class="st0" d="M60.33,27.06c-.05,2.08,0,5.2-.02,7.65v4.55c-.02.39.09.76.53.81.49.1,1.46.08,2.09.05.28,0,.74-.05.85-.28.82-3.29,4.41-18.79,5.13-22.21.05-1.51.02-4.19.02-5.77,0-.24-.02-.47-.09-.67-.23-.55-.85-.44-1.42-.49h-2.34c-.75.03-1.04.05-1.17.67-.53,2.37-2.8,11.93-3.6,15.66h0l.02.03Z"/>
  <path class="st0" d="M79.83,20.23c-.26-2.98-.64-10.63-.79-12.7.01-.94-.5-.78-1.48-.81h-4.32c-.79.03-1.71-.18-1.89.77-.43,1.73-.93,3.87-1.27,5.54-.08,3.21,0,19.3-.03,22.55,0,.33.05.62.2.27.7-2.59,2.93-12.68,3.36-14.34.15-.74.15,1.33.27,2.79.24,3.82.55,9.48.7,11.41.08.62.92.38,1.59.44h3.26c.73,0,1.32,0,1.69-.02.5,0,.65-.21.74-.64.5-2.16,2.22-9.6,3.04-13.15.13-.52.15-.75.15-1.25-.03-2.23.05-11.37-.03-13.9-.1-.65-1.78-.59-2.06-.07-.73,2.45-2.65,11.66-3.11,13.09h0l-.02.02Z"/>
  <path class="st0" d="M85.75,22.5c-.48,1.54-.32,2.89-.34,4.44v15.23c-.02.48.12.78.67.9.96.24,2.83.12,3.93-.43.66-.25,1.34-.95,1.61-.62.15.23-.02.93.51,1.14.38.18,1.48.09,2.25.11.93,0,1.84,0,2.35,0,.33-.02.53-.05.64-.15.14-.14.13-.37.13-.58v-13.66c.07-.74-.66-.64-1.19-.66h-2.58c-1.03-.02-1.37.31-1.57,1.3-.17.73-.43,1.79-.58,2.52-.08.4-.15.92.26,1.14.24.13.55.18.8.32.85.42.52,1.33.13,2.22-.56,1.49-2.91,2.11-3.37.36-.18-.77.04-1.5.2-2.25.67-2.77,2.05-9.13,2.74-11.7.21-.64.63-1.4,1.23-1.81.88-.62,2.24-.56,2.69.36.48,1.13.02,2.2-.22,3.49-.1.48-.27,1.03-.16,1.51.25.85,1.68.66,1.62-.16,0-2.95.05-8.36-.02-11.02-.1-.62-.63-.63-1.26-.65-5.35-.08-9.2,3.19-10.43,8.62v.04h-.04Z"/>
  <path class="st0" d="M7.9,20.05c-.08,4.45-.01,15.21-.02,17.71,0,.59.72.58,1.2.58.68,0,1.27-.24,1.39-.97.29-1.22.88-3.9,1.35-5.97.32-1.21.32-1.91.69-2.64.49-.63,2.03-.34,2.88-.43,1.73-.04,3.43-.44,4.73-1.57.49-.42.33-1.27.36-2.13-.08-4.88.15-12.39-.09-15.51-.05-.1-.13-.15-.28-.18-.19-.04-.48-.04-.91-.04h-5.86c-1.01,0-1.84,0-2.31.01-.24.01-.51.05-.64.26-.76,2.59-1.93,8.42-2.49,10.85v.02h0ZM15.97,14.54c.67-.13,1.54.26,1.81.92.29.7.1,1.54-.12,2.56-.42,1.51-.5,3.41-1.95,4.33-.52.26-1.3.62-1.83.27-.23-.22-.06-.76.13-1.55.11-.47.22-.93.33-1.41.25-1.07.55-2.34.78-3.31.21-.79.25-1.67.82-1.8h.03Z"/>
  <path class="st0" d="M29.88,43.2c.23-.04.27-.19.27-.39v-15.46c-.02-6.17.04-11.62-.02-13.26-.02-.08-.07-.13-.17-.17-.15-.06-.42-.08-.82-.09-.72,0-1.64-.03-2.3.03-.48.03-.68.17-.82.57-.99,2.5-5.01,12.66-6.76,17.09-.39,1.15-.79,1.45-.73,2.85v5c.01,1.08-.03,2,.02,3.01.1.99.97.84,1.52.28.45-.39.73-.92,1.28-1.19.75-.32,2.24-.31,3.16-.11.77.21.65,1.02,1.07,1.52.33.34.87.35,1.33.37,1.05,0,2.01.06,2.95-.05,0,0,.02,0,.02,0ZM22.63,37.24c-.28-.12-.09-.45.15-1.05.12-.3.25-.6.37-.92.82-2.02,1.92-4.74,2.75-6.77.2-.47.4-1.14.33-.26-.13,1.66-.39,6.79-.59,8.62-.17.51-.59.42-1.23.47-.69,0-1.35.04-1.76-.09,0,0-.02,0-.02,0Z"/>
</svg>