<?xml version="1.0" encoding="UTF-8"?>
<svg id="Layer_1" xmlns="http://www.w3.org/2000/svg" version="1.1" viewBox="0 0 240.18 50">
  <!-- Generator: Adobe Illustrator 30.2.1, SVG Export Plug-In . SVG Version: 2.1.1 Build 1)  -->
  <defs>
    <style>
      .st0 {
        fill: #e2e100;
      }
    </style>
  </defs>
  <path class="st0" d="M20.5,15.72c.36-.3.33-.85.35-1.29,0-.86,0-2.07,0-2.83-.03-.4.02-.93-.38-1.13-.19-.08-.43-.1-.66-.11-1.23-.01-3.96,0-5.66,0-.76,0-1.27,0-1.55.04-.32.05-.38.21-.46.49-.59,2.58-3.69,15.88-4.24,18.39-.09.67-.04.96-.05,1.97.03,2.35-.06,6.21.04,7.93.12.57.51.55,1.26.61.63.01,1.42.02,1.94-.02.65-.03.94-.27,1.05-.85.56-2.23,1.96-8.78,2.53-10.76.15-.32.42-.4,1.07-.42.94-.02,2.59,0,3.58-.01,1.35.03,1.56-.23,1.54-1.52,0-.83.01-2.01,0-2.78-.02-.32-.03-.68-.2-.94-.26-.34-.63-.34-1.1-.38-.42-.02-.94-.01-1.43-.01-.98-.04-2.16.19-1.83-1.09.2-1.02.55-2.42.79-3.48.12-.45.22-.95.6-1.24.77-.53,2.04-.06,2.81-.55l.02-.02Z"/>
  <path class="st0" d="M21.85,17.07c-.16,6.48-.07,22.25-.03,25.65.23.48,1.05.4,1.81.47,4.74.26,8.73-2.13,10.3-6.76.66-1.75,1.07-3.97,1.5-5.77.29-1.09.21-1.85.22-2.91,0-3.8,0-11.04,0-13.23.02-.43-.12-.68-.61-.72-.56-.06-1.23-.07-1.8.02-.51.09-.46.36-.61.92-1.05,4.57-3.67,15.89-4.48,19.42-.13.62-.36,1.42-.84,2.06-1.21,1.57-3.38,1.04-3.12-1.05.66-3.5,4.02-17.45,4.75-20.82.03-.17.11-.37-.01-.48-.07-.12-.77-.11-1.13-.11-1.07,0-2.91,0-3.96,0-.59-.02-1.18.14-1.36.76-.26.76-.45,1.75-.62,2.52v.02Z"/>
  <path class="st0" d="M49.66,12.14c.28-.24.3-.65.32-1.02.02-.81,0-2.09,0-2.94-.04-.43.09-1.05-.32-1.3-2.31-.2-9.23-.02-12.21-.07-.77-.02-.86.36-.87,1.15-.02.63-.01,1.59-.01,2.42-.12,2.61,1.01,1.72,2.73,2.13.38.15.23.53.08,1.24-.7,3.11-2.24,9.57-2.76,12-.11,2.69-.05,7.3-.03,9.79.05.47.28.6.86.65.76.04,1.83.05,2.63,0,.46-.03.63-.15.71-.54.39-1.69,1.86-8.03,3.15-13.65.82-3.54,1.35-5.86,2.03-8.8.12-.5.1-.71.67-.77.93-.15,2.16.16,2.99-.29l.02-.02Z"/>
  <path class="st0" d="M59.28,33.32c.2-1.45.04-2.24.09-4.58,0-4.17,0-10.38,0-14.38.05-.74-1.1-.61-1.68-.52-.29.06-.45.25-.49.53-.64,2.78-3.95,17.12-4.57,19.79-.22.95-.55,2.04-1.49,2.66-.97.62-2.36.27-2.46-.99-.09-.8.11-1.38.28-2.19.17-.73.33-1.43.5-2.18.9-3.93,3.41-14.78,3.98-17.24.18-.55-.47-.44-.84-.47-.94,0-2.96,0-4.15,0-.43.01-.92-.01-1.23.31-.5.64-.56,1.73-.8,2.54-.51,3.53-.07,22.09-.2,25.9.04.49.33.51.97.62,3.36.37,6.99-.49,9.18-3.13,1.51-1.69,2.45-4.35,2.9-6.65v-.03Z"/>
  <path class="st0" d="M60.36,21.83c-.09,2.85,0,13.91-.03,16.96-.03.41.23.65.65.69.54.08,1.31.05,1.65-.28.17-.16.24-.38.3-.6.21-.85.57-2.44.96-4.14.36-1.54.69-2.99,1.01-4.37.21-.86.35-1.93.8-2.11.76-.34,1.61.38,1.82,1.12.22.85-.08,1.7-.25,2.55-.42,1.83-1.29,5.55-1.6,6.96-.04.24-.09.48,0,.67.13.23.57.25,1.33.26,1.09,0,2.78,0,3.72,0,.48-.03.82,0,1.12-.28.21-.25.27-.59.36-.92.31-1.35.94-4.06,1.36-5.9.25-1.13.53-2.1.63-3.21.12-1.31-.06-2.79-1.14-3.64-.22-.22-.57-.48-.51-.77.12-.4.73-.62,1.2-.97.42-.31.58-.66.61-1.16.03-2.68.02-8.76,0-11.48,0-.9-.74-1.08-1.57-1.09-2.54-.05-6.45-.02-9.02,0-.68,0-.81.32-.94.93-.55,2.49-2.02,8.56-2.47,10.77v.02ZM68.56,15.75c.5-.16,1.25.1,1.63.5.55.6.39,1.65.16,2.62-.23.87-.53,1.8-1.26,2.38-.61.46-1.51.74-2.03.51-.48-.34-.02-1.24.05-1.76.21-.88.48-1.98.69-2.81.2-.77.26-1.23.73-1.43h.03Z"/>
  <path class="st0" d="M82.68,25.46c.05-2.81,0-8.71.02-10.81.02-.51-.19-.8-.72-.83-.72-.06-1.82-.07-2.6,0-.39.06-.49.17-.57.48-.62,2.65-4.22,18.25-4.85,20.96-.15.66-.12.86-.13,1.74,0,1.25,0,3.75,0,5,.02.33,0,.71.23.94.33.26.74.22,1.24.25.37,0,.8,0,1.21,0,.43,0,.83,0,1.14-.01.74-.03.98-.07,1.1-.66.56-2.53,3.05-12.99,3.92-17.07v-.02Z"/>
  <path class="st0" d="M105.42,24.04c-.09,2.93,0,7.79-.03,11.33,0,3.22,0,6.16,0,7.24,0,.7.88.6,1.48.58.22-.02.4-.06.51-.13.99-2.85,6.05-25.93,6.85-28.9.06-.32-.02-.34-.46-.38-.19,0-.41-.02-.63-.01-1.03,0-2.94,0-4.04,0-.5.03-1.18-.08-1.39.48-.6,2.25-1.72,7.24-2.29,9.78v.02Z"/>
  <path class="st0" d="M127.98,30.19c-.15-.3-.54-.41-1.16-.42-.45-.01-1.02,0-1.59,0-.67.01-1.33-.03-1.94.06-.73.08-1.12.65-1.3,1.3-.21.64-.44,1.47-.82,2.04-1,1.65-3.6,1.61-3.6-.64.37-2.91,1.46-6.5,2.22-10.18.43-1.56.45-3.02,1.42-4.29.75-1.04,2.61-1.38,3.21-.15.8,2.18-1.37,3.77,2.47,3.59,1.02-.02,1.54-.08,1.48-1.26-.07-2.07.15-5.86-.1-8.03-.3-1.24-3.2-1.17-4.3-1.19-4.34.06-7.64,2.23-9.21,6.21-.43,1.11-.86,2.24-.84,3.37,0,3.07,0,13.56,0,18.56-.06,1.15,1.6,1.11,2.58,1.25,4.82.45,9.14-1.73,10.68-6.39.31-.82.59-1.82.79-2.67.1-.48.14-.86.02-1.12v-.02Z"/>
  <path class="st0" d="M139.53,15.98c-1.34,5.76,2.28,6.75,5.88,10.04,1.28,1.17,1.61,3.06.26,4.31-1.12,1.14-3.32.86-3.51-.89-.09-.62.09-1.43.16-2,.12-.76-.26-1.01-.98-1.01-.84-.02-2.19,0-3.05,0-1.4-.03-1.29.25-1.29,1.84,0,1.2,0,2.59,0,3.88,0,2.41-.29,3.32,2.24,4.38,4.24,1.5,9.96.07,12.3-3.85.71-1.04.52-2.17.54-3.48-.03-2.06.06-4.16-.04-5.79-.09-1-1.07-1.84-1.85-2.56-1.31-1.27-3.73-2.32-4-4.3-.14-1.27.85-2.59,2.11-2.78.72-.13,1.5.22,1.78.88.24.52.18,1.18.11,1.8-.05.46-.05.84.15,1.09.3.45,1.13.48,1.51.18.2-.16.22-.45.23-.71,0-1.69,0-6.22,0-8.1.08-1.27-.84-1.23-1.91-1.25-5.22-.12-9.61,3.11-10.63,8.28v.05Z"/>
  <path class="st0" d="M153.8,20.97c-.31,1.28-.64,2.33-.58,3.68.06,4.89-.12,12.69.07,15.98.42,1.02,3.35,1.08,4.42,1.07,5.2,0,8.81-3.49,9.94-8.44.28-1.15.63-2.26.65-3.35,0-2.52.02-11.83,0-16.18-.03-.63-.34-.83-1.12-1.08-6.72-1.58-11.84,1.57-13.36,8.27v.05ZM164.26,20.22c-.73,3.71-2.32,9.97-2.93,12.75-.21.88-.63,2.09-1.55,2.58-.71.4-1.69.36-2.15-.19-.65-.84-.31-1.97-.11-2.9.52-2.22,2.1-8.98,2.59-11.06.23-1.01.52-2.14,1.4-2.82,1.53-1.01,2.99-.17,2.75,1.6v.03Z"/>
  <path class="st0" d="M176.85,28.15c-.2.56-.59,1.3-1.15,1.66-1.46.9-2.77-.03-2.54-1.67.96-4.78,4.15-17.86,4.8-21.06,0-.39-.52-.25-1.24-.3-1.19.01-3.29-.03-4.52.03-.52.02-.7.31-.81.76-.44,1.96-1.52,6.37-1.93,8.45-.05,1.34,0,2.39-.02,4.05.04,5.16-.07,12.92.04,15.22.25.66,1.28.66,1.96.81,5.58.74,10.01-1.84,11.66-7.26.24-.74.44-1.41.43-2.14-.02-2.74.04-14.88-.02-19.53-.1-.36-.53-.36-.93-.37-.4,0-.84.13-.89.57-.82,3.37-3.94,17.39-4.83,20.74v.03Z"/>
  <path class="st0" d="M201.13,26.12c.03-2.72.06-12.32-.01-15.32-.04-.16-.15-.26-.32-.32-.54-.18-1.47-.15-1.64.49-.4,1.57-.85,3.66-1.3,5.56-.47,2.01-1.35,5.93-1.7,7.28-.03.07-.04.05-.05-.02-.04-.26-.09-1.46-.19-3.05-.29-3.64-.36-8.15-.69-10.16-.05-.09-.14-.14-.27-.17-.25-.1-1.26-.03-1.94-.05-1.22,0-2.78,0-3.78,0-.54,0-.9,0-1.13.06-.15.04-.25.1-.31.21-.78,2.75-2.49,10.69-3.05,13-.14,1.07-.03,1.71-.06,3.13,0,3.23,0,10.23,0,12.27-.11.85,1.09.84,1.61.6.2-.1.3-.26.36-.47.28-1.15,1.01-4.37,1.73-7.46.42-1.83,1.26-5.51,1.54-6.65.12-.39.14,1.52.25,2.95.22,3.64.57,9.47.67,11.13.02.19.03.38.14.5.08.08.21.12.43.14.34.03.9.02,1.62.02,1.46-.02,3.22.04,4.52-.03.42-.04.51-.32.59-.68.52-2.33,2.24-9.5,2.97-12.95h0Z"/>
  <path class="st0" d="M217.09,25.16c.2-4.26.03-14.03.07-17.18.03-1.45-3.51-1.1-4.93-1.16-1.53,0-3.2,0-4.71,0-.8.03-1.37-.08-1.95.11-.19.11-.24.3-.3.52-.48,2.05-2.14,9.22-2.9,12.54-.12.48-.12.75-.12,1.22.05,2.53-.1,12.39.05,14.73.08.23.34.29.94.31.7.02,1.94,0,2.9,0,7.27.43,9.73-4.4,10.94-11.07v-.03ZM212.92,15.6c-.66,3.03-1.88,7.92-2.46,10.45-.44,1.98-1.11,4.67-3.63,4.61-.4,0-.54-.22-.42-.61.63-2.64,3.41-14.31,4.05-17,.13-1.09,1.94-.62,2.35.15.36.72.23,1.61.12,2.37v.03Z"/>
  <path class="st0" d="M218.21,22.03c-1.03,4.47.83,6.16,4.26,8.67.8.61,1.63,1.25,2.21,2.07.8,1.07.71,2.57-.24,3.52-.8.89-2.42,1.12-3.2.15-1.45-1.86,1.53-4.28-2.36-3.96-.3.02-.64.02-.89.2-.24.19-.2.6-.21,1.27,0,.38,0,.75,0,1.13.03,2.38-.06,5.27.04,6.89.1,1.18,2.6,1.12,3.62,1.17,5.16.11,9.25-3.2,10.29-8.04.86-3.08-.33-6.05-2.66-8.03-1.34-1.35-3.7-2.32-4.18-4.28-.26-1.27.67-2.68,1.92-2.95.79-.21,1.72.16,1.99.96.19.48.14,1.13.07,1.65-.05.49-.19,1.12.34,1.38.42.21,1.32.17,1.96.16.47-.02,1.12-.02,1.14-.62.06-1.79,0-5.97.02-7.96,0-.31-.03-.64-.16-.89-.4-.62-1.52-.67-2.31-.77-5.66-.54-10.56,2.71-11.64,8.23v.05Z"/>
  <path class="st0" d="M96.43,21.88c-.9-1.54-2.51-2.53-3.88-3.67-.62-.52-1.25-1.12-1.55-1.88-.51-1.23.2-2.76,1.44-3.23.71-.29,1.62-.15,2.06.51.45.62.29,1.53.3,2.24-.06.97,1.02,1.57,1.7.9.34-.32.19-1.58.23-2.29,0-2.01,0-4.85,0-6.27-.02-.44-.06-.91-.46-1.14-.76-.37-2.29-.22-3.24-.12-5.31.52-8.88,4.93-9.13,10.07-.24,2.89,1.53,4.57,3.62,6.15,1.33,1.07,3.16,2.16,3.53,3.89.21,1.01-.26,2.09-1.11,2.67-1.28.94-3.15.28-3.16-1.36-.11-.76.37-1.78-.18-2.38-.42-.4-1.26-.37-1.82-.33-.82.04-1.07.4-1.04,1.17,0,1.49,0,4.69,0,6.73,0,.84-.04,1.92.46,2.19.86.52,2.24.52,3.29.54,3.57-.02,6.79-1.53,8.6-4.35.73-1.05.65-2.19.65-3.51,0-1.32,0-3.02,0-4.25,0-1.03,0-1.67-.28-2.23v-.03Z"/>
  <path class="st0" d="M107.31,12.47c.97-.1,1.4-.57,1.39-1.58.01-.85,0-2.07,0-2.84-.02-.87-.03-1.3-1.06-1.24-1.93,0-7.08,0-8.96,0-.26,0-.52,0-.72.11-.34.22-.27.71-.3,1.09,0,.76,0,2.01,0,2.88-.05,1.87,1.18,1.3,2.35,1.67.36.17.21.58.15.9-.52,2.29-1.74,7.52-2.38,10.31-.14.58-.13,1.02-.13,1.61,0,2.15,0,8.2,0,10.03.01.24.02.41.17.58.15.15.38.19.6.22.57.06,1.51.04,2.11.02.39-.02.89-.03.95-.47.58-2.44,4-17.32,5.28-22.82.05-.28.24-.41.53-.47h.02Z"/>
</svg>