<?xml version="1.0" encoding="UTF-8"?>
<svg id="Layer_1" xmlns="http://www.w3.org/2000/svg" version="1.1" viewBox="0 0 309.28 80.93">
  <!-- Generator: Adobe Illustrator 30.2.1, SVG Export Plug-In . SVG Version: 2.1.1 Build 1)  -->
  <defs>
    <style>
      .st0 {
        fill: #e2e100;
      }
    </style>
  </defs>
  <g>
    <path class="st0" d="M252.32,28.78c-.01,3.08-.04,9.49.01,11.42.03.43.96.2,1.45.26,2.69-.07,7.42.14,9.29-.08.35-.29.3-.67.47-1.25.17-.72.4-1.73.59-2.55.1-.65.58-1.67.01-1.77-1.26-.09-4.44-.01-5.86-.04-.92.03-.74-.34-.54-1.26.33-1.43.7-3.07,1.05-4.52.14-.72.5-.77,1.16-.76,1.28,0,2.79,0,4.04,0,.56,0,.89-.01,1.08-.2.41-.59.56-2.05.81-2.93.16-.74.37-1.44.44-2.07.05-.44-.4-.44-.72-.45-1.02-.01-3.3,0-4.38,0-.33-.02-.85.05-.81-.42.22-1.35.82-3.63,1.1-4.9.13-.66.42-.88,1.09-.87.74-.02,2.11,0,2.89-.01.96.02.99-.35.98-1.24,0-.81,0-1.93,0-2.75-.05-.7.19-1.62-.44-1.64-1.74-.05-6.62,0-8.63-.01-.38,0-.62,0-.76.03-.09.02-.15.07-.18.14-.57,2.28-3.1,13.24-4.13,17.86h0Z"/>
    <path class="st0" d="M253.52,19.48c.02-2.35.03-13.08,0-15.62-.02-.15-.21-.23-.37-.25-.48-.03-1.44-.17-1.58.34-.69,2.88-1.68,7.27-2.38,10.29-.34,1.38-.7,3.3-.74,2.98-.19-2.92-.69-11.55-.8-13.18-.02-.24-.02-.45-.33-.46-1.83,0-5.31-.07-7.07.02-.19.04-.23.18-.27.36-.4,1.71-2.62,11.31-2.98,12.9-.1.43-.08.56-.08,1.09,0,.48,0,1.2,0,2.09,0,3.23-.01,11.45,0,12.92,0,.5,1.36.32,1.62.26.19-.05.26-.15.31-.32.24-.99,1.03-4.46,1.8-7.78.39-1.67,1.4-6.12,1.6-6.86.26,3.28.77,12.89.9,14.61.01.14.01.26.1.35.07.05.18.07.38.08.33.01.93,0,1.67,0h3.79c.58-.05,1.21.16,1.32-.31.37-1.6,2.36-10.1,3.11-13.49h0Z"/>
    <path class="st0" d="M235.69,32.48c.09-.27.12-.45.12-.71-.03-4.93.05-19.04-.02-21.38-.28-.68-2.97-.7-3.74-.7-4.44.03-7.81,2.41-9.29,6.38-.2.53-.29.75-.32,1.17,0,2.4,0,15.85,0,21.33.03.44.31.46.91.61,5.54,1.05,10.62-1.32,12.33-6.68v-.03ZM232.57,17.84c-.7,3.44-2.33,10.44-2.88,12.98-.15.67-.58,1.89-1.32,2.32-.72.47-1.94.45-2.4-.15-.54-.78-.25-1.84-.08-2.67.5-2.21,2.17-9.73,2.64-11.82.21-.9.56-2.07,1.45-2.58.69-.4,1.76-.38,2.25.12.44.45.4,1.2.34,1.77v.03Z"/>
    <path class="st0" d="M214.68,3.73c-.32.59-.57,2.02-.82,2.87-.15.67-.39,1.28-.4,1.84.03.31.37.29.63.31,1.04.01,3.6,0,4.67,0,.47.04.95-.11.49.52-1.3,2.02-7.09,11.04-8.13,12.66-.31.48-.21.7-.23,1.41,0,1.56,0,5.03,0,6.26,0,.61.1.73.74.71,1.58,0,6.35,0,7.93,0,.35,0,.67,0,.81-.38.23-.65.5-1.85.72-2.66.11-.43.22-.84.29-1.15.07-.36.21-.64.01-.88-.13-.1-.31-.1-.49-.11-1.12-.02-3.68,0-4.89-.01-.09,0-.17,0-.24-.01-.4-.03-.24-.16,0-.56.08-.12.15-.24.24-.37,2.07-3.3,8.84-13.68,9.8-15.39.14-1.1.03-2.92.06-4.07-.03-.68.11-1.21-.65-1.15-1.77,0-7.5-.02-10.18,0-.14,0-.27.04-.36.15h-.01Z"/>
    <g>
      <path class="st0" d="M185.83,20.76c0-2.61.04-8.02-.01-9.83-.08-.41-.59-.32-.92-.35-.66,0-1.74,0-2.38,0-.25,0-.77,0-.89.14-.66,2.53-4.2,18.16-4.74,20.83-.01,2.09-.01,6.73,0,8.21.02.47.19.52.86.55.72,0,2.05,0,2.78,0,.45-.03.92.07.96-.41.44-2.01,3.45-15,4.34-19.12h0Z"/>
      <path class="st0" d="M127.82,16.21c.21-.18.19-.51.21-.79,0-.96,0-2.84,0-3.78,0-.26,0-.54-.08-.76-.13-.19-.31-.14-.57-.16-2.1,0-10.25,0-12.24,0-.65-.02-.63.35-.64,1.01,0,.65,0,1.73,0,2.66.04.87-.12,1.37.22,1.77.7.41,1.87.07,2.63.27.32.09.2.33.09.82-.72,3.14-2.39,10.32-2.87,12.43-.12.57-.06.8-.08,1.52.06,2.4-.11,7.12.06,9,.08.17.3.22.73.24.6.02,1.69,0,2.37,0,.34-.04.91.08,1.01-.24.27-1.12,1.87-8.09,3.29-14.2.85-3.68,1.4-6.06,2.11-9.15.09-.36.05-.46.68-.48.74-.02,1.6,0,2.34-.02.34-.01.58-.04.73-.15h.02Z"/>
      <path class="st0" d="M56.16,9.04c.21-.18.19-.51.21-.79,0-.96,0-2.84,0-3.78,0-.26,0-.54-.08-.76-.13-.19-.31-.14-.57-.16-2.1,0-10.25,0-12.24,0-.65-.02-.63.35-.64,1.01,0,.65,0,1.73,0,2.66.04.87-.12,1.37.22,1.77.7.41,1.87.07,2.63.27.32.09.2.33.09.82-.72,3.14-2.39,10.32-2.87,12.43-.12.57-.06.8-.08,1.52.06,2.4-.11,7.12.06,9,.08.17.3.22.73.24.6.02,1.69,0,2.37,0,.34-.04.91.08,1.01-.24.27-1.12,1.87-8.09,3.29-14.2.85-3.68,1.4-6.06,2.11-9.15.09-.36.05-.46.68-.48.74-.02,1.6,0,2.34-.02.34-.01.58-.04.73-.15h.02Z"/>
      <path class="st0" d="M136.77,18.05c-.03,2.62-.05,14.84,0,17.59.03.17.29.23.48.25.47.04,1.23.05,1.61-.05.25-.06.38-.26.43-.5.53-2.24,1.66-7.2,2.28-9.87.18-.71.19-1.16.54-1.31.47-.18,1.09.03,1.48.34.86.79.47,2.04.26,3.02-.41,1.79-1.47,6.33-1.79,7.75-.03.18-.08.36-.02.5.09.18.51.16,1.28.16,1.19,0,3.07,0,4.08,0,.45-.02.72.05.99-.17.1-.12.15-.28.19-.45.27-1.16,1.05-4.55,1.56-6.72.33-1.46.71-2.71.66-4.19-.03-1.25-.48-2.08-1.26-2.63-.21-.19-.7-.41-.66-.7.34-.6,1.69-.75,1.96-1.53.2-2.56.01-10.12.07-12.48.03-.83-.87-.79-1.56-.84-2.59-.03-6.83,0-9.38,0-.45,0-.54.18-.63.59-.48,2.15-2.16,9.23-2.59,11.25h0ZM144.98,11.88c.48-.11,1.13.04,1.55.33.86.69.49,1.9.28,2.89-.29,1.35-.97,2.72-2.47,2.89-.5.09-1.19.14-.99-.54.12-.52.34-1.44.57-2.38.17-.73.33-1.38.48-2.02.18-.65.16-1.01.55-1.16h.03Z"/>
      <path class="st0" d="M113.06,26.36c.09-.27.12-.45.12-.71-.03-4.93.05-19.04-.02-21.38-.28-.68-2.97-.7-3.74-.7-4.44.03-7.81,2.41-9.29,6.38-.2.53-.29.75-.32,1.17,0,2.4,0,15.85,0,21.33.03.44.31.46.91.61,5.54,1.05,10.62-1.32,12.33-6.68v-.03ZM109.93,11.72c-.7,3.44-2.33,10.44-2.88,12.98-.15.67-.58,1.89-1.32,2.32-.72.47-1.94.45-2.4-.15-.54-.78-.25-1.84-.08-2.67.5-2.21,2.17-9.73,2.64-11.82.21-.9.56-2.07,1.45-2.58.69-.4,1.76-.38,2.25.12.44.45.4,1.2.34,1.77v.03Z"/>
      <path class="st0" d="M60.27,26.52c-.72.12-1.75.05-2.44.05-.19-.03-.47.01-.56-.19.42-2.47,2.24-9.71,2.65-11.7.15-.59-.13-.48-.89-.5-.99,0-2.29,0-3.34,0-2.54.03-2.08-.38-2.68,2.15-.3,1.35-.74,3.11-.99,4.34-.06,1.89,0,19.32-.02,22.67,0,.25-.03.4.14.48.17.08.49.1.74.02.23-.07.36-.22.41-.45.39-1.64,1.91-8.28,2.4-10.37.11-.63.24-.77.88-.78.54-.01,1.5-.02,1.99,0,.36.02.63.06.51.49-.36,1.58-1.53,6.61-2.03,8.81-.22.97-.4,1.71-.46,2.04-.02.12,0,.24.13.28,1.17.1,3.03.02,4.32.04.43,0,.84,0,1.25,0,.61,0,.75-.06.88-.55.39-1.61.82-3.55,1.19-5.12.13-.6.18-.67.19-1.05,0-1.76,0-20.16,0-22.64.02-.28-.23-.33-.57-.33-.32.01-.62.11-.7.43-.41,1.68-2.27,9.81-2.67,11.5-.05.18-.1.32-.29.38h-.02Z"/>
      <path class="st0" d="M98.2,8.05c-1.34-.08-3.94-.02-5.26-.04-.46,0-.76,0-.93.05-.12.03-.18.09-.23.18-.53,1.96-2.59,11.22-3.04,13.05-.1.42-.1.56-.09,1.05.04,4.18-.08,13.44.05,15.27.04.07.11.1.25.11.19.02.51.01.96.01h3.34c1.6-.01,3.54.03,4.89-.02.45-.06.34-.61.37-.96,0-.97,0-2.82,0-3.68,0-.19-.02-.38-.09-.53-.07-.33-.93-.28-1.49-.28-1.27,0-2.75.01-3.66,0-.38-.03-.49,0-.45-.27.4-2.3,5.39-22.23,5.39-23.93h-.01Z"/>
      <path class="st0" d="M65.64,18.14c-.06,2.5,0,15.73-.02,18.2,0,.18,0,.32.17.38,2.01.11,6.42,0,8.47.04.71.05.78-.39.92-.96.22-.96.65-2.81.87-3.76.11-.53.25-.97-.46-.96-1.35-.07-4.61.09-6.09-.06-.36-.16-.15-.52-.05-1.11.34-1.44.72-3.14,1.07-4.61.15-.91.81-.74,1.53-.76,1.16,0,2.54,0,3.67,0,1.27.03,1.21-.22,1.5-1.44.2-.88.51-2.19.71-3.06.19-.85.29-1.17-.68-1.14-1.1,0-3.42,0-4.42,0-.86.02-.74-.36-.59-1.03.26-1.13.76-3.34,1-4.33.14-.64.37-.84,1.17-.83.74-.01,1.98,0,2.74,0,.52-.02,1,.03,1.08-.53.09-1.21.02-3.24.03-4.31-.02-.26.01-.55-.18-.71-.13-.16-1.02-.07-1.57-.09-1.19,0-2.82,0-4.12,0-1.18,0-2.31,0-3.46,0-.74,0-.75.03-.92.75-.74,3.25-1.69,7.21-2.38,10.35h0Z"/>
      <path class="st0" d="M150.34,32.2c-.04,1.62-.01,5.34,0,7.36-.02.57.4.71.95.71.39.01.83-.06,1.17-.31.65-.45.7-1.52,1.57-1.66.84-.11,1.92-.04,2.76-.05.27.02.56.03.77.19.5.41.03,1.38.63,1.72.16.08.36.1.56.11,1.16,0,2.76.06,3.87-.03.2-.04.18-.15.19-.3,0-2.74,0-26.32,0-29.06.07-.38-.43-.31-.71-.33-.55,0-1.59,0-2.22,0-.34.03-.86-.08-1,.31-.37.92-1.81,4.52-3.41,8.5-1.47,3.75-4.07,9.95-5.09,12.81h0ZM158.02,34.22c-.17.08-.91.06-1.41.06-.57-.04-1.62.12-1.59-.22.56-1.55,3.21-7.9,3.73-9.23.17-.44.1.02.09.32-.14,2.06-.34,4.87-.48,6.95-.06.84-.1,1.5-.13,1.82-.02.12-.06.23-.18.28h-.02Z"/>
      <path class="st0" d="M186.89,16.06c-.12,3.44-.01,13.74-.04,15.76.04,1.25,3.9,1.54,4.99,1.47,3.41-.1,5.95-1.29,7.74-3.55.19-.25.34-.43.48-.66.27-.45.21-.59.22-1.08,0-5.7,0-15.17,0-21.05,0-1.41,0-2.45,0-2.9,0-.1-.04-.18-.12-.24-.96-.36-2.46-.24-3.55-.16-7.08.76-8.6,6.42-9.71,12.39v.02ZM191.37,25.17c.7-3.45,2.33-10.45,2.89-12.98.15-.67.57-1.87,1.3-2.31.72-.48,1.96-.48,2.43.14.53.78.25,1.84.08,2.67-.5,2.21-2.19,9.74-2.66,11.83-.21.89-.56,2.05-1.44,2.56-.69.4-1.77.39-2.26-.11-.44-.45-.4-1.2-.34-1.77v-.03Z"/>
      <path class="st0" d="M175.39,3.59c-2.24-.07-6.41,0-8.67-.02-.39.02-.63-.05-.88.14-.1.12-.15.29-.2.47-.34,1.49-1.3,5.5-1.7,7.36-.09,2.69,0,19.23-.03,21.48.04.36.43.24,1.02.28.62,0,1.55,0,2.23,0,4.57.31,8.13-2.37,9.53-7.33.99-3.77,2.52-10.82,3.18-13.52,1.13-4.41.41-8.63-4.45-8.86h-.03ZM173.34,12.53c-.57,2.57-2.11,8.98-2.57,10.94-.48,2.1-1.16,4.39-3.76,4.16-.15-.02-.27-.11-.24-.27.45-1.94,3.63-15.41,4.18-17.74.09-.75,1.78-.32,2.14.09.67.73.37,1.91.25,2.79v.03Z"/>
    </g>
  </g>
  <g>
    <g>
      <path class="st0" d="M221.4,55.32c-.58.42-1.17.88-1.76,1.3l-.75,1.77-.06-1.13h-.07s-2.11,1.57-2.11,1.57l-1.15,5.03,1.14-.78.72-3.12.12,2.5.73-.55,1.58-3.79-.73,3.17s.06-.02.1-.04c.29-.19.62-.47.91-.68.15-.11.33-.22.48-.33l1.16-5.11s-.27.16-.31.19Z"/>
      <path class="st0" d="M221.24,59.42c-.02.09.01.19-.07.29l.05.03,2.84-2.02.27-1.25-1.38.93.16-.71s0-.08.01-.12l1.05-.77.16-.79s-.08.02-.12.05c-.29.17-.61.45-.9.62l.17-.81,1.28-.9.18-1.1c-.9.57-1.78,1.19-2.65,1.81-.37,1.53-.65,3.07-1.01,4.6-.01.05-.05.1-.06.15Z"/>
      <path class="st0" d="M212.27,50.52c-.17.24-.44.74-.57,1.03-.43.98-.34,1.82.46,2.28.54.31.98.33,1.49-.34.37-.49.96-1.98,1.03-2.53.06-.39-.02-.87-.33-1.08-.72-.5-1.49-.22-2.08.64ZM213.07,51.14c.1-.19.33-.7.59-.62.28.09-.13.72-.22.91-.16.36-.32.77-.51,1.12-.1.18-.26.46-.44.25-.14-.16.08-.59.17-.8.11-.25.27-.59.41-.86Z"/>
      <path class="st0" d="M230.2,54.02c1.33-.46,1.86-1.39,1.84-2.62,0-.48-.07-1.11-.37-1.44-.38-.42-.92-.35-1.5-.03-1.01.54-1.02,2.16-1.02,2.99,0,.63.22,1.38,1.05,1.09ZM230.35,50.96c.01-.12.04-.3.17-.37.37-.21.35.58.36.79.01.27.04,1.05-.07,1.29-.07.15-.29.33-.4.19-.03-.04-.04-.26-.05-.33-.02-.4-.06-1.19-.01-1.57Z"/>
      <path class="st0" d="M212.69,49.28s.05-.03,0-.06c-.69-.12-1.57-.63-2.35-.14-.4.25-1.06,1.02-.76,1.39v.04c-.33.1-.59.41-.77.69-.09.14-.65,1.2-.64,1.27,0,.03.03.05.06.05l.95.1c.09-.06.65-1.48.89-1.64.13-.11.24-.04.37-.03l-.87,1.77,1.05.29c.5-1.11,1.03-2.21,1.72-3.25.1-.15.28-.34.35-.48ZM210.79,50.4l-.27-.06c-.07-.17.17-.52.37-.54.07,0,.15.04.24.02l-.34.58Z"/>
      <path class="st0" d="M232.45,53.07l1.17-.29-.06-1.77c.15,0,.28-.08.38.03.08.09.1.68.1.84.01.27.01.54,0,.81.36-.07.72-.12,1.07-.12.04-.03.02-.53.02-.62-.01-.5-.02-1.2-.51-1.39.43-.38.26-.99.03-1.3-.36-.48-.9-.35-1.51-.23-.35.07-.7.16-1.04.25.34,1.18.39,2.48.35,3.78ZM233.78,49.91s.09.23.08.27c0,.26-.16.23-.36.27l-.1-.53c.11-.09.3-.09.37,0Z"/>
      <path class="st0" d="M206.52,65.14l-.85.26v1.86s-.57-1.67-.57-1.67c-.37.03-.77.18-1.14.16-.05,1.23.06,2.46.42,3.55l.73-.09c-.13-.49-.26-.99-.29-1.51l.62,1.16c.06.04.12.19.17.22.07.04.58-.1.71-.13.07-.02.34-.08.36-.13-.23-1.17-.27-2.41-.17-3.67Z"/>
      <path class="st0" d="M233.16,65.78l-1.02-.17-1.32,1.68.83-1.86-.69-.27c-.5,1.26-1.1,2.5-1.86,3.67,0,.04.23.11.28.12.11.04.58.18.67.14l1.35-1.29-.91,1.42.66.08c.89-1.07,1.49-2.3,2.07-3.5l-.06-.04Z"/>
      <path class="st0" d="M197.53,60.89l-.05.06-.3.72.18-1.58-.29-2.11-.92,4,.16,1.18.52-2.24c-.06.56-.16,1.13-.21,1.7-.04.4-.15,1.15-.13,1.5,0,.08.13.53.17.6.02.03.02.06.07.05l.62-1.66c-.12.82-.27,1.63-.36,2.45,0,.11.49.91.58,1.04.02.02.03.06.07.02.08-1.32.24-2.66.48-4-.22-.55-.46-1.11-.59-1.71Z"/>
      <path class="st0" d="M208.55,64.16c-1.16.48-1.68,1.38-1.73,2.48-.04.96.15,2.36,1.55,1.59.58-.32.84-1.15.93-1.7.04-.27.04-.53.07-.8l-1.33.67-.03.47.27-.06c-.04.23.01.74-.38.62-.08-.09-.05-1.15-.03-1.34.02-.19.04-.32.16-.5.19-.26.39-.27.46,0,.01.05-.02.19.04.17.11-.06.82-.4.84-.45.13-.23-.03-.88-.17-1.05-.16-.18-.39-.22-.66-.11Z"/>
      <path class="st0" d="M229.95,64.59c-.08-.1-.51-.39-.64-.44-.58-.23-1.17.69-1.32,1.19l.69.47c.13-.45.58-.5.55-.04-.02.28-.27.84-.41,1.13-.07.15-.26.59-.43.6-.29,0-.07-.47.04-.63.08-.05.13.13.21.04l.2-.46-1.02-.67c-.29.7-.58,1.49-.38,2.14.13.44.68.71,1.2.49.79-.34,1.49-1.93,1.56-2.64.04-.36-.04-.93-.25-1.18Z"/>
      <path class="st0" d="M202.92,53.77l1.43-.66c.84-1.49,1.82-2.93,3.01-4.22l-1.35.31c-.52.63-1.02,1.28-1.44,1.96-.06-.02-.03-.04-.02-.08.02-.1.07-.23.1-.33.14-.43.33-.85.48-1.28l-1.08.44c-.36.97-.66,1.96-.89,2.94l-.24.91Z"/>
      <path class="st0" d="M214.84,52.29l-.27.71.65.53-.63,2,.98.89c.3-1.12.63-2.24,1.01-3.35.15-.43.34-.85.46-1.28l-1.64-1.24-.46.93.79.57.04.08-.27.66-.67-.49Z"/>
      <path class="st0" d="M227.32,55.6l.3-2.01.91-.53.05-.71-.89.47.08-.72,1.09-.61-.02-.91c-.76.39-1.52.79-2.24,1.27-.05.58-.1,1.16-.17,1.74-.09.74-.21,1.49-.34,2.24-.02.1-.17.58-.09.6l1.33-.82Z"/>
      <path class="st0" d="M239.74,53.83c.32-1.28.53-2.56.68-3.83l-.88-.44-.11,1.12c.01.14-.02.32-.05.47,0,.03,0,.11-.05.1-.09-.46-.18-.92-.32-1.36-.05-.15-.14-.3-.19-.42-.02-.04.05-.16-.07-.22-.16-.09-.65-.18-.86-.23-.09-.02-.22-.05-.31-.03.62,1.26.9,2.71,1.06,4.17l1.11.67Z"/>
      <path class="st0" d="M242.87,52.86c-.25,1.44-.36,2.88-.74,4.33l.43,1.53.42-1.83.09.25c.07.72-.27,1.49-.39,2.23l.24,1.68c.2-.93.51-1.89.44-2.79.08-.03.04.05.06.06.14.04.19-.2.23-.31.09-.3.15-.74.18-1.04.16-1.6-.29-2.96-.9-4.26-.05,0-.06.13-.07.16ZM243.29,55.46l.1.34c0,.24.05.49-.07.74-.01.02-.03.08-.05.04-.02-.03-.13-.44-.12-.47l.15-.65Z"/>
      <path class="st0" d="M214.15,60.66l-2.89,1.97-.21,1.14s.58-.36.66-.41c.12-.03,0,.31-.02.39-.08.54-.16,1.09-.23,1.63-.05.37-.11.81-.12,1.16,0,.03,0,.05.03.07.38-.22.78-.44,1.13-.72l.59-3.42.77-.59.29-1.23Z"/>
      <path class="st0" d="M225.58,60.82s-.08-.12-.13-.16l-.07.13-.25,1.09c0,.11.41.39.47.51.02.04.02.05.02.1-.04.45-.36,1.08-.42,1.54l-.57,1.86s.02.06.04.09c.05.08.31.28.41.36.08.07.25.24.32.28.03.01.05.02.08.01l.82-2.43.23-.86.54.44.32-1.17c-.6-.6-1.23-1.18-1.81-1.8Z"/>
      <path class="st0" d="M201.64,52.13s.05-.05.06,0c-.12.19-.15.5-.27.68-.06.09-.52.45-.65.56-.07.06-.28.25-.31.31-.1.2-.17.52-.23.73l.86-.78c-.05.2-.11.48-.2.68-.08.17-.44.43-.6.58-.2.2-.39.42-.6.62l-.33,1.14c.06.02.05-.01.07-.04.11-.11.21-.25.33-.37.6-.62,1.25-1.18,1.94-1.71.45-1.24.93-2.46,1.51-3.68.11-.23.24-.46.35-.69-.02-.02-.61.32-.69.37-.73.44-1.42.97-2.07,1.55l-.39,1.1.51-.49c.25-.15.45-.39.69-.56Z"/>
      <path class="st0" d="M208.29,49.55l-.4.6-.84.12-.35.65.81-.12-.33.66-1.14.22-.52,1.07c.75-.18,1.48-.26,2.22-.27.63-1.3,1.35-2.57,2.29-3.74-.73-.06-1.5-.03-2.25.09l-.58.84,1.1-.12Z"/>
      <path class="st0" d="M241.3,55.51c.25.38.43.81.65,1.2l.19-1.13c-.06-.34-.64-.93-.63-1.24,0-.13.04-.41.07-.55,0-.04,0-.08.06-.07l.48.76c.02-.2.13-.54.11-.71-.03-.23-.42-.63-.55-.83.04-.24-.01-.48.08-.73l.73,1.05c.01-.21.07-.44.09-.65.04-.36.04-.43-.14-.7-.18-.27-.48-.62-.71-.85-.28-.29-.61-.53-.92-.79l-.05.04c.08,1.41,0,2.86-.17,4.32.25.28.5.58.71.9Z"/>
      <path class="st0" d="M237.65,52.81l-.02-1.07-1.03-.2-.04-.68.76.12-.05-.67-.81-.09-.11-.56s0-.05.05-.04c.33.05.68.07,1,.14l-.18-.87c-.72-.1-1.46-.12-2.22-.08.43,1.15.56,2.43.56,3.73.73,0,1.43.09,2.09.26Z"/>
      <path class="st0" d="M202.31,65.72l-.7-.11-.55,1.25v-1.45c-.28-.09-.51-.26-.78-.39-.02-.01-.05-.05-.08,0-.04,1.27-.05,2.54.15,3.75l.97.34c-.02-.34-.19-.56.06-.93l.41,1.01c.07.05.89.15.94.12-.37-.79-.64-1.64-.82-2.53l.4-1.05Z"/>
      <path class="st0" d="M236.25,65.43l-.66,1.45c-.06-.01-.03-.06-.03-.1,0-.37.05-.78.06-1.15l-.75.12c-.06.05-.02.9-.1,1.06-.09.19-.37.55-.51.74-.45.62-.95,1.21-1.47,1.77.04.03.92-.07,1.02-.13l.86-1c.06.36-.22.6-.37.93l1.09-.31c.77-1.21,1.38-2.5,1.89-3.79l-1.02.41Z"/>
      <path class="st0" d="M223.62,59.19l.09-.03c-.06-.07,0-.16.06-.25l-.11-.04.07-.07h-.09s-.03.14-.03.14c-.13-.01-.2.05-.22.18h-.17s0-.09,0-.09v.19s-.16.13-.16.13l.13-.06c0,.11-.1.12-.18.09-.06-.02-.02-.08-.18-.03-.04.12.07-.01.1.07-.11.12.02.06,0,.16-.13-.15-.26.12-.3.14-.08.04-.17-.04-.16.21-.13-.03.05-.19-.08-.17-.03.14-.1.15,0,.23l-.14-.03.08-.23h-.17s.13.07.13.07c-.08.24-.19.06-.27.31.03,0,.06,0,.09,0l-.05.09h-.06s.01-.06.02-.09c-.03,0-.06,0-.09,0,.05.07.02.11-.02.2h-.09c.09-.07.07-.11.08-.2l-.07.17h-.2s.05.05.05.05l-.06.13c.06,0,.15-.08.11.03-.06,0-.12.03-.18.03-.01.04,0,.08-.03.11,0,.01-.09.03-.11.03-.1,0-.01-.11-.07-.12l-.04.12.06.07-.08-.03c-.06-.05-.1.19-.05.22l-.1-.04.06-.16-.12.16h-.15c0,.1.2,0,.2.01v.15c-.06-.07-.14-.03-.22-.06-.05.12.19,0,.14.15-.07-.1-.11,0-.2-.03l-.07.84.51.53c.34-.73.73-1.44,1.07-2.17.03-.07.05-.1.07-.15.02-.04.1-.26.12-.27l.08.04-.07.03v.07s.04.02.04.02l-.07.06-.71,2.96c.19.24.39.47.61.69.02.02.12.14.15.09l1.14-4.61-.08-.03ZM221.68,60.4s.12-.12.1-.04c0,.02-.08.06-.1.04ZM222.1,59.99l.09.05c-.05,0-.11.07-.09-.05Z"/>
      <path class="st0" d="M221.57,60.31l-.09.2s.04,0,.06,0c.02-.06.04-.15.03-.2Z"/>
      <path class="st0" d="M225.1,60.29l-.95-1c-.37,1.66-.78,3.3-1.2,4.96,0,.06.03.08.06.12.22.28.57.51.79.8.05.03.09-.1.1-.13.45-1.41.84-3.03,1.16-4.45.01-.06.06-.26.04-.3Z"/>
      <path class="st0" d="M215.54,61.43c.15-.71.34-1.43.5-2.14l-1.39.97-.04.06c-.29,1.17-.5,2.33-.72,3.49-.08.45-.18.9-.25,1.35l1.33-.92c.15-.87.37-1.74.56-2.62.01-.07,0-.13.02-.2Z"/>
      <path class="st0" d="M199.05,63.99c-.11-.12-.2-.3-.31-.41-.02-.02-.02-.06-.08-.04-.31,1.15-.59,2.31-.78,3.46l.59.61.11-.11c.11.12.32.22.42.32.07.07.04.18.09.26.05.09.35.26.45.32.06.03.48.26.51.24-.36-1.33-.55-2.73-.57-4.18-.11-.18-.29-.3-.42-.46ZM198.62,66.97l.16-.94.13,1.19-.29-.26Z"/>
      <path class="st0" d="M239.49,63.57l-.56.44-.64.44c-.55,1.16-1.19,2.3-1.93,3.39-.19.28-.4.54-.57.82,0,.01.22-.08.26-.09.21-.08.71-.29.88-.41.1-.07.15-.22.28-.32.17-.12.41-.2.58-.35v.17s.89-.64.89-.64c.31-.96.47-1.93.71-2.89l.1-.57ZM237.97,66.98l-.09.08-.35.2.68-1.19-.25.91Z"/>
      <path class="st0" d="M197.55,56.79c-.08.07-.1.14-.11.23.12.02,0-.11.12-.15v.16c-.17.07-.08.09-.07.16,0-.05.05-.13.11-.12l-.06.09.05.09s-.1-.05-.1-.06c0,.07,0,.13-.02.2.07,0,.15,0,.12.09-.01.02-.06-.11-.11-.01-.04.07.1.03.09.09l-.08.15.04.04.08-.09-.05.11.07.05c-.05.05-.13,0-.14.1l.12-.03-.08.12h.12s-.14.12-.14.12h.12s-.08.12-.08.12h.12s.14-.6.14-.6c.02-.11.17-.38.23-.49l.26-.36c-.06.31-.16.61-.23.92-.06.25-.15.59-.18.83,0,.03-.04.12.01.11.09-.15.19-.3.29-.44.21-.29.76-.92.85-1.2.2-.63.3-1.29.5-1.92l.77-2.46c-.48.44-.92.97-1.32,1.48-.56.73-1.09,1.51-1.41,2.34-.03.07,0,.15-.09.2h.05s-.08.13-.08.13h.12ZM198.1,56.4c.06-.36.27-.69.5-1,.05,0,.01.07,0,.1-.08.38-.18.72-.49,1.03-.05-.03-.02-.08-.02-.13Z"/>
      <path class="st0" d="M242.2,61.66l.1-.04-.11-.03.1-.07-.11-.04.04-.06c.07,0,.07,0,.08-.07,0-.07-.04-.11,0-.19l-.1-.03c0-.07.02-.05.07-.07-.01-.08-.02-.18.08-.21,0-.03-.05,0-.07-.02-.02-.02,0-.07-.03-.07-.19,0-.11.2-.16.33,0,.02-.05.01-.06.03-.08.17-.11.41-.2.59-.04,0-.02-.11-.02-.14.01-.17.06-.42.04-.58,0-.04.02-.05-.05-.04-.38.6-.88,1.13-1.34,1.68-.37,1.35-.84,2.69-1.37,4.02.02.03.17-.1.19-.13.34-.28.64-.63.95-.94.27-.83.56-1.67.76-2.51l-.13,1.71.18-.16c.1-.17.22-.29.34-.46.24-.71.6-1.47.8-2.18.02-.09.06-.26.02-.32Z"/>
      <path class="st0" d="M218.74,56.39h.06s.01-.06.02-.09c-.06,0-.11.04-.08.09Z"/>
      <path class="st0" d="M218.4,56.47l-.05.14.04-.12.23.03s.01-.04.01-.06h-.11s.09-.09.09-.09c.03.02.03.05.02.09.06-.05.09.07.15-.01.05-.08-.11.02-.1-.06l.07-.16h.08s0,.04,0,.06c.04,0,.08,0,.12,0l-.06-.12h.17c.05-.12-.1,0-.13-.07.05-.03.16-.07.17,0l-.02.13h.15s-.11-.03-.11-.03l.14-.12c-.14.04-.18-.11-.05-.17l.03.12v-.12c.2-.04-.04.13.07.14l.09-.2h.14c-.01-.16.07-.2.21-.15.04-.13-.14,0-.04-.14l.07.03.02-.09-.08.03v-.06s.12,0,.12,0l.2-.81c-.56-.62-1.15-1.22-1.75-1.8-.03-.02-.02-.07-.07-.01l-.34,1.08c.17.22.4.38.59.58.05.06.32.34.31.39,0,.04-.05.08-.06.12-.05.21-.09.42-.14.62l-.31-.24c-.05-.1-.14-.2-.22-.28-.02-.02-.16-.17-.18-.15l-.22.82.64.66h.13ZM219.56,55.54l.05.1s-.06.05-.1.04l.05-.14ZM219.37,55.8s-.12.12-.1.04c0-.02.08-.06.1-.04Z"/>
      <path class="st0" d="M203.58,65.78c-.32.05-.62,0-.93,0-.03.64,0,1.27.07,1.89.04.3.08.65.14.92.05.25.15.48.19.74h.93c.01-.17-.08-.33-.12-.48-.24-.96-.3-2.02-.29-3.06Z"/>
      <path class="st0" d="M233.58,65.83c-.42.87-.85,1.75-1.39,2.58-.21.32-.45.62-.66.94h.92c.88-1.09,1.48-2.32,2.08-3.53h-.95Z"/>
      <path class="st0" d="M217.54,57.2v-.12c.09-.01.16,0,.22.06,0-.16-.09-.12-.21-.12-.04.05-.06.12-.1.17.02,0,.06,0,.09,0Z"/>
      <polygon class="st0" points="217.17 57.55 217.22 57.55 217.24 57.46 217.19 57.46 217.17 57.55"/>
      <path class="st0" d="M217.02,57.19l-.07.03.13.07s-.14,0-.15.04c-.02.08.19-.05.13.07l-.13.06c.22.05.12-.25.33-.29,0,.08-.09.07-.1.09-.01.02.01.1-.04.14.09-.04.13.06.13.06.04.01.15-.03.2,0,0-.09-.15-.05-.16-.06.03-.06.08-.12,0-.15l-.03.12c-.17-.04,0-.09.03-.12,0,0,0-.04.01-.06.13.08.1.01.14,0l-.08-.03s.1-.04.1-.07c0-.03-.09-.03-.07-.07.05,0,.1,0,.15,0,.02-.02.14-.08.11-.12-.04-.05-.11.03-.12.09l.03-.15-.42-.41c-.04.17-.08.34-.12.51-.01.06-.06.11-.06.14,0,.02.08,0,.04.09Z"/>
      <path class="st0" d="M242.38,62.39c-.1-.02-.01-.06-.01-.11,0-.04-.04-.06-.04-.1,0-.03.04-.08.04-.09-.04-.06-.1.11-.12.13.18.1-.04.18-.05.21-.05.12-.06.35-.12.46l-.09.33c.05,0,.06-.06.09-.09.12-.19.16-.29.22-.47,0-.02.06-.01.07-.03,0-.02.04-.19-.01-.19l-.11.2c.05-.11,0-.2.14-.25Z"/>
      <path class="st0" d="M242.38,60.51l-.06.15-.11-.03-.03.12c.15-.06.18-.06.2-.23Z"/>
      <path class="st0" d="M217.12,57.64v-.2c-.07.03-.1.22,0,.2Z"/>
      <path class="st0" d="M216.84,57.69l.17.03.02-.09c-.06.01-.19-.05-.19.06Z"/>
      <path class="st0" d="M218.48,56.62s.06.02.08.02c.09,0,.04-.11-.07-.07-.04.01-.04.05-.07.07-.03.02-.07,0-.08,0,0,0-.02.18.05.14-.01-.06,0-.15.09-.17Z"/>
      <path class="st0" d="M217.67,57.26h-.09s0,.15,0,.15c.09.02.07-.09.09-.15Z"/>
      <polygon class="st0" points="217.17 57.78 217.23 57.78 217.26 57.64 217.2 57.64 217.17 57.78"/>
      <path class="st0" d="M217.02,57.53l-.03-.04-.11.03v.03c.06.01.08.05.14-.01Z"/>
      <path class="st0" d="M217.52,57.4l.03-.17c-.08.05-.04.11-.05.17h.03Z"/>
      <path class="st0" d="M217.46,57.29h-.09c-.02.11.06.11.09,0Z"/>
      <path class="st0" d="M217.68,57.2v.03s.17,0,.17,0c0-.09-.1-.02-.17-.03Z"/>
      <polygon class="st0" points="221.03 60.83 221.05 60.75 220.99 60.75 220.97 60.83 221.03 60.83"/>
      <path class="st0" d="M217.66,57.16c.02-.08-.13,0-.1.04.01.02.09-.02.1-.04Z"/>
      <polygon class="st0" points="218.83 56.5 218.94 56.53 218.96 56.47 218.84 56.47 218.83 56.5"/>
    </g>
    <path class="st0" d="M263.69,63.29c-.14-.2-.44-.14-.68-.16-1.37,0-4.85,0-6.33,0-.22,0-.48-.03-.63-.15-.38-.45.32-1.59.57-2.08,1.56-2.65,4.63-3.8,6.89-5.68.85-.78,1.86-1.41,1.72-2.74,0-1.66,0-3.42,0-5.3,0-1.35,0-2.48,0-3.55,0-.61.07-1.33-.29-1.5-.94-.45-2.33-.39-3.42-.36-4.84.2-7.31,3.17-8.18,7.58-.32,1.23.04,1.28,1.08,1.28,1.15,0,2.67.03,3.68-.02.53,0,.83-.41.96-.88.19-.59.37-1.44.74-1.93.5-.75,1.81-.89,1.89.27.04.83-.32,1.71-.73,2.42-.74,1.25-1.89,1.83-3.33,2.7-1.23.74-2.39,1.55-3.39,2.48-.49.46-1.07,1.04-1.15,1.46-.15,1.12-.03,1.99-.07,3.36,0,2.39,0,4.92,0,7.31,0,.64.02.69.69.7.47,0,.93,0,1.42,0,1.48,0,3.18,0,4.64,0,1.17-.05,1.79.1,2.5-.08.3-.18.34-.59.44-.91.24-.91.67-2.58.88-3.45.05-.24.15-.52.07-.74h0Z"/>
    <path class="st0" d="M278.34,60.08c.11-.4.17-.67.18-1.04-.03-4.34.06-15.61-.03-17.89-.21-.62-2.79-.42-3.48-.39-5.33.32-7.17,4.47-8.21,9.21-.23.94-.53,1.79-.47,2.67.03,4.05-.06,11.8.03,14.14.23.79,3.14.68,3.9.65,4.64-.19,6.95-3.04,8.06-7.32v-.04ZM269.88,61.11c.09-1.1.43-1.8.82-3.54.65-2.52,1.99-7.75,2.5-9.74.12-.61.47-1.31,1.11-1.63.63-.37,1.33.06,1.42.71.06.33-.01.63-.09.94-.57,2.19-2.77,10.87-3.32,12.88-.33,1.24-2.14,2.19-2.44.42v-.03Z"/>
    <path class="st0" d="M282.3,69.34c.89-3.16,4.16-4.75,6.72-6.51.52-.38,1.08-.76,1.07-1.43.01-1.7,0-7.79,0-10.58-.05-.57.15-1.73-.22-1.93-.66-.31-1.74-.15-2.52-.11-3.09.3-5.41,1.68-6.68,4.44-.46.98-.77,2.13-1.02,3.18-.09.4-.15.74-.06.94.14.27.5.24.78.26.98,0,2.8,0,3.78,0,.69.03,1.08-.28,1.26-.94.23-.7.4-1.64.94-2.12.61-.6,1.68-.46,1.69.58-.01,1.18-.68,2.5-1.44,3.25-1.17,1.11-2.74,1.75-4.05,2.71-1.44.98-2.76,2.24-3.74,3.57-1.02,1.22-.91,1.96-.9,3.51,0,1.36,0,3.19,0,4.65,0,.84,0,1.55,0,1.99,0,.48.03.69.5.68,1.46,0,7.81,0,9.68,0,.64.04.78-.22.93-.79.18-.67.51-1.96.74-2.86.07-.5.61-1.58-.19-1.66-1.61-.11-5.1,0-6.65-.05-.47,0-.76-.21-.61-.73v-.03Z"/>
    <path class="st0" d="M295.2,43.87c-.15.08-.18.25-.23.43-.52,2.32-3.25,12.1-3.68,14.67.05.09.2.12.5.14.51.02,1.55.01,2.58.01.7-.01,1.77.06,2.24-.11.67-.21,1.1-1.09,1.89-1.08.95.08,1,.91.75,1.85-.17.69-.38,1.47-.56,2.18-.37,1.31-.43,2.14-1.2,2.7-.28.19-.66.31-.99.19-1.38-.56.42-2.96-.73-3.19-1.05-.11-2.53-.02-3.54-.05-.33.03-.77-.06-.97.24-.08.15-.08.36-.09.55,0,1.31,0,4.8,0,6.23,0,.47.1.9.53,1.15,1.24.68,3.15.78,4.62.68,3.28-.19,5.38-1.61,6.71-4.13.29-.55.34-.95.32-1.61,0-3.25,0-9.49,0-11.62.01-.44-.15-.71-.64-.78-.82-.15-2.26.07-3.1.41-.89.34-.78-.17-.61-.87.89-3.48.65-2.57,3.81-2.85.22-.04.39-.16.46-.37.15-.64.05-1.8.08-2.59,0-.51,0-.98,0-1.34-.02-.47.03-.88-.46-.94-1.32-.06-4.11.02-6.07.01-.58.02-1.52-.02-1.63.07h-.01Z"/>
    <path class="st0" d="M5.92,67.31c-.02.55-.02,1.7-.01,2.46.04.81-.11,1.65.11,2.37.31.52,1.23.3,1.94.35,2.13.11,1.38-1.68,2.86-1.99,1.01-.06,2.18-.1,3.17.02,1.17.38-.2,2.06,1.69,1.97.8,0,2,0,2.69,0,.24,0,.48,0,.7-.03.15-.02.2-.07.22-.15.02-2.88.02-26.4,0-29.36-.03-.18-.43-.17-.62-.18-.55-.01-1.66-.01-2.26,0-.26.02-.63-.03-.78.21-.99,2.46-2.69,6.68-4.01,9.98-1.64,4.22-4.58,11.13-5.68,14.33v.02ZM14.74,66.41c-.17.08-.91.06-1.41.06-.57-.04-1.62.12-1.59-.22.56-1.55,3.21-7.9,3.73-9.23.17-.44.1.02.09.32-.14,2.06-.34,4.87-.48,6.95-.06.84-.1,1.5-.13,1.82-.02.12-.06.23-.18.28h-.02Z"/>
    <path class="st0" d="M20.75,51.56c.63.29,1.54.06,2.23.22.37.09.24.36.11.93-.72,3.13-2.11,9.14-2.51,10.86-.14.56-.12.85-.12,1.5.02,2.62-.04,8.7.03,10.39.11.51,1.12.28,1.67.34.4,0,.81,0,1.14,0,.41,0,.68-.01.83-.05.11-.03.16-.08.2-.15.61-2.47,4.09-17.72,5.46-23.57.04-.11.09-.17.22-.21.44-.15,1.42.05,1.61-.6.09-.29.07-.74.07-1.3,0-1.05.02-2.2-.01-3.25.02-.73-.48-.56-1.08-.58-1.53,0-3.1,0-4.66,0-1.66.03-3.89-.05-5.21.03-.35.11-.24.58-.28.88,0,.92,0,2.76,0,3.73.01.3,0,.65.26.83h.02Z"/>
    <path class="st0" d="M52.89,59.89c.08-3.24.57-12.9.6-14.28,0-.19-.04-.28-.25-.31-1.89-.04-4.76,0-6.83-.02-.71,0-1.39,0-2.07,0-.65,0-.79.02-.95.63-.38,1.62-.88,3.67-1.19,5.22-.05,2.12,0,20.36-.02,23.4,0,.15,0,.25.02.36,0,.02.01.02.02,0,.06-.06.24-.97.58-2.4l1.28-5.54c.81-3.5,1.7-7.37,2.47-10.69.11-.47.16-.77.25-1.03-.05,1.49-.68,15.03-.84,18.77,0,.14-.01.27-.02.4-.01.45-.08.57.45.59.07,0,.16,0,.26,0,1.31-.04,4.07.09,5.4-.05,1.07-1.68,3.8-9.09,6.23-14.62,1.18-2.8,2.03-4.92,2.14-5.1-.01.11-.37,1.63-.87,3.79-1.22,5.34-3.25,13.95-3.63,15.78,0,.07.03.12.11.15.12.05.38.05.81.05,1.06,0,3.18,0,4.24,0,.5-.03,1.06.09.98-.31-.1-2.76.19-27.05-.1-29.34-.66-.15-1.73-.07-2.44-.06-.4.04-.54.07-.68.36-.83,1.91-5.35,12.99-5.94,14.23h0Z"/>
    <path class="st0" d="M63.18,65.03c-.02.55-.02,1.7-.01,2.46.04.81-.11,1.65.11,2.37.31.52,1.23.3,1.94.35,2.13.11,1.38-1.68,2.86-1.99,1.01-.06,2.18-.1,3.17.02,1.17.38-.2,2.06,1.69,1.97.8,0,2,0,2.69,0,.24,0,.48,0,.7-.03.15-.02.2-.07.22-.15.02-2.88.02-26.4,0-29.36-.03-.18-.43-.17-.62-.18-.55-.01-1.66-.01-2.26,0-.26.02-.63-.03-.78.21-.99,2.46-2.69,6.68-4.01,9.98-1.64,4.22-4.58,11.13-5.68,14.33v.02ZM72,64.13c-.17.08-.91.06-1.41.06-.57-.04-1.62.12-1.59-.22.56-1.55,3.21-7.9,3.73-9.23.17-.44.1.02.09.32-.14,2.06-.34,4.87-.48,6.95-.06.84-.1,1.5-.13,1.82-.02.12-.06.23-.18.28h-.02Z"/>
    <path class="st0" d="M83.94,61.72c.71-3.31,2.8-12.01,3.17-13.84.02-.35-.46-.2-1.17-.24-.34,0-.76,0-1.19,0-1.11,0-2.28,0-3.38,0-.72,0-.74.06-.85.55-.03.13-.06.25-.09.39-.68,2.95-1.94,8.41-2.68,11.62-.09.35-.09.48-.09.81,0,2.12,0,14.05,0,15.98,0,.24.09.33.54.36.44.02,1.19.03,1.62,0,.31-.03.55-.1.6-.4.47-1.97,2.73-11.9,3.08-13.28.19,2.88.46,12.03.55,13.36.03.51.65.29,1.19.35.85,0,2.15,0,3.12,0,.64,0,1.1,0,1.32-.02.23-.03.26-.12.26-.32-.06-1.87-.38-10.83-.53-14.9-.02-.6-.07-.6.33-1.31.74-1.34,1.66-2.84,2.34-4.16.12-.27.12-.52.12-.82,0-1.27,0-4.92,0-6.82,0-.72-.02-1.15-.11-1.25-.1-.13-.3.21-.38.34-1.25,2.17-7.05,12.45-7.77,13.61h0Z"/>
    <path class="st0" d="M91.87,60.56c-.03,2.01,0,5.32-.01,7.75,0,2.28,0,4.35,0,5.06.01.13.04.24.16.31.71.21,1.87.07,2.62.1.21,0,.63-.01.71-.17.65-2.51,4.54-19.64,5.18-22.3.13-1.67.01-4.75.05-6.41.06-.95-.46-.84-1.28-.85-.76,0-1.9,0-2.64,0-.66.04-.96-.1-1.09.41-.41,1.81-2.94,12.62-3.7,16.08h0Z"/>
    <path class="st0" d="M111.26,57.78c-.23-3.03-.72-11.97-.83-13.38-.02-.17-.04-.27-.22-.31-1.4-.07-3.52-.01-5.05-.03-.51,0-.99,0-1.47,0-.65,0-.81.02-.94.54-.43,1.83-.97,4.08-1.34,5.84-.05,1.9,0,19.68-.02,22.84-.01.34.05.63.21.25.6-2.35,3.04-13.14,3.41-14.64.11-.63.13,1.42.25,2.9.24,3.93.62,10.42.71,11.67.02.17.04.27.23.31,1.81.05,4.88.04,6.67.01.24-.03.3-.1.36-.3.3-1.26,1.93-8.34,2.77-11.98.25-1.24.5-1.74.53-2.69,0-1.85,0-12.05,0-14.21,0-.16,0-.32-.14-.41-.27-.14-1.75-.24-1.95.14-.6,2.16-2.77,12.11-3.16,13.46h0Z"/>
    <path class="st0" d="M117.64,49.29c-.5,1.65-.29,2.75-.33,4.35,0,4.81,0,14.13,0,15.88.02.56.85.54,1.3.61,1.31.12,2.67-.12,3.75-.73.5-.22,1.13-.92,1.29-.64.12.24-.18,1.07.07,1.3.11.11.28.13.44.14.53.02,1.49,0,2.43,0,.94,0,1.85,0,2.32,0,.27,0,.43-.03.5-.09.24-2.21,0-12.36.08-14.64.05-.51-.3-.46-.7-.48-.95.01-2.81-.04-3.9.02-.43.01-.58.37-.67.75-.2.85-.62,2.65-.82,3.55-.15.62.08.82.71.85.37.02.91.07,1.06.45.19.5-.23,1.59-.51,2.19-.49,1.19-2.26,1.76-3.13.84-.45-.58-.32-1.48-.2-2.13.53-2.36,2.24-9.68,2.75-11.92.22-1.01.64-2.24,1.65-2.78,1.37-.67,2.88-.14,2.78,1.45,0,.86-.41,2.25-.65,3.37-.3,1.12-.15,1.49,1.12,1.37.25-.02.53-.12.52-.41.01-2.85.01-9.9,0-11.57-.04-.6-.62-.52-1.17-.54-5.43-.15-9.49,3.21-10.69,8.75v.05Z"/>
    <path class="st0" d="M138.08,53.13c.63.29,1.54.06,2.23.22.37.09.24.36.11.93-.72,3.13-2.11,9.14-2.51,10.86-.14.56-.12.85-.12,1.5.02,2.62-.04,8.7.03,10.39.11.51,1.12.28,1.67.34.4,0,.81,0,1.14,0,.41,0,.68-.01.83-.05.11-.03.16-.08.2-.15.61-2.47,4.09-17.72,5.46-23.57.04-.11.09-.17.22-.21.44-.15,1.42.05,1.61-.6.09-.29.07-.74.07-1.3,0-1.05.02-2.2-.01-3.25.02-.73-.48-.56-1.08-.58-1.53,0-3.1,0-4.66,0-1.66.03-3.89-.05-5.21.03-.35.11-.24.58-.28.88,0,.92,0,2.76,0,3.73.01.3,0,.65.26.83h.02Z"/>
    <path class="st0" d="M149.05,56.03c-.03,3.14,0,11.69-.01,13.63-.02.36.12.51.54.52.43.03,1.26.02,1.83.02.52-.04.76.05.94-.28.46-1.84,2.06-8.9,3.08-13.28.31-1.41.55-2.21.74-3.3.03-2.13,0-10.02,0-12.27.03-.49-.21-.58-.77-.58-.54-.01-1.46-.01-2,0-.23,0-.6.03-.71.12-.67,1.74-1.67,7.2-2.74,11.42-.47,2.1-.76,3.17-.91,4h0Z"/>
    <path class="st0" d="M178.07,61.06c-.01,3.08-.04,9.49.01,11.42.03.43.96.2,1.45.26,2.69-.07,7.42.14,9.29-.08.35-.29.3-.67.47-1.25.17-.72.4-1.73.59-2.55.1-.65.58-1.67.01-1.77-1.26-.09-4.44-.01-5.86-.04-.92.03-.74-.34-.54-1.26.33-1.43.7-3.07,1.05-4.52.14-.72.5-.77,1.16-.76,1.28,0,2.79,0,4.04,0,.56,0,.89-.01,1.08-.2.41-.59.56-2.05.81-2.93.16-.74.37-1.44.44-2.07.05-.44-.4-.44-.72-.45-1.02-.01-3.3,0-4.38,0-.33-.02-.85.05-.81-.42.22-1.35.82-3.63,1.1-4.9.13-.66.42-.88,1.09-.87.74-.02,2.11,0,2.89-.01.96.02.99-.35.98-1.24,0-.81,0-1.93,0-2.75-.05-.7.19-1.62-.44-1.64-1.74-.05-6.62,0-8.63-.01-.38,0-.62,0-.76.03-.09.02-.15.07-.18.14-.57,2.28-3.1,13.24-4.13,17.86h0Z"/>
    <path class="st0" d="M167.86,59.38c.08-3.24.57-12.9.6-14.28.02-.25-.14-.32-.37-.32-2.58-.01-6.07,0-8.78,0-.65,0-.79.01-.95.62-.1.4-.19.81-.29,1.23-.29,1.28-.71,2.96-.94,4.13,0,2.37-.11,20.52.04,23.65.07-.06.21-.75.48-1.89,1.24-5.35,2.81-12.18,4.07-17.6.03-.13.05-.19.05-.19-.05,1.49-.68,15.03-.84,18.77,0,.14-.01.27-.02.4-.01.45-.08.57.45.59,1.43-.02,4.2.09,5.65-.05,1.01-1.55,6.63-15.88,8.35-19.71.02.07-.37,1.62-.86,3.79-1.19,5.17-3.23,13.97-3.61,15.6-.02.14-.07.26.08.32,1.29.13,3.61.02,5.01.05.39,0,1.09-.06,1.07-.23.1-2.86,0-26.81.03-29.25-.02-.25-.33-.21-.52-.23-.5-.02-1.54-.02-2.07,0-.42.04-.56.07-.71.36-.83,1.91-5.35,12.99-5.94,14.23h0Z"/>
  </g>
</svg>