<?xml version="1.0" encoding="UTF-8"?>
<svg id="Layer_1" xmlns="http://www.w3.org/2000/svg" version="1.1" viewBox="0 0 479.15 90.7">
  <!-- Generator: Adobe Illustrator 30.2.1, SVG Export Plug-In . SVG Version: 2.1.1 Build 1)  -->
  <defs>
    <style>
      .st0 {
        fill: #003237;
      }

      .st1 {
        fill: #e2e100;
      }
    </style>
  </defs>
  <path class="st1" d="M45.35,0h388.36c25.05,0,45.35,20.3,45.35,45.35h0c0,25.05-20.3,45.35-45.35,45.35H45.35C20.3,90.7,0,70.4,0,45.35h0C0,20.3,20.3,0,45.35,0Z"/>
  <g>
    <g>
      <path class="st0" d="M111.73,52.78l-.7,3.01h6.72l.6-2.62c.21-.92.77-1.44,1.69-1.44s1.23.52,1.02,1.44l-.7,3.01c-.16.7-.9,1.44-1.73,1.44h-3.23l-1.41,6.11h3.23c.87,0,1.27.57,1.06,1.44l-.8,3.45c-.21.92-.77,1.44-1.69,1.44s-1.19-.52-.98-1.44l.6-2.62h-6.72l-.21.91v7.09c1.02,1.49,3.05,2.16,5.89,2.16,5.06,0,8.56-2.14,9.73-7.2l.6-2.62c.66-2.84,1.17-4.49-1.13-5.67.76-.29,1.33-.63,1.78-1.02v-13.4c-1.05-.43-2.37-.63-3.93-.63-5.06,0-8.55,2.09-9.72,7.15h.03Z"/>
      <path class="st0" d="M144.19,45.92h-9.6l-1.92,8.29v22.25h4.46c4.01,0,7.56-2.7,8.86-8.33l3.19-13.79c1.29-5.58-.89-8.42-4.99-8.42ZM142.21,55.43l-2.66,11.52c-.56,2.44-1.25,3.71-3.21,3.71h-.74l4.38-18.93h.74c1.96,0,2.07,1.22,1.5,3.71h0Z"/>
      <path class="st0" d="M146.29,71v10.25h1.61l.83-2.09h4.58l-.14,2.09h5.16v-30.54h-3.91l-8.14,20.29h0ZM153.61,75h-3.27l3.95-9.9-.67,9.9h0Z"/>
      <polygon class="st0" points="167.07 55.85 167.01 48 160.12 48 160.78 66.28 159.98 69.74 159.98 78.54 164.67 78.54 167.5 66.28 172.4 56.3 172.4 48 170.76 48 167.07 55.85"/>
      <path class="st0" d="M185.05,45.92l-3.48,15.05v15.49h3.14l2.4-10.38h3.53c1.95,0,3.81-.84,5.22-2.22v-17.91c-.18-.02-.37-.03-.56-.03,0,0-10.25,0-10.25,0ZM192.66,54.34l-.77,3.32c-.34,1.48-1,2.62-2.74,2.62h-.7l1.98-8.55h.7c1.75,0,1.86,1.22,1.53,2.62h0Z"/>
      <path class="st0" d="M192.95,74.97v6.27h3.2l.83-2.09h4.58l-.14,2.09h4.55v-30.54h-3.29l-9.73,24.27h0ZM201.87,75h-3.27l3.95-9.9-.67,9.9h0Z"/>
      <path class="st0" d="M207.88,56.55c-1.1,4.76.61,6.24,4.04,8.77,1.42,1.05,3.9,2.57,3.42,4.62-.32,1.4-1.49,2.49-2.89,2.49s-2.28-1.09-1.96-2.49l.57-2.49h-3.61v10.47c1,.4,2.23.61,3.71.61,4.62,0,8.12-2.03,9.94-5.86v-8.65c-.78-1.19-1.88-2.23-3.14-3.2-1.35-.96-3.77-2.36-3.34-4.23.32-1.4,1.4-2.49,2.8-2.49s2.02,1.09,1.69,2.49l-.48,2.09h2.48v-10.5c-.64-.12-1.35-.19-2.14-.19-5.63,0-9.79,2.92-11.09,8.55h0Z"/>
      <path class="st0" d="M222.59,57.02v8.07c.75,1,1.88,1.88,3.31,2.93,1.42,1.05,3.9,2.57,3.42,4.62-.32,1.4-1.49,2.49-2.89,2.49s-2.28-1.09-1.96-2.49l.57-2.49h-2.47v10.82c.76.17,1.61.26,2.57.26,5.63,0,9.59-3.01,10.9-8.64.96-4.14-1.13-6.81-4.1-9.07-1.35-.96-3.77-2.36-3.34-4.23.32-1.4,1.4-2.49,2.8-2.49s2.02,1.09,1.69,2.49l-.48,2.09h4.42v-9.81c-1.01-.58-2.36-.87-4.09-.87-4.83,0-8.58,2.15-10.37,6.31h.02Z"/>
      <polygon class="st0" points="238.52 63.04 238.52 78.83 248.88 78.83 250.23 72.98 242.94 72.98 244.5 66.26 250.87 66.26 252.21 60.46 245.84 60.46 247.31 54.09 252.27 54.09 252.27 48.29 241.93 48.29 238.52 63.04"/>
      <path class="st0" d="M253.63,54.47c-.07.31-.13.61-.18.89v3.05c.46,1.97,1.97,3.18,4.22,4.83,1.42,1.05,3.9,2.57,3.42,4.62-.32,1.4-1.49,2.49-2.89,2.49s-2.28-1.09-1.96-2.49l.57-2.49h-3.37v10.56c.96.34,2.11.52,3.47.52,5.63,0,9.6-3.01,10.9-8.64.96-4.14-1.13-6.81-4.1-9.07-1.35-.96-3.77-2.36-3.34-4.23.32-1.4,1.4-2.49,2.8-2.49s2.02,1.09,1.69,2.49l-.48,2.09h3.79v-10.12c-.92-.38-2.07-.57-3.46-.57-5.63,0-9.79,2.92-11.09,8.55h0Z"/>
      <polygon class="st0" points="286.32 61.04 282.91 61.04 285.86 48.3 279.14 48.3 278.74 50.01 278.74 78.84 278.8 78.84 281.57 66.84 284.98 66.84 282.2 78.84 288.92 78.84 290.44 72.25 290.44 48.3 289.26 48.3 286.32 61.04"/>
      <polygon class="st0" points="291.43 64.89 291.43 81.24 301.66 81.24 303.01 75.4 295.72 75.4 297.27 68.68 303.64 68.68 304.98 62.88 298.62 62.88 300.09 56.51 305.12 56.51 305.12 50.7 294.71 50.7 291.43 64.89"/>
      <path class="st0" d="M307.75,48.29l-1.76,7.61v22.93h1.42l2.83-12.26h.7c1.75,0,1.86,1.22,1.53,2.62l-2.23,9.64h6.72l2.25-9.73c.81-3.49-.27-4.89-2.51-5.54,1.17-.3,2.17-.76,2.98-1.51v-13.53c-.51-.15-1.07-.24-1.67-.24h-10.26ZM315.36,56.71l-.26,1.13c-.34,1.48-1,2.62-2.74,2.62h-.7l1.47-6.37h.7c1.75,0,1.86,1.22,1.53,2.62Z"/>
      <polygon class="st0" points="320.56 57.22 320.56 76.11 330.19 76.11 331.55 70.26 324.26 70.26 325.81 63.55 332.18 63.55 333.52 57.74 327.15 57.74 328.63 51.37 333.63 51.37 333.63 45.57 323.25 45.57 320.56 57.22"/>
      <g>
        <polygon class="st0" points="334.81 78.16 337.63 78.16 338.79 73.15 334.81 73.15 334.81 78.16"/>
        <polygon class="st0" points="336.18 58.4 334.81 70.92 338.43 70.92 341.8 61.4 341.8 47.63 338.67 47.63 336.18 58.4"/>
      </g>
      <g>
        <polygon class="st0" points="342.63 76.11 344.91 76.11 346.07 71.09 342.63 71.09 342.63 76.11"/>
        <polygon class="st0" points="343.45 56.35 342.63 63.91 342.63 68.87 345.71 68.87 350.09 56.47 350.09 45.57 345.94 45.57 343.45 56.35"/>
      </g>
      <g>
        <polygon class="st0" points="350.14 61.48 348.78 74 352.4 74 356.78 61.6 356.78 50.7 352.63 50.7 350.14 61.48"/>
        <polygon class="st0" points="348.73 81.24 351.6 81.24 352.75 76.23 348.73 76.23 348.73 81.24"/>
      </g>
    </g>
    <g>
      <g>
        <path class="st0" d="M424.73,23.37c-.6.43-1.2.9-1.81,1.33l-.77,1.82-.06-1.16h-.07l-2.17,1.61-1.18,5.17,1.17-.8.74-3.2.12,2.57.75-.56,1.62-3.89-.75,3.25s.06-.02.1-.04c.3-.2.64-.48.93-.7.16-.12.34-.22.5-.33l1.19-5.25s-.28.17-.32.19h.01Z"/>
        <path class="st0" d="M424.58,27.58c-.02.09.01.19-.07.3l.05.03,2.91-2.08.28-1.28-1.42.96.17-.73s0-.08.01-.12l1.08-.79.17-.81s-.09.02-.13.05c-.3.17-.62.46-.93.64l.18-.84,1.32-.93.19-1.13c-.93.59-1.82,1.22-2.72,1.86-.38,1.57-.66,3.16-1.04,4.73-.01.05-.05.1-.06.15h.01Z"/>
        <path class="st0" d="M415.36,18.44c-.17.25-.45.76-.58,1.06-.45,1.01-.35,1.87.47,2.35.56.32,1,.34,1.53-.35.38-.51.98-2.03,1.06-2.6.06-.41-.03-.89-.34-1.11-.74-.51-1.53-.23-2.14.66h0ZM416.18,19.07c.11-.2.34-.72.6-.64.28.09-.13.74-.22.94-.17.37-.33.79-.52,1.15-.1.19-.27.47-.45.26-.14-.17.08-.61.17-.82.11-.25.27-.6.42-.88h0Z"/>
        <path class="st0" d="M433.77,22.04c1.36-.47,1.91-1.42,1.89-2.69,0-.49-.07-1.14-.38-1.47-.39-.43-.94-.36-1.54-.04-1.03.55-1.05,2.22-1.05,3.08,0,.65.22,1.42,1.08,1.12ZM433.93,18.89c.01-.12.04-.31.18-.38.38-.22.36.6.37.81.01.28.04,1.07-.07,1.32-.07.16-.3.33-.41.2-.03-.04-.04-.27-.05-.34-.02-.41-.06-1.22-.01-1.61h0Z"/>
        <path class="st0" d="M415.78,17.17s.05-.03,0-.07c-.71-.13-1.62-.65-2.41-.15-.41.26-1.08,1.04-.78,1.43v.04c-.34.1-.61.42-.8.71-.09.14-.67,1.24-.66,1.31,0,.03.03.05.06.05l.98.11c.1-.06.67-1.52.91-1.69.13-.11.25-.04.38-.03l-.9,1.82,1.08.3c.51-1.14,1.05-2.27,1.77-3.34.1-.15.28-.35.36-.5h.01ZM413.84,18.31l-.27-.07c-.07-.18.17-.54.38-.55.08,0,.15.04.24.02,0,0-.35.6-.35.6Z"/>
        <path class="st0" d="M436.08,21.06l1.2-.3-.06-1.82c.15,0,.28-.08.39.03.09.09.1.7.11.87.01.27.01.56,0,.84.37-.07.74-.13,1.1-.12.04-.03.02-.54.02-.63-.02-.51-.02-1.24-.53-1.43.44-.39.27-1.02.03-1.33-.37-.49-.92-.36-1.55-.24-.35.07-.72.17-1.07.26.35,1.21.4,2.54.36,3.88h0ZM437.45,17.81s.09.24.09.28c0,.26-.16.23-.37.27l-.1-.55c.12-.09.3-.1.38,0Z"/>
        <path class="st0" d="M409.45,33.45l-.87.27v1.91l-.58-1.72c-.38.03-.79.18-1.17.17-.05,1.26.06,2.52.43,3.64l.75-.09c-.13-.5-.26-1.01-.3-1.55l.63,1.19c.06.04.12.2.17.22.07.04.6-.1.73-.14.07-.02.35-.08.37-.14-.24-1.2-.28-2.48-.17-3.77h0Z"/>
        <path class="st0" d="M436.81,34.11l-1.04-.17-1.36,1.73.85-1.91-.71-.27c-.52,1.29-1.13,2.57-1.92,3.78,0,.05.23.11.29.13.12.04.6.18.69.14l1.38-1.33-.93,1.46.68.08c.92-1.09,1.53-2.36,2.13-3.59l-.06-.04h0Z"/>
        <path class="st0" d="M400.21,29.09l-.05.06-.31.74.19-1.62-.3-2.17-.95,4.11.17,1.21.53-2.3c-.06.58-.16,1.16-.22,1.74-.04.41-.16,1.18-.13,1.54,0,.08.14.55.17.61.02.03.02.06.07.05l.63-1.7c-.12.84-.28,1.68-.37,2.52,0,.12.5.94.6,1.06.02.02.03.06.07.02.08-1.36.25-2.73.5-4.11-.23-.57-.47-1.14-.6-1.75h0Z"/>
        <path class="st0" d="M411.53,32.45c-1.19.49-1.73,1.42-1.77,2.55-.04.99.15,2.43,1.59,1.64.6-.33.87-1.18.96-1.74.05-.28.04-.55.07-.82l-1.37.69-.03.48.28-.06c-.05.24.01.76-.39.64-.08-.09-.05-1.18-.03-1.37s.04-.33.17-.51c.19-.27.4-.28.47,0,.01.05-.02.19.05.18.11-.06.84-.42.87-.46.13-.24-.03-.91-.18-1.07-.16-.19-.4-.23-.68-.11v-.04Z"/>
        <path class="st0" d="M433.51,32.89c-.08-.1-.53-.4-.65-.45-.6-.24-1.21.71-1.35,1.22l.71.48c.13-.46.6-.51.57-.04-.02.29-.28.86-.43,1.16-.07.15-.27.61-.44.61-.29,0-.07-.48.04-.65.08-.06.13.14.21.05l.2-.48-1.05-.69c-.3.72-.59,1.53-.39,2.2.13.45.7.73,1.23.5.81-.35,1.53-1.98,1.6-2.71.04-.37-.04-.95-.26-1.21h0Z"/>
        <path class="st0" d="M405.76,21.77l1.47-.68c.87-1.53,1.87-3.01,3.09-4.34l-1.39.31c-.53.65-1.05,1.31-1.48,2.01-.06-.02-.03-.04-.02-.08.03-.1.07-.24.11-.34.15-.44.34-.87.49-1.31l-1.11.46c-.37,1-.67,2.01-.91,3.02l-.25.94h0Z"/>
        <path class="st0" d="M417.99,20.25l-.28.73.67.54-.65,2.05,1.01.92c.31-1.15.65-2.3,1.04-3.44.15-.44.34-.88.47-1.31l-1.69-1.27-.47.95.81.59.04.09-.27.67-.69-.51h0Z"/>
        <path class="st0" d="M430.82,23.65l.31-2.06.93-.55.05-.73-.92.48.09-.74,1.12-.62-.02-.94c-.78.4-1.56.81-2.3,1.3-.06.59-.1,1.19-.18,1.79-.1.76-.22,1.53-.35,2.3-.02.1-.17.6-.1.61l1.37-.84h0Z"/>
        <path class="st0" d="M443.58,21.83c.33-1.31.54-2.63.69-3.93l-.9-.45-.11,1.15c.01.15-.02.32-.05.48,0,.03,0,.11-.05.1-.09-.47-.19-.95-.33-1.4-.05-.15-.15-.3-.2-.43-.02-.04.05-.16-.07-.22-.16-.09-.67-.19-.88-.23-.1-.02-.22-.05-.32-.03.63,1.29.92,2.78,1.08,4.29l1.14.69v-.02Z"/>
        <path class="st0" d="M446.79,20.84c-.26,1.48-.37,2.96-.76,4.45l.44,1.57.43-1.88.09.25c.07.74-.28,1.53-.4,2.29l.25,1.72c.21-.96.53-1.94.45-2.87.08-.03.04.05.06.06.14.04.2-.21.23-.31.09-.3.15-.76.18-1.07.16-1.64-.3-3.05-.93-4.38-.05,0-.06.13-.07.17h.03ZM447.22,23.51l.1.35c0,.25.05.5-.07.76-.01.02-.03.08-.06.04-.02-.03-.13-.45-.13-.48,0,0,.16-.67.16-.67Z"/>
        <path class="st0" d="M417.29,28.85l-2.97,2.02-.22,1.17s.59-.37.68-.42c.12-.03,0,.32-.02.4-.08.56-.17,1.12-.24,1.67-.05.38-.12.83-.13,1.19,0,.04,0,.05.03.08.39-.23.8-.45,1.16-.74l.61-3.52.79-.6.3-1.26h.01Z"/>
        <path class="st0" d="M429.03,29.02s-.08-.12-.14-.17l-.07.14-.26,1.12c0,.11.42.4.49.53.02.04.03.05.02.11-.05.46-.37,1.1-.43,1.58l-.59,1.91s.02.06.04.09c.05.08.32.29.42.37.08.07.26.25.33.28.03,0,.05.02.09.02l.84-2.49.23-.88.55.45.33-1.2c-.61-.62-1.26-1.21-1.86-1.85h.01Z"/>
        <path class="st0" d="M404.44,20.09s.05-.05.06,0c-.12.2-.16.51-.27.69-.06.1-.54.46-.66.57-.07.07-.29.26-.32.32-.11.2-.17.54-.24.75l.89-.81c-.05.21-.12.49-.21.7-.08.18-.45.44-.61.6-.21.21-.4.43-.61.64l-.34,1.17c.06.02.05-.01.08-.04.12-.12.22-.26.34-.38.62-.64,1.29-1.22,1.99-1.76.46-1.27.95-2.53,1.55-3.78.11-.24.24-.48.36-.71-.02-.02-.63.33-.71.38-.75.45-1.46,1-2.12,1.59l-.4,1.13.53-.51c.25-.15.47-.4.71-.58l-.02.03Z"/>
        <path class="st0" d="M411.27,17.44l-.41.61-.87.12-.36.67.83-.12-.34.68-1.17.22-.53,1.1c.77-.19,1.52-.27,2.28-.28.65-1.33,1.39-2.64,2.35-3.84-.75-.06-1.54-.03-2.31.1l-.59.86,1.13-.12h-.01Z"/>
        <path class="st0" d="M445.18,23.56c.26.39.44.83.67,1.23l.2-1.17c-.06-.35-.66-.96-.65-1.27,0-.14.04-.42.07-.57,0-.04,0-.09.06-.07l.49.78c.02-.2.13-.55.11-.73-.03-.24-.44-.65-.56-.85.04-.25-.01-.5.08-.75l.75,1.07c.01-.22.07-.45.1-.67.04-.37.05-.44-.14-.72-.19-.28-.5-.64-.73-.88-.29-.3-.63-.55-.95-.81l-.05.04c.08,1.45,0,2.94-.17,4.44.26.28.52.6.73.92h0Z"/>
        <path class="st0" d="M441.43,20.79l-.02-1.1-1.05-.2-.04-.7.78.12-.05-.68-.84-.1-.11-.58s0-.05.05-.04c.34.05.7.07,1.03.15l-.19-.89c-.74-.1-1.5-.12-2.28-.08.44,1.18.57,2.5.58,3.83.75,0,1.47.09,2.14.27h0Z"/>
        <path class="st0" d="M405.13,34.05l-.72-.12-.57,1.28v-1.49c-.29-.09-.53-.27-.8-.4-.02,0-.05-.05-.08,0-.04,1.31-.05,2.61.16,3.85l.99.35c-.02-.35-.19-.57.06-.96l.42,1.04c.07.05.92.15.97.12-.38-.81-.66-1.68-.85-2.6l.41-1.08h0Z"/>
        <path class="st0" d="M439.99,33.76l-.68,1.49c-.06,0-.03-.06-.04-.1,0-.38.06-.8.06-1.18l-.77.12c-.06.05-.02.92-.1,1.09-.09.19-.38.57-.52.76-.46.64-.98,1.24-1.51,1.82.04.03.95-.07,1.05-.13l.88-1.03c.06.37-.22.62-.38.96l1.12-.32c.79-1.25,1.41-2.56,1.94-3.89l-1.05.42h0Z"/>
        <path class="st0" d="M427.01,27.34l.1-.03c-.06-.08,0-.17.06-.25l-.11-.05.08-.07h-.09l-.03.15c-.13-.01-.2.05-.22.18h-.18v-.09l.02.19-.18.14.13-.06c0,.11-.1.12-.19.09-.06-.02-.02-.09-.19-.03-.05.12.08-.01.1.07-.12.13.02.07,0,.16-.14-.16-.27.12-.31.14-.08.04-.17-.05-.16.21-.14-.03.05-.2-.08-.18-.03.14-.11.15,0,.24l-.14-.03.08-.24h-.18l.13.07c-.08.25-.2.06-.28.31h.09l-.05.09h-.06s.01-.06.02-.09h-.09c.05.08.02.11-.02.21h-.09c.09-.08.08-.11.08-.21l-.07.18h-.21l.05.05-.06.13c.06,0,.15-.08.11.03-.06,0-.12.03-.19.03-.01.04,0,.08-.03.11,0,.01-.09.04-.11.03-.1,0-.01-.11-.07-.12l-.04.12.06.07-.08-.03c-.06-.05-.1.19-.05.22l-.1-.04.06-.17-.13.17h-.15c0,.1.2,0,.21.01v.15c-.06-.07-.14-.03-.23-.06-.05.12.2,0,.14.15-.07-.1-.11,0-.2-.03l-.07.86.52.54c.35-.75.75-1.48,1.1-2.22.03-.07.05-.11.07-.16.02-.04.11-.26.13-.28l.08.04-.07.03v.07l.04.02-.08.06-.73,3.04c.2.24.4.48.63.71.02.02.12.14.16.09l1.17-4.73-.08-.03-.02.04ZM425.03,28.58s.12-.13.1-.04c0,.02-.09.06-.1.04ZM425.45,28.16l.09.05c-.06,0-.11.07-.09-.05Z"/>
        <path class="st0" d="M424.91,28.49l-.09.21h.06c.02-.06.05-.15.03-.21Z"/>
        <path class="st0" d="M428.54,28.47l-.98-1.02c-.38,1.7-.81,3.39-1.24,5.09,0,.06.03.08.06.12.22.29.59.52.81.82.05.03.1-.1.11-.13.46-1.45.86-3.11,1.2-4.57.01-.06.06-.27.04-.31Z"/>
        <path class="st0" d="M418.72,29.64c.16-.73.35-1.46.51-2.2l-1.43,1-.04.06c-.3,1.2-.52,2.39-.74,3.58-.09.46-.19.93-.26,1.39l1.37-.94c.16-.9.38-1.79.58-2.69.02-.07,0-.14.02-.21h0Z"/>
        <path class="st0" d="M401.78,32.27c-.11-.12-.21-.31-.32-.42-.02-.02-.02-.06-.08-.04-.31,1.18-.6,2.37-.81,3.55l.6.63.12-.12c.11.12.32.22.43.33.07.07.04.19.09.27.05.09.36.27.47.33.06.03.49.26.52.24-.37-1.37-.56-2.81-.58-4.29-.11-.18-.29-.31-.44-.47h0ZM401.34,35.34l.16-.96.13,1.22-.3-.26h0Z"/>
        <path class="st0" d="M443.32,31.84l-.58.45-.66.45c-.57,1.19-1.22,2.36-1.98,3.48-.19.28-.41.55-.59.85,0,0,.23-.08.27-.09.21-.09.73-.3.9-.42.1-.07.15-.23.29-.33.17-.12.42-.21.59-.36v.18l.92-.66c.32-.99.48-1.98.73-2.97l.1-.58h0ZM441.76,35.34l-.09.08-.36.21.7-1.22-.25.93h0Z"/>
        <path class="st0" d="M400.23,24.88c-.08.07-.1.14-.11.24.12.02,0-.12.12-.15v.16c-.17.07-.08.09-.08.17,0-.05.05-.13.12-.12l-.07.09.05.09s-.1-.05-.11-.06c0,.07,0,.13-.02.21.07,0,.16,0,.13.09-.01.02-.06-.11-.12-.01-.04.07.1.03.09.09l-.08.15.04.04.08-.09-.05.12.08.05s-.13,0-.14.1l.13-.03-.09.12h.12l-.15.12h.12l-.09.12h.12l.14-.61c.03-.11.17-.39.24-.51l.27-.37c-.06.31-.16.63-.24.94-.06.26-.16.6-.19.85,0,.03-.04.12.01.12.09-.15.19-.3.3-.45.22-.3.78-.95.87-1.24.2-.65.31-1.32.51-1.97l.79-2.52c-.49.46-.95.99-1.35,1.52-.58.75-1.12,1.55-1.45,2.4-.03.07,0,.15-.09.21h.06l-.09.13h.13ZM400.8,24.48c.06-.37.28-.71.51-1.03.05,0,.01.07,0,.1-.08.39-.18.74-.5,1.06-.05-.04-.02-.08-.02-.13h0Z"/>
        <path class="st0" d="M446.11,29.88l.1-.05-.11-.03.11-.07-.11-.05.04-.06c.07,0,.08,0,.09-.08,0-.07-.04-.12,0-.2l-.1-.03c0-.07.02-.05.07-.07-.01-.08-.03-.19.08-.21,0-.03-.05,0-.08-.02-.02-.02,0-.07-.03-.07-.19,0-.11.21-.16.34,0,.02-.05.01-.06.03-.08.18-.11.42-.2.61-.04,0-.02-.11-.02-.14.01-.17.06-.43.04-.59,0-.04.02-.05-.05-.04-.39.62-.9,1.16-1.38,1.72-.38,1.38-.86,2.76-1.41,4.13.02.03.17-.11.2-.13.35-.29.66-.65.97-.97.28-.86.57-1.71.78-2.57l-.14,1.76.18-.17c.11-.18.22-.3.35-.47.24-.73.62-1.51.82-2.24.02-.09.06-.27.02-.33h0Z"/>
        <path class="st0" d="M422.01,24.46h.06s.02-.06.02-.09c-.06,0-.11.05-.08.09Z"/>
        <path class="st0" d="M421.66,24.55l-.05.15.04-.12.23.03s.01-.04.01-.06h-.12l.09-.09s.03.05.02.09c.06-.06.1.08.15-.02.05-.09-.11.02-.1-.06l.07-.16h.08v.06h.12l-.06-.12h.18c.05-.13-.11,0-.13-.08.05-.03.17-.07.17,0l-.03.13h.15l-.11-.03.15-.12c-.14.04-.18-.11-.05-.18l.03.12v-.12c.2-.04-.04.13.07.15l.1-.21h.15c-.01-.16.08-.21.21-.15.04-.13-.15,0-.04-.15l.07.03.02-.09-.08.03v-.06h.12l.2-.83c-.57-.64-1.18-1.25-1.79-1.84-.03-.03-.02-.07-.07-.02l-.35,1.11c.18.22.41.39.6.6.06.06.33.35.32.4,0,.04-.05.08-.06.12-.05.21-.09.43-.15.64l-.32-.25c-.05-.1-.15-.21-.23-.29-.02-.02-.16-.17-.19-.15l-.23.84.66.68h.14v.02ZM422.85,23.6l.05.1s-.06.05-.1.04l.05-.15h0ZM422.65,23.86s-.12.13-.1.04c0-.02.09-.06.1-.04Z"/>
        <path class="st0" d="M406.43,34.11c-.33.05-.64,0-.95,0-.03.65,0,1.31.08,1.94.04.31.09.67.14.95.05.26.15.5.19.76h.96c.01-.17-.08-.34-.12-.5-.24-.99-.31-2.08-.29-3.14h0Z"/>
        <path class="st0" d="M437.25,34.16c-.43.9-.87,1.8-1.43,2.65-.21.33-.46.64-.68.97h.94c.9-1.12,1.52-2.38,2.14-3.63h-.97Z"/>
        <path class="st0" d="M420.77,25.3v-.12c.1-.01.16,0,.22.06,0-.17-.09-.13-.21-.12-.04.05-.06.12-.1.18.02,0,.06,0,.09,0Z"/>
        <polygon class="st0" points="420.39 25.66 420.45 25.66 420.47 25.57 420.41 25.57 420.39 25.66"/>
        <path class="st0" d="M420.23,25.28l-.07.03.13.07s-.15,0-.16.05c-.02.08.2-.05.13.07l-.13.06c.22.05.13-.26.34-.3,0,.08-.09.07-.11.09s.01.1-.04.14c.09-.04.13.06.14.06.04.01.16-.03.21,0,0-.09-.15-.05-.17-.06.03-.06.08-.12,0-.15l-.03.12c-.18-.04,0-.09.03-.12,0,0,0-.04.02-.06.13.08.1.02.15,0l-.08-.03s.1-.04.11-.07c0-.03-.09-.03-.07-.07h.15s.15-.08.12-.12c-.04-.05-.12.04-.12.09l.04-.15-.43-.42c-.04.17-.08.35-.12.52-.01.06-.06.11-.07.15,0,.02.09,0,.04.09h0Z"/>
        <path class="st0" d="M446.29,30.63c-.1-.02-.01-.06-.01-.11,0-.04-.04-.07-.04-.11,0-.03.04-.08.04-.09-.04-.06-.11.11-.12.13.19.1-.04.19-.05.22-.05.12-.07.36-.12.47l-.1.34s.07-.06.09-.1c.12-.19.16-.29.22-.48,0-.02.06-.01.07-.04,0-.02.04-.19-.01-.19l-.11.21c.06-.11,0-.21.15-.25h-.01Z"/>
        <path class="st0" d="M446.29,28.7l-.06.15-.11-.03-.03.12c.15-.06.19-.06.2-.24h0Z"/>
        <path class="st0" d="M420.34,25.75v-.21c-.07.03-.1.23,0,.21Z"/>
        <path class="st0" d="M420.05,25.81l.17.03.02-.09c-.06.01-.19-.05-.19.06Z"/>
        <path class="st0" d="M421.73,24.71s.07.02.08.02c.09,0,.04-.12-.07-.07-.04.01-.04.05-.07.07s-.08,0-.08,0c0,0-.02.18.06.15-.02-.06,0-.16.09-.17h0Z"/>
        <path class="st0" d="M420.9,25.36h-.09v.15c.1.02.07-.09.09-.15Z"/>
        <polygon class="st0" points="420.39 25.9 420.45 25.89 420.49 25.75 420.43 25.75 420.39 25.9"/>
        <path class="st0" d="M420.24,25.64l-.03-.04-.11.03v.03c.06.01.08.06.15-.01h-.01Z"/>
        <path class="st0" d="M420.75,25.51l.03-.18c-.08.05-.04.11-.06.18h.03Z"/>
        <path class="st0" d="M420.69,25.39h-.09c-.02.11.06.11.09,0Z"/>
        <path class="st0" d="M420.92,25.3v.03h.17c0-.09-.1-.02-.17-.03Z"/>
        <polygon class="st0" points="424.35 29.03 424.37 28.94 424.32 28.94 424.29 29.03 424.35 29.03"/>
        <path class="st0" d="M420.9,25.25c.02-.08-.13,0-.1.04.01.02.09-.02.1-.04Z"/>
        <polygon class="st0" points="422.1 24.58 422.21 24.61 422.22 24.55 422.1 24.55 422.1 24.58"/>
      </g>
      <path class="st0" d="M47.48,15.27l-2.76,11.96v18.57h2.43l2.4-10.38h3.53c2.36,0,4.59-1.22,6.03-3.16V15.43c-.43-.1-.88-.16-1.37-.16h-10.26ZM55.08,23.69l-.77,3.32c-.34,1.48-1,2.62-2.74,2.62h-.7l1.98-8.55h.7c1.75,0,1.86,1.22,1.53,2.62h0Z"/>
      <path class="st0" d="M67.65,29.85c-.37,1.61-.97,2.7-2.59,2.7s-1.72-1.05-1.35-2.66l5.03-21.77h-6.72l-1.78,7.69v22.36c.94.32,2.07.49,3.4.49,5.93,0,9.44-3.27,10.81-9.2l.18-.79V8.12h-1.97l-5.02,21.73h0Z"/>
      <path class="st0" d="M78.6,11.8l-2.81,12.17v18.37h2.47l2.83-12.26h.7c1.75,0,1.86,1.22,1.53,2.62l-2.23,9.64h6.72l2.25-9.73c.81-3.49-.27-4.89-2.51-5.54,1.14-.29,2.11-.73,2.91-1.44v-13.62c-.49-.14-1.02-.21-1.6-.21h-10.26ZM86.21,20.22l-.26,1.13c-.34,1.48-1,2.62-2.74,2.62h-.7l1.47-6.37h.7c1.75,0,1.86,1.22,1.53,2.62Z"/>
      <path class="st0" d="M93.2,19.51l-1.59,6.88v12.98c1.15,1.03,2.91,1.56,5.32,1.56,4.49,0,7.53-1.65,9.35-5.02v-6.06h-4.39l-.52,2.27c-.37,1.61-1.19,2.7-2.81,2.7s-1.94-1.05-1.57-2.66l3-13c.37-1.61,1.18-2.66,2.8-2.66s1.94,1.05,1.57,2.66l-.49,2.14h2.41v-10.73c-.69-.11-1.45-.17-2.29-.17-5.93,0-9.42,3.18-10.79,9.12h0Z"/>
      <polygon class="st0" points="115.79 20.86 118.74 8.12 112.02 8.12 107.41 28.07 107.41 38.66 111.68 38.66 114.45 26.66 117.86 26.66 115.08 38.66 121.8 38.66 122.08 37.47 122.08 8.4 119.2 20.86 115.79 20.86"/>
      <path class="st0" d="M123.22,33.77v8.57h2.28l.83-2.09h4.58l-.14,2.09h5.73V11.8h-4.48l-8.81,21.97h0ZM131.21,36.1h-3.27l3.95-9.9-.67,9.9h-.01Z"/>
      <path class="st0" d="M137.97,16.67c-.19.83-.3,1.56-.32,2.21v.64c.12,2.66,1.73,3.98,4.36,5.92,1.42,1.05,3.9,2.57,3.42,4.62-.32,1.4-1.49,2.49-2.89,2.49s-2.28-1.09-1.96-2.49l.57-2.49h-3.52v10.51c.98.38,2.19.57,3.62.57,4.7,0,8.25-2.11,10.04-6.08v-8.27c-.78-1.26-1.93-2.35-3.25-3.36-1.35-.96-3.77-2.36-3.34-4.23.32-1.4,1.4-2.49,2.8-2.49s2.02,1.09,1.69,2.49l-.48,2.09h2.58v-10.48c-.66-.14-1.41-.21-2.25-.21-5.63,0-9.79,2.92-11.09,8.55h.02Z"/>
      <polygon class="st0" points="152.44 30.11 152.44 46.02 162.77 46.02 164.12 40.17 156.84 40.17 158.39 33.45 164.76 33.45 166.1 27.65 159.73 27.65 161.2 21.28 166.1 21.28 166.1 15.48 155.83 15.48 152.44 30.11"/>
      <polygon class="st0" points="183.75 20.1 183.68 12.25 176.79 12.25 177.45 30.53 176.72 33.73 176.72 42.79 181.34 42.79 184.17 30.53 189.31 20.06 189.31 12.25 187.44 12.25 183.75 20.1"/>
      <path class="st0" d="M190.15,14.28v24.1c.78.18,1.67.28,2.68.28,4.86,0,8.14-2.14,9.92-6.18V8.42c-.8-.2-1.73-.3-2.77-.3-4.85,0-8.07,2.13-9.83,6.16h0ZM199.91,16.89l-3,13c-.37,1.61-.96,2.66-2.58,2.66s-1.72-1.05-1.35-2.66l3-13c.37-1.61.96-2.66,2.58-2.66s1.72,1.05,1.35,2.66Z"/>
      <path class="st0" d="M208.59,36.23c-1.61,0-1.72-1.05-1.35-2.66l5.03-21.77h-6.72l-1.97,8.51v21.47c.98.37,2.17.56,3.59.56,4.17,0,7.13-1.62,9.01-4.63V11.86l-5.01,21.67c-.37,1.61-.97,2.7-2.59,2.7h.01Z"/>
      <path class="st0" d="M219.34,15.48l-2.32,10.03v20.51h1.98l2.83-12.26h.7c1.75,0,1.86,1.22,1.53,2.62l-2.23,9.64h6.72l2.25-9.73c.13-.55.2-1.05.24-1.51v-1.03c-.16-1.69-1.16-2.54-2.75-3,1.07-.27,1.99-.68,2.75-1.31v-13.78c-.45-.11-.93-.17-1.45-.17h-10.25ZM226.94,23.9l-.26,1.13c-.34,1.48-1,2.62-2.74,2.62h-.7l1.47-6.37h.7c1.75,0,1.86,1.22,1.53,2.62Z"/>
      <polygon class="st0" points="251.61 28.19 252.27 13.05 242.02 13.05 240.63 19.06 240.63 43.59 240.68 43.59 245.39 23.17 244.47 43.59 250.88 43.59 259.4 23.17 254.68 43.59 261.05 43.59 261.05 13.05 257.9 13.05 251.61 28.19"/>
      <path class="st0" d="M262.19,33.19v5.47h3.52l.83-2.09h4.58l-.14,2.09h4.94V8.12h-3.69l-10.06,25.07h.02ZM271.43,32.42h-3.27l3.95-9.9-.67,9.9h-.01Z"/>
      <polygon class="st0" points="283.49 30.05 286.86 15.48 280.14 15.48 277.07 28.77 277.07 46.02 279.8 46.02 283.09 31.79 283.64 46.02 289.71 46.02 289.12 29.66 292.02 24.58 292.02 15.48 291.79 15.48 283.49 30.05"/>
      <polygon class="st0" points="291.67 28.73 291.67 42.34 295.24 42.34 300.62 19.04 300.62 11.8 295.58 11.8 291.67 28.73"/>
      <polygon class="st0" points="311.58 26.02 310.73 11.8 302.96 11.8 301.44 18.37 301.44 42.34 301.62 42.34 305.22 26.76 306.15 42.34 313.53 42.34 316.99 27.36 316.99 11.8 314.87 11.8 311.58 26.02"/>
      <path class="st0" d="M318.12,17.24l-.31,1.34v19.76c.59.21,1.26.31,1.99.31,2.14,0,3.73-.83,4.79-2.05l-.47,2.05h6.22v-15.62h-5.23l-1.23,5.32h2.31l-.34,1.48c-.37,1.61-.96,2.66-2.58,2.66s-1.72-1.05-1.35-2.66l2.99-12.96c.37-1.61,1.18-2.66,2.8-2.66s1.94,1.05,1.57,2.66l-.96,4.14h2.02v-12.87c-.39-.03-.79-.05-1.22-.05-5.58,0-9.54,2.79-11.01,9.12v.03Z"/>
      <polygon class="st0" points="338.86 21.28 341.79 21.28 338.86 33.98 338.86 46.02 342.79 46.02 348.51 21.28 350.4 21.28 350.4 15.48 338.86 15.48 338.86 21.28"/>
      <polygon class="st0" points="350.4 24.08 350.4 38.66 353.75 38.66 357.74 21.41 357.74 8.12 354.09 8.12 350.4 24.08"/>
      <polygon class="st0" points="380.21 29.22 380.21 41.26 391.43 41.26 392.78 35.41 385.5 35.41 387.05 28.69 393.42 28.69 394.76 22.89 388.39 22.89 389.86 16.52 394.76 16.52 394.76 10.72 384.49 10.72 380.21 29.22"/>
      <polygon class="st0" points="369.71 27.67 370.38 12.53 360.12 12.53 358.7 18.68 358.7 43.07 358.78 43.07 363.5 22.65 362.58 43.07 368.99 43.07 377.5 22.65 372.79 43.07 379.2 43.07 379.24 42.88 379.24 12.53 376 12.53 369.71 27.67"/>
    </g>
  </g>
</svg>