<?xml version="1.0" encoding="UTF-8"?>
<svg id="Layer_1" xmlns="http://www.w3.org/2000/svg" version="1.1" viewBox="0 0 309.28 80.93">
  <!-- Generator: Adobe Illustrator 30.2.1, SVG Export Plug-In . SVG Version: 2.1.1 Build 1)  -->
  <defs>
    <style>
      .st0 {
        fill: #e2e100;
      }

      .st1 {
        fill: #4d1717;
      }
    </style>
  </defs>
  <polygon class="st1" points="-2954.93 377.92 -2954.77 377.92 -2954.77 377.27 -2954.93 377.92"/>
  <polygon class="st1" points="-2762.87 432.11 -2763.3 432.11 -2763.3 433.8 -2762.87 432.11"/>
  <g>
    <g>
      <path class="st0" d="M90.33,24.38c.08-3.24.57-12.9.6-14.28,0-.19-.04-.28-.25-.31-1.89-.04-4.76,0-6.83-.02-.71,0-1.39,0-2.07,0-.65,0-.79.02-.95.63-.38,1.62-.88,3.67-1.19,5.22-.05,2.12,0,20.36-.02,23.4,0,.15,0,.25.02.36,0,.02.01.02.02,0,.06-.06.24-.97.58-2.4.34-1.46.79-3.44,1.28-5.54.81-3.5,1.7-7.37,2.47-10.69.11-.47.16-.77.25-1.03-.05,1.49-.68,15.03-.84,18.77,0,.14-.01.27-.02.4-.01.45-.08.57.45.59.07,0,.16,0,.26,0,1.31-.04,4.07.09,5.4-.05,1.07-1.68,3.8-9.09,6.23-14.62,1.18-2.8,2.03-4.92,2.14-5.1-.01.11-.37,1.63-.87,3.79-1.22,5.34-3.25,13.95-3.63,15.78,0,.07.03.12.11.15.12.05.38.05.81.05,1.06,0,3.18,0,4.24,0,.5-.03,1.06.09.98-.31-.1-2.76.19-27.05-.1-29.34-.66-.15-1.73-.07-2.44-.06-.4.04-.54.07-.68.36-.83,1.91-5.35,12.99-5.94,14.23h0Z"/>
      <path class="st0" d="M100.62,29.52c-.02.55-.02,1.7-.01,2.46.04.81-.11,1.65.11,2.37.31.52,1.23.3,1.94.35,2.13.11,1.38-1.68,2.86-1.99,1.01-.06,2.18-.1,3.17.02,1.17.38-.2,2.06,1.69,1.97.8,0,2,0,2.69,0,.24,0,.48,0,.7-.03.15-.02.2-.07.22-.15.02-2.88.02-26.4,0-29.36-.03-.18-.43-.17-.62-.18-.55-.01-1.66-.01-2.26,0-.26.02-.63-.03-.78.21-.99,2.46-2.69,6.68-4.01,9.98-1.64,4.22-4.58,11.13-5.68,14.33v.02ZM109.44,28.62c-.17.08-.91.06-1.41.06-.57-.04-1.62.12-1.59-.22.56-1.55,3.21-7.9,3.73-9.23.17-.44.1.02.09.32-.14,2.06-.34,4.87-.48,6.95-.06.84-.1,1.5-.13,1.82-.02.12-.06.23-.18.28h-.02Z"/>
      <path class="st0" d="M121.39,22.52c.71-3.31,2.8-12.01,3.17-13.84.02-.35-.46-.2-1.17-.24-.34,0-.76,0-1.19,0-1.11,0-2.28,0-3.38,0-.72,0-.74.06-.85.55-.03.13-.06.25-.09.39-.68,2.95-1.94,8.41-2.68,11.62-.09.35-.09.48-.09.81,0,2.12,0,14.05,0,15.98,0,.24.09.33.54.36.44.02,1.19.03,1.62,0,.31-.03.55-.1.6-.4.47-1.97,2.73-11.9,3.08-13.28.19,2.88.46,12.03.55,13.36.03.51.65.29,1.19.35.85,0,2.15,0,3.12,0,.64,0,1.1,0,1.32-.02.23-.03.26-.12.26-.32-.06-1.87-.38-10.83-.53-14.9-.02-.6-.07-.6.33-1.31.74-1.34,1.66-2.84,2.34-4.16.12-.27.12-.52.12-.82,0-1.27,0-4.92,0-6.82,0-.72-.02-1.15-.11-1.25-.1-.13-.3.21-.38.34-1.25,2.17-7.05,12.45-7.77,13.61h0Z"/>
      <path class="st0" d="M129.32,25.05c-.03,2.01,0,5.32-.01,7.75,0,2.28,0,4.35,0,5.06.01.13.04.24.16.31.71.21,1.87.07,2.62.1.21,0,.63-.01.71-.17.65-2.51,4.54-19.64,5.18-22.3.13-1.67.01-4.75.05-6.41.06-.95-.46-.84-1.28-.85-.76,0-1.9,0-2.64,0-.66.04-.96-.1-1.09.41-.41,1.81-2.94,12.62-3.7,16.08h0Z"/>
      <path class="st0" d="M148.7,22.27c-.23-3.03-.72-11.97-.83-13.38-.02-.17-.04-.27-.22-.31-1.4-.07-3.52-.01-5.05-.03-.51,0-.99,0-1.47,0-.65,0-.81.02-.94.54-.43,1.83-.97,4.08-1.34,5.84-.05,1.9,0,19.68-.02,22.84-.01.34.05.63.21.25.6-2.35,3.04-13.14,3.41-14.64.11-.63.13,1.42.25,2.9.24,3.93.62,10.42.71,11.67.02.17.04.27.23.31,1.81.05,4.88.04,6.67.01.24-.03.3-.1.36-.3.3-1.26,1.93-8.34,2.77-11.98.25-1.24.5-1.74.53-2.69,0-1.85,0-12.05,0-14.21,0-.16,0-.32-.14-.41-.27-.14-1.75-.24-1.95.14-.6,2.16-2.77,12.11-3.16,13.46h0Z"/>
      <path class="st0" d="M155.08,13.78c-.5,1.65-.29,2.75-.33,4.35,0,4.81,0,14.13,0,15.88.02.56.85.54,1.3.61,1.31.12,2.67-.12,3.75-.73.5-.22,1.13-.92,1.29-.64.12.24-.18,1.07.07,1.3.11.11.28.13.44.14.53.02,1.49,0,2.43,0,.94,0,1.85,0,2.32,0,.27,0,.43-.03.5-.09.24-2.21,0-12.36.08-14.64.05-.51-.3-.46-.7-.48-.95.01-2.81-.04-3.9.02-.43.01-.58.37-.67.75-.2.85-.62,2.65-.82,3.55-.15.62.08.82.71.85.37.02.91.07,1.06.45.19.5-.23,1.59-.51,2.19-.49,1.19-2.26,1.76-3.13.84-.45-.58-.32-1.48-.2-2.13.53-2.36,2.24-9.68,2.75-11.92.22-1.01.64-2.24,1.65-2.78,1.37-.67,2.88-.14,2.78,1.45,0,.86-.41,2.25-.65,3.37-.3,1.12-.15,1.49,1.12,1.37.25-.02.53-.12.52-.41.01-2.85.01-9.9,0-11.57-.04-.6-.62-.52-1.17-.54-5.43-.15-9.49,3.21-10.69,8.75v.05Z"/>
      <path class="st0" d="M175.52,17.63c.63.29,1.54.06,2.23.22.37.09.24.36.11.93-.72,3.13-2.11,9.14-2.51,10.86-.14.56-.12.85-.12,1.5.02,2.62-.04,8.7.03,10.39.11.51,1.12.28,1.67.34.4,0,.81,0,1.14,0,.41,0,.68-.01.83-.05.11-.03.16-.08.2-.15.61-2.47,4.09-17.72,5.46-23.57.04-.11.09-.17.22-.21.44-.15,1.42.05,1.61-.6.09-.29.07-.74.07-1.3,0-1.05.02-2.2-.01-3.25.02-.73-.48-.56-1.08-.58-1.53,0-3.1,0-4.66,0-1.66.03-3.89-.05-5.21.03-.35.11-.24.58-.28.88,0,.92,0,2.76,0,3.73.01.3,0,.65.26.83h.02Z"/>
      <path class="st0" d="M186.49,20.52c-.03,3.14,0,11.69-.01,13.63-.02.36.12.51.54.52.43.03,1.26.02,1.83.02.52-.04.76.05.94-.28.46-1.84,2.06-8.9,3.08-13.28.31-1.41.55-2.21.74-3.3.03-2.13,0-10.02,0-12.27.03-.49-.21-.58-.77-.58-.54-.01-1.46-.01-2,0-.23,0-.6.03-.71.12-.67,1.74-1.67,7.2-2.74,11.42-.47,2.1-.76,3.17-.91,4h0Z"/>
      <path class="st0" d="M215.51,25.55c-.01,3.08-.04,9.49.01,11.42.03.43.96.2,1.45.26,2.69-.07,7.42.14,9.29-.08.35-.29.3-.67.47-1.25.17-.72.4-1.73.59-2.55.1-.65.58-1.67.01-1.77-1.26-.09-4.44-.01-5.86-.04-.92.03-.74-.34-.54-1.26.33-1.43.7-3.07,1.05-4.52.14-.72.5-.77,1.16-.76,1.28,0,2.79,0,4.04,0,.56,0,.89-.01,1.08-.2.41-.59.56-2.05.81-2.93.16-.74.37-1.44.44-2.07.05-.44-.4-.44-.72-.45-1.02-.01-3.3,0-4.38,0-.33-.02-.85.05-.81-.42.22-1.35.82-3.63,1.1-4.9.13-.66.42-.88,1.09-.87.74-.02,2.11,0,2.89-.01.96.02.99-.35.98-1.24,0-.81,0-1.93,0-2.75-.05-.7.19-1.62-.44-1.64-1.74-.05-6.62,0-8.63-.01-.38,0-.62,0-.76.03-.09.02-.15.07-.18.14-.57,2.28-3.1,13.24-4.13,17.86h0Z"/>
      <path class="st0" d="M205.31,22.95c.08-3.24.57-12.9.6-14.28.02-.25-.14-.32-.37-.32-2.58-.01-6.07,0-8.78,0-.65,0-.79.01-.95.62-.1.4-.19.81-.29,1.23-.29,1.28-.71,2.96-.94,4.13,0,2.37-.11,20.52.04,23.65.07-.06.21-.75.48-1.89,1.24-5.35,2.81-12.18,4.07-17.6.03-.13.05-.19.05-.19-.05,1.49-.68,15.03-.84,18.77,0,.14-.01.27-.02.4-.01.45-.08.57.45.59,1.43-.02,4.2.09,5.65-.05,1.01-1.55,6.63-15.88,8.35-19.71.02.07-.37,1.62-.86,3.79-1.19,5.17-3.23,13.97-3.61,15.6-.02.14-.07.26.08.32,1.29.13,3.61.02,5.01.05.39,0,1.09-.06,1.07-.23.1-2.86,0-26.81.03-29.25-.02-.25-.33-.21-.52-.23-.5-.02-1.54-.02-2.07,0-.42.04-.56.07-.71.36-.83,1.91-5.35,12.99-5.94,14.23h0Z"/>
    </g>
    <g>
      <path class="st0" d="M136.67,54.35c-.27,1.24-.28,2.83-.08,4.08.73,2.71,3.83,4.14,5.76,5.9.62.56,1.21,1.23,1.41,2.04.4,1.55-.9,3.32-2.51,3.38-1.35.1-2.22-1.05-2.01-2.3.03-.98.86-2.38-.35-2.4-.5-.03-1.2-.02-1.71,0-.36,0-.75.04-.72.49,0,2.55-.03,7.48.01,9.34,0,1.02,3.19.95,4.06.93,5.64-.12,9.56-4.32,10.07-9.61.44-4.2-2.84-6.69-5.86-8.9-.78-.66-1.42-1.44-1.45-2.34-.05-1.25.91-2.52,2.13-2.76,1.29-.28,2.27.64,2.13,1.94.06.58-.62,2.02.04,2.27.68.17,1.58.06,2.28.08.34-.03.88.07.91-.39.04-1.7,0-6.76.01-8.68,0-.21-.01-.44-.09-.6-.12-.24-.42-.36-.88-.47-.69-.16-1.57-.25-2.33-.25-5.5-.11-9.66,3.07-10.82,8.23v.04Z"/>
      <path class="st0" d="M128.01,62.66c-1.78-.04-1.43-2.07-1.11-3.25.2-.88.4-1.72.61-2.62.92-4.03,3.58-15.42,4.06-17.64,0-.05-.02-.09-.07-.12-.11-.06-.44-.05-1.03-.05-1.47,0-3.21,0-4.71,0-.66,0-.71.1-.86.73-.1.42-.2.84-.3,1.28-.44,1.93-1.02,4.35-1.42,6.18-.09,2.44,0,17.69-.03,20.57,0,.17.02.31.16.42,1.11.54,2.77.57,4.06.53,3.56-.18,6.25-1.68,7.92-4.35.31-2.03.04-20.26.11-25.22,0,0-.01.03-.03.09-.5,1.94-4.21,18.63-5.02,21.5-.33,1.03-1.15,2.02-2.32,1.96h-.04Z"/>
      <path class="st0" d="M112.89,57.23c.08-3.24.57-12.9.6-14.28,0-.19-.04-.28-.25-.31-1.89-.04-4.76,0-6.83-.02-.71,0-1.39,0-2.07,0-.65,0-.79.02-.95.63-.38,1.62-.88,3.67-1.19,5.22-.05,2.12,0,20.36-.02,23.4,0,.15,0,.25.02.36,0,.02.01.02.02,0,.06-.06.24-.97.58-2.4.34-1.46.79-3.44,1.28-5.54.81-3.5,1.7-7.37,2.47-10.69.11-.47.16-.77.25-1.03-.05,1.49-.68,15.03-.84,18.77,0,.14-.01.27-.02.4-.01.45-.08.57.45.59.07,0,.16,0,.26,0,1.31-.04,4.07.09,5.4-.05,1.07-1.68,3.8-9.09,6.23-14.62,1.18-2.8,2.03-4.92,2.14-5.1-.01.11-.37,1.63-.87,3.79-1.22,5.34-3.25,13.95-3.63,15.78,0,.07.03.12.11.15.12.05.38.05.81.05,1.06,0,3.18,0,4.24,0,.5-.03,1.06.09.98-.31-.1-2.76.19-27.05-.1-29.34-.66-.15-1.73-.07-2.44-.06-.4.04-.54.07-.68.36-.83,1.91-5.35,12.99-5.94,14.23h0Z"/>
      <path class="st0" d="M151.85,60.76c-.03,3.14,0,11.69-.01,13.63-.02.36.12.51.54.52.43.03,1.26.02,1.83.02.52-.04.76.05.94-.28.46-1.84,2.06-8.9,3.08-13.28.31-1.41.55-2.21.74-3.3.03-2.13,0-10.02,0-12.27.03-.49-.21-.58-.77-.58-.54-.01-1.46-.01-2,0-.23,0-.6.03-.71.12-.67,1.74-1.67,7.2-2.74,11.42-.47,2.1-.76,3.17-.91,4h0Z"/>
      <path class="st0" d="M77.75,63.26c-.01,3.08-.04,9.49.01,11.42.03.43.96.2,1.45.26,2.69-.07,7.42.14,9.29-.08.35-.29.3-.67.47-1.25.17-.72.4-1.73.59-2.55.1-.65.58-1.67.01-1.77-1.26-.09-4.44-.01-5.86-.04-.92.03-.74-.34-.54-1.26.33-1.43.7-3.07,1.05-4.52.14-.72.5-.77,1.16-.76,1.28,0,2.79,0,4.04,0,.56,0,.89-.01,1.08-.2.41-.59.56-2.05.81-2.93.16-.74.37-1.44.44-2.07.05-.44-.4-.44-.72-.45-1.02-.01-3.3,0-4.38,0-.33-.02-.85.05-.81-.42.22-1.35.82-3.63,1.1-4.9.13-.66.42-.88,1.09-.87.74-.02,2.11,0,2.89-.01.96.02.99-.35.98-1.24,0-.81,0-1.93,0-2.75-.05-.7.19-1.62-.44-1.64-1.74-.05-6.62,0-8.63-.01-.38,0-.62,0-.76.03-.09.02-.15.07-.18.14-.57,2.28-3.1,13.24-4.13,17.86h0Z"/>
      <path class="st0" d="M39.46,50.31c-.05,4.27,0,16.1-.01,18.09.02.3.18.31.55.36.43.03,1.2.05,1.59-.08.28-.09.35-.34.41-.6.38-1.64,1.47-6.67,2.02-8.94.07-.35.49-.45.92-.45.57-.02,1.17,0,1.75-.01,1.48,0,2.69-.16,3.97-.8.58-.35,1.42-.65,1.51-1.37-.05-4.4.12-15.14-.06-17.32-.04-.07-.12-.11-.24-.13-.17-.02-.47-.02-.88-.02-1.26,0-3.83,0-5.87,0-1.25,0-2.28,0-2.72,0-.15,0-.33.03-.4.16-.65,2.35-2.03,8.95-2.52,11.09h0ZM47.54,44.73c2.57-.14,2.16,1.96,1.7,3.75-.43,1.55-.47,3.36-1.94,4.21-.52.24-1.22.46-1.77.27-.25-.13-.09-.52.05-1.16.09-.38.17-.75.26-1.14.31-1.32.68-2.93.97-4.16.18-.53.19-1.67.7-1.76h.03Z"/>
      <path class="st0" d="M53.29,55.31c-.05,4.27,0,16.1-.01,18.09.02.3.18.31.55.36.43.03,1.2.05,1.59-.08.28-.09.35-.34.41-.6.38-1.64,1.47-6.67,2.02-8.94.07-.35.49-.45.92-.45.57-.02,1.17,0,1.75-.01,1.48,0,2.69-.16,3.97-.8.58-.35,1.42-.65,1.51-1.37-.05-4.4.12-15.14-.06-17.32-.04-.07-.12-.11-.24-.13-.17-.02-.47-.02-.88-.02-1.26,0-3.83,0-5.87,0-1.25,0-2.28,0-2.72,0-.15,0-.33.03-.4.16-.65,2.35-2.03,8.95-2.52,11.09h0ZM61.37,49.72c2.57-.14,2.16,1.96,1.7,3.75-.43,1.55-.47,3.36-1.94,4.21-.52.24-1.22.46-1.77.27-.25-.13-.09-.52.05-1.16.09-.38.17-.75.26-1.14.31-1.32.68-2.93.97-4.16.18-.53.19-1.67.7-1.76h.03Z"/>
      <path class="st0" d="M38.16,73.16c.13-.03.16-.07.17-.18,0-3.34.01-11.22,0-15.85-.01-6.37.03-12.12-.01-13.49-.03-.11-.18-.14-.31-.15-.13,0-.26-.02-.4-.02-.75,0-1.95-.03-2.74.01-.32.03-.44.03-.56.25-.88,2.2-5.64,14.23-7.46,18.85-.21.54-.26.52-.25,1.31,0,1.89,0,4.28,0,6.3,0,.57,0,1.12,0,1.68,0,.63-.05,1.01.24,1.17.56.3,1.22-.08,1.56-.56.26-.34.38-.77.72-1.04.33-.31,1.15-.28,1.79-.28.63.02,1.37-.06,1.96.07.8.22.31,1.26.76,1.74.2.2.55.2.83.21,1.17-.02,2.6.05,3.67-.03h.02ZM30.66,67.12c-.12-.05-.09-.16-.06-.26.11-.3.37-.92.68-1.71.82-2.05,1.91-4.78,2.74-6.84.11-.28.2-.5.25-.63.07-.17.09-.2.09-.02-.05.9-.46,7.28-.57,8.96-.01.16-.02.34-.13.44-.11.09-.35.11-.75.12-.74-.02-1.59.06-2.24-.05h-.02Z"/>
      <path class="st0" d="M70.14,39.13c-.15.08-.19.24-.23.42-.46,2.21-2.47,10.77-2.8,12.68.02,4.45-.07,14.27.03,16.41.03.07.09.1.21.12.17.03.47.02.91.02,1.59,0,4.58,0,6.33,0,.75,0,1.32.01,1.63-.02.41-.02.39-.47.4-.79,0-.83,0-2.6,0-3.59.01-.98-.11-1.1-1.36-1.07-1.03,0-2.6,0-3.34,0-.31-.03-.82.07-.71-.28.51-2.32,4.26-19.06,5.26-23.55.03-.18.11-.3-.05-.37-1.45-.13-4.06,0-5.53-.05-.25,0-.52,0-.73.07h-.01Z"/>
      <path class="st0" d="M160.17,44.59c-.13.32-.16.48-.16.76.1,2.99-.19,20.42.11,23.01.14.15.47.23,1.01.3,1.01.13,2.23.14,3.28.03,5.64-.45,8.51-4.87,9.04-10.17-.08-.56-.74-.49-1.19-.52-1.3.04-2.96-.09-4.18.07-.59.12-.74,1.04-.93,1.79-.21.83-.53,1.67-1.11,2.21-.72.72-2.16.86-2.81.17-.66-.77-.43-1.89-.23-2.78.6-2.61,2.08-9.48,2.69-11.96.22-.75.69-1.68,1.44-2.08.8-.45,1.99-.39,2.47.28.46.65.32,1.5.2,2.26-.12.71-.26,1.26.07,1.51.25.19.61.17.93.19.61,0,1.38,0,1.88,0,.25-.01.53,0,.74-.13.16-.1.18-.3.19-.48.01-.42,0-1.14,0-2.01v-6.05c.02-.6,0-1.22-.53-1.41-1.3-.52-3.07-.6-4.53-.51-4,.22-6.83,2.23-8.36,5.49v.02Z"/>
      <path class="st0" d="M182.39,52.66c-.44,1.73-1.04,4.51-1.43,6.14-.28,1.03-.17,1.75-.19,2.91,0,2.87,0,8.12,0,9.83,0,.44.1.78.48,1.05,1.31.95,3.43,1.23,5.11,1.17,3.71-.09,6.37-1.4,8.12-3.98.49-.73.57-1.28.57-2.24,0-.7,0-1.64,0-2.46-.07-.82.26-1.94-.54-2.04-.76-.09-1.67-.03-2.49-.04-.29,0-.59.02-.85.14-.75.35-.75,1.89-1.16,2.7-.27.66-.67,1.25-1.29,1.58-.75.41-1.82.37-2.33-.18-.65-.76-.41-1.88-.21-2.75.62-2.6,2.18-9.62,2.8-12.05.2-.65.63-1.51,1.26-1.92,1.25-.83,3.04-.38,2.95,1.25.08.85-.51,1.93-.1,2.55.32.4,1.46.42,1.83.09.1-.12.11-.28.12-.43,0-.47,0-1.26,0-2.2,0-2.3,0-5.47,0-6.78,0-.2-.02-.4-.11-.56-.41-.62-2.65-.37-3.42-.35-4.93.32-8.02,3.84-9.12,8.53v.04Z"/>
      <path class="st0" d="M204.61,51.38c-.15-.05-.15-.18-.13-.32.08-.41.3-1.3.55-2.42.73-3.18,1.9-8.18,2.13-9.25.03-.16.03-.27-.16-.31-1.31-.09-3.37,0-4.8-.03-.69,0-1.12,0-1.32.03-.19.04-.21.14-.25.3-.51,2.46-4.06,17.11-4.41,19.34.01,2.63-.03,7.9.02,9.72.04.34.42.31.7.33.63.01,1.9,0,2.6,0,.28-.02.62.03.82-.18.78-2.69,2.17-9.39,2.61-11.02.08-.4.33-.44.76-.46.46-.02,1.26-.01,1.79,0,.55.02.87,0,.75.5-.29,1.28-1.34,5.81-2,8.65-.24,1.16-.47,1.76-.5,2.36.03.18.34.17,1.06.17,1.26,0,3.56,0,4.59,0,.85.02,1.04-.8,1.07-1.37.02-1.69,0-21.9,0-27.88-.28.58-2.17,9.41-2.67,11.37-.09.49-.31.53-.86.55-.71,0-1.64.07-2.34-.06h-.02Z"/>
      <path class="st0" d="M211.71,63.44c-.05,1.56,0,5.65-.01,7.47-.02.57.28.76.87.77.39.02.84-.05,1.18-.3.87-.72.66-1.78,2.13-1.71.64,0,1.57,0,2.2,0,.49-.01.99.16,1.02.73.06.8.02,1.34,1.02,1.3,1.29-.02,3.06.04,4.3-.02.22-.03.22-.12.22-.29,0-2.68,0-26.41,0-29.09.08-.39-.52-.29-.81-.32-.82,0-2.2-.02-3,0-.26.01-.57,0-.66.28-.35.87-1.79,4.46-3.39,8.44-1.46,3.73-4.04,9.89-5.06,12.73h0ZM219.32,65.61c-.17.08-.91.06-1.41.06-.57-.04-1.62.12-1.59-.22.56-1.55,3.21-7.9,3.73-9.23.17-.44.1.02.09.32-.14,2.06-.34,4.87-.48,6.95-.06.84-.1,1.5-.13,1.82-.02.12-.06.23-.18.28h-.02Z"/>
      <path class="st0" d="M235.69,59.66c-.23-3.03-.72-11.97-.83-13.38-.02-.17-.04-.27-.22-.31-1.4-.07-3.52-.01-5.05-.03-.51,0-.99,0-1.47,0-.65,0-.81.02-.94.54-.43,1.83-.97,4.08-1.34,5.84-.05,1.9,0,19.68-.02,22.84-.01.34.05.63.21.25.6-2.35,3.04-13.14,3.41-14.64.11-.63.13,1.42.25,2.9.24,3.93.62,10.42.71,11.67.02.17.04.27.23.31,1.81.05,4.88.04,6.67.01.24-.03.3-.1.36-.3.3-1.26,1.93-8.34,2.77-11.98.25-1.24.5-1.74.53-2.69,0-1.85,0-12.05,0-14.21,0-.16,0-.32-.14-.41-.27-.14-1.75-.24-1.95.14-.6,2.16-2.77,12.11-3.16,13.46h0Z"/>
      <path class="st0" d="M258.75,54.96c.02-2.35.03-13.08,0-15.62-.02-.15-.21-.23-.37-.25-.48-.03-1.44-.17-1.58.34-.69,2.88-1.68,7.27-2.38,10.29-.34,1.38-.7,3.3-.74,2.98-.19-2.92-.69-11.55-.8-13.18-.02-.24-.02-.45-.33-.46-1.83,0-5.31-.07-7.07.02-.19.04-.23.18-.27.36-.4,1.71-2.62,11.31-2.98,12.9-.1.43-.08.56-.08,1.09,0,.48,0,1.2,0,2.09,0,3.23-.01,11.45,0,12.92,0,.5,1.36.32,1.62.26.19-.05.26-.15.31-.32.24-.99,1.03-4.46,1.8-7.78.39-1.67,1.4-6.12,1.6-6.86.26,3.28.77,12.89.9,14.61.01.14.01.26.1.35.07.05.18.07.38.08.33.01.93,0,1.67,0h3.79c.58-.05,1.21.16,1.32-.31.37-1.6,2.36-10.1,3.11-13.49h0Z"/>
      <path class="st0" d="M276.2,41.19c-.15.08-.19.24-.23.42-.46,2.21-2.47,10.77-2.8,12.68.02,4.45-.07,14.27.03,16.41.03.07.09.1.21.12.17.03.47.02.91.02,1.59,0,4.58,0,6.33,0,.75,0,1.32.01,1.63-.02.41-.02.39-.47.4-.79,0-.83,0-2.6,0-3.59.01-.98-.11-1.1-1.36-1.07-1.03,0-2.6,0-3.34,0-.31-.03-.82.07-.71-.28.51-2.32,4.26-19.06,5.26-23.55.03-.18.11-.3-.05-.37-1.45-.13-4.06,0-5.53-.05-.25,0-.52,0-.73.07h-.01Z"/>
      <path class="st0" d="M269.65,70.41c-.16-.19-.48-.13-.72-.15-1.28,0-4.3,0-5.44,0-.95.04-.59-.57-.43-1.4.33-1.41.68-2.99,1.02-4.4.15-.57.29-.7.88-.72.63-.02,1.27,0,1.91,0,.74,0,1.68,0,2.36,0,.58,0,.92,0,1.11-.19.19-.18.28-.56.42-1.17.2-.87.5-2.18.7-3.05.19-.87.32-1.24-.7-1.23-1.14-.02-3.56,0-4.5-.02-.99.01-.48-.77-.33-1.72.22-.95.52-2.27.74-3.21.19-.9.29-1.3,1.28-1.26.9-.02,2.29.03,3.12-.03.89-.05.58-1.07.64-1.74,0-.86,0-2.08,0-2.87-.02-.65,0-.89-.33-.98-.28-.05-.86-.02-1.64-.03-2.33,0-4.98,0-7.33,0-.67,0-.7.05-.84.67-.23.98-.45,1.94-.68,2.95-.55,2.38-1.23,5.35-1.74,7.59-.17,2.45-.03,15.47-.05,18.28.03.29.35.22.59.24,1.69-.07,6.75.13,8.63-.07.4-.26.35-.74.54-1.36.18-.8.44-1.9.63-2.72.16-.73.29-1.18.18-1.37h0Z"/>
    </g>
  </g>
</svg>