<?xml version="1.0" encoding="UTF-8"?>
<svg id="Layer_1" xmlns="http://www.w3.org/2000/svg" version="1.1" viewBox="0 0 86.16 50">
  <!-- Generator: Adobe Illustrator 30.2.1, SVG Export Plug-In . SVG Version: 2.1.1 Build 1)  -->
  <defs>
    <style>
      .st0 {
        fill: #e2e100;
      }
    </style>
  </defs>
  <path class="st0" d="M14.65,23.09c-.68.16-1.72.12-2.34.05-.17-.03-.37-.08-.43-.25.27-2.41,1.96-8.92,2.36-11.13.17-.68-.06-.75-.93-.75-.94,0-2.19,0-3.19,0-2.55-.06-2.11.08-2.67,2.39-.31,1.44-.74,3.27-.99,4.61-.09,3.12,0,18.39-.03,21.61-.04.54.54.59.97.52.47-.07.72-.46.79-.92.52-2.24,1.68-7.88,2.23-9.98.15-.41.61-.45,1-.48.7-.02,1.5-.08,2,.12.24.12.2.39.16.62-.18.85-.58,2.65-.99,4.52-.35,1.56-.65,2.97-.95,4.3-.07.52-.55,1.74-.08,1.8.87.15,2.5.05,3.54.08.57,0,1.14,0,1.69-.01,1.05.04,1-.72,1.2-1.51.48-2.2,1.09-4.87,1.53-6.98.12-2.88,0-17.24.04-20.17-.02-.44-.4-.47-.86-.49-.46,0-.93.08-1.11.52-.55,2.13-1.88,8.5-2.4,10.74-.08.33-.14.67-.5.79h-.02Z"/>
  <path class="st0" d="M33.56,32.76c.12-.36.16-.65.17-1.01-.04-5.09.07-17.74-.04-20.65-.22-.67-1.45-.66-2.39-.78-4.25-.38-8.32,1.54-9.98,5.36-.39.83-.75,1.6-.72,2.45,0,3.2,0,14.92,0,20.31.02.55.3.68,1,.84,5.34.96,10.22-1.27,11.95-6.49v-.03ZM30.56,18.18c-.69,3.66-2.2,9.87-2.77,12.61-.18.81-.56,1.93-1.33,2.47-.75.54-1.92.52-2.38-.15-.56-.84-.25-1.89-.07-2.79.49-2.2,1.99-8.89,2.45-10.96.22-1.02.5-2.16,1.39-2.83,1.51-.97,2.94-.11,2.71,1.62v.03Z"/>
  <path class="st0" d="M35.1,35.82c.39.18,1.11.16,1.64.16.6,0,1.22.01,1.8-.03.67-.06.62-.28.76-.86.07-.33.14-.64.22-.99,1.23-5.51,4.14-18.67,4.72-21.24.09-.38.37-.43.81-.5,1.09-.08,1.36-.73,1.32-1.89,0-.92.03-2.21-.04-3.04-.04-.49-.31-.64-.75-.64-1.83.02-7.59-.09-10.27.04-.19.04-.34.13-.41.33-.23,1.06-.07,2.21-.12,3.4,0,.34,0,.71.09,1.02.27,1.31,2.74.28,2.91,1.19-.32,1.98-1.67,7.57-2.42,11.11-.25,1.31-.55,2.01-.58,3.17-.01,1.73,0,5.83,0,7.78.02.35-.02.77.3.97h.02Z"/>
  <path class="st0" d="M54.71,19.31c.26-.24.29-.73.3-1.44,0-.67,0-1.51,0-2.17-.03-1.04.09-1.73-1.08-1.66-1.69,0-5.94,0-7.67,0-.37.01-.8-.03-1.05.26-.36.58-.5,1.79-.72,2.66-.28,1.28-.58,2.61-.86,3.88-.22.98-.22,1.07-.22,1.72.05,5.43-.11,17.72.06,20.47.19.26.72.18,1.05.2,1.41,0,4.62,0,6.19,0,.38,0,.79.01,1.09-.19.41-.37.42-.86.6-1.5.18-.93.64-2.5.66-3.34-.02-.44-.34-.52-1.04-.54-.52-.01-1.24,0-1.99,0-.88,0-1.77.01-2.63-.01-.67-.02-.92-.14-.89-.64.25-1.59.68-3.3,1.05-4.86.18-.61.43-.82,1.05-.88.66-.05,1.35-.02,2.03-.03.58,0,1.25,0,1.79,0,.63-.01,1.03-.07,1.28-.35.26-.31.35-.75.45-1.15.2-.89.46-1.96.61-2.83.32-1.45-.84-1.15-1.93-1.22-.96-.02-2.13.04-3.02-.04-.52-.03-.71-.33-.63-.81.19-1.18.58-2.7.83-3.85.23-1.16.68-1.41,1.89-1.39.83-.07,2.14.17,2.78-.27l.02-.02Z"/>
  <path class="st0" d="M79.32,34.95c1.46-7.48-6.16-8.61-6.8-11.96-.14-.76.13-1.57.68-2.14.82-.95,2.62-1.05,3.09.24.33.75-.04,1.95.2,2.52.37.78,1.58.63,2.38.58,1.07-.05.85-1.01.87-2.1,0-1.91,0-4.62,0-6.13.04-1.21-.42-1.65-1.67-1.8-.91-.14-1.94-.16-2.87-.08-3.29.27-5.97,1.71-7.67,4.2-.64.91-.99,1.73-1.01,2.92-.01,1.68-.03,3.95,0,5.49,0,1.52,1.09,2.26,2.23,3.2,1.61,1.37,4.42,2.8,3.92,5.25-.34,1.84-3.08,2.93-4.04,1.01-.46-.83.17-2.22-.3-3-.4-.63-1.62-.59-1.78.18-.14,2.2-.01,6.22-.05,8.38,0,.32.03.66.16.91.47.8,2.24.57,3.12.58,4.81-.15,8.61-3.51,9.52-8.2v-.05Z"/>
  <path class="st0" d="M59.15,8.78c-.23.12-.29.34-.36.59-.43,1.88-2.02,9.03-2.5,11.19-.16.66-.22,1.04-.2,1.76,0,4.04,0,12.24,0,14.74.01.31-.04.67.34.74,1.9.12,4.88.01,6.94.05,1.5-.03,2.1.25,2.06-1.31.02-4.92.46-3.95-4.24-4.07-.38-.03-1.19.09-1.03-.44.58-2.87,4.27-18.66,5.12-23.16-.05-.13-.2-.16-.37-.18-.27-.02-.59-.03-.89-.03-1.09,0-2.95,0-3.94,0-.31,0-.65,0-.92.11h-.02Z"/>
</svg>