<?xml version="1.0" encoding="UTF-8"?>
<svg id="Layer_1" xmlns="http://www.w3.org/2000/svg" version="1.1" viewBox="0 0 281.17 49.37">
  <!-- Generator: Adobe Illustrator 30.2.1, SVG Export Plug-In . SVG Version: 2.1.1 Build 1)  -->
  <defs>
    <style>
      .st0 {
        fill: #e2e100;
      }
    </style>
  </defs>
  <g>
    <path class="st0" d="M237.5,15.38c-.3,1.25-.62,2.27-.56,3.58.06,4.76-.12,12.35.07,15.55.41.99,3.26,1.05,4.31,1.04,5.06,0,8.57-3.4,9.68-8.21.27-1.12.61-2.2.63-3.26,0-2.45.02-11.52,0-15.75-.03-.61-.33-.81-1.09-1.05-6.54-1.54-11.53,1.52-13.01,8.05v.05s-.03,0-.03,0ZM247.68,14.64c-.71,3.61-2.26,9.7-2.86,12.41-.2.86-.62,2.03-1.51,2.51-.69.39-1.65.35-2.09-.18-.63-.81-.3-1.92-.1-2.82.5-2.16,2.05-8.74,2.52-10.77.23-.98.51-2.08,1.36-2.75,1.49-.99,2.92-.17,2.68,1.56v.03h0Z"/>
    <path class="st0" d="M276.22,19c.28-.23.29-.64.31-.99.02-.79,0-2.04,0-2.86-.04-.42.09-1.02-.31-1.26-2.25-.19-8.99-.02-11.89-.06-.75-.02-.84.35-.85,1.12-.02.61,0,1.55-.01,2.36-.11,2.54.99,1.68,2.66,2.08.37.14.23.51.07,1.21-.68,3.03-2.18,9.32-2.68,11.68-.11,2.62-.05,7.1-.03,9.53.05.46.27.58.84.64.74.04,1.79.05,2.56,0,.45-.03.62-.15.69-.53.38-1.64,1.81-7.82,3.07-13.29.8-3.44,1.32-5.7,1.98-8.57.12-.48.1-.69.65-.75.9-.15,2.11.16,2.91-.28l.02-.02h0Z"/>
    <path class="st0" d="M220.76,13.95c.28-.23.29-.64.31-.99.02-.79,0-2.04,0-2.86-.04-.42.09-1.02-.31-1.26-2.25-.19-8.99-.02-11.89-.06-.75-.02-.84.35-.85,1.12-.02.61,0,1.55-.01,2.36-.11,2.54.99,1.68,2.66,2.08.37.14.23.51.07,1.21-.68,3.03-2.18,9.32-2.68,11.68-.11,2.62-.05,7.1-.03,9.53.05.46.27.58.84.64.74.04,1.79.05,2.56,0,.45-.03.62-.15.69-.53.38-1.64,1.81-7.82,3.07-13.29.8-3.44,1.32-5.7,1.98-8.57.12-.48.1-.69.65-.75.9-.15,2.11.16,2.91-.28l.02-.02h.01Z"/>
    <path class="st0" d="M206.68,42.41c.23-.04.26-.18.26-.38v-15.05c-.02-6,.04-11.31-.02-12.91-.02-.08-.07-.13-.17-.17-.14-.06-.41-.08-.79-.09-.7,0-1.6-.03-2.24.03-.47.03-.66.17-.8.56-.96,2.43-4.88,12.33-6.58,16.64-.38,1.12-.77,1.41-.71,2.78v4.87c.01,1.05-.03,1.95.02,2.93.1.96.95.82,1.48.27.44-.38.71-.9,1.25-1.16.73-.31,2.18-.3,3.07-.11.75.2.63,1,1.04,1.48.32.33.84.34,1.29.36,1.02-.01,1.96.05,2.87-.05h.03ZM199.62,36.61c-.27-.12-.09-.44.14-1.02.12-.3.24-.59.36-.89.8-1.97,1.87-4.61,2.67-6.59.2-.46.39-1.11.33-.25-.13,1.62-.37,6.61-.57,8.4-.17.5-.57.41-1.2.46-.67,0-1.32.04-1.71-.09h-.02v-.02h0Z"/>
    <path class="st0" d="M230.81,12.7c-.22.11-.28.33-.34.58-.42,1.85-2,8.94-2.47,11.03-.15.63-.2.98-.19,1.66v14.53c0,.3-.04.64.34.7,1.87.1,4.8,0,6.81.04,1.43-.04,2.06.27,2.02-1.23,0-4.88.54-3.94-4.17-4.05-.37-.03-1.17.09-1-.43.59-2.67,4.06-18.17,5.02-22.46.03-.2.08-.33-.11-.41-.24-.07-.54-.07-.81-.07h-3.92c-.39,0-.81-.02-1.16.11,0,0-.02,0-.02,0Z"/>
    <path class="st0" d="M254.28,9.26c-.17.17-.27.48-.38.94-.19.79-.41,1.78-.61,2.61-.09.38-.17.75-.26,1.12-.25,1.04-.16,1.28-.18,2.18v21.04c.02.7.9.75,1.19-.34.06-.22.1-.43.16-.67.65-2.78,1.57-6.84,2.18-9.43.12-.51.29-.7.99-.73.38-.02.93-.01,1.55-.02.92-.02,1.95.06,2.77-.07.68-.11.61-.87.63-1.41v-2.69c-.01-.32-.02-.68-.18-.94-.43-.59-1.69-.33-2.43-.39-1.3-.02-1.97.09-1.57-1.41.28-1.14.54-2.64.92-3.76.47-1.36,2.52-.22,3.12-1.34.23-.65.1-1.78.13-2.57v-1.24c-.03-.41,0-.71-.26-.95-.24-.17-.57-.15-.88-.17h-5.14c-.66,0-1.53-.05-1.74.22l-.02.02h0Z"/>
  </g>
  <g>
    <path class="st0" d="M75.42,17.84c-.07-.06-.06-.26-.07-.38-.04-1.11,0-4.28-.07-5.79-.06-.89-.55-.81-1.61-.83h-3.31c-.73.05-1.53-.17-1.5.54.06,2.15.42,11.71.57,15.93.04,1.05-.35,2.09-.52,3.13-.25,1.32-.11,3.03-.15,4.48v2.74c0,.68-.02,1.16.12,1.43.18.33.6.34.94.37.82.02,1.89.06,2.71-.04.5-.04.69-.42.78-.88.52-2.22,1.88-8.18,2.35-10.14.19-.74.42-1.06.8-1.87.88-1.78,1.94-3.96,2.85-5.8.29-.58.56-1.13.83-1.69.41-.76.44-1.24.43-2.17v-3.07c-.05-.84.15-1.98-.23-2.57-.34-.43-.93-.4-1.37-.12-.35.22-.57.61-.75.99-.72,1.51-2.12,4.52-2.57,5.44-.07.1-.12.28-.22.29h-.01Z"/>
    <path class="st0" d="M81.55,10.17c-.14.33-.19.59-.2.93v21.44c-.04.91,1.22.77,2.14.86,4.13.22,7.96-1.83,9.52-5.52.21-.53.16-.81.17-1.5V5.54c0-.13-.03-.24-.1-.34-.12-.18-.4-.28-.86-.35-.9-.12-1.98-.13-2.91-.04-3.53.26-6.36,2.3-7.73,5.34v.02h-.03ZM90.67,12.48c-.71,3.61-2.26,9.7-2.86,12.41-.2.86-.62,2.03-1.51,2.51-.69.39-1.65.35-2.09-.18-.63-.81-.3-1.92-.1-2.82.5-2.16,2.05-8.74,2.52-10.77.23-.98.51-2.08,1.36-2.75,1.49-.99,2.92-.17,2.68,1.56v.03h0Z"/>
    <path class="st0" d="M142.95,17.07c-.14.33-.19.59-.2.93v21.44c-.04.91,1.22.77,2.14.86,4.13.22,7.96-1.83,9.52-5.52.21-.53.16-.81.17-1.5V12.44c0-.13-.03-.24-.1-.34-.12-.18-.4-.28-.86-.35-.9-.12-1.98-.13-2.91-.04-3.53.26-6.36,2.3-7.73,5.34v.02s-.03,0-.03,0ZM152.06,19.38c-.71,3.61-2.26,9.7-2.86,12.41-.2.86-.62,2.03-1.51,2.51-.69.39-1.65.35-2.09-.18-.63-.81-.3-1.92-.1-2.82.5-2.16,2.05-8.74,2.52-10.77.23-.98.51-2.08,1.36-2.75,1.49-.99,2.92-.17,2.68,1.56v.03h0Z"/>
    <path class="st0" d="M155.77,11.18c-.14.33-.19.59-.2.93v21.44c-.04.91,1.22.77,2.14.86,4.13.22,7.96-1.83,9.52-5.52.21-.53.16-.81.17-1.5V6.55c0-.13-.03-.24-.1-.34-.12-.18-.4-.28-.86-.35-.9-.12-1.98-.13-2.91-.04-3.53.26-6.36,2.3-7.73,5.34v.02s-.03,0-.03,0ZM164.88,13.49c-.71,3.61-2.26,9.7-2.86,12.41-.2.86-.62,2.03-1.51,2.51-.69.39-1.65.35-2.09-.18-.63-.81-.3-1.92-.1-2.82.5-2.16,2.05-8.74,2.52-10.77.23-.98.51-2.08,1.36-2.75,1.49-.99,2.92-.17,2.68,1.56v.03h0Z"/>
    <path class="st0" d="M98.65,30.93c-1.73-.14-1.34-2.18-1.01-3.37,1.21-5.47,3.97-16.78,4.38-19.22-.05-.14-.29-.16-.86-.17h-3.47c-.43,0-.84,0-1.24.02-.62.05-.71.3-.89,1.1-.32,1.39-.67,2.89-.99,4.28-.23,1.17-.59,2.11-.6,3.12v19.07c-.05.62.6.75,1.3.89,3.95.73,8.7-.66,10.47-4.25.17-2.38,0-18.78.05-23.98,0-.1-.02-.08-.04.02-.53,1.94-3.9,17.5-4.87,20.77-.32.86-1.14,1.79-2.18,1.73h-.05Z"/>
    <path class="st0" d="M108.86,11.81c-.23.21-.27.55-.36.87-.43,2.05-1.52,6.21-1.93,8.57-.03,2.51,0,15.04,0,18.25,0,.23,0,.47.2.6.46.28,1.3.24,1.67-.25.13-.18.18-.4.24-.62.21-.9.57-2.47.95-4.11.34-1.49.66-2.88.96-4.15.22-.91.29-1.55.63-1.83.56-.43,1.35.05,1.68.57.43.68.28,1.43.12,2.23-.46,2.06-1.35,5.82-1.72,7.47-.19.84.16.9,1.21.9h3.75c.98,0,1.21-.23,1.4-1.2.43-1.85.89-3.87,1.32-5.7.43-2.06,1.31-4.38-.13-6.24-.26-.37-.85-.73-.82-1.17.1-.41.7-.63,1.14-.97.4-.31.52-.67.54-1.16.02-2.45,0-8.37,0-10.83,0-.28,0-.58-.12-.81-.33-.56-.9-.49-1.57-.54-.57-.02-1.25,0-2.22-.01h-5.05c-.69.02-1.71-.06-1.89.16h0v-.03h0ZM115.99,19.51c-.23,1.14-.52,2.39-1.5,3.08-.76.48-2.44.98-1.97-.54.27-1.1.74-3.06,1-4.09.06-.21.13-.39.22-.52.38-.53,1.07-.39,1.62-.08.75.44.76,1.27.64,2.1v.05h0Z"/>
    <path class="st0" d="M130.9,5.08c-.23.21-.27.55-.36.87-.43,2.05-1.52,6.21-1.93,8.57-.03,2.51,0,15.04,0,18.25,0,.23,0,.47.2.6.46.28,1.3.24,1.67-.25.13-.18.18-.4.24-.62.21-.9.57-2.47.95-4.11.34-1.49.66-2.88.96-4.15.22-.91.29-1.55.63-1.83.56-.43,1.35.05,1.68.57.43.68.28,1.43.12,2.23-.46,2.06-1.35,5.82-1.72,7.47-.19.84.16.9,1.21.9h3.75c.98,0,1.21-.23,1.4-1.2.43-1.85.89-3.87,1.32-5.7.43-2.06,1.31-4.38-.13-6.24-.26-.37-.85-.73-.82-1.17.1-.41.7-.63,1.14-.97.4-.31.52-.67.54-1.16.02-2.45,0-8.37,0-10.83,0-.28,0-.58-.12-.81-.33-.56-.9-.49-1.57-.54-.57-.02-1.25,0-2.22-.01h-5.05c-.69.02-1.71-.06-1.89.16h0v-.03h0ZM138.02,12.79c-.23,1.14-.52,2.39-1.5,3.08-.76.48-2.44.98-1.97-.54.27-1.1.74-3.06,1-4.09.06-.21.13-.39.22-.52.38-.53,1.07-.39,1.62-.08.75.44.76,1.27.64,2.1v.05h0Z"/>
    <path class="st0" d="M178.74,26.37c0-3.53.6-11.24.51-13.77-.04-.09-.11-.15-.22-.18-.26-.07-.8-.05-1.61-.05h-6.47c-.81,0-1.12.02-1.33.58-.31.94-.49,2-.73,2.98-.2.93-.45,1.68-.48,2.47.04,3.37-.08,19.54.04,22.48,1.11-4.43,2.59-11.22,3.72-15.96.28-1.12.44-2.05.68-2.87-.06,1.92-.65,14.53-.81,18.16-.02.55-.06.74.49.79.19,0,.4.03.61.02h3.67c.35,0,.91,0,1.08-.09.2-.08.27-.22.35-.41.75-1.72,6.22-14.99,7.72-18.49.04.1-.36,1.58-.83,3.68-1.14,4.97-2.96,12.72-3.44,14.92-.03.35.16.34.57.38,1.05.04,3.25,0,4.36,0,.87-.03.94-.02.94-.5-.01-3.26.02-24.42,0-27.8.02-.51-1.75-.32-2.29-.31-.59.04-.82.28-1,.77-1.12,2.6-4.88,11.91-5.52,13.19h0Z"/>
    <path class="st0" d="M52.98,29.45c.66-3.22,2.57-10.98,2.98-13.1.02-.47-.39-.35-1.14-.4h-2.08c-.82,0-1.64-.03-2.44.03-.67-.02-.67.66-.84,1.31-.61,2.65-1.81,7.82-2.47,10.71-.1.42-.1.65-.1,1.06.02,2.44-.04,12.52.02,15.1.05.64,1.77.43,2.16.35.33-.09.45-.27.53-.57.5-2.12,2.53-10.98,2.85-12.3.15-.7.12,1.24.2,2.58.12,3.16.31,8.14.38,9.69.01.19.02.38.13.51.4.3.92.15,1.62.19h2.39c.77-.05,1.58.17,1.55-.53-.06-2.08-.36-10.13-.49-13.99-.02-.64-.03-.79.36-1.5.68-1.29,1.59-2.66,2.18-3.95.14-.36.14-.71.15-1.11v-6.17c0-.69-.04-1.1-.13-1.2-.15-.14-.36.32-.47.47-1.4,2.4-6.55,11.59-7.33,12.82h0Z"/>
    <path class="st0" d="M31.7,33.55c.12-.36.16-.64.16-1-.04-5,.07-17.41-.04-20.27-.22-.66-1.43-.65-2.35-.76-4.18-.37-8.16,1.51-9.8,5.26-.38.81-.73,1.57-.7,2.41v19.94c.02.54.29.66.99.82,5.24.94,10.03-1.24,11.73-6.38v-.03h.01ZM28.75,19.24c-.67,3.59-2.16,9.69-2.72,12.38-.17.8-.55,1.89-1.31,2.43-.73.53-1.88.51-2.34-.14-.55-.82-.25-1.86-.06-2.74.48-2.16,1.95-8.73,2.41-10.76.22-1,.5-2.12,1.37-2.78,1.49-.96,2.88-.11,2.66,1.59v.03h-.01Z"/>
    <path class="st0" d="M45.66,36.84c.12-.36.16-.64.16-1-.04-5,.07-17.41-.04-20.27-.22-.66-1.43-.65-2.35-.76-4.18-.37-8.16,1.51-9.8,5.26-.38.81-.73,1.57-.7,2.41v19.94c.02.54.29.66.99.82,5.24.94,10.03-1.24,11.73-6.38v-.03h0ZM42.71,22.53c-.67,3.59-2.16,9.69-2.72,12.38-.17.8-.55,1.89-1.31,2.43-.73.53-1.88.51-2.34-.14-.55-.82-.25-1.86-.06-2.74.48-2.16,1.95-8.73,2.41-10.76.22-1,.5-2.12,1.37-2.78,1.49-.96,2.88-.11,2.66,1.59v.03h-.01Z"/>
    <g>
      <path class="st0" d="M17.91,32.08c-.05.12,0,.82-.02,1.11.01.45-.02.92.01,1.35.13-.5.18-1.9,0-2.46h0Z"/>
      <path class="st0" d="M16.85,15.62c-2.11-.09-4.78-.02-7.01-.04h-2.04c-.7.02-.8.14-.98.85-.67,2.9-1.47,6.32-2.1,9.13-.17,2.88-.02,14.72-.06,18.18-.02.61.74.44,1.44.49,1.64-.04,3.7.12,5.26-.17,2.08-.4,3.84-1.75,4.87-3.76.73-1.39,1.02-2.97,1.37-4.51.37-1.87.58-4.03-1.05-5.34-.46-.45-.27-.76.18-1.05.98-.56,1.21-.85,1.14-2.21v-10.61c.01-.62-.39-.95-1-.98h-.03v.02h0ZM11.56,35.16c-.26,1.44-.76,3.17-2.36,3.55-.92.26-1.42.06-1.12-.95.26-1.08.72-2.96.98-4.01.06-.23.14-.47.26-.64.38-.54,1.1-.38,1.65-.06.72.45.73,1.27.6,2.08v.05-.02h-.01ZM14.26,23.45c-.23,1.14-.52,2.39-1.5,3.08-.76.48-2.44.98-1.97-.54.27-1.1.74-3.06,1-4.09.06-.21.13-.39.22-.52.38-.53,1.07-.39,1.62-.08.75.44.76,1.27.64,2.1v.05s-.01,0-.01,0Z"/>
    </g>
  </g>
</svg>