<?xml version="1.0" encoding="UTF-8"?>
<svg id="Layer_1" xmlns="http://www.w3.org/2000/svg" version="1.1" viewBox="0 0 176.81 50">
  <!-- Generator: Adobe Illustrator 30.2.1, SVG Export Plug-In . SVG Version: 2.1.1 Build 1)  -->
  <defs>
    <style>
      .st0 {
        fill: #e2e100;
      }
    </style>
  </defs>
  <path class="st0" d="M31.75,27.98c-.07,1.87,0,4.76-.02,6.77-.09,2.03,1.93,1.34,2.71.19.42-.64,1.33-.88,2.12-.85,1.02.03,2.09-.18,2.45.8.22.95.61,1.21,1.59,1.21.86,0,2.05,0,2.77,0,.33-.04,1.06.09,1.15-.28.02-3.48.05-25.41,0-28.9-.05-.24-.61-.24-.87-.25-.69-.01-1.89-.02-2.57,0-.39.02-.88.02-1.03.44-.42,1.02-1.76,4.39-3.27,8.13-1.52,3.94-3.91,9.45-5.02,12.7v.04ZM39.17,30.08c-.24.1-.7.11-1.23.11-.64-.04-1.7.13-1.62-.4.66-1.84,3.06-7.44,3.63-8.88.21-.5.18-.17.15.24-.14,2.01-.33,4.74-.48,6.77-.02.35-.05.68-.07,1.01-.05.65-.03,1-.36,1.14h-.02Z"/>
  <path class="st0" d="M22.27,12c.28-.24.3-.65.32-1.02.02-.81,0-2.09,0-2.94-.04-.43.09-1.05-.32-1.3-2.31-.2-9.23-.02-12.21-.07-.77-.02-.86.36-.87,1.15-.02.63-.01,1.59-.01,2.42-.12,2.61,1.01,1.72,2.73,2.13.38.15.23.53.08,1.24-.7,3.11-2.24,9.57-2.76,12-.11,2.69-.05,7.3-.03,9.79.05.47.28.6.86.65.76.04,1.83.05,2.63,0,.46-.03.63-.15.71-.54.39-1.69,1.86-8.03,3.15-13.65.82-3.54,1.35-5.86,2.03-8.8.12-.5.1-.71.67-.77.93-.15,2.16.16,2.99-.29l.02-.02v.02Z"/>
  <path class="st0" d="M118.28,11.91c.28-.24.3-.65.32-1.02.02-.81,0-2.09,0-2.94-.04-.43.09-1.05-.32-1.3-2.31-.2-9.23-.02-12.21-.07-.77-.02-.86.36-.87,1.15-.02.63-.01,1.59-.01,2.42-.12,2.61,1.01,1.72,2.73,2.13.38.15.23.53.08,1.24-.7,3.11-2.24,9.57-2.76,12-.11,2.69-.05,7.3-.03,9.79.05.47.28.6.86.65.76.04,1.83.05,2.63,0,.46-.03.63-.15.71-.54.39-1.69,1.86-8.03,3.15-13.65.82-3.54,1.35-5.86,2.03-8.8.12-.5.1-.71.67-.77.93-.15,2.16.16,2.99-.29l.02-.02v.02Z"/>
  <path class="st0" d="M16.85,25.73c-.09,2.85,0,13.91-.03,16.96-.03.41.23.65.65.69.54.08,1.31.05,1.65-.28.17-.16.24-.38.3-.6.21-.85.57-2.44.96-4.14.36-1.54.69-2.99,1.01-4.37.21-.86.35-1.93.8-2.11.76-.34,1.61.38,1.82,1.12.22.85-.08,1.7-.25,2.55-.42,1.83-1.29,5.55-1.6,6.96-.04.24-.09.48,0,.67.13.23.57.25,1.33.26h3.72c.48-.03.82,0,1.12-.28.21-.25.27-.59.36-.92.31-1.35.94-4.06,1.36-5.9.25-1.13.53-2.1.63-3.21.12-1.31-.06-2.79-1.14-3.64-.22-.22-.57-.48-.51-.77.12-.4.73-.62,1.2-.97.42-.31.58-.66.61-1.16.03-2.68.02-8.76,0-11.48,0-.9-.74-1.08-1.57-1.09-2.54-.05-6.45-.02-9.02,0-.68,0-.81.32-.94.93-.55,2.49-2.02,8.56-2.47,10.77v.02h.01ZM25.05,19.65c.5-.16,1.25.1,1.63.5.55.6.39,1.65.16,2.62-.23.87-.53,1.8-1.26,2.38-.61.46-1.51.74-2.03.51-.48-.34-.02-1.24.05-1.76.21-.88.48-1.98.69-2.81.2-.77.26-1.23.73-1.43h.03Z"/>
  <path class="st0" d="M90.32,21.4c-.09,2.85,0,13.91-.03,16.96-.03.41.23.65.65.69.54.08,1.31.05,1.65-.28.17-.16.24-.38.3-.6.21-.85.57-2.44.96-4.14.36-1.54.69-2.99,1.01-4.37.21-.86.35-1.93.8-2.11.76-.34,1.61.38,1.82,1.12.22.85-.08,1.7-.25,2.55-.42,1.83-1.29,5.55-1.6,6.96-.04.24-.09.48,0,.67.13.23.57.25,1.33.26h3.72c.48-.03.82,0,1.12-.28.21-.25.27-.59.36-.92.31-1.35.94-4.06,1.36-5.9.25-1.13.53-2.1.63-3.21.12-1.31-.06-2.79-1.14-3.64-.22-.22-.57-.48-.51-.77.12-.4.73-.62,1.2-.97.42-.31.58-.66.61-1.16.03-2.68.02-8.76,0-11.48,0-.9-.74-1.08-1.57-1.09-2.54-.05-6.45-.02-9.02,0-.68,0-.81.32-.94.93-.55,2.49-2.02,8.56-2.47,10.77v.02h0ZM98.52,15.32c.5-.16,1.25.1,1.63.5.55.6.39,1.65.16,2.62-.23.87-.53,1.8-1.26,2.38-.61.46-1.51.74-2.03.51-.48-.34-.02-1.24.05-1.76.21-.88.48-1.98.69-2.81.2-.77.26-1.23.73-1.43h.03,0Z"/>
  <path class="st0" d="M61.84,25.43c.03-2.72.06-12.32,0-15.32-.04-.16-.15-.26-.32-.32-.54-.18-1.47-.15-1.64.49-.4,1.57-.85,3.66-1.3,5.56-.47,2.01-1.35,5.93-1.7,7.28-.03.07-.04.05-.05-.02-.04-.26-.09-1.46-.19-3.05-.29-3.64-.36-8.15-.69-10.16-.05-.09-.14-.14-.27-.17-.25-.1-1.26-.03-1.94-.05h-3.78c-.54,0-.9,0-1.13.06-.15.04-.25.1-.31.21-.78,2.75-2.49,10.69-3.05,13-.14,1.07-.03,1.71-.06,3.13v12.27c-.11.85,1.09.84,1.61.6.2-.1.3-.26.36-.47.28-1.15,1.01-4.37,1.73-7.46.42-1.83,1.26-5.51,1.54-6.65.12-.39.14,1.52.25,2.95.22,3.64.57,9.47.67,11.13.02.19.03.38.14.5.08.08.21.12.43.14.34.03.9.02,1.62.02,1.46-.02,3.22.04,4.52-.03.42-.04.51-.32.59-.68.52-2.33,2.24-9.5,2.97-12.95h0Z"/>
  <path class="st0" d="M141.21,35.81c1.21.39,2.9.36,4.23.22,4.14-.42,6.96-3.05,8.27-6.84.27-.75.39-1.19.38-1.89V7.84c-.02-.67-.37-.78-1.32-.98-4.24-.78-9.02.74-10.99,4.58-.48.89-1.01,1.81-.99,2.79v20.91c0,.29.09.53.39.65h.02v.02ZM143.78,28.18c.72-3.71,2.29-9.97,2.9-12.75.2-.88.63-2.09,1.54-2.59.71-.4,1.69-.36,2.15.19.65.84.31,1.97.11,2.9-.51,2.22-2.08,8.98-2.56,11.06-.23,1.01-.52,2.14-1.39,2.82-1.53,1.01-3,.17-2.76-1.6v-.03h.01Z"/>
  <path class="st0" d="M159.56,40.21c.2.1.63.09,1.34.09h3.8c1.79.06,1.82-.16,2.18-1.72.25-1.23.68-2.55.77-3.74V11.69c0-.15,0-.32-.07-.06-.42,1.78-1.02,4.44-1.49,6.45-.42,1.78-1.15,5.07-1.46,6.25-.02.06-.04.03-.05-.03-.28-3.12-.57-10.95-.87-13.19-.21-.35-.74-.22-1.11-.26h-5.11c-.48.01-1.04-.03-1.27.47-.31.73-.44,1.65-.66,2.54-.21,1.01-.48,1.8-.52,2.64v23.16c0,.18,0,.28,0,.3.05-.07.07-.24.11-.39.53-2.17,2.85-12.61,3.26-14.06.09.29.05.66.1,1.18.2,3.18.46,7.44.65,10.61.08,1.18.12,2.09.16,2.53.02.16.05.3.2.38h.03Z"/>
  <path class="st0" d="M121.67,43.06c.25-.04.31-.17.31-.39V14.07c-.02-.53-1.08-.33-1.5-.39-.42,0-.85,0-1.26.06-.56.09-.55.35-.79.9-.21.54-.41,1.05-.63,1.6-2.03,5.15-6.28,15.86-7.18,18.2-.22,1.05-.06,2.1-.11,3.42v3.28c0,.81-.03,1.36.25,1.64.46.44,1.17.26,1.65-.08.42-.27.68-.67,1.02-1.02.64-.65,1.45-.58,2.44-.59.74-.02,1.72.05,1.93.89.11.35.25.73.6.91.56.3,1.39.2,2.16.22.36,0,.75,0,1.09-.05,0,0,.02,0,.02,0ZM115.2,37.1c-.28-.12-.09-.45.14-1.05.12-.3.25-.6.37-.92.82-2.02,1.92-4.74,2.74-6.76.2-.47.4-1.14.33-.26-.13,1.66-.38,6.79-.58,8.62-.17.51-.59.42-1.23.47-.69,0-1.35.04-1.76-.09h-.02.01Z"/>
  <path class="st0" d="M123.32,13.42c.34.29,1.05.21,1.56.24.62,0,1.27-.02,1.87.04.58.06.5.28.38.83-.64,2.81-1.24,5.48-2.07,9.15-.89,3.96-1.68,7.41-2.03,8.97-.11.5-.1,1.03-.1,1.57.04.88-.11,1.97.15,2.78.22.5.85.47,1.32.5h2.67c.48-.05,1.26.12,1.41-.37.58-2.42,2.8-12.35,4.23-18.63.5-2.13.77-3.55,1.02-4.42.13-.29.43-.35.62-.6.59-.85.33-2.27.39-3.33-.07-.77.25-2.06-.68-2.07-1.55-.05-4.4,0-6.84-.02h-2.2c-.2,0-.44.03-.58.12-.36.24-.41.74-.53,1.15-.18.79-.46,2.01-.65,2.86-.06.39-.24.89.02,1.21l.02.02h.02Z"/>
  <path class="st0" d="M139.84,23.74c0-2.8.09-7.18-.03-9.55-.08-.38-.47-.45-.81-.48-.79-.04-1.96-.05-2.79,0-.42.05-.55.14-.64.47-.57,2.45-3.88,17.06-4.45,19.58-.17.75-.11.97-.12,1.99v6.28c-.02.84.26,1.07,1.19,1.07.8,0,1.81.03,2.55,0,.55-.02.78-.12.87-.6.56-2.58,3.32-14.3,4.24-18.74v-.02h-.01Z"/>
  <path class="st0" d="M89.26,29.33c.12-.36.16-.66.17-1.02-.04-5.13.07-17.89-.04-20.82-.23-.68-1.47-.66-2.41-.78-4.29-.38-8.39,1.55-10.07,5.4-.4.83-.75,1.61-.72,2.47v20.48c.02.55.3.68,1.01.84,5.38.97,10.3-1.28,12.05-6.55v-.03h.01ZM86.23,14.63c-.69,3.69-2.22,9.95-2.8,12.72-.18.82-.56,1.95-1.34,2.49-.75.55-1.94.52-2.4-.15-.57-.84-.26-1.91-.07-2.82.5-2.22,2.01-8.97,2.47-11.05.22-1.02.51-2.17,1.41-2.86,1.53-.98,2.96-.11,2.73,1.63v.03h0Z"/>
  <path class="st0" d="M62.75,23.8c-.08,4.45,0,15.21-.02,17.71,0,.59.72.58,1.2.58.68,0,1.27-.24,1.39-.97.29-1.22.88-3.9,1.35-5.97.32-1.21.32-1.91.69-2.64.49-.63,2.03-.34,2.88-.43,1.73-.04,3.43-.44,4.73-1.57.49-.42.33-1.27.36-2.13-.08-4.88.15-12.39-.09-15.51-.05-.1-.13-.15-.28-.18-.19-.04-.48-.04-.91-.04h-5.86c-1.01,0-1.84,0-2.31.01-.24.01-.51.05-.64.26-.76,2.59-1.93,8.42-2.49,10.85v.02h0ZM70.83,18.3c.67-.13,1.54.26,1.81.92.29.7.1,1.54-.12,2.56-.42,1.51-.5,3.41-1.95,4.33-.52.26-1.3.62-1.83.27-.23-.22-.06-.76.13-1.55.11-.47.22-.93.33-1.41.25-1.07.55-2.34.78-3.31.21-.79.25-1.67.82-1.8h.03Z"/>
</svg>