<?xml version="1.0" encoding="UTF-8"?>
<svg id="Layer_1" xmlns="http://www.w3.org/2000/svg" version="1.1" viewBox="0 0 287.75 113.66">
  <!-- Generator: Adobe Illustrator 30.2.1, SVG Export Plug-In . SVG Version: 2.1.1 Build 1)  -->
  <defs>
    <style>
      .st0 {
        fill: #e2e100;
      }
    </style>
  </defs>
  <g>
    <path class="st0" d="M122.26,14.11c-.18-1.49.01-5.5-.15-7.09-.15-.48-.57-.31-1.36-.35-1.38,0-3.42,0-4.44,0-.42,0-.66.01-.77.07-.14.08-.11.26-.11.43.08,2.28.52,14.44.61,16.84.04.84-.31,1.83-.48,2.71-.22.89-.24,1.44-.22,2.38.01,1.97-.02,5.34.01,6.87-.02.55.49.57.93.57.71,0,1.95,0,2.66,0,.3-.02.67.02.9-.18.7-2.07,2.15-9.25,2.68-11.24.17-.8.41-1.09.82-1.97,1.08-2.2,2.36-4.8,3.46-7.05.18-.36.34-.7.51-1.05.35-.71.37-.75.37-1.69,0-1.65,0-3.49,0-5.12.02-1.04.05-1.6-1.02-1.56-.51,0-.95.21-1.15.69-.8,1.56-2.48,5.49-3.23,6.73h0Z"/>
    <path class="st0" d="M128.64,8.35c-.11.27-.16.45-.16.71,0,5.21,0,20.41,0,22.76,0,.55.54.49,1.11.6,4.49.56,8.93-1.23,10.86-5.25.23-.47.34-.67.36-1.06-.02-2.64.05-17.14-.02-22.99-.22-.57-2.46-.49-3.12-.5-4.14.04-7.46,2.18-9.02,5.7v.02ZM138.17,10.8c-.74,3.49-2.43,10.44-3.02,13.04-.16.68-.59,1.9-1.34,2.34-.72.48-1.92.48-2.41-.11-.57-.79-.26-1.89-.08-2.74.49-2.1,2.26-9.68,2.72-11.62.23-1,.57-2.26,1.55-2.83.69-.4,1.76-.38,2.25.12.43.45.4,1.2.33,1.77v.03Z"/>
    <path class="st0" d="M192.68,13.93c-.11.27-.16.45-.16.71,0,5.21,0,20.41,0,22.76,0,.55.54.49,1.11.6,4.49.56,8.93-1.23,10.86-5.25.23-.47.34-.67.36-1.06-.02-2.64.05-17.14-.02-22.99-.22-.57-2.46-.49-3.12-.5-4.14.04-7.46,2.18-9.02,5.7v.02ZM202.21,16.38c-.74,3.49-2.43,10.44-3.02,13.04-.16.68-.59,1.9-1.34,2.34-.72.48-1.92.48-2.41-.11-.57-.79-.26-1.89-.08-2.74.49-2.1,2.26-9.68,2.72-11.62.23-1,.57-2.26,1.55-2.83.69-.4,1.76-.38,2.25.12.43.45.4,1.2.33,1.77v.03Z"/>
    <path class="st0" d="M206.05,9.41c-.11.27-.16.45-.16.71,0,5.21,0,20.41,0,22.76,0,.55.54.49,1.11.6,4.49.56,8.93-1.23,10.86-5.25.23-.47.34-.67.36-1.06-.02-2.64.05-17.14-.02-22.99-.22-.57-2.46-.49-3.12-.5-4.14.04-7.46,2.18-9.02,5.7v.02ZM215.58,11.85c-.74,3.49-2.43,10.44-3.02,13.04-.16.68-.59,1.9-1.34,2.34-.72.48-1.92.48-2.41-.11-.57-.79-.26-1.89-.08-2.74.49-2.1,2.26-9.68,2.72-11.62.23-1,.57-2.26,1.55-2.83.69-.4,1.76-.38,2.25.12.43.45.4,1.2.33,1.77v.03Z"/>
    <path class="st0" d="M146.5,30.01c-1.78-.04-1.44-2.08-1.11-3.26.2-.88.4-1.73.61-2.64.93-4.07,3.59-15.44,4.08-17.73,0-.06-.02-.09-.07-.12-.12-.06-.44-.05-1.03-.05-1.47,0-3.21,0-4.71,0-.66,0-.73.11-.87.74-.1.42-.2.84-.3,1.29-.44,1.93-1.02,4.37-1.42,6.2-.09,2.52,0,17.7-.03,20.66,0,.17.01.32.16.44.84.46,2.23.53,3.27.56,3.49.06,6.57-1.28,8.39-3.8.3-.42.51-.66.51-1.1.02-1.79,0-20.22,0-24.85,0,0-.02.03-.03.09-.51,1.96-4.22,18.67-5.05,21.62-.33,1.03-1.16,2.02-2.33,1.95h-.04Z"/>
    <path class="st0" d="M157.13,5.99c-.12.11-.16.27-.21.45-.36,1.55-1.54,6.65-2.08,8.99-.18,2.46,0,16.71-.06,19.8-.02.24.07.44.34.47.65.09,1.68.16,1.76-.65.53-2.28,1.66-7.21,2.29-9.89.17-.68.19-1.1.56-1.24.45-.16.97.02,1.36.28.94.71.61,1.98.4,2.95-.39,1.7-1.5,6.46-1.83,7.93-.03.18-.08.36-.01.5.09.18.48.17,1.19.17,1.53-.04,3.61.07,4.93-.05.32-.06.39-.34.46-.62.29-1.22,1.11-4.79,1.6-6.93.48-2.14,1.41-5.03-.66-6.63-.22-.2-.65-.45-.6-.72.32-.64,1.68-.75,1.88-1.57.15-2.21,0-9.77.06-12.34,0-.21,0-.44-.09-.6-.44-.69-2.85-.35-3.87-.43-1.54,0-3.54,0-5.06,0-.88,0-1.58,0-1.96,0-.14,0-.28.02-.39.09h-.01ZM164.57,14.09c-.33,1.82-.96,3.67-3.11,3.7-.45.03-.64-.19-.54-.6.24-1.03.87-3.63,1.16-4.84.08-.33.18-.69.55-.76,1.62-.15,2.3.84,1.95,2.46v.05Z"/>
    <path class="st0" d="M180.11,2.91c-.12.11-.16.27-.21.45-.36,1.55-1.54,6.65-2.08,8.99-.18,2.46,0,16.71-.06,19.8-.02.24.07.44.34.47.65.09,1.68.16,1.76-.65.53-2.28,1.66-7.21,2.29-9.89.17-.68.19-1.1.56-1.24.45-.16.97.02,1.36.28.94.71.61,1.98.4,2.95-.39,1.7-1.5,6.46-1.83,7.93-.03.18-.08.36-.01.5.09.18.48.17,1.19.17,1.53-.04,3.61.07,4.93-.05.32-.06.39-.34.46-.62.29-1.22,1.11-4.79,1.6-6.93.48-2.14,1.41-5.03-.66-6.63-.22-.2-.65-.45-.6-.72.32-.64,1.68-.75,1.88-1.57.15-2.21,0-9.77.06-12.34,0-.21,0-.44-.09-.6-.44-.69-2.85-.35-3.87-.43-1.54,0-3.54,0-5.06,0-.88,0-1.58,0-1.96,0-.14,0-.28.02-.39.09h-.01ZM187.55,11.02c-.33,1.82-.96,3.67-3.11,3.7-.45.03-.64-.19-.54-.6.24-1.03.87-3.63,1.16-4.84.08-.33.18-.69.55-.76,1.62-.15,2.3.84,1.95,2.46v.05Z"/>
    <path class="st0" d="M230.04,23.64c.07-3.26.57-12.89.6-14.33,0-.2-.03-.3-.26-.33-2.41-.05-5.73,0-8.27-.02-.23,0-.45,0-.66,0-.65,0-.8.03-.96.65-.25,1-.49,2.09-.73,3.11-.19.93-.44,1.65-.49,2.39.04,2.27-.08,20.61.04,23.64,1.15-4.65,2.72-11.76,3.9-16.74.28-1.18.47-2.11.71-3.03-.05,1.7-.7,15.37-.86,19.27-.07.65.14.58.73.6,1.02,0,3.61,0,4.7,0,.56-.03.81.07.98-.37.64-1.52,3.81-9.12,6-14.38,1.19-2.81,2.04-4.95,2.15-5.12-.99,4.34-4.05,17.56-4.49,19.48-.02.15-.07.28.09.34,1.3.14,3.72.02,5.06.05.52-.03,1.07.09,1-.33-.11-2.85.21-27.11-.11-29.48-.66-.16-1.72-.07-2.43-.06-.41.04-.56.08-.71.38-.86,1.98-5.34,12.97-5.96,14.27h0Z"/>
    <path class="st0" d="M98.86,16.86c.71-3.33,2.79-12,3.18-13.89.02-.38-.44-.22-1.18-.26-.34,0-.76,0-1.2,0-1.19,0-2.44-.01-3.62,0-.64-.03-.58.39-.73.95-.68,2.96-1.95,8.45-2.7,11.67-.09.36-.09.5-.09.84,0,2.19,0,14.1,0,16.03,0,.24.11.33.55.37.5.03,1.36.03,1.76-.03.2-.03.31-.09.38-.19.61-2.12,2.75-11.96,3.18-13.54.19,2.89.46,12.09.55,13.43.04.51.66.3,1.2.35.85,0,2.15,0,3.12,0,.64,0,1.1,0,1.33-.03.23-.03.27-.12.27-.32-.06-1.88-.38-10.88-.53-14.97-.02-.6-.06-.62.34-1.33.49-.86,1.02-1.79,1.51-2.66.45-.87,1.01-1.44.95-2.38,0-1.3,0-4.93,0-6.81,0-.73-.02-1.15-.11-1.25-.1-.13-.3.21-.38.34-1.26,2.18-7.09,12.51-7.81,13.67h0Z"/>
    <path class="st0" d="M76.73,25.63c.09-.28.13-.48.13-.75,0-.78,0-2.81,0-5.33,0-5.78,0-14.15,0-15.93,0-.21-.05-.34-.26-.46-1.22-.48-2.98-.51-4.34-.41-4.23.31-7.08,2.65-8.52,6.37-.2.54-.3.77-.32,1.2,0,2.47,0,15.91,0,21.42.04.46.33.47.95.63,5.55,1.04,10.63-1.34,12.35-6.72v-.03ZM73.6,10.89c-.7,3.49-2.33,10.44-2.89,13.04-.16.69-.58,1.91-1.34,2.35-.73.47-1.94.45-2.41-.15-.55-.79-.26-1.87-.08-2.72.47-2.1,2.16-9.67,2.6-11.62.22-1,.54-2.26,1.52-2.84.69-.4,1.76-.39,2.25.12.44.45.41,1.2.35,1.77v.03Z"/>
    <path class="st0" d="M91.29,29.06c.09-.28.13-.48.13-.75,0-.78,0-2.81,0-5.33,0-5.78,0-14.15,0-15.93,0-.21-.05-.34-.26-.46-1.22-.48-2.98-.51-4.34-.41-4.23.31-7.08,2.65-8.52,6.37-.2.54-.3.77-.32,1.2,0,2.47,0,15.91,0,21.42.04.46.33.47.95.63,5.55,1.04,10.63-1.34,12.35-6.72v-.03ZM88.16,14.32c-.7,3.49-2.33,10.44-2.89,13.04-.16.69-.58,1.91-1.34,2.35-.73.47-1.94.45-2.41-.15-.55-.79-.26-1.87-.08-2.72.47-2.1,2.16-9.67,2.6-11.62.22-1,.54-2.26,1.52-2.84.69-.4,1.76-.39,2.25.12.44.45.41,1.2.35,1.77v.03Z"/>
    <g>
      <path class="st0" d="M62.3,24.18c-.04.64,0,1.81-.01,2.54.17-.61.19-1.88.02-2.53h0Z"/>
      <path class="st0" d="M61.21,7c-2.21-.06-5.03-.01-7.36-.03-.75,0-1.45,0-2.18,0-.66,0-.73.04-.86.6-.73,3.13-1.58,6.82-2.28,9.86-.15,2.44,0,16.66-.05,19.08-.05.49.68.32,1.27.36,1.75-.05,3.93.12,5.59-.13,2.48-.38,4.62-2.21,5.6-4.73.5-1.24.74-2.62,1.05-3.91.17-.72.25-1.24.27-1.96.09-1.7-.11-2.8-1.53-3.78-.53-.41-.21-.67.24-.91,1.24-.62,1.38-.72,1.32-2.26,0-2.89,0-9.55,0-11.42.03-.61-.49-.75-1.05-.78h-.03ZM55.65,27.4c-.26,1.17-.5,2.55-1.52,3.29-.41.33-2.4.98-2.16-.06.17-.79.62-2.59.94-3.94.2-.59.15-1.25.56-1.68.52-.31,1.45-.06,1.9.39.47.54.4,1.23.28,1.96v.05ZM58.47,15.19c-.33,1.82-.96,3.67-3.11,3.7-.45.03-.64-.19-.54-.6.24-1.03.87-3.63,1.16-4.84.08-.33.18-.69.55-.76,1.62-.15,2.3.84,1.95,2.46v.05Z"/>
    </g>
  </g>
  <g>
    <path class="st0" d="M29.54,44.67c.23-.19.2-.54.22-.84,0-.97,0-2.81,0-3.73-.03-.31.07-.77-.26-.9-2.53-.06-10.54-.07-13.02,0-.4.13-.29.47-.34.99,0,.65,0,1.73,0,2.66,0,.74-.03,1.31.11,1.61.34.66,2.1.23,2.75.45.35.1.19.39.07.99-.76,3.52-2.5,10.35-2.92,12.92.05,2.68-.12,7.7.07,9.97.09.17.31.22.74.24.61.02,1.73,0,2.4,0,.33-.03.89.07.99-.26.65-2.79,4.15-17.93,5.42-23.43.09-.37.05-.48.67-.51.75-.03,1.61,0,2.36-.02.34-.01.58-.05.73-.15h.02Z"/>
    <path class="st0" d="M14.85,74.28c.13-.03.17-.07.18-.19,0-3.35.01-11.28,0-15.93-.02-6.4.03-12.18-.02-13.56-.11-.22-.5-.14-.73-.17-.75,0-1.94-.03-2.73.01-.33.03-.45.04-.58.27-.9,2.26-5.65,14.27-7.49,18.93-.2.53-.26.54-.25,1.3,0,1.91,0,4.32,0,6.35,0,.56,0,1.09,0,1.64,0,.65-.05,1.04.23,1.21.54.33,1.2-.06,1.55-.52.28-.34.41-.79.76-1.07.33-.31,1.14-.29,1.8-.29.63.02,1.37-.06,1.96.08.79.23.33,1.26.78,1.74.22.21.58.21.88.23,1.17-.02,2.55.05,3.63-.03h.02ZM7.32,68.22c-.12-.05-.1-.16-.06-.27.11-.31.37-.92.68-1.71.83-2.06,1.93-4.8,2.75-6.87.11-.28.2-.5.26-.63.08-.19.1-.18.09,0-.06.96-.46,7.31-.57,8.98-.01.16-.02.35-.14.44-.12.09-.36.11-.75.12-.74-.02-1.58.07-2.24-.06h-.02Z"/>
    <g>
      <path class="st0" d="M146.24,53.42c-.05,4.21-.01,15.79-.01,17.78.03.29.18.32.54.37.59,0,1.75.22,1.95-.51.35-1.36.98-4.22,1.54-6.61.23-1,.43-1.86.55-2.35.11-.46.28-.62.95-.64,1.45-.05,3.03.09,4.38-.3.82-.22,2.12-.75,2.57-1.37.31-3.06.04-15.28.1-17.86-.06-.34-.52-.18-1.04-.22-2.2.03-7.09-.05-8.57.03-.33.05-.33.36-.41.64-.5,2.24-2.11,9.03-2.54,11.05h0ZM154.49,47.4c2.58-.13,2.15,1.99,1.68,3.77-.44,1.54-.5,3.35-1.95,4.21-.53.25-1.26.5-1.82.28-.23-.14-.08-.53.07-1.16.09-.38.18-.75.27-1.14.32-1.33.7-2.94,1-4.18.19-.58.23-1.7.73-1.77h.03Z"/>
      <path class="st0" d="M167.78,57.47c-.72.12-1.74.05-2.43.05-.2-.03-.5,0-.58-.21.44-2.52,2.25-9.74,2.66-11.74.15-.59-.14-.49-.9-.51-.7,0-1.68,0-2.46,0-.84,0-1.67-.01-2.49,0-.53.02-.63.16-.77.77-.11.46-.21.91-.32,1.39-.3,1.46-.82,3.24-1.01,4.61,0,1.73,0,19.37,0,22.55,0,.25-.03.4.15.48.27.12.86.11,1.06-.22.55-1.82,1.95-8.39,2.5-10.63.11-.63.26-.78.89-.79.54-.02,1.48-.02,1.98,0,.18.02.44.01.53.19.04.09,0,.22-.01.33-.18.81-.66,2.84-1.14,4.94-.43,1.99-1.08,4.42-1.37,6.05,0,.09.05.14.14.17.17.05.53.05,1.08.05.38,0,.85,0,1.34,0,1.04,0,2.13,0,3.16,0,.61,0,.76-.07.9-.57.45-1.86.98-4.15,1.37-5.96.04-2.04.03-20.3,0-23.13-.04-.14-.27-.21-.53-.21-.4,0-.73.2-.78.61-.47,2.01-2.23,9.66-2.62,11.35-.05.2-.1.34-.31.41h-.02Z"/>
      <path class="st0" d="M172.97,60.38c-.01,3.02-.04,9.52,0,11.57.07.39.55.32.85.35.6.01,1.58,0,2.14,0,.33-.02.84.05.87-.33.59-2.62,5.07-21.83,5.55-24.09.05-1.01.01-2.64.02-3.77-.02-.55.05-.99-.1-1.41-.19-.33-.65-.26-1-.28-.96,0-2.63,0-3.42,0-.37.01-.85-.04-.9.43-.43,1.94-3.22,13.79-4.03,17.52h0Z"/>
      <path class="st0" d="M190.31,45.11c-1.21-.08-4.01-.03-5.27-.04-.46,0-.76,0-.93.05-.12.03-.18.09-.23.19-.54,1.97-2.59,11.2-3.05,13.08-.1.43-.1.59-.1,1.09.04,4.21-.08,13.43.05,15.34.04.07.11.11.24.12.19.02.51.02.99.02h6.36c.77,0,1.4,0,1.76,0,.17-.01.36-.04.43-.21.1-.24.08-.54.09-.82,0-.89,0-2.47,0-3.38,0-.27,0-.57-.1-.79-.08-.33-.93-.29-1.5-.29-1.27,0-2.75.01-3.66,0-.39-.03-.51,0-.46-.29.42-2.42,5.23-21.45,5.41-24.04h-.01Z"/>
      <path class="st0" d="M203.14,43.95c-.4.78-.55,2.13-.81,3.05-.16.69-.4,1.64-.34,2.04,0,3.82,0,6.94,0,11.37,0,5.73,0,11.65,0,12.9,0,.44.52.28.95.33,1.26-.02,2.67.07,3.93-.14,3.18-.35,6.13-3.43,7.09-7.06.19-.64.12-.93.13-1.56,0-1.21,0-2.18,0-3.67,0-2.51,0-5.57,0-8.21,0-2.44,0-7.48,0-8.64.09-.82-2.27-.57-2.93-.62-1.54,0-4.33,0-6.05,0-.55.04-1.68-.13-1.95.18v.02ZM210.66,52.76c-.58,2.61-2.12,9.01-2.58,11-.47,2.05-1.16,4.44-3.8,4.18-.14-.03-.25-.11-.22-.27.44-1.94,3.63-15.41,4.2-17.81.04-.16.09-.29.25-.36.55-.16,1.42,0,1.9.43.67.73.38,1.92.26,2.8v.03Z"/>
      <path class="st0" d="M215.29,50.71c-.06,2.58,0,15.73-.02,18.27,0,.18-.01.34.16.4,2.01.12,6.45.01,8.52.04.71.04.79-.39.93-.98.22-.94.64-2.75.86-3.72.11-.54.27-1.03-.46-1.01-1.35-.07-4.62.1-6.1-.07-.36-.16-.16-.53-.06-1.12.33-1.43.71-3.12,1.06-4.58.16-.97.84-.79,1.61-.81,1.13,0,2.47,0,3.58,0,1.3.03,1.27-.21,1.57-1.45.2-.88.51-2.19.71-3.06.19-.85.27-1.18-.69-1.16-1.08,0-3.36,0-4.39,0-.61,0-.86-.11-.7-.77.2-.93.72-3.13.99-4.32.16-.75.29-1.17,1.26-1.14.74-.01,1.98,0,2.74,0,.52-.02,1.01.02,1.09-.54.1-1.17.02-2.9.04-4.07-.03-.33.06-.75-.2-.98-.15-.16-1.05-.06-1.61-.09-1.2,0-2.84,0-4.15,0-1.16,0-2.28,0-3.41,0-.73,0-.77.04-.93.73-.75,3.28-1.7,7.27-2.4,10.43h0Z"/>
      <path class="st0" d="M237.06,47.11c-1.65-.09-3.9-.02-5.64-.04-.86,0-.77.06-.89.52-.1.44-.2.85-.3,1.3-1.26,5.48-4.86,20.92-5.33,23.1-.04.54-.03,1.11-.03,1.87.03,1.01-.08,2.05.07,2.86.07.2.23.22.42.23,1.76,0,8.28.02,11.48,0,.95-.03.67-1.25.74-1.91,0-.8,0-1.93,0-2.61,0-.24-.01-.52-.13-.72-.1-.31-1.04-.25-1.65-.25-1.31,0-2.76.01-3.68,0-.4-.03-.52,0-.47-.29.42-2.42,5.23-21.45,5.41-24.04h-.01Z"/>
      <path class="st0" d="M237.19,52.79c-.04,4.23-.02,13.83,0,16.4.03.53,1.05.34,1.49.38.65,0,1.27,0,1.36-.71.28-1.17.97-4.18,1.49-6.44.26-1.1.46-2.02.59-2.49.11-.36.3-.47.87-.5,1.66-.06,3.4.11,4.94-.45.58-.2,1.6-.65,1.85-1.06.33-2.9,0-15.29.12-17.78,0-.18.01-.34-.15-.41-2.1-.13-6.9,0-8.79-.04-.27.01-.61-.05-.76.2-.56,2.1-2.47,10.57-3,12.9h0ZM245.77,45.39c2.58-.13,2.15,1.99,1.68,3.77-.44,1.54-.5,3.35-1.95,4.21-.53.25-1.26.5-1.82.28-.23-.14-.08-.53.07-1.16.09-.38.18-.75.27-1.14.32-1.33.7-2.94,1-4.18.19-.58.23-1.7.73-1.77h.03Z"/>
      <path class="st0" d="M260.56,56.08c-.72.12-1.74.06-2.43.05-.2-.03-.5,0-.58-.21.44-2.52,2.25-9.74,2.66-11.74.03-.15.08-.31,0-.41-.1-.11-.47-.09-1.13-.1-1.26,0-3.45,0-4.47,0-1.02-.04-.89.21-1.11,1.12-.57,2.75-1.95,7.93-2.46,10.92,0,1.73,0,15.07,0,17.4,0,.25.03.37.36.42.37.05,1.11.05,1.55,0,.34-.05.48-.13.57-.42.38-1.57,2.05-8.85,2.48-10.69.12-.77.86-.54,1.54-.59.54,0,1.1,0,1.42.03.43.02.46.22.37.56-.4,1.78-1.87,8.01-2.49,10.8-.02.13-.02.25.12.3.89.11,2.54.03,3.6.05.69,0,1.36,0,2.03,0,.89.05.83-.49,1.01-1.15.4-1.77.94-3.98,1.3-5.68.04-2.06.04-19.99,0-22.83-.13-.29-.94-.25-1.18-.02-.78,2.12-2.29,9.87-2.83,11.78-.05.2-.1.34-.31.41h-.02Z"/>
      <path class="st0" d="M276.35,39.94c-.16-.23-.46-.23-.73-.24-1.04,0-3.24,0-4.19,0-.52.03-.71-.05-.84.28-.47,2.21-4.11,17.35-4.52,19.79,0,2.39,0,7.56,0,9.22-.02.53.33.59.91.59.65,0,1.77,0,2.42,0,.24,0,.74,0,.88-.1.99-3.49,4.79-20.7,6.17-26.44.06-.25.06-.48.06-.77-.04-.58.12-1.71-.15-2.31v-.02Z"/>
      <path class="st0" d="M272.01,68.81c-.05,1.53,0,5.18-.02,7.13,0,.31-.02.66.26.84.51.24,1.36.2,1.87-.17.66-.45.72-1.51,1.59-1.65.85-.12,1.97-.05,2.8-.05.26.02.53.04.73.2.5.42.05,1.37.66,1.71.17.09.39.11.6.12,1.17,0,2.72.06,3.83-.03.2-.04.19-.15.19-.3,0-2.75,0-26.46,0-29.21.07-.37-.45-.31-.73-.33-.57,0-1.63,0-2.26,0-.34.02-.84-.06-.98.33-.38.94-1.82,4.55-3.42,8.52-1.48,3.79-4.08,9.97-5.12,12.88h0ZM279.72,70.83c-.17.09-.92.06-1.41.07-.57-.04-1.6.12-1.59-.22.57-1.61,3.23-7.94,3.75-9.27.17-.44.11.02.09.32-.14,2.07-.34,4.89-.49,6.98-.06.84-.1,1.51-.14,1.83-.02.12-.06.23-.19.28h-.02Z"/>
      <path class="st0" d="M198.22,38.73c-.19.03-.28.06-.37.19-2.35,5.82-9.03,22.5-9.84,24.51-.09.25-.09.33-.1.69,0,.79,0,2.11,0,3,0,.62-.01,1.36.57,1.4.84.08,1.89.16,2.68-.1.6-.25.75-.94,1.12-1.4.37-.47.85-.48,1.66-.49.52,0,1.07,0,1.58,0,1.96-.06.71,1.33,1.73,1.92.22.1.48.11.73.12.75,0,1.44.03,2.09-.02.27-.04.31-.08.31-.28,0-2.81.01-22.03,0-29.33-.02-.11-.07-.16-.21-.19-.24-.06-.86-.06-1.38-.05-.21,0-.41.01-.55.03h-.02ZM196.97,62.47c-.17.09-.92.06-1.41.07-.57-.04-1.6.12-1.59-.22.57-1.61,3.23-7.94,3.75-9.27.17-.44.11.02.09.32-.14,2.07-.34,4.89-.49,6.98-.06.84-.1,1.51-.14,1.83-.02.12-.06.23-.19.28h-.02Z"/>
    </g>
    <path class="st0" d="M53.49,38.1c-.17.09-.2.26-.24.45-.48,2.28-2.47,10.74-2.81,12.72-.01,4.29,0,14.32,0,16.29-.02.52.66.3,1.21.35,1.61,0,4.56,0,6.31,0,.53-.02,1.66.07,1.87-.11.18-.17.16-.47.18-.72.01-.82,0-2.55,0-3.54.01-1.03-.12-1.16-1.43-1.13-1.03,0-2.56,0-3.29,0-.32-.03-.84.07-.72-.3.53-2.4,4.28-19.15,5.29-23.66.03-.19.11-.3-.06-.38-1.45-.14-4.07,0-5.55-.05-.25,0-.53,0-.74.07h-.01Z"/>
    <path class="st0" d="M71.73,62.35c-.16-.19-.48-.14-.73-.16-1.28,0-4.31,0-5.45,0-.95.04-.6-.58-.44-1.42.33-1.4.67-2.97,1.01-4.38.15-.58.3-.74.87-.76.64-.02,1.29,0,1.95-.01.74,0,1.68,0,2.36,0,.58,0,.92,0,1.12-.2.2-.18.29-.57.43-1.18.2-.87.5-2.18.7-3.05.19-.88.3-1.25-.71-1.24-1.12-.02-3.5,0-4.46-.02-.18-.01-.37-.02-.5-.1-.32-.29,0-.87.12-1.64.13-.55.27-1.19.42-1.81.12-.51.23-1.01.32-1.4.15-.5.13-.98.61-1.18,1.13-.23,2.71,0,3.81-.13.51-.02.65-.39.64-.87.01-.69,0-1.53,0-2.28,0-.56,0-1.08,0-1.48-.02-.65,0-.9-.34-.99-2.7-.09-6.19-.01-9.01-.03-.67,0-.71.06-.86.68-.23.99-.45,1.95-.68,2.96-.55,2.39-1.24,5.37-1.75,7.62-.17,2.47-.03,15.48-.05,18.38.04.31.38.22.63.25,1.74-.07,6.76.14,8.64-.07.41-.27.36-.74.55-1.37.18-.8.44-1.9.63-2.72.16-.73.29-1.19.17-1.37h0Z"/>
    <path class="st0" d="M138.39,42.42c.23-.19.2-.54.22-.84,0-.97,0-2.81,0-3.73-.03-.31.07-.77-.26-.9-2.53-.06-10.54-.07-13.02,0-.4.13-.29.47-.34.99,0,.65,0,1.73,0,2.66,0,.74-.03,1.31.11,1.61.34.66,2.1.23,2.75.45.35.1.19.39.07.99-.76,3.52-2.5,10.35-2.92,12.92.05,2.68-.12,7.7.07,9.97.09.17.31.22.74.24.61.02,1.73,0,2.4,0,.33-.03.89.07.99-.26.65-2.79,4.15-17.93,5.42-23.43.09-.37.05-.48.67-.51.75-.03,1.61,0,2.36-.02.34-.01.58-.05.73-.15h.02Z"/>
    <path class="st0" d="M118.69,55.31c-.24-3.04-.71-11.95-.83-13.42-.02-.18-.04-.3-.23-.34-.19-.04-.59-.03-1.21-.03-1.57,0-3.4,0-5,0-.7.03-1.2-.18-1.35.75-.41,1.77-.94,3.96-1.3,5.66-.06,1.99,0,19.78-.02,22.97,0,.69.2.42.3-.05.53-2.3,3.02-13.07,3.33-14.42.11-.63.13,1.43.25,2.91.24,3.93.62,10.41.71,11.71.02.17.04.28.23.33,1.42.07,4.15.02,5.64.03.63-.05,1.33.16,1.44-.32.38-1.63,2.35-10.15,3.2-13.81.11-.43.12-.56.12-.95-.01-1.99.02-12.19-.01-14.46-.04-.49-1.36-.33-1.74-.28-.28.06-.37.18-.43.42-.51,2.09-2.76,12.08-3.1,13.31h0Z"/>
    <path class="st0" d="M47.44,67.92c-.16-.19-.48-.14-.73-.16-1.28,0-4.31,0-5.45,0-.95.04-.6-.58-.44-1.42.33-1.4.67-2.97,1.01-4.38.15-.58.3-.74.87-.76.64-.02,1.29,0,1.95-.01.74,0,1.68,0,2.36,0,.58,0,.92,0,1.12-.2.2-.18.29-.57.43-1.18.2-.87.5-2.18.7-3.05.19-.88.3-1.25-.71-1.24-1.12-.02-3.5,0-4.46-.02-.18-.01-.37-.02-.5-.1-.32-.29,0-.87.12-1.64.13-.55.27-1.19.42-1.81.12-.51.23-1.01.32-1.4.15-.5.13-.98.61-1.18,1.13-.23,2.71,0,3.81-.13.51-.02.65-.39.64-.87.01-.69,0-1.53,0-2.28,0-.56,0-1.08,0-1.48-.02-.65,0-.9-.34-.99-2.7-.09-6.19-.01-9.01-.03-.67,0-.71.06-.86.68-.23.99-.45,1.95-.68,2.96-.55,2.39-1.24,5.37-1.75,7.62-.17,2.47-.03,15.48-.05,18.38.04.31.38.22.63.25,1.74-.07,6.76.14,8.64-.07.41-.27.36-.74.55-1.37.18-.8.44-1.9.63-2.72.16-.73.29-1.19.17-1.37h0Z"/>
    <path class="st0" d="M85.17,57.95c.07-3.26.57-12.89.6-14.33,0-.2-.03-.3-.26-.33-2.41-.05-5.73,0-8.27-.02-.23,0-.45,0-.66,0-.65,0-.8.03-.96.65-.25,1-.49,2.09-.73,3.11-.19.93-.44,1.65-.49,2.39.04,2.27-.08,20.61.04,23.64,1.15-4.65,2.72-11.76,3.9-16.74.28-1.18.47-2.11.71-3.03-.05,1.7-.7,15.37-.86,19.27-.07.65.14.58.73.6,1.02,0,3.61,0,4.7,0,.56-.03.81.07.98-.37.64-1.52,3.81-9.12,6-14.38,1.19-2.81,2.04-4.95,2.15-5.12-.99,4.34-4.05,17.56-4.49,19.48-.02.15-.07.28.09.34,1.3.14,3.72.02,5.06.05.52-.03,1.07.09,1-.33-.11-2.85.21-27.11-.11-29.48-.66-.16-1.72-.07-2.43-.06-.41.04-.56.08-.71.38-.86,1.98-5.34,12.97-5.96,14.27h0Z"/>
    <path class="st0" d="M95.52,52.69c-.06,2.58,0,15.73-.02,18.27,0,.18-.01.34.16.4,2.01.12,6.45.01,8.52.04.71.04.79-.39.93-.98.22-.94.64-2.75.86-3.72.11-.54.27-1.03-.46-1.01-1.35-.07-4.62.1-6.1-.07-.36-.16-.16-.53-.06-1.12.33-1.43.71-3.12,1.06-4.58.16-.97.84-.79,1.61-.81,1.13,0,2.47,0,3.58,0,1.3.03,1.27-.21,1.57-1.45.2-.88.51-2.19.71-3.06.19-.85.27-1.18-.69-1.16-1.08,0-3.36,0-4.39,0-.61,0-.86-.11-.7-.77.2-.93.72-3.13.99-4.32.16-.75.29-1.17,1.26-1.14.74-.01,1.98,0,2.74,0,.52-.02,1.01.02,1.09-.54.1-1.17.02-2.9.04-4.07-.03-.33.06-.75-.2-.98-.15-.16-1.05-.06-1.61-.09-1.2,0-2.84,0-4.15,0-1.16,0-2.28,0-3.41,0-.73,0-.77.04-.93.73-.75,3.28-1.7,7.27-2.4,10.43h0Z"/>
  </g>
  <g>
    <path class="st0" d="M162.24,81.45c.23-.19.2-.54.22-.84,0-.97,0-2.81,0-3.73-.03-.31.07-.77-.26-.9-2.53-.06-10.54-.07-13.02,0-.4.13-.29.47-.34.99,0,.65,0,1.73,0,2.66,0,.74-.03,1.31.11,1.61.34.66,2.1.23,2.75.45.35.1.19.39.07.99-.76,3.52-2.5,10.35-2.92,12.92.05,2.68-.12,7.7.07,9.97.09.17.31.22.74.24.61.02,1.73,0,2.4,0,.33-.03.89.07.99-.26.65-2.79,4.15-17.93,5.42-23.43.09-.37.05-.48.67-.51.75-.03,1.61,0,2.36-.02.34-.01.58-.05.73-.15h.02Z"/>
    <path class="st0" d="M97.38,85.07c-.17.69-.34,1.38-.48,2.07-.19.88-.07,1.52-.1,2.39,0,4.52,0,13.27,0,15.33,0,.25.08.43.31.57,1.03.54,2.77.72,4.05.69,6.32.03,9.63-4.35,10.66-10.06.16-.75.29-1.12.29-1.75,0-2.37,0-12.36,0-16.78-.02-.53-.31-.63-1.02-.88-6.82-1.69-12.18,1.5-13.7,8.35v.05ZM107.98,84.41c-.74,3.49-2.43,10.44-3.02,13.04-.16.68-.59,1.9-1.34,2.34-.72.48-1.92.48-2.41-.11-.57-.79-.26-1.89-.08-2.74.49-2.1,2.26-9.68,2.72-11.62.23-1,.57-2.26,1.55-2.83.69-.4,1.76-.38,2.25.12.43.45.4,1.2.33,1.77v.03Z"/>
    <path class="st0" d="M157.45,89.98c-.17.69-.34,1.38-.48,2.07-.19.88-.07,1.52-.1,2.39,0,4.52,0,13.27,0,15.33,0,.25.08.43.31.57,1.03.54,2.77.72,4.05.69,6.32.03,9.63-4.35,10.66-10.06.16-.75.29-1.12.29-1.75,0-2.37,0-12.36,0-16.78-.02-.53-.31-.63-1.02-.88-6.82-1.69-12.18,1.5-13.7,8.35v.05ZM168.05,89.33c-.74,3.49-2.43,10.44-3.02,13.04-.16.68-.59,1.9-1.34,2.34-.72.48-1.92.48-2.41-.11-.57-.79-.26-1.89-.08-2.74.49-2.1,2.26-9.68,2.72-11.62.23-1,.57-2.26,1.55-2.83.69-.4,1.76-.38,2.25.12.43.45.4,1.2.33,1.77v.03Z"/>
    <path class="st0" d="M207.24,90.77c.03-2.36.03-13.07,0-15.69-.08-.46-1.41-.31-1.71-.2-.13.05-.21.15-.25.28-.69,2.9-1.69,7.3-2.4,10.33-.35,1.39-.71,3.32-.74,2.99-.19-2.94-.69-11.54-.8-13.22-.02-.25-.02-.47-.34-.49-1.93-.02-5.21-.06-7.06.01-.22.04-.26.16-.31.35-.39,1.66-2.61,11.3-3,12.96-.1.42-.09.54-.09,1.04,0,.47,0,1.24,0,2.18,0,3.25,0,11.44,0,12.96.01.52,1.33.34,1.62.28.19-.06.27-.15.32-.32.24-.99,1.04-4.49,1.81-7.82.39-1.68,1.4-6.15,1.61-6.89.27,3.29.78,12.95.91,14.67.01.14.01.27.11.35.07.06.19.08.39.08.33.01.93,0,1.67,0,1.59-.01,3.41.03,4.78-.02.24-.03.31-.11.37-.32.39-1.7,2.36-10.07,3.12-13.54h0Z"/>
    <path class="st0" d="M147.5,94.55c.03-2.36.03-13.07,0-15.69-.08-.46-1.41-.31-1.71-.2-.13.05-.21.15-.25.28-.69,2.9-1.69,7.3-2.4,10.33-.35,1.39-.71,3.32-.74,2.99-.19-2.94-.69-11.54-.8-13.22-.02-.25-.02-.47-.34-.49-1.93-.02-5.21-.06-7.06.01-.22.04-.26.16-.31.35-.39,1.66-2.61,11.3-3,12.96-.1.42-.09.54-.09,1.04,0,.47,0,1.24,0,2.18,0,3.25,0,11.44,0,12.96.01.52,1.33.34,1.62.28.19-.06.27-.15.32-.32.24-.99,1.04-4.49,1.81-7.82.39-1.68,1.4-6.15,1.61-6.89.27,3.29.78,12.95.91,14.67.01.14.01.27.11.35.07.06.19.08.39.08.33.01.93,0,1.67,0,1.59-.01,3.41.03,4.78-.02.24-.03.31-.11.37-.32.39-1.7,2.36-10.07,3.12-13.54h0Z"/>
    <path class="st0" d="M95.59,93.05c.15-3.96.01-15.28.05-17.57.04-1.16-3.41-.95-4.4-.98-2.1,0-5.65,0-6.86,0-.37.02-.55-.04-.7.22-.54,2.07-2.23,9.64-3.08,13.23-.1.39-.1.56-.1.94.04,2.3-.07,13.19.04,15.28.06.18.3.2.9.21,1.73-.05,4.04.11,5.82-.1,5.51-.76,7.36-5.91,8.33-11.21v-.02ZM91.3,83.51c-.58,2.61-2.12,9.01-2.58,11-.49,2.09-1.19,4.54-3.9,4.15-.1-.05-.13-.12-.12-.24.44-1.94,3.63-15.41,4.2-17.81.04-.16.09-.29.25-.36.55-.16,1.42,0,1.9.43.67.73.38,1.92.26,2.8v.03Z"/>
    <path class="st0" d="M119.85,93.83c-.03,1.09-.77,8.67-.89,10.34,0,.21,0,.36.24.41,1.12.11,3.13,0,4.35.04.63-.02.88.06,1.05-.46.73-1.91,4.34-11.44,5.04-13.29.12-.32.17-.47.17-.84,0-.3,0-.83,0-1.53-.07-3.25.14-8.61-.08-10.65-.04,0-.09.1-.18.28-.31.71-.63,1.57-.99,2.43-.75,1.81-1.97,5-2.64,6.52-.06-.13.05-.86.13-1.95.16-2.49.57-5.65.55-7.22-.13-.24-.35-.18-.69-.21-.35,0-.85,0-1.4,0h-1.6c-.76.04-1.19-.11-1.67.15-1.02,1.85-3.27,7.65-4.04,9.2-.14.21.08-1.04.16-1.96.25-2.25.65-5.75.76-6.84.09-.52-.3-.53-.72-.53-.74,0-2.26,0-3.1,0-.31.03-1-.1-.95.28.03,2.44-.06,23.68.03,26.46.09.15.34.13.69.15.34,0,.73-.01.97-.12.2-.09.29-.24.38-.44.84-1.91,3.9-9.22,4.41-10.24h0Z"/>
    <path class="st0" d="M179.62,92.03c-.03,1.09-.77,8.67-.89,10.34,0,.21,0,.36.24.41,1.12.11,3.13,0,4.35.04.63-.02.88.06,1.05-.46.73-1.91,4.34-11.44,5.04-13.29.12-.32.17-.47.17-.84,0-.3,0-.83,0-1.53-.07-3.25.14-8.61-.08-10.65-.04,0-.09.1-.18.28-.31.71-.63,1.57-.99,2.43-.75,1.81-1.97,5-2.64,6.52-.06-.13.05-.86.13-1.95.16-2.49.57-5.65.55-7.22-.13-.24-.35-.18-.69-.21-.35,0-.85,0-1.4,0h-1.6c-.76.04-1.19-.11-1.67.15-1.02,1.85-3.27,7.65-4.04,9.2-.14.21.08-1.04.16-1.96.25-2.25.65-5.75.76-6.84.09-.52-.3-.53-.72-.53-.74,0-2.26,0-3.1,0-.31.03-1-.1-.95.28.03,2.44-.06,23.68.03,26.46.09.15.34.13.69.15.34,0,.73-.01.97-.12.2-.09.29-.24.38-.44.84-1.91,3.9-9.22,4.41-10.24h0Z"/>
  </g>
</svg>