<?xml version="1.0" encoding="UTF-8"?>
<svg id="Layer_1" xmlns="http://www.w3.org/2000/svg" version="1.1" viewBox="0 0 336.56 115.55">
  <!-- Generator: Adobe Illustrator 30.2.1, SVG Export Plug-In . SVG Version: 2.1.1 Build 1)  -->
  <defs>
    <style>
      .st0 {
        fill: #e2e100;
      }
    </style>
  </defs>
  <g>
    <g>
      <path class="st0" d="M33.29,45.52c.28-.23.29-.64.31-.99.02-.79,0-2.04,0-2.87-.04-.42.09-1.02-.31-1.27-2.25-.19-9.01-.02-11.91-.07-.75-.02-.84.35-.85,1.13-.02.61,0,1.55-.01,2.37-.11,2.54.99,1.68,2.66,2.08.38.14.23.52.07,1.21-.69,3.04-2.19,9.34-2.69,11.7-.11,2.63-.05,7.12-.03,9.56.05.46.27.58.84.64.74.04,1.79.05,2.57,0,.45-.03.62-.15.69-.53.38-1.65,1.81-7.84,3.08-13.32.8-3.45,1.32-5.72,1.98-8.59.12-.48.1-.69.65-.75.91-.15,2.11.16,2.92-.29l.02-.02h.01Z"/>
      <path class="st0" d="M19.18,74.05c.23-.04.26-.19.26-.38v-15.08c-.02-6.02.04-11.33-.02-12.94-.02-.08-.07-.13-.17-.17-.14-.06-.41-.08-.8-.09-.71,0-1.6-.03-2.24.03-.47.03-.66.17-.8.56-.96,2.43-4.89,12.35-6.59,16.67-.38,1.12-.77,1.42-.71,2.78v4.88c.01,1.05-.03,1.96.02,2.94.1.96.95.82,1.49.27.44-.38.71-.9,1.25-1.16.73-.31,2.19-.3,3.08-.11.75.2.63,1,1.05,1.48.32.33.85.34,1.3.36,1.03-.01,1.96.06,2.88-.05h.02-.02ZM12.11,68.24c-.27-.12-.09-.44.14-1.02.12-.3.24-.59.36-.9.8-1.97,1.88-4.62,2.68-6.6.2-.46.4-1.11.33-.25-.13,1.62-.38,6.63-.57,8.41-.17.5-.57.41-1.2.46-.68,0-1.32.04-1.72-.09h-.02Z"/>
      <path class="st0" d="M169.62,46.54c.28-.23.29-.64.31-.99.02-.79,0-2.04,0-2.87-.04-.42.09-1.02-.31-1.27-2.25-.19-9.01-.02-11.91-.07-.75-.02-.84.35-.85,1.13-.02.61,0,1.55,0,2.37-.11,2.54.99,1.68,2.66,2.08.38.14.23.52.07,1.21-.69,3.04-2.19,9.34-2.69,11.7-.11,2.63-.05,7.12-.03,9.56.05.46.27.58.84.64.74.04,1.79.05,2.57,0,.45-.03.62-.15.69-.53.38-1.65,1.81-7.84,3.08-13.32.8-3.45,1.32-5.72,1.98-8.59.12-.48.1-.69.65-.75.91-.15,2.11.16,2.92-.29l.02-.02h0Z"/>
      <path class="st0" d="M301.96,46.72c.28-.23.29-.64.31-.99.02-.79,0-2.04,0-2.87-.04-.42.09-1.02-.31-1.27-2.25-.19-9.01-.02-11.91-.07-.75-.02-.84.35-.85,1.13-.02.61,0,1.55-.01,2.37-.11,2.54.99,1.68,2.66,2.08.38.14.23.52.07,1.21-.69,3.04-2.19,9.34-2.69,11.7-.11,2.63-.05,7.12-.03,9.56.05.46.27.58.84.64.74.04,1.79.05,2.57,0,.45-.03.62-.15.69-.53.38-1.65,1.81-7.84,3.08-13.32.8-3.45,1.32-5.72,1.98-8.59.12-.48.1-.69.65-.75.91-.15,2.11.16,2.92-.29l.02-.02h.01Z"/>
      <path class="st0" d="M155.76,55.34c.03-2.65.06-12.02,0-14.94-.04-.15-.15-.25-.31-.32-.53-.17-1.43-.14-1.6.48-.39,1.54-.83,3.57-1.27,5.43-.46,1.96-1.32,5.79-1.65,7.1-.03.07-.04.04-.05-.02-.04-.25-.09-1.42-.19-2.97-.28-3.55-.35-7.95-.67-9.92-.05-.08-.13-.13-.26-.17-.25-.09-1.23-.03-1.89-.05h-3.69c-.52,0-.88,0-1.1.05-.15.04-.24.1-.31.21-.76,2.68-2.42,10.43-2.98,12.69-.13,1.04-.03,1.67-.06,3.05v11.97c-.11.83,1.06.82,1.57.59.2-.1.29-.25.35-.46.27-1.12.99-4.27,1.69-7.28.41-1.78,1.23-5.37,1.51-6.48.11-.38.13,1.48.24,2.87.21,3.55.55,9.24.66,10.86.02.19.02.37.14.49.08.08.21.12.42.14.33.03.88.02,1.59.02,1.43-.02,3.14.04,4.41-.03.41-.03.5-.31.58-.66.51-2.27,2.18-9.27,2.9-12.63h0l-.02-.02Z"/>
      <path class="st0" d="M328.43,55.26c.03-2.65.06-12.02-.01-14.94-.04-.15-.15-.25-.31-.32-.53-.17-1.43-.14-1.6.48-.39,1.54-.83,3.57-1.27,5.43-.46,1.96-1.32,5.79-1.65,7.1-.03.07-.04.04-.05-.02-.04-.25-.09-1.42-.19-2.97-.28-3.55-.35-7.95-.67-9.92-.05-.08-.13-.13-.26-.17-.25-.09-1.23-.03-1.89-.05h-3.69c-.52,0-.88,0-1.1.05-.15.04-.24.1-.31.21-.76,2.68-2.42,10.43-2.98,12.69-.13,1.04-.03,1.67-.06,3.05v11.97c-.11.83,1.06.82,1.57.59.2-.1.29-.25.35-.46.27-1.12.99-4.27,1.69-7.28.41-1.78,1.23-5.37,1.51-6.48.11-.38.13,1.48.24,2.87.21,3.55.55,9.24.66,10.86.02.19.02.37.14.49.08.08.21.12.42.14.33.03.88.02,1.59.02,1.43-.02,3.14.04,4.41-.03.41-.03.5-.31.58-.66.51-2.27,2.18-9.27,2.9-12.63h0l-.02-.02Z"/>
      <path class="st0" d="M138.45,56.7c0-2.73.09-7-.03-9.32-.08-.37-.46-.44-.79-.47-.77-.04-1.91-.05-2.73,0-.41.05-.53.13-.62.46-.55,2.39-3.79,16.64-4.35,19.1-.16.73-.1.95-.12,1.94v6.13c-.02.82.25,1.04,1.17,1.05.78,0,1.76.03,2.48-.01.53-.02.76-.12.85-.59.55-2.52,3.24-13.95,4.14-18.28v-.02h0Z"/>
      <path class="st0" d="M129.65,62.07c.12-.36.16-.64.16-1-.04-5.01.07-17.45-.04-20.31-.22-.66-1.43-.65-2.35-.77-4.19-.37-8.18,1.51-9.82,5.27-.39.81-.73,1.58-.71,2.41v19.98c.02.54.29.67.99.82,5.25.94,10.05-1.25,11.76-6.39v-.03.02ZM126.69,47.72c-.67,3.6-2.16,9.71-2.73,12.41-.17.8-.55,1.9-1.31,2.43-.73.53-1.89.51-2.34-.14-.55-.82-.25-1.86-.07-2.75.48-2.16,1.96-8.75,2.41-10.79.22-1,.5-2.12,1.37-2.79,1.49-.96,2.89-.11,2.67,1.59v.03h0Z"/>
      <path class="st0" d="M311.05,68.91c.12-.36.16-.64.16-1-.04-5.01.07-17.45-.04-20.31-.22-.66-1.43-.65-2.35-.77-4.19-.37-8.18,1.51-9.82,5.27-.39.81-.73,1.58-.71,2.41v19.98c.02.54.29.67.99.82,5.25.94,10.05-1.25,11.76-6.39v-.03.02ZM308.09,54.57c-.67,3.6-2.16,9.71-2.73,12.41-.17.8-.55,1.9-1.31,2.43-.73.53-1.89.51-2.34-.14-.55-.82-.25-1.86-.07-2.75.48-2.16,1.96-8.75,2.41-10.79.22-1,.5-2.12,1.37-2.79,1.49-.96,2.89-.11,2.67,1.59v.03h0Z"/>
      <path class="st0" d="M103.28,54.6c-.08,4.34-.01,14.84-.02,17.28,0,.58.71.56,1.17.57.66,0,1.24-.24,1.35-.94.28-1.19.86-3.81,1.31-5.82.31-1.18.31-1.86.68-2.58.48-.61,1.98-.33,2.81-.42,1.69-.04,3.34-.43,4.62-1.53.48-.41.32-1.24.35-2.08-.08-4.76.15-12.09-.09-15.13-.05-.1-.13-.15-.27-.18-.18-.04-.47-.04-.88-.04h-5.72c-.99,0-1.8,0-2.25,0-.24,0-.5.04-.63.26-.74,2.53-1.88,8.21-2.43,10.59v.02h0ZM111.16,49.23c.65-.13,1.5.25,1.76.9.29.68.1,1.5-.12,2.5-.41,1.47-.49,3.33-1.9,4.22-.5.26-1.27.6-1.78.27-.23-.21-.05-.74.12-1.51.11-.45.21-.91.32-1.37.24-1.04.54-2.29.76-3.23.21-.77.24-1.63.8-1.76h.03v-.02Z"/>
      <path class="st0" d="M79.72,51.4c-.09,2.78,0,13.57-.03,16.55-.03.4.23.63.63.67.53.08,1.28.05,1.61-.27.16-.16.23-.37.29-.59.2-.83.55-2.38.94-4.04.35-1.5.67-2.92.98-4.26.21-.84.34-1.89.78-2.06.74-.33,1.57.37,1.78,1.1.22.83-.07,1.66-.24,2.49-.41,1.79-1.26,5.42-1.56,6.79-.04.23-.09.47,0,.65.13.23.56.24,1.3.25h3.63c.47-.03.8,0,1.09-.27.21-.24.26-.58.35-.9.31-1.31.92-3.96,1.33-5.76.24-1.11.52-2.05.62-3.13.12-1.28-.06-2.72-1.11-3.55-.21-.22-.56-.46-.5-.75.12-.39.72-.6,1.17-.94.41-.3.56-.64.6-1.13.03-2.62.02-8.55,0-11.21,0-.88-.72-1.05-1.53-1.06-2.48-.04-6.29-.02-8.8,0-.66,0-.79.31-.92.91-.54,2.43-1.97,8.35-2.41,10.51v.02-.02ZM87.72,45.47c.49-.16,1.22.09,1.59.49.54.58.38,1.61.16,2.55-.22.85-.52,1.75-1.23,2.32-.6.45-1.47.72-1.98.5-.46-.33-.01-1.21.05-1.71.21-.86.47-1.93.67-2.75.19-.75.25-1.2.71-1.39h.03Z"/>
      <path class="st0" d="M260.25,58.25c-.09,2.78,0,13.57-.03,16.55-.03.4.23.63.63.67.53.08,1.28.05,1.61-.27.16-.16.23-.37.29-.59.2-.83.55-2.38.94-4.04.35-1.5.67-2.92.98-4.26.21-.84.34-1.89.78-2.06.74-.33,1.57.37,1.78,1.1.22.83-.07,1.66-.24,2.49-.41,1.79-1.26,5.42-1.56,6.79-.04.23-.09.47,0,.65.13.23.56.24,1.3.25h3.63c.47-.03.8,0,1.09-.27.21-.24.26-.58.35-.9.31-1.31.92-3.96,1.33-5.76.24-1.11.52-2.05.62-3.13.12-1.28-.06-2.72-1.11-3.55-.21-.22-.56-.46-.5-.75.12-.39.72-.6,1.17-.94.41-.3.56-.64.6-1.13.03-2.62.02-8.55,0-11.21,0-.88-.72-1.05-1.53-1.06-2.48-.04-6.29-.02-8.8,0-.66,0-.79.31-.92.91-.54,2.43-1.97,8.35-2.41,10.51v.02-.02ZM268.25,52.32c.49-.16,1.22.09,1.59.49.54.58.38,1.61.16,2.55-.22.85-.52,1.75-1.23,2.32-.6.45-1.47.72-1.98.5-.46-.33-.01-1.21.05-1.71.21-.86.47-1.93.67-2.75.19-.75.25-1.2.71-1.39h.03Z"/>
      <path class="st0" d="M206.57,53.82c-.07-.06-.06-.26-.07-.38-.04-1.12,0-4.29-.07-5.8-.06-.89-.56-.81-1.62-.83h-3.32c-.74.05-1.54-.17-1.51.55.06,2.16.42,11.74.57,15.97.04,1.05-.35,2.1-.52,3.14-.25,1.32-.11,3.04-.15,4.49v2.75c0,.68-.02,1.16.12,1.43.18.33.6.34.94.37.82.02,1.89.06,2.72-.04.5-.04.7-.43.78-.88.52-2.23,1.89-8.2,2.36-10.16.19-.74.42-1.06.81-1.88.88-1.79,1.95-3.97,2.86-5.81.29-.58.56-1.13.83-1.7.41-.76.44-1.24.44-2.18v-3.08c-.05-.84.15-1.98-.24-2.58-.34-.43-.93-.4-1.38-.12-.35.22-.57.61-.75.99-.72,1.52-2.12,4.53-2.58,5.46-.07.1-.13.28-.22.29h0Z"/>
      <path class="st0" d="M71.3,68.84c-1.73-.14-1.35-2.18-1.01-3.38,1.21-5.48,3.98-16.82,4.39-19.26-.05-.14-.29-.16-.86-.17h-3.48c-.43,0-.84,0-1.25.02-.62.05-.71.3-.89,1.1-.32,1.4-.67,2.89-.99,4.29-.23,1.17-.59,2.11-.6,3.13v19.11c-.05.62.6.75,1.3.89,3.96.73,8.72-.66,10.49-4.26.17-2.38,0-18.82.05-24.04,0-.1-.02-.08-.04.02-.53,1.95-3.91,17.54-4.89,20.81-.32.86-1.14,1.8-2.18,1.73h-.04Z"/>
      <path class="st0" d="M51.21,48.45c-.31,1.25-.62,2.27-.56,3.59.06,4.77-.12,12.38.07,15.59.41.99,3.27,1.05,4.32,1.04,5.08,0,8.59-3.41,9.7-8.23.28-1.12.61-2.21.63-3.27,0-2.46.02-11.54,0-15.78-.03-.61-.33-.81-1.1-1.05-6.56-1.54-11.56,1.53-13.03,8.07v.05h-.03ZM61.41,47.72c-.72,3.62-2.26,9.73-2.86,12.44-.2.86-.62,2.03-1.51,2.52-.69.39-1.65.35-2.1-.18-.64-.82-.3-1.92-.1-2.83.51-2.16,2.05-8.76,2.53-10.8.23-.99.51-2.09,1.37-2.76,1.49-.99,2.92-.17,2.68,1.57v.03h-.01Z"/>
      <path class="st0" d="M41.35,46.88c-.17.17-.27.48-.39.94-.19.79-.42,1.79-.61,2.61-.09.39-.17.75-.26,1.12-.25,1.04-.16,1.28-.18,2.18v21.09c.02.7.9.75,1.19-.34.06-.22.1-.43.16-.67.65-2.79,1.57-6.85,2.19-9.45.12-.51.29-.7.99-.73.38-.02.93,0,1.56-.02.93-.02,1.96.06,2.77-.07.68-.11.61-.87.63-1.41v-2.7c0-.32-.02-.68-.18-.94-.43-.59-1.69-.33-2.43-.39-1.31-.02-1.97.09-1.57-1.41.29-1.14.55-2.65.92-3.77.47-1.37,2.53-.22,3.13-1.35.23-.65.1-1.78.13-2.58v-1.24c-.03-.41,0-.71-.26-.95-.24-.17-.57-.15-.88-.17h-5.16c-.66,0-1.53-.05-1.74.22l-.02.02h0Z"/>
      <path class="st0" d="M165.61,54.83c-1.02,4.21.71,6.06,4,8.46.76.59,1.54,1.19,2.12,1.95,1.35,1.58.43,4.15-1.68,4.31-1.08.08-1.9-.77-1.89-1.79-.04-.7.17-1.45.04-1.91-.22-.79-1.3-.75-2.07-.68-1.07.06-.86.96-.88,2.07v6.35c0,.56.02,1.21.57,1.5.9.42,2.23.44,3.27.43,3.56-.07,6.7-1.71,8.39-4.61.72-1.13.62-2.4.63-3.8v-3.6c0-.99-.18-1.8-.88-2.57-.96-1.15-2.16-2-3.35-2.96-.81-.65-1.65-1.54-1.73-2.52-.13-1.11.65-2.27,1.71-2.58.76-.26,1.69.04,2,.8.27.59.14,1.37.15,1.98-.07,1.04,1.24,1.47,1.9.84.18-.2.2-.53.21-.82v-7.4c0-.34-.03-.67-.18-.93-.49-.75-2.08-.5-2.93-.5-4.78.24-8.38,3.39-9.37,7.95v.04h-.03Z"/>
      <path class="st0" d="M219.1,47.91c-1.02,4.21.71,6.06,4,8.46.76.59,1.54,1.19,2.12,1.95,1.35,1.58.43,4.15-1.68,4.31-1.08.08-1.9-.77-1.89-1.79-.04-.7.17-1.45.04-1.91-.22-.79-1.3-.75-2.07-.68-1.07.06-.86.96-.88,2.07v6.35c0,.56.02,1.21.57,1.5.9.42,2.23.44,3.27.43,3.56-.07,6.7-1.71,8.39-4.61.72-1.13.62-2.4.63-3.8v-3.6c0-.99-.18-1.8-.88-2.57-.96-1.15-2.16-2-3.35-2.96-.81-.65-1.65-1.54-1.73-2.52-.13-1.11.65-2.27,1.71-2.58.76-.26,1.69.04,2,.8.27.59.14,1.37.15,1.98-.07,1.04,1.24,1.47,1.9.84.18-.2.2-.53.21-.82v-7.4c0-.34-.03-.67-.18-.93-.49-.75-2.08-.5-2.93-.5-4.78.24-8.38,3.39-9.37,7.95v.04h-.03Z"/>
      <g>
        <path class="st0" d="M199.09,56.49c-.05.12,0,.82-.02,1.12,0,.45-.02.92,0,1.35.13-.5.18-1.91,0-2.46h0Z"/>
        <path class="st0" d="M198.04,40c-2.11-.09-4.79-.02-7.03-.04h-2.05c-.7.02-.8.14-.98.85-.67,2.9-1.48,6.34-2.11,9.16-.17,2.88-.02,14.75-.06,18.22-.02.61.74.44,1.44.49,1.65-.04,3.71.12,5.27-.17,2.09-.4,3.85-1.75,4.88-3.77.73-1.39,1.02-2.98,1.37-4.52.37-1.88.58-4.04-1.05-5.35-.46-.45-.27-.77.19-1.05.99-.56,1.21-.86,1.14-2.21v-10.63c0-.62-.39-.96-1-.98h-.03.02ZM192.73,59.58c-.26,1.45-.76,3.17-2.36,3.55-.93.26-1.42.06-1.13-.95.26-1.08.72-2.97.98-4.02.06-.23.14-.47.26-.65.38-.54,1.1-.38,1.66-.06.72.45.73,1.27.6,2.08v.05h0ZM195.44,47.85c-.23,1.14-.52,2.4-1.51,3.09-.76.48-2.44.98-1.97-.54.27-1.1.74-3.07,1-4.09.06-.21.13-.39.22-.52.38-.54,1.08-.39,1.63-.08.75.44.77,1.28.64,2.11v.05-.02Z"/>
      </g>
      <path class="st0" d="M239.83,58.67c-.33-.13-.2-.47-.06-1.12.12-.5.23-1,.35-1.52.64-2.76,1.62-6.99,1.95-8.46.05-.29.17-.63-.2-.71-1.25-.13-3.17-.02-4.5-.06-.93.05-1.42-.17-1.56.56-.63,3.01-3.79,15.86-4.2,18.49,0,2.48-.02,6.84,0,8.96,0,.53.37.67.85.69.57.03,1.52.03,2.15.01.5,0,1.05-.07,1.15-.65.62-2.58,1.81-7.83,2.26-9.72.08-.3.14-.62.45-.75.55-.21,1.48-.14,2.08-.12.6.03.84.19.7.72-.31,1.39-1.25,5.41-1.84,7.99-.21,1.11-.48,1.65-.45,2.3.06.21.39.23,1.07.24h3.68c.33,0,.7-.04.99-.16.7-.31.67-.88.71-1.45v-26.59c0-.08,0-.12-.02-.08,0,.02-.03.08-.05.19-.44,1.87-1.94,8.39-2.44,10.56-.11.62-.45.77-1.13.79-.67.02-1.42.05-1.89-.09h-.02l-.03-.02Z"/>
      <path class="st0" d="M274.77,64.68c-.07,1.82,0,4.65-.02,6.6-.09,1.98,1.89,1.31,2.64.19.41-.63,1.3-.86,2.06-.82.99.03,2.04-.18,2.39.79.21.93.6,1.18,1.55,1.18.84.01,2,0,2.71,0,.33-.04,1.04.09,1.12-.27.02-3.4.05-24.8,0-28.19-.05-.23-.59-.23-.85-.24-.67,0-1.84-.02-2.51,0-.38.02-.86.02-1.01.43-.41.99-1.72,4.29-3.19,7.93-1.48,3.85-3.82,9.22-4.9,12.39v.02h.01ZM282.01,66.73c-.24.1-.68.11-1.2.11-.62-.04-1.66.12-1.58-.39.64-1.79,2.99-7.25,3.54-8.67.2-.49.17-.17.15.23-.14,1.96-.33,4.62-.47,6.6-.02.34-.05.66-.07.99-.05.63-.03.98-.35,1.11h-.02v.02Z"/>
      <path class="st0" d="M246.56,60.25c-.02,3.22-.07,8.24.02,10.87.11.57.96.33,1.54.39h8.07c.25,0,.49-.03.68-.15.4-.34.41-.8.59-1.42.14-.61.32-1.4.48-2.06.12-.72.37-1.15.12-1.64-.2-.22-.54-.2-.84-.22-1.09-.02-3.26,0-4.42-.01-.38-.03-.94.05-1.06-.39-.07-.55.25-1.5.38-2.2.21-.88.4-1.79.62-2.65.24-1.26,1.19-1.05,2.15-1.08h2.79c.53,0,.88-.07,1.11-.27.52-.55.62-1.86.87-2.72.1-.44.2-.85.27-1.19.06-.4.16-.71-.02-1-.24-.27-.67-.23-1.02-.26-.99-.02-2.64,0-3.53-.02-.63,0-1.04-.17-.89-.88.18-1.03.56-2.51.82-3.63.17-.73.38-1.4,1.29-1.43.83-.08,1.93.02,2.76-.09.72-.04.88-.64.88-1.26.02-.75,0-1.9,0-2.69-.02-.71.05-1.49-.89-1.44-1.03-.02-3.33,0-5.28,0h-2.49c-.53.04-.79-.07-1.02.27-.67,2.58-2.97,12.59-3.97,17.17v.02-.02Z"/>
    </g>
    <g>
      <path class="st0" d="M210.99,91.87c-.09,2.78,0,13.57-.03,16.55-.03.4.23.63.63.67.53.08,1.28.05,1.61-.27.16-.16.23-.37.29-.59.2-.83.55-2.38.94-4.04.35-1.5.67-2.92.98-4.26.21-.84.34-1.89.78-2.06.74-.33,1.57.37,1.78,1.1.22.83-.07,1.66-.24,2.49-.41,1.79-1.26,5.42-1.56,6.79-.04.23-.09.47,0,.65.13.23.56.24,1.3.25h3.63c.47-.03.8,0,1.09-.27.21-.24.26-.58.35-.9.31-1.31.92-3.96,1.33-5.76.24-1.11.52-2.05.62-3.13.12-1.28-.06-2.72-1.11-3.55-.21-.22-.56-.46-.5-.75.12-.39.72-.6,1.17-.94.41-.3.56-.64.6-1.13.03-2.62.02-8.55,0-11.21,0-.88-.72-1.05-1.53-1.06-2.48-.04-6.29-.02-8.8,0-.66,0-.79.31-.92.91-.54,2.43-1.97,8.35-2.41,10.51v.02-.02ZM218.99,85.94c.49-.16,1.22.09,1.59.49.54.58.38,1.61.16,2.55-.22.85-.52,1.75-1.23,2.32-.6.45-1.47.72-1.98.5-.46-.33,0-1.21.05-1.71.21-.86.47-1.93.67-2.75.19-.75.25-1.2.71-1.39h.03,0Z"/>
      <path class="st0" d="M211.4,85.47c0-2.73.09-7-.03-9.32-.08-.37-.46-.44-.79-.47-.77-.04-1.91-.05-2.73,0-.41.05-.53.13-.62.46-.55,2.39-3.79,16.64-4.35,19.1-.16.73-.1.95-.12,1.94v6.13c-.02.82.25,1.04,1.17,1.05.78,0,1.76.03,2.48-.01.53-.02.76-.12.85-.59.55-2.52,3.24-13.95,4.14-18.28v-.02h0Z"/>
      <path class="st0" d="M280.88,87.93c.28-.23.29-.64.31-.99.02-.79,0-2.04,0-2.87-.04-.42.09-1.02-.31-1.27-2.25-.19-9.01-.02-11.91-.07-.75-.02-.84.35-.85,1.13-.02.61,0,1.55-.01,2.37-.11,2.54.99,1.68,2.66,2.08.38.14.23.52.07,1.21-.69,3.04-2.19,9.34-2.69,11.7-.11,2.63-.05,7.12-.03,9.56.05.46.27.58.84.64.74.04,1.79.05,2.57,0,.45-.03.62-.15.69-.53.38-1.65,1.81-7.84,3.08-13.32.8-3.45,1.32-5.72,1.98-8.59.12-.48.1-.69.65-.75.91-.15,2.11.16,2.92-.29l.02-.02h.01Z"/>
      <path class="st0" d="M253.3,89.32c-.09,2.78,0,13.57-.03,16.55-.03.4.23.63.63.67.53.08,1.28.05,1.61-.27.16-.16.23-.37.29-.59.2-.83.55-2.38.94-4.04.35-1.5.67-2.92.98-4.26.21-.84.34-1.89.78-2.06.74-.33,1.57.37,1.78,1.1.22.83-.07,1.66-.24,2.49-.41,1.79-1.26,5.42-1.56,6.79-.04.23-.09.47,0,.65.13.23.56.24,1.3.25h3.63c.47-.03.8,0,1.09-.27.21-.24.26-.58.35-.9.31-1.31.92-3.96,1.33-5.76.24-1.11.52-2.05.62-3.13.12-1.28-.06-2.72-1.11-3.55-.21-.22-.56-.46-.5-.75.12-.39.72-.6,1.17-.94.41-.3.56-.64.6-1.13.03-2.62.02-8.55,0-11.21,0-.88-.72-1.05-1.53-1.06-2.48-.04-6.29-.02-8.8,0-.66,0-.79.31-.92.91-.54,2.43-1.97,8.35-2.41,10.51v.02-.02ZM261.3,83.38c.49-.16,1.22.09,1.59.49.54.58.38,1.61.16,2.55-.22.85-.52,1.75-1.23,2.32-.6.45-1.47.72-1.98.5-.46-.33-.01-1.21.05-1.71.21-.86.47-1.93.67-2.75.19-.75.25-1.2.71-1.39h.03Z"/>
      <path class="st0" d="M251.98,101.29c.12-.36.16-.64.16-1-.04-5.01.07-17.45-.04-20.31-.22-.66-1.43-.65-2.35-.77-4.19-.37-8.18,1.51-9.82,5.27-.39.81-.73,1.58-.71,2.41v19.98c.02.54.29.67.99.82,5.25.94,10.05-1.25,11.76-6.39v-.03.02ZM249.02,86.94c-.67,3.6-2.16,9.71-2.73,12.41-.17.8-.55,1.9-1.31,2.43-.73.53-1.89.51-2.34-.14-.55-.82-.25-1.86-.07-2.75.48-2.16,1.96-8.75,2.41-10.79.22-1,.5-2.12,1.37-2.79,1.49-.96,2.89-.11,2.67,1.59v.03h0Z"/>
      <path class="st0" d="M225.82,88.74c-.08,4.34,0,14.84-.02,17.28,0,.58.71.56,1.17.57.66,0,1.24-.24,1.35-.94.28-1.19.86-3.81,1.31-5.82.31-1.18.31-1.86.68-2.58.48-.61,1.98-.33,2.81-.42,1.69-.04,3.34-.43,4.62-1.53.48-.41.32-1.24.35-2.08-.08-4.76.15-12.09-.09-15.13-.05-.1-.13-.15-.27-.18-.18-.04-.47-.04-.88-.04h-5.72c-.99,0-1.8,0-2.25.01-.24.01-.5.04-.63.26-.74,2.53-1.88,8.21-2.43,10.59v.02h0ZM233.7,83.37c.65-.13,1.5.25,1.76.9.29.68.1,1.5-.12,2.5-.41,1.47-.49,3.33-1.9,4.22-.5.26-1.27.6-1.78.27-.23-.21-.05-.74.12-1.51.11-.45.21-.91.32-1.37.24-1.04.54-2.29.76-3.23.21-.77.24-1.63.8-1.76h.03v-.02Z"/>
      <path class="st0" d="M49.35,90.75c-.08,4.25,0,14.46-.02,16.89,0,.77,1.37.61,1.87.46.39-.13.54-.48.64-.86.4-1.64,1.34-5.91,1.87-8,.2-.73.73-.74,1.64-.77,1.4,0,2.84,0,4.12-.5.94-.38,2.07-.81,1.96-1.88-.02-3.04.04-13.78-.02-16.27-.09-.41-.46-.28-1-.32h-5.74c-.95,0-1.72-.01-2.15.01-.23.01-.48.06-.6.28-.75,2.64-2.02,8.55-2.57,10.95v.02h0ZM57.34,85c.65-.13,1.5.25,1.76.9.29.69.09,1.53-.15,2.54-.41,1.46-.52,3.31-1.93,4.18-.5.25-1.27.59-1.77.26-.23-.21-.05-.74.13-1.51.11-.45.22-.91.33-1.37.25-1.04.55-2.29.78-3.23.21-.77.26-1.62.81-1.76h.04Z"/>
      <path class="st0" d="M69.93,87.27c-.67.16-1.7.12-2.3.05-.26-.03-.49-.17-.44-.46.46-2.27,2.01-8.68,2.45-10.73.04-.2.1-.4,0-.56-.09-.15-.38-.17-.92-.18h-3.07c-2.22,0-2.16-.16-2.64,2.07-.24,1.03-.55,2.39-.77,3.35-.16.7-.21.86-.2,1.43v21.27c-.03.45.34.61.72.51.28-.08.51-.37.59-.69.52-2.16,1.77-7.67,2.24-9.64.11-.66.49-.83,1.1-.85.59-.03,1.39-.04,1.79.05.36.05.41.36.33.67-.37,1.67-1.41,6.09-1.89,8.2-.09.38-.17.75-.26,1.12-.15.69-.27,1.02.03,1.13,1.1.17,2.84.04,4.07.08.79-.05,1.9.25,2.11-.77.43-1.72.93-3.85,1.27-5.51,0-3.32.13-18.98-.05-22.18-.5-.51-1.19.02-1.27.66-.5,2.13-2,8.68-2.41,10.41-.07.26-.17.45-.44.54h-.02l-.02.03Z"/>
      <path class="st0" d="M75.03,97.48c-.05,2.74,0,8.55-.01,10.6-.02.49.18.78.7.8.71.05,1.79.07,2.55,0,.37-.06.45-.16.52-.45.64-2.76,4.69-20.31,5.23-22.63.18-1.11.05-2.67.09-3.9,0-1.08.02-1.72-1.25-1.69-.76-.02-1.92,0-2.66,0-.37.02-.8-.03-1.11.16-.14.11-.18.29-.23.47-.39,1.66-1.74,7.55-2.73,11.79-.54,2.43-.86,3.51-1.09,4.83h0v.02Z"/>
      <path class="st0" d="M91.6,82.81c-1.17-.13-3.76-.04-4.92-.06-.62.04-.94-.06-1.2.37-.68,2.66-2.4,10.04-2.99,12.98-.04,3.96,0,12.05-.01,14.63,0,.2,0,.4.08.54.05.09.14.13.29.16.21.03.54.03,1.01.03h6.21c.77,0,1.31.03,1.58-.1.39-.21.31-.74.35-1.13,0-.77.01-1.99,0-2.78-.01-.3-.02-.64-.16-.9-.14-.37-.95-.39-1.55-.38-1.15-.01-2.31.02-3.28-.02-.43-.04-.52-.09-.47-.41.56-2.48,4.57-19.76,5.19-22.49.03-.19.1-.36-.11-.44h-.02Z"/>
      <path class="st0" d="M104.05,81.77c-.46.73-.57,1.98-.82,2.85-.06.24-.11.46-.16.69-.25,1.04-.15,1.24-.17,2.12v22.31c.02.53.54.42,1.05.47,1.26,0,2.75.06,4.02-.22,2.97-.49,5.62-3.54,6.44-6.82.16-.6.1-1.1.11-1.81v-10.9c-.02-2.51.04-6.86-.02-8.34-.1-.9-2.8-.55-3.8-.63h-4.7c-.62.03-1.69-.11-1.95.27l-.02.02h.02ZM111.28,90.06c-.64,2.96-1.83,7.73-2.4,10.19-.43,1.93-1.08,4.56-3.54,4.5-.39,0-.53-.22-.41-.6.61-2.57,3.32-13.97,3.95-16.59.12-1.06,1.89-.6,2.3.15.36.7.23,1.57.12,2.31v.03h-.02Z"/>
      <path class="st0" d="M115.7,86.23c-.09,2.88,0,14.5-.03,17.37,0,.25,0,.47.23.56.18.07.51.07,1.05.07h6.77c.46,0,.9-.11,1.05-.58.37-1.1.65-2.62.9-3.69.18-.88.16-1.24-1.07-1.21h-3.39c-.59-.05-1.67.17-1.87-.35-.07-.28.02-.62.08-.93.25-1.1.63-2.81.92-3.96.19-.79.5-1.08,1.48-1.07,1.14-.02,2.47.01,3.63-.02,1.05.02,1.26-.59,1.45-1.43.22-1.04.63-2.39.71-3.39.03-.62-.66-.6-1.12-.62-.97-.02-2.6,0-3.49-.02-.63,0-1.08-.13-.94-.85.23-1.24.6-2.71.9-3.97.18-.66.39-.98.93-1.08.63-.12,1.3-.07,1.95-.08,1.39-.01,2.12.09,2.05-1.59,0-.82.01-2.07-.01-2.84-.02-.53-.09-.95-.64-1-1.58-.08-4.66,0-6.92-.03-.59.02-1.78-.06-2.02.14-.26.2-.3.58-.39.9-.54,2.42-1.8,7.61-2.21,9.66v.02h0Z"/>
      <path class="st0" d="M136.52,82.81c-1.59-.14-3.7-.04-5.36-.05-.81.02-.74.17-.89.76-.08.35-.16.68-.24,1.05-1.2,5.27-4.55,19.55-5.09,22.08-.06.57-.04,1.19-.04,1.95.03.88-.09,1.85.12,2.56.15.34.53.29.85.31h9.27c.91,0,1.46.02,1.71-.26.13-.15.17-.34.2-.55.08-.58.07-1.71.07-2.7-.02-1.26.07-1.84-1.58-1.78h-3.1c-.27,0-.89.02-.98-.18.44-2.66,4.58-19.82,5.19-22.74.03-.19.1-.36-.11-.44h-.02Z"/>
      <path class="st0" d="M136.75,88.24c-.07,3.98,0,12.64-.03,15.32-.09.84.69.8,1.35.81.72,0,1.33-.17,1.46-.95.29-1.19.88-3.81,1.35-5.82.22-.93.39-1.73.52-2.21.06-.2.15-.4.32-.52.43-.33,1.58-.23,2.24-.26,1.11-.01,2.1-.1,3.07-.44.94-.35,2.02-.75,1.9-1.81v-16.07c0-.23,0-.44-.18-.55-.14-.07-.4-.08-.83-.09h-6.53c-.93.05-1.52-.14-1.8.31-.76,2.84-2.29,9.75-2.86,12.28h.02ZM145.05,81.14c.65-.13,1.5.25,1.76.9.29.69.09,1.53-.15,2.54-.41,1.46-.52,3.31-1.93,4.18-.5.25-1.27.59-1.77.26-.23-.21-.05-.74.13-1.51.11-.45.22-.91.33-1.37.25-1.04.55-2.29.78-3.23.21-.77.26-1.62.81-1.76h.04Z"/>
      <path class="st0" d="M159.08,91.37c-.67.16-1.7.12-2.3.05-.26-.03-.49-.17-.44-.46.46-2.27,2.01-8.68,2.45-10.73.04-.21.1-.42,0-.57-.11-.15-.45-.16-1.08-.17h-3.82c-.22,0-.43,0-.63.02-.59.04-.67.23-.82.85-.09.39-.18.76-.27,1.17-.57,2.44-1.22,5.28-1.77,7.67-.2.97-.35,1.24-.36,2.01,0,2.06-.02,13.64,0,16.49.03.65,1.08.49,1.58.47.54-.05.81-.33.9-.82.46-1.96,1.85-8.04,2.26-9.72.1-.36.24-.54.62-.62.55-.1,1.55-.09,2.09-.03.35.06.52.14.5.47-.33,1.72-1.3,5.63-1.91,8.38-.09.39-.18.76-.26,1.13-.16.72-.29,1.06.02,1.17.19.07.55.08,1.08.08h3.54c.77,0,1.41.06,1.58-.88.42-1.78.95-3.98,1.3-5.7,0-3.32.13-18.68-.04-21.88-.24-.3-.79-.26-1.06.04-.15.15-.23.39-.28.62-.5,2.13-2,8.68-2.41,10.41-.07.26-.17.45-.44.54h-.03Z"/>
      <path class="st0" d="M174.28,77.34c-.25-.33-.72-.33-1.11-.34h-3.11c-.53.04-1.14-.08-1.26.41-.72,3.02-3.67,15.84-4.27,18.47-.09.63-.04.9-.05,1.86.06,2.28-.11,5.69.07,7.54.06.31.54.41.92.42.6.03,1.5.02,2.1.01.28,0,.78-.02.94-.15,1.21-4.19,4.36-18.85,5.84-24.87.14-.48.17-.94.17-1.52,0-.58.07-1.3-.22-1.8l-.02-.02h0Z"/>
      <path class="st0" d="M170.2,103.68c-.07,1.79,0,4.57-.02,6.47-.11,1.3,1.02,1.55,1.97.88.7-.47.9-1.25,1.81-1.45.82-.15,2.07-.16,2.75.03.87.24.54,1.5,1.42,1.72.92.21,2.18.07,3.02.11.32-.04.98.08,1.05-.3.04-3.27,0-24.63,0-27.92,0-.08,0-.16-.02-.22-.03-.24-.49-.26-.73-.27-.62-.02-1.7-.03-2.29,0-.28.02-.6.05-.75.3-.56,1.25-1.76,4.38-3.31,8.2-1.49,3.87-3.82,9.22-4.91,12.41v.04ZM177.51,105.58c-.24.1-.68.11-1.2.11-.62-.04-1.66.12-1.58-.39.64-1.79,2.99-7.25,3.54-8.67.2-.49.17-.17.15.23-.14,1.96-.33,4.62-.47,6.6-.02.34-.05.66-.07.99-.05.63-.03.98-.35,1.11h-.02v.02Z"/>
      <path class="st0" d="M189.68,102.2c-.07,1.79,0,4.57-.02,6.47-.11,1.3,1.02,1.55,1.97.88.7-.47.9-1.25,1.81-1.45.82-.15,2.07-.16,2.75.03.87.24.54,1.5,1.42,1.72.92.21,2.18.07,3.02.11.32-.04.98.08,1.05-.3.04-3.27,0-24.63,0-27.92,0-.08,0-.16-.02-.22-.03-.24-.49-.26-.73-.27-.62-.02-1.7-.03-2.29,0-.28.02-.6.05-.75.3-.56,1.25-1.76,4.38-3.31,8.2-1.49,3.87-3.82,9.22-4.91,12.41v.04ZM196.99,104.09c-.24.1-.68.11-1.2.11-.62-.04-1.66.12-1.58-.39.64-1.79,2.99-7.25,3.54-8.67.2-.49.17-.17.15.23-.14,1.96-.33,4.62-.47,6.6-.02.34-.05.66-.07.99-.05.63-.03.98-.35,1.11h-.02v.02Z"/>
      <path class="st0" d="M99.39,75.71c-.29.04-.46.14-.55.39-2.4,6.02-8.37,20.77-9.38,23.45-.1.55-.06,1.06-.08,1.81v1.63c.02.42.03.83.34,1.11.63.44,2.07.34,2.72.02.58-.27.81-.85,1.27-1.24.61-.51,1.34-.45,2.26-.46.55.01,1.31-.01,1.66.45.29.38.29.95.73,1.24.44.34,1.4.29,2.06.28.27-.01.56,0,.79-.11.15-.08.14-.24.15-.4,0-3.4.02-20.78,0-27.83,0-.53-1.49-.35-1.95-.32h-.02v-.02ZM97.99,98.5c-.24.1-.68.11-1.2.11-.62-.04-1.66.12-1.58-.39.64-1.79,2.99-7.25,3.54-8.67.2-.49.17-.17.15.23-.14,1.96-.33,4.62-.47,6.6-.02.34-.05.66-.07.99-.05.63-.03.98-.35,1.11h-.02v.02Z"/>
    </g>
  </g>
  <g>
    <path class="st0" d="M147.55,14.98c-.07-.06-.06-.26-.07-.38-.04-1.12,0-4.29-.07-5.8-.06-.89-.56-.81-1.62-.83h-3.32c-.74.05-1.54-.17-1.51.55.06,2.16.42,11.74.57,15.97.04,1.05-.35,2.1-.52,3.14-.25,1.32-.11,3.04-.15,4.49v2.75c0,.68-.02,1.16.12,1.43.18.33.6.34.94.37.82.02,1.89.06,2.72-.04.5-.04.7-.43.78-.88.52-2.23,1.89-8.2,2.36-10.16.19-.74.42-1.06.81-1.88.88-1.79,1.95-3.97,2.86-5.81.29-.58.56-1.13.83-1.7.41-.76.44-1.24.44-2.18v-3.08c-.05-.84.15-1.98-.24-2.58-.34-.43-.93-.4-1.38-.12-.35.22-.57.61-.75.99-.72,1.52-2.12,4.53-2.58,5.46-.07.1-.13.28-.22.29h0Z"/>
    <path class="st0" d="M153.69,9.52c-.14.33-.19.59-.2.93v21.49c-.04.92,1.22.77,2.14.86,4.14.22,7.98-1.83,9.54-5.53.21-.53.16-.82.17-1.5v-1.66c0-5.19,0-13.96,0-19.23,0-.13-.03-.24-.1-.35-.12-.18-.4-.28-.86-.35-.9-.12-1.98-.13-2.92-.04-3.54.26-6.37,2.3-7.75,5.35v.02h-.02ZM162.83,11.84c-.72,3.62-2.26,9.73-2.86,12.44-.2.86-.62,2.03-1.51,2.52-.69.39-1.65.35-2.1-.18-.64-.82-.3-1.92-.1-2.83.51-2.16,2.05-8.76,2.53-10.8.23-.99.51-2.09,1.37-2.76,1.49-.99,2.92-.17,2.68,1.57v.03h0Z"/>
    <path class="st0" d="M215.23,16.44c-.14.33-.19.59-.2.93v21.49c-.04.92,1.22.77,2.14.86,4.14.22,7.98-1.83,9.54-5.53.21-.53.16-.82.17-1.5v-1.66c0-5.19,0-13.96,0-19.23,0-.13-.03-.24-.1-.35-.12-.18-.4-.28-.86-.35-.9-.12-1.98-.13-2.92-.04-3.54.26-6.37,2.3-7.75,5.35v.02h-.02ZM224.37,18.76c-.72,3.62-2.26,9.73-2.86,12.44-.2.86-.62,2.03-1.51,2.52-.69.39-1.65.35-2.1-.18-.64-.82-.3-1.92-.1-2.83.51-2.16,2.05-8.76,2.53-10.8.23-.99.51-2.09,1.37-2.76,1.49-.99,2.92-.17,2.68,1.57v.03h0Z"/>
    <path class="st0" d="M228.08,10.53c-.14.33-.19.59-.2.93v21.49c-.04.92,1.22.77,2.14.86,4.14.22,7.98-1.83,9.54-5.53.21-.53.16-.82.17-1.5v-1.66c0-5.19,0-13.96,0-19.23,0-.13-.03-.24-.1-.35-.12-.18-.4-.28-.86-.35-.9-.12-1.98-.13-2.92-.04-3.54.26-6.37,2.3-7.75,5.35v.02h-.02ZM237.21,12.85c-.72,3.62-2.26,9.73-2.86,12.44-.2.86-.62,2.03-1.51,2.52-.69.39-1.65.35-2.1-.18-.64-.82-.3-1.92-.1-2.83.51-2.16,2.05-8.76,2.53-10.8.23-.99.51-2.09,1.37-2.76,1.49-.99,2.92-.17,2.68,1.57v.03h0Z"/>
    <path class="st0" d="M170.83,30.33c-1.73-.14-1.35-2.18-1.01-3.38,1.21-5.48,3.98-16.82,4.39-19.26-.05-.14-.29-.16-.86-.17h-3.48c-.43,0-.84,0-1.25.02-.62.05-.71.3-.89,1.1-.32,1.4-.67,2.89-.99,4.29-.23,1.17-.59,2.11-.6,3.13v19.11c-.05.62.6.75,1.3.89,3.96.73,8.72-.66,10.49-4.26.17-2.38,0-18.82.05-24.04,0-.1-.02-.08-.04.02-.53,1.95-3.91,17.54-4.89,20.81-.32.86-1.14,1.8-2.18,1.73h-.04Z"/>
    <path class="st0" d="M181.07,8.94c-.23.21-.27.56-.36.87-.43,2.05-1.53,6.23-1.93,8.59-.03,2.51,0,15.08,0,18.29,0,.23,0,.47.2.6.46.28,1.3.24,1.67-.25.13-.18.18-.4.24-.63.21-.9.57-2.48.95-4.12.35-1.49.67-2.88.96-4.16.22-.91.29-1.56.63-1.83.56-.43,1.35.05,1.69.57.43.68.28,1.43.12,2.23-.46,2.06-1.36,5.84-1.72,7.49-.2.84.16.9,1.22.9,1.15,0,2.58,0,3.76,0,.98,0,1.21-.23,1.41-1.21.43-1.85.9-3.88,1.32-5.72.43-2.07,1.32-4.39-.13-6.25-.26-.37-.85-.73-.82-1.18.1-.41.71-.63,1.14-.97.4-.31.52-.68.54-1.16.02-2.46,0-8.39,0-10.86,0-.28,0-.59-.12-.81-.33-.56-.9-.49-1.57-.54-.57-.02-1.25,0-2.22-.01h-5.06c-.69.02-1.72-.06-1.89.16h-.03ZM188.21,16.66c-.23,1.14-.52,2.4-1.51,3.09-.76.48-2.44.98-1.97-.54.27-1.1.74-3.07,1-4.09.06-.21.13-.39.22-.52.38-.54,1.08-.39,1.63-.08.75.44.77,1.28.64,2.11v.05-.02Z"/>
    <path class="st0" d="M203.15,4.43c-.23.21-.27.56-.36.87-.43,2.05-1.53,6.23-1.93,8.59-.03,2.51,0,15.08,0,18.29,0,.23,0,.47.2.6.46.28,1.3.24,1.67-.25.13-.18.18-.4.24-.63.21-.9.57-2.48.95-4.12.35-1.49.67-2.88.96-4.16.22-.91.29-1.56.63-1.83.56-.43,1.35.05,1.69.57.43.68.28,1.43.12,2.23-.46,2.06-1.36,5.84-1.72,7.49-.2.84.16.9,1.22.9,1.15,0,2.58,0,3.76,0,.98,0,1.21-.23,1.41-1.21.43-1.85.9-3.88,1.32-5.72.43-2.07,1.32-4.39-.13-6.25-.26-.37-.85-.73-.82-1.18.1-.41.71-.63,1.14-.97.4-.31.52-.68.54-1.16.02-2.46,0-8.39,0-10.86,0-.28,0-.59-.12-.81-.33-.56-.9-.49-1.57-.54-.57-.02-1.25,0-2.22-.01h-5.06c-.69.02-1.72-.06-1.89.16h-.03ZM210.29,12.15c-.23,1.14-.52,2.4-1.51,3.09-.76.48-2.44.98-1.97-.54.27-1.1.74-3.07,1-4.09.06-.21.13-.39.22-.52.38-.54,1.08-.39,1.63-.08.75.44.77,1.28.64,2.11v.05-.02Z"/>
    <path class="st0" d="M251.1,26.21c0-3.54.6-11.27.51-13.8-.04-.09-.11-.15-.22-.18-.26-.07-.8-.05-1.62-.05h-6.49c-.81,0-1.13.02-1.33.58-.31.94-.49,2.01-.73,2.98-.2.94-.45,1.68-.48,2.47.04,3.37-.08,19.58.04,22.53,1.12-4.44,2.6-11.25,3.73-16,.28-1.12.44-2.05.69-2.88-.06,1.92-.66,14.56-.81,18.2-.02.55-.06.75.49.8.19,0,.4.03.61.02h3.67c.35,0,.91,0,1.08-.09.2-.08.27-.22.35-.41.75-1.72,6.24-15.03,7.74-18.53.04.1-.36,1.58-.83,3.68-1.14,4.98-2.96,12.74-3.44,14.96-.03.35.16.34.58.38,1.06.04,3.26,0,4.37,0,.87-.03.94-.02.95-.5-.01-3.27.02-24.48,0-27.87.02-.51-1.75-.32-2.29-.31-.59.04-.82.28-1,.77-1.12,2.61-4.89,11.94-5.53,13.22h0l-.04.02Z"/>
    <path class="st0" d="M125.06,19.93c.66-3.23,2.57-11,2.99-13.13.02-.48-.39-.35-1.14-.4h-2.09c-.83,0-1.65-.03-2.45.03-.67-.02-.67.66-.84,1.31-.61,2.66-1.82,7.83-2.48,10.74-.1.42-.1.65-.1,1.06.02,2.45-.04,12.55.02,15.14.05.64,1.77.43,2.17.35.33-.09.45-.27.53-.57.5-2.12,2.54-11.01,2.86-12.33.15-.7.12,1.24.2,2.58.12,3.17.31,8.16.38,9.71.01.19.02.38.13.51.4.3.92.15,1.62.19h2.4c.77-.05,1.58.17,1.55-.53-.06-2.08-.36-10.16-.49-14.02-.02-.64-.03-.8.36-1.5.68-1.29,1.6-2.66,2.18-3.96.14-.36.14-.71.15-1.11v-6.18c0-.69-.04-1.1-.13-1.2-.15-.14-.36.32-.47.47-1.4,2.4-6.56,11.62-7.35,12.84h0Z"/>
    <path class="st0" d="M103.73,26.27c.12-.36.16-.64.16-1-.04-5.01.07-17.45-.04-20.31-.22-.66-1.43-.65-2.35-.77-4.19-.37-8.18,1.51-9.82,5.27-.39.81-.73,1.58-.71,2.41v19.98c.02.54.29.67.99.82,5.25.94,10.05-1.25,11.76-6.39v-.03.02ZM100.77,11.93c-.67,3.6-2.16,9.71-2.73,12.41-.17.8-.55,1.9-1.31,2.43-.73.53-1.89.51-2.34-.14-.55-.82-.25-1.86-.07-2.75.48-2.16,1.96-8.75,2.41-10.79.22-1,.5-2.12,1.37-2.79,1.49-.96,2.89-.11,2.67,1.59v.03h0Z"/>
    <path class="st0" d="M117.72,29.57c.12-.36.16-.64.16-1-.04-5.01.07-17.45-.04-20.31-.22-.66-1.43-.65-2.35-.77-4.19-.37-8.18,1.51-9.82,5.27-.39.81-.73,1.58-.71,2.41v19.98c.02.54.29.67.99.82,5.25.94,10.05-1.25,11.76-6.39v-.03.02ZM114.77,15.23c-.67,3.6-2.16,9.71-2.73,12.41-.17.8-.55,1.9-1.31,2.43-.73.53-1.89.51-2.34-.14-.55-.82-.25-1.86-.07-2.75.48-2.16,1.96-8.75,2.41-10.79.22-1,.5-2.12,1.37-2.79,1.49-.96,2.89-.11,2.67,1.59v.03h0Z"/>
    <g>
      <path class="st0" d="M89.9,25.47c-.05.12,0,.82-.02,1.12.01.45-.02.92.01,1.35.13-.5.18-1.91.01-2.46h0Z"/>
      <path class="st0" d="M88.85,8.98c-2.11-.09-4.79-.02-7.03-.04h-2.05c-.7.02-.8.14-.98.85-.67,2.9-1.48,6.34-2.11,9.16-.17,2.88-.02,14.75-.06,18.22-.02.61.74.44,1.44.49,1.65-.04,3.71.12,5.27-.17,2.09-.4,3.85-1.75,4.88-3.77.73-1.39,1.02-2.98,1.37-4.52.37-1.88.58-4.04-1.05-5.35-.46-.45-.27-.77.19-1.05.99-.56,1.21-.86,1.14-2.21v-10.63c.01-.62-.39-.96-1-.98h-.03.02ZM83.54,28.55c-.26,1.45-.76,3.17-2.36,3.55-.93.26-1.42.06-1.13-.95.26-1.08.72-2.97.98-4.02.06-.23.14-.47.26-.65.38-.54,1.1-.38,1.66-.06.72.45.73,1.27.6,2.08v.05h-.01ZM86.25,16.82c-.23,1.14-.52,2.4-1.51,3.09-.76.48-2.44.98-1.97-.54.27-1.1.74-3.07,1-4.09.06-.21.13-.39.22-.52.38-.54,1.08-.39,1.63-.08.75.44.77,1.28.64,2.11v.05-.02Z"/>
    </g>
  </g>
</svg>